<svg xmlns="http://www.w3.org/2000/svg" width="162" height="54" viewBox="0 0 162 54" fill="none" id="svg-replaced-0" class="custom-logo style-svg replaced-svg svg-replaced-0">
<path fill-rule="evenodd" clip-rule="evenodd" d="M84.2312 35.5408L83.8128 33.4183C83.7518 33.1077 83.5591 32.8368 83.2824 32.6723C83.0057 32.5079 82.6707 32.4651 82.3601 32.5545C81.907 32.6845 81.3108 32.7535 80.636 32.7535C79.6186 32.7535 78.8297 32.4473 78.3552 31.8684C78.0518 31.498 77.7708 30.9509 77.7708 29.4671V20.1976H82.6575C83.292 20.1976 83.8064 19.6955 83.8064 19.0761V16.8718C83.8064 16.2525 83.292 15.7503 82.6575 15.7503H77.7708V10.5024C77.7708 9.883 77.2565 9.38086 76.622 9.38086H74.2387C73.604 9.38086 73.0896 9.883 73.0896 10.5024V15.7503H70.2233C69.5886 15.7503 69.0742 16.2525 69.0742 16.8718V19.0761C69.0742 19.6955 69.5886 20.1976 70.2233 20.1976H73.0896V29.3853C73.0896 31.7253 73.5672 33.3513 74.6357 34.6548C75.9532 36.2728 78.1402 37.2007 80.636 37.2007C81.4307 37.2007 82.6553 37.0805 83.4662 36.8167C84.0131 36.6388 84.3399 36.0932 84.2312 35.5408Z" fill="#333333"></path>
<path fill-rule="evenodd" clip-rule="evenodd" d="M91.1618 31.5998C89.6189 30.5406 88.6982 28.6438 88.6982 26.5258C88.6982 24.5222 89.5017 22.7269 90.8966 21.6056C91.9457 20.7751 93.3245 20.2985 94.6801 20.2985C97.5813 20.2985 99.5491 22.2057 100.253 23.1869V29.5634C98.9603 31.5661 96.9113 32.7528 94.7205 32.7528C93.4972 32.7528 92.297 32.363 91.1618 31.5998ZM103.589 16.2525H101.371C100.759 16.2525 100.263 16.7472 100.263 17.3576V17.4977C98.6301 16.4346 96.675 15.8506 94.6369 15.8506C92.2721 15.8506 89.8856 16.6887 88.0737 18.1627C85.6462 20.2111 84.2539 23.2592 84.2539 26.5256C84.2539 30.1392 85.852 33.3272 88.6315 35.2674C90.4155 36.5323 92.5338 37.2007 94.758 37.2007C96.7934 37.2007 98.7186 36.612 100.263 35.5624V35.6935C100.263 36.3039 100.759 36.7986 101.371 36.7986H103.589C104.201 36.7986 104.698 36.3039 104.698 35.6935V17.3576C104.698 16.7472 104.201 16.2525 103.589 16.2525Z" fill="#333333"></path>
<path fill-rule="evenodd" clip-rule="evenodd" d="M161.863 32.0158C161.44 30.8296 160.159 30.2199 159.004 30.6551C153.394 32.7652 148.455 33.1714 143.904 31.8956C139.894 30.7714 136.691 28.5341 133.594 26.3701C128.491 22.8041 123.213 19.1167 116.096 23.0246C115.01 23.6206 114.601 25.0068 115.182 26.121C115.763 27.2351 117.113 27.6548 118.199 27.0593C122.725 24.574 125.73 26.4105 131.086 30.1524C134.327 32.417 138.001 34.984 142.729 36.3096C144.846 36.903 147.016 37.2005 149.258 37.2005C152.812 37.2005 156.546 36.4528 160.538 34.9511C161.693 34.5166 162.287 33.2023 161.863 32.0158Z" fill="#333333"></path>
<path fill-rule="evenodd" clip-rule="evenodd" d="M21.0893 2.62491C18.2082 0.477761 14.7526 -0.395472 11.3595 0.166047C7.93644 0.732545 4.88062 2.71734 2.75524 5.75483C2.36931 6.30617 2.0119 6.90384 1.69308 7.5316C1.69014 7.53593 1.68742 7.54048 1.6849 7.54524L1.62135 7.67057C1.61904 7.67512 1.61715 7.67988 1.61547 7.68486C1.29729 8.31175 1.02461 8.95531 0.804587 9.59757C-0.40503 13.1301 -0.24646 16.8529 1.25135 20.0798C2.73595 23.2788 5.3987 25.7134 8.74942 26.9354C10.3691 27.5259 11.9863 27.8199 13.5503 27.8199C15.7317 27.8199 17.8095 27.2482 19.6456 26.1139C19.8839 25.9126 20.0538 25.566 19.8145 25.1946L17.9599 22.4636C17.6845 22.0718 17.2522 22.1937 17.0422 22.3229C17.0368 22.3251 17.0313 22.3279 17.0261 22.3309C14.9523 23.5713 12.5828 23.7628 10.1736 22.8842C7.92616 22.0644 6.18295 20.4255 5.2653 18.2699C4.35185 16.1243 4.30633 13.6057 5.13777 11.1778C5.2976 10.7107 5.49602 10.2411 5.72696 9.78309C5.95411 9.34301 6.20791 8.92198 6.481 8.53168C7.94148 6.44428 9.97372 5.04871 12.2031 4.60213C14.443 4.15383 16.7408 4.69976 18.673 6.13949C20.7445 7.68378 21.9413 9.80322 22.1337 12.2688C22.1341 12.2749 22.1349 12.2807 22.1364 12.2865C22.1527 12.5383 22.3019 12.9749 22.7728 12.9855L26.0052 13.0044C26.4339 12.9959 26.6135 12.6545 26.6386 12.3199C26.3951 8.55355 24.4243 5.1104 21.0893 2.62491Z" fill="#333333"></path>
<path fill-rule="evenodd" clip-rule="evenodd" d="M39.1422 33.1427C37.5122 30.8246 34.8739 29.4952 31.9038 29.4952C29.9783 29.4952 28.1739 30.0384 26.7321 31.0094V16.9878C26.7321 16.3599 26.2484 15.8506 25.6518 15.8506H23.4107C22.8139 15.8506 22.3302 16.3599 22.3302 16.9878V49.0822C20.5584 49.3885 19.2051 51.0032 19.2051 52.9549C19.2051 52.9875 19.2089 53.0192 19.2097 53.0516H24.174V53.0505H25.6518C26.2484 53.0505 26.7321 52.5414 26.7321 51.9132V37.1172C27.9386 35.1067 29.7513 34.0045 31.8644 34.0045C33.4329 34.0045 34.8135 34.7443 35.6568 36.0416C36.0872 36.6928 36.4854 37.6261 36.4854 40.0273V49.0827C34.7149 49.3899 33.3628 51.0041 33.3628 52.9549C33.3628 52.9875 33.3666 53.0192 33.3675 53.0516H38.3315V53.0505H39.8072C40.404 53.0505 40.8877 52.5414 40.8877 51.9132V39.8615C40.8877 36.8118 40.3798 34.8622 39.1422 33.1427Z" fill="#333333"></path>
<path fill-rule="evenodd" clip-rule="evenodd" d="M123.393 33.1427C121.762 30.8246 119.123 29.4952 116.151 29.4952C114.225 29.4952 112.419 30.0384 110.977 31.0094V16.9878C110.977 16.3599 110.493 15.8506 109.896 15.8506H107.654C107.057 15.8506 106.573 16.3599 106.573 16.9878V49.084C104.805 49.395 103.457 51.0074 103.457 52.9549C103.457 52.9875 103.461 53.0192 103.462 53.0516H108.428V53.0505H109.896C110.493 53.0505 110.977 52.5414 110.977 51.9132V37.1172C112.184 35.1067 113.997 34.0045 116.112 34.0045C117.681 34.0045 119.062 34.7443 119.906 36.0416C120.337 36.6928 120.735 37.6261 120.735 40.0273V49.0844C118.969 49.3963 117.622 51.0078 117.622 52.9549C117.622 52.9875 117.626 53.0192 117.626 53.0516H122.593V53.0505H124.059C124.656 53.0505 125.14 52.5414 125.14 51.9132V39.8615C125.14 36.812 124.632 34.8624 123.393 33.1427Z" fill="#333333"></path>
<path fill-rule="evenodd" clip-rule="evenodd" d="M33.5206 16.6234C33.8122 15.417 34.3548 14.4371 35.1658 13.6445C36.1525 12.6804 37.4397 12.2116 39.1013 12.2116C39.8462 12.2116 40.5389 12.3589 41.16 12.6495C41.7841 12.9412 42.3569 13.3514 42.8165 13.835C43.2644 14.3063 43.6138 14.858 43.855 15.4742C44.0034 15.8532 44.1144 16.2499 44.1868 16.6596L33.5206 16.6234ZM38.983 24.9428C37.3099 24.9428 35.9679 24.4614 34.8802 23.4711C33.9614 22.6347 33.4071 21.5233 33.1969 20.0888H47.3475C48.1033 20.0888 48.6311 19.5566 48.6311 18.7948V17.7262C48.6311 16.3438 48.2083 15.0728 47.7949 14.012C47.3422 12.8503 46.674 11.7752 45.8091 10.8162C44.9582 9.87261 43.9412 9.14116 42.6997 8.58031C41.5002 8.0384 40.1308 7.76367 38.6296 7.76367C37.1908 7.76367 35.8413 8.02226 34.6184 8.53234C33.373 9.05167 32.2753 9.78505 31.3561 10.7114C31.0724 10.9973 30.8103 11.3011 30.5645 11.6197C30.5506 11.6369 30.5378 11.655 30.5241 11.6724C30.477 11.7344 30.4287 11.7955 30.3828 11.8589C29.0071 13.6723 28.1875 15.9286 28.1875 18.3785C28.1875 20.8672 29.0327 23.1566 30.4479 24.9844C30.8114 25.4848 31.2109 25.9385 31.6553 26.3472C32.6164 27.2318 33.7548 27.9211 35.039 28.3957C36.3463 28.8789 37.6365 29.1138 38.983 29.1138C38.9996 29.1138 39.0161 29.113 39.0325 29.1125V29.1132C43.6486 29.1 46.1963 26.981 47.5264 25.1905C47.7082 24.9366 47.7846 24.6238 47.7366 24.3323C47.6897 24.0487 47.5317 23.8035 47.2707 23.6176L45.4992 22.4279C45.1927 22.2094 44.5868 21.9467 43.9749 22.6448C42.5701 24.2331 41.0522 24.9433 39.0581 24.9433H39.0415L38.983 24.9428Z" fill="#333333"></path>
<path fill-rule="evenodd" clip-rule="evenodd" d="M55.2023 24.7103C55.4939 23.5039 56.0364 22.524 56.8475 21.7314C57.8342 20.7673 59.1214 20.2985 60.7829 20.2985C61.5278 20.2985 62.2205 20.4458 62.8416 20.7364C63.4658 21.0281 64.0385 21.4383 64.4982 21.9219C64.946 22.3932 65.2955 22.9449 65.5366 23.5612C65.6851 23.9402 65.796 24.3368 65.8685 24.7465L55.2023 24.7103ZM60.6647 33.0299C58.9916 33.0299 57.6495 32.5485 56.5619 31.5582C55.6431 30.7215 55.0888 29.6102 54.8786 28.1756H69.0292C69.785 28.1756 70.3128 27.6436 70.3128 26.8818V25.8132C70.3128 24.4308 69.89 23.1598 69.4766 22.0989C69.0239 20.9372 68.3556 19.8622 67.4908 18.9031C66.6399 17.9595 65.6229 17.2281 64.3813 16.6672C63.1819 16.1253 61.8125 15.8506 60.3112 15.8506C58.8725 15.8506 57.523 16.1092 56.3 16.6193C55.0546 17.1386 53.957 17.872 53.0377 18.7984C52.7541 19.0843 52.492 19.388 52.2461 19.7067C52.2322 19.7239 52.2194 19.7419 52.2058 19.7594C52.1586 19.8213 52.1104 19.8824 52.0645 19.9459C50.6889 21.7593 49.8691 24.0156 49.8691 26.4655C49.8691 28.9542 50.7143 31.2437 52.1296 33.0714C52.4931 33.5716 52.8926 34.0256 53.337 34.4345C54.298 35.319 55.4365 36.008 56.7207 36.4826C58.0279 36.9658 59.3181 37.2007 60.6647 37.2007C60.6813 37.2007 60.6977 37.1999 60.7142 37.1997V37.2001C65.3302 37.1874 67.878 35.0681 69.2081 33.2778C69.3899 33.0237 69.4663 32.7107 69.4183 32.4194C69.3713 32.1356 69.2134 31.8908 68.9524 31.7047L67.1809 30.515C66.8744 30.2964 66.2685 30.0337 65.6566 30.7319C64.2518 32.3202 62.7339 33.0304 60.7398 33.0304H60.7231L60.6647 33.0299Z" fill="#333333"></path>
</svg>