<svg width="150" height="35" viewBox="0 0 150 35" fill="none" xmlns="http://www.w3.org/2000/svg">
<path d="M30.1861 10.12C29.6928 10.12 29.2594 10.0067 28.8861 9.78C28.5194 9.55333 28.2328 9.24333 28.0261 8.85C27.8261 8.45667 27.7261 8.01 27.7261 7.51C27.7261 7.01 27.8294 6.56667 28.0361 6.18C28.2428 5.78667 28.5294 5.48 28.8961 5.26C29.2628 5.03333 29.6961 4.92 30.1961 4.92C30.6028 4.92 30.9628 5.00333 31.2761 5.17C31.5894 5.33667 31.8328 5.57 32.0061 5.87V2.8H32.8461V10H32.0861L32.0061 9.18C31.8461 9.42 31.6161 9.63667 31.3161 9.83C31.0161 10.0233 30.6394 10.12 30.1861 10.12ZM30.2761 9.39C30.6094 9.39 30.9028 9.31333 31.1561 9.16C31.4161 9 31.6161 8.78 31.7561 8.5C31.9028 8.22 31.9761 7.89333 31.9761 7.52C31.9761 7.14667 31.9028 6.82 31.7561 6.54C31.6161 6.26 31.4161 6.04333 31.1561 5.89C30.9028 5.73 30.6094 5.65 30.2761 5.65C29.9494 5.65 29.6561 5.73 29.3961 5.89C29.1428 6.04333 28.9428 6.26 28.7961 6.54C28.6561 6.82 28.5861 7.14667 28.5861 7.52C28.5861 7.89333 28.6561 8.22 28.7961 8.5C28.9428 8.78 29.1428 9 29.3961 9.16C29.6561 9.31333 29.9494 9.39 30.2761 9.39ZM36.4454 10.12C35.9721 10.12 35.5521 10.0133 35.1854 9.8C34.8187 9.58 34.5287 9.27667 34.3154 8.89C34.1087 8.50333 34.0054 8.04667 34.0054 7.52C34.0054 7 34.1087 6.54667 34.3154 6.16C34.5221 5.76667 34.8087 5.46333 35.1754 5.25C35.5487 5.03 35.9787 4.92 36.4654 4.92C36.9454 4.92 37.3587 5.03 37.7054 5.25C38.0587 5.46333 38.3287 5.74667 38.5154 6.1C38.7021 6.45333 38.7954 6.83333 38.7954 7.24C38.7954 7.31333 38.7921 7.38667 38.7854 7.46C38.7854 7.53333 38.7854 7.61667 38.7854 7.71H34.8354C34.8554 8.09 34.9421 8.40667 35.0954 8.66C35.2554 8.90667 35.4521 9.09333 35.6854 9.22C35.9254 9.34667 36.1787 9.41 36.4454 9.41C36.7921 9.41 37.0821 9.33 37.3154 9.17C37.5487 9.01 37.7187 8.79333 37.8254 8.52H38.6554C38.5221 8.98 38.2654 9.36333 37.8854 9.67C37.5121 9.97 37.0321 10.12 36.4454 10.12ZM36.4454 5.63C36.0454 5.63 35.6887 5.75333 35.3754 6C35.0687 6.24 34.8921 6.59333 34.8454 7.06H37.9654C37.9454 6.61333 37.7921 6.26333 37.5054 6.01C37.2187 5.75667 36.8654 5.63 36.4454 5.63ZM39.9088 10V2.8H40.7488V10H39.9088ZM42.6355 3.94C42.4689 3.94 42.3289 3.88667 42.2155 3.78C42.1089 3.66667 42.0555 3.52667 42.0555 3.36C42.0555 3.2 42.1089 3.06667 42.2155 2.96C42.3289 2.85333 42.4689 2.8 42.6355 2.8C42.7955 2.8 42.9322 2.85333 43.0455 2.96C43.1589 3.06667 43.2155 3.2 43.2155 3.36C43.2155 3.52667 43.1589 3.66667 43.0455 3.78C42.9322 3.88667 42.7955 3.94 42.6355 3.94ZM42.2155 10V5.04H43.0555V10H42.2155ZM45.9481 10L44.0681 5.04H44.9481L46.4381 9.19L47.9381 5.04H48.7981L46.9181 10H45.9481ZM51.7091 10.12C51.2357 10.12 50.8157 10.0133 50.4491 9.8C50.0824 9.58 49.7924 9.27667 49.5791 8.89C49.3724 8.50333 49.2691 8.04667 49.2691 7.52C49.2691 7 49.3724 6.54667 49.5791 6.16C49.7857 5.76667 50.0724 5.46333 50.4391 5.25C50.8124 5.03 51.2424 4.92 51.7291 4.92C52.2091 4.92 52.6224 5.03 52.9691 5.25C53.3224 5.46333 53.5924 5.74667 53.7791 6.1C53.9657 6.45333 54.0591 6.83333 54.0591 7.24C54.0591 7.31333 54.0557 7.38667 54.0491 7.46C54.0491 7.53333 54.0491 7.61667 54.0491 7.71H50.0991C50.1191 8.09 50.2057 8.40667 50.3591 8.66C50.5191 8.90667 50.7157 9.09333 50.9491 9.22C51.1891 9.34667 51.4424 9.41 51.7091 9.41C52.0557 9.41 52.3457 9.33 52.5791 9.17C52.8124 9.01 52.9824 8.79333 53.0891 8.52H53.9191C53.7857 8.98 53.5291 9.36333 53.1491 9.67C52.7757 9.97 52.2957 10.12 51.7091 10.12ZM51.7091 5.63C51.3091 5.63 50.9524 5.75333 50.6391 6C50.3324 6.24 50.1557 6.59333 50.1091 7.06H53.2291C53.2091 6.61333 53.0557 6.26333 52.7691 6.01C52.4824 5.75667 52.1291 5.63 51.7091 5.63ZM55.1724 10V5.04H55.9324L56.0024 5.99C56.1558 5.66333 56.3891 5.40333 56.7024 5.21C57.0158 5.01667 57.4024 4.92 57.8624 4.92V5.8H57.6324C57.3391 5.8 57.0691 5.85333 56.8224 5.96C56.5758 6.06 56.3791 6.23333 56.2324 6.48C56.0858 6.72667 56.0124 7.06667 56.0124 7.5V10H55.1724ZM59.3452 12.2L60.5752 9.52H60.2852L58.3152 5.04H59.2252L60.8652 8.9L62.6052 5.04H63.4752L60.2252 12.2H59.3452ZM69.6584 10.12C69.2517 10.12 68.8884 10.0367 68.5684 9.87C68.255 9.70333 68.015 9.47 67.8484 9.17L67.7684 10H67.0084V2.8H67.8484V5.86C68.0084 5.62 68.235 5.40333 68.5284 5.21C68.8284 5.01667 69.2084 4.92 69.6684 4.92C70.1617 4.92 70.5917 5.03333 70.9584 5.26C71.325 5.48667 71.6084 5.79667 71.8084 6.19C72.015 6.58333 72.1184 7.03 72.1184 7.53C72.1184 8.03 72.015 8.47667 71.8084 8.87C71.6084 9.25667 71.3217 9.56333 70.9484 9.79C70.5817 10.01 70.1517 10.12 69.6584 10.12ZM69.5684 9.39C69.9017 9.39 70.195 9.31333 70.4484 9.16C70.7017 9 70.9017 8.78 71.0484 8.5C71.195 8.22 71.2684 7.89333 71.2684 7.52C71.2684 7.14667 71.195 6.82 71.0484 6.54C70.9017 6.26 70.7017 6.04333 70.4484 5.89C70.195 5.73 69.9017 5.65 69.5684 5.65C69.235 5.65 68.9417 5.73 68.6884 5.89C68.435 6.04333 68.235 6.26 68.0884 6.54C67.9417 6.82 67.8684 7.14667 67.8684 7.52C67.8684 7.89333 67.9417 8.22 68.0884 8.5C68.235 8.78 68.435 9 68.6884 9.16C68.9417 9.31333 69.235 9.39 69.5684 9.39ZM73.4273 12.2L74.6573 9.52H74.3673L72.3973 5.04H73.3073L74.9473 8.9L76.6873 5.04H77.5573L74.3073 12.2H73.4273Z" fill="#7C4DFF"/>
<path d="M32.9661 32.15C31.7861 32.15 30.6161 31.95 29.4561 31.55C28.2961 31.15 27.3561 30.55 26.6361 29.75C26.4161 29.51 26.3261 29.24 26.3661 28.94C26.4061 28.64 26.5561 28.38 26.8161 28.16C27.0961 27.96 27.3861 27.88 27.6861 27.92C27.9861 27.96 28.2361 28.09 28.4361 28.31C28.9161 28.87 29.5461 29.3 30.3261 29.6C31.1261 29.9 32.0061 30.05 32.9661 30.05C34.4461 30.05 35.5161 29.8 36.1761 29.3C36.8361 28.78 37.1761 28.16 37.1961 27.44C37.1961 26.72 36.8561 26.13 36.1761 25.67C35.4961 25.19 34.3761 24.82 32.8161 24.56C30.7961 24.24 29.3161 23.68 28.3761 22.88C27.4361 22.08 26.9661 21.13 26.9661 20.03C26.9661 19.01 27.2361 18.16 27.7761 17.48C28.3161 16.8 29.0361 16.29 29.9361 15.95C30.8361 15.61 31.8261 15.44 32.9061 15.44C34.2461 15.44 35.3961 15.67 36.3561 16.13C37.3361 16.59 38.1261 17.21 38.7261 17.99C38.9261 18.25 39.0061 18.52 38.9661 18.8C38.9261 19.08 38.7661 19.31 38.4861 19.49C38.2461 19.63 37.9661 19.68 37.6461 19.64C37.3461 19.58 37.0861 19.43 36.8661 19.19C36.3661 18.61 35.7861 18.19 35.1261 17.93C34.4661 17.65 33.7061 17.51 32.8461 17.51C31.7461 17.51 30.8661 17.74 30.2061 18.2C29.5461 18.64 29.2161 19.2 29.2161 19.88C29.2161 20.34 29.3361 20.74 29.5761 21.08C29.8361 21.42 30.2661 21.72 30.8661 21.98C31.4861 22.24 32.3461 22.46 33.4461 22.64C34.9461 22.88 36.1261 23.24 36.9861 23.72C37.8661 24.18 38.4861 24.73 38.8461 25.37C39.2261 25.99 39.4161 26.67 39.4161 27.41C39.4161 28.35 39.1361 29.18 38.5761 29.9C38.0361 30.6 37.2761 31.15 36.2961 31.55C35.3361 31.95 34.2261 32.15 32.9661 32.15ZM50.848 32.15C49.228 32.15 47.788 31.8 46.528 31.1C45.288 30.38 44.308 29.39 43.588 28.13C42.888 26.87 42.538 25.43 42.538 23.81C42.538 22.17 42.868 20.73 43.528 19.49C44.208 18.23 45.138 17.24 46.318 16.52C47.498 15.8 48.858 15.44 50.398 15.44C51.918 15.44 53.238 15.79 54.358 16.49C55.498 17.17 56.378 18.12 56.998 19.34C57.618 20.56 57.928 21.95 57.928 23.51C57.928 23.83 57.828 24.09 57.628 24.29C57.428 24.47 57.168 24.56 56.848 24.56H44.098V22.64H57.088L55.798 23.57C55.818 22.41 55.608 21.37 55.168 20.45C54.728 19.53 54.098 18.81 53.278 18.29C52.478 17.77 51.518 17.51 50.398 17.51C49.258 17.51 48.258 17.78 47.398 18.32C46.538 18.86 45.868 19.61 45.388 20.57C44.928 21.51 44.698 22.59 44.698 23.81C44.698 25.03 44.958 26.11 45.478 27.05C46.018 27.99 46.748 28.73 47.668 29.27C48.588 29.81 49.648 30.08 50.848 30.08C51.568 30.08 52.288 29.96 53.008 29.72C53.748 29.46 54.338 29.14 54.778 28.76C54.998 28.58 55.248 28.49 55.528 28.49C55.808 28.47 56.048 28.54 56.248 28.7C56.508 28.94 56.638 29.2 56.638 29.48C56.658 29.76 56.548 30 56.308 30.2C55.648 30.76 54.808 31.23 53.788 31.61C52.768 31.97 51.788 32.15 50.848 32.15ZM68.4798 32.15C66.9398 32.15 65.5598 31.79 64.3398 31.07C63.1198 30.33 62.1498 29.33 61.4298 28.07C60.7298 26.81 60.3798 25.39 60.3798 23.81C60.3798 22.21 60.7398 20.78 61.4598 19.52C62.1998 18.26 63.1998 17.27 64.4598 16.55C65.7198 15.81 67.1398 15.44 68.7198 15.44C70.2998 15.44 71.7098 15.81 72.9498 16.55C74.2098 17.27 75.1998 18.26 75.9198 19.52C76.6598 20.78 77.0398 22.21 77.0598 23.81L76.1298 24.53C76.1298 25.97 75.7898 27.27 75.1098 28.43C74.4498 29.57 73.5398 30.48 72.3798 31.16C71.2398 31.82 69.9398 32.15 68.4798 32.15ZM68.7198 30.05C69.8798 30.05 70.9098 29.78 71.8098 29.24C72.7298 28.7 73.4498 27.96 73.9698 27.02C74.5098 26.06 74.7798 24.99 74.7798 23.81C74.7798 22.61 74.5098 21.54 73.9698 20.6C73.4498 19.66 72.7298 18.92 71.8098 18.38C70.9098 17.82 69.8798 17.54 68.7198 17.54C67.5798 17.54 66.5498 17.82 65.6298 18.38C64.7098 18.92 63.9798 19.66 63.4398 20.6C62.8998 21.54 62.6298 22.61 62.6298 23.81C62.6298 24.99 62.8998 26.06 63.4398 27.02C63.9798 27.96 64.7098 28.7 65.6298 29.24C66.5498 29.78 67.5798 30.05 68.7198 30.05ZM75.8898 32C75.5498 32 75.2698 31.9 75.0498 31.7C74.8298 31.48 74.7198 31.2 74.7198 30.86V25.73L75.2898 23.36L77.0598 23.81V30.86C77.0598 31.2 76.9498 31.48 76.7298 31.7C76.5098 31.9 76.2298 32 75.8898 32ZM85.0925 32C84.2925 32 83.5725 31.78 82.9325 31.34C82.3125 30.9 81.8225 30.29 81.4625 29.51C81.1225 28.73 80.9525 27.83 80.9525 26.81V9.71C80.9525 9.37 81.0525 9.1 81.2525 8.9C81.4725 8.68 81.7525 8.57 82.0925 8.57C82.4325 8.57 82.7025 8.68 82.9025 8.9C83.1225 9.1 83.2325 9.37 83.2325 9.71V26.81C83.2325 27.67 83.4025 28.37 83.7425 28.91C84.1025 29.45 84.5525 29.72 85.0925 29.72H85.8425C86.1425 29.72 86.3825 29.83 86.5625 30.05C86.7425 30.25 86.8325 30.52 86.8325 30.86C86.8325 31.2 86.7025 31.48 86.4425 31.7C86.2025 31.9 85.8825 32 85.4825 32H85.0925ZM96.5511 32.15C94.9311 32.15 93.4911 31.8 92.2311 31.1C90.9911 30.38 90.0111 29.39 89.2911 28.13C88.5911 26.87 88.2411 25.43 88.2411 23.81C88.2411 22.17 88.5711 20.73 89.2311 19.49C89.9111 18.23 90.8411 17.24 92.0211 16.52C93.2011 15.8 94.5611 15.44 96.1011 15.44C97.6211 15.44 98.9411 15.79 100.061 16.49C101.201 17.17 102.081 18.12 102.701 19.34C103.321 20.56 103.631 21.95 103.631 23.51C103.631 23.83 103.531 24.09 103.331 24.29C103.131 24.47 102.871 24.56 102.551 24.56H89.8011V22.64H102.791L101.501 23.57C101.521 22.41 101.311 21.37 100.871 20.45C100.431 19.53 99.8011 18.81 98.9811 18.29C98.1811 17.77 97.2211 17.51 96.1011 17.51C94.9611 17.51 93.9611 17.78 93.1011 18.32C92.2411 18.86 91.5711 19.61 91.0911 20.57C90.6311 21.51 90.4011 22.59 90.4011 23.81C90.4011 25.03 90.6611 26.11 91.1811 27.05C91.7211 27.99 92.4511 28.73 93.3711 29.27C94.2911 29.81 95.3511 30.08 96.5511 30.08C97.2711 30.08 97.9911 29.96 98.7111 29.72C99.4511 29.46 100.041 29.14 100.481 28.76C100.701 28.58 100.951 28.49 101.231 28.49C101.511 28.47 101.751 28.54 101.951 28.7C102.211 28.94 102.341 29.2 102.341 29.48C102.361 29.76 102.251 30 102.011 30.2C101.351 30.76 100.511 31.23 99.4911 31.61C98.4711 31.97 97.4911 32.15 96.5511 32.15ZM114.423 32.15C112.843 32.15 111.423 31.79 110.163 31.07C108.903 30.33 107.903 29.33 107.163 28.07C106.443 26.81 106.083 25.38 106.083 23.78C106.083 22.2 106.433 20.78 107.133 19.52C107.853 18.26 108.823 17.27 110.043 16.55C111.263 15.81 112.643 15.44 114.183 15.44C115.523 15.44 116.733 15.73 117.813 16.31C118.893 16.87 119.763 17.62 120.423 18.56V9.74C120.423 9.38 120.533 9.1 120.753 8.9C120.973 8.68 121.253 8.57 121.593 8.57C121.933 8.57 122.213 8.68 122.433 8.9C122.653 9.1 122.763 9.38 122.763 9.74V23.9C122.723 25.46 122.333 26.87 121.593 28.13C120.873 29.37 119.883 30.35 118.623 31.07C117.383 31.79 115.983 32.15 114.423 32.15ZM114.423 30.05C115.583 30.05 116.613 29.78 117.513 29.24C118.433 28.68 119.153 27.93 119.673 26.99C120.213 26.05 120.483 24.98 120.483 23.78C120.483 22.6 120.213 21.54 119.673 20.6C119.153 19.64 118.433 18.89 117.513 18.35C116.613 17.81 115.583 17.54 114.423 17.54C113.283 17.54 112.253 17.81 111.333 18.35C110.413 18.89 109.683 19.64 109.143 20.6C108.603 21.54 108.333 22.6 108.333 23.78C108.333 24.98 108.603 26.05 109.143 26.99C109.683 27.93 110.413 28.68 111.333 29.24C112.253 29.78 113.283 30.05 114.423 30.05Z" fill="#7C4DFF"/>
</svg>
