<svg width="156" height="64" viewBox="0 0 156 64" fill="none" xmlns="http://www.w3.org/2000/svg">
<path fill-rule="evenodd" clip-rule="evenodd" d="M134.5 0C144.165 0 152 7.83502 152 17.5V46.5C152 47.0982 151.97 47.6894 151.911 48.2722C151.867 50.5786 151.83 55.4583 152.219 58.1271C152.532 60.2795 153.916 61.9712 154.969 62.9774C155.325 63.3175 155.091 63.9558 154.603 63.8965C152.613 63.6554 149.13 62.9008 146.135 60.5435C145.93 60.3824 145.756 60.2079 145.61 60.0214C142.588 62.5074 138.718 64 134.5 64H17.4999C7.8349 64 -0.00012207 56.165 -0.00012207 46.5V17.5C-0.00012207 7.83502 7.8349 0 17.4999 0H134.5Z" fill="url(#paint0_linear)"/>
<path d="M26.4092 29H28.1626L23.2271 15.6128H21.5757L16.6401 29H18.3936L19.7388 25.1685H25.064L26.4092 29ZM22.3271 17.7744H22.4756L24.5723 23.749H20.2305L22.3271 17.7744ZM30.0017 29H31.5974V22.8027C31.5974 21.3926 32.7014 20.3721 34.2229 20.3721C34.5383 20.3721 35.1135 20.4277 35.2434 20.4648V18.8691C35.0393 18.8413 34.7053 18.8228 34.4455 18.8228C33.1189 18.8228 31.9685 19.5093 31.6716 20.4834H31.5231V18.999H30.0017V29ZM37.1195 29H38.7152V22.8027C38.7152 21.3926 39.8192 20.3721 41.3407 20.3721C41.6562 20.3721 42.2314 20.4277 42.3612 20.4648V18.8691C42.1571 18.8413 41.8232 18.8228 41.5634 18.8228C40.2367 18.8228 39.0863 19.5093 38.7895 20.4834H38.641V18.999H37.1195V29ZM44.8868 17.0693C45.4991 17.0693 46.0001 16.5684 46.0001 15.9561C46.0001 15.3438 45.4991 14.8428 44.8868 14.8428C44.2745 14.8428 43.7735 15.3438 43.7735 15.9561C43.7735 16.5684 44.2745 17.0693 44.8868 17.0693ZM44.089 29H45.6847V18.999H44.089V29ZM56.5877 18.999H54.8807L52.1439 27.2373H51.9954L49.2586 18.999H47.5516L51.2532 29H52.8861L56.5877 18.999ZM59.2525 17.0693C59.8648 17.0693 60.3657 16.5684 60.3657 15.9561C60.3657 15.3438 59.8648 14.8428 59.2525 14.8428C58.6402 14.8428 58.1392 15.3438 58.1392 15.9561C58.1392 16.5684 58.6402 17.0693 59.2525 17.0693ZM58.4546 29H60.0503V18.999H58.4546V29ZM62.7893 29H64.385V23.0811C64.385 21.3276 65.4148 20.2607 67.0105 20.2607C68.6062 20.2607 69.3669 21.1143 69.3669 22.9141V29H70.9626V22.5244C70.9626 20.1494 69.7102 18.8228 67.4651 18.8228C65.9343 18.8228 64.9602 19.4722 64.4592 20.5762H64.3108V18.999H62.7893V29ZM77.7001 32.8408C80.4277 32.8408 82.1533 31.4121 82.1533 29.1763V18.999H80.6318V20.5854H80.4833C79.9081 19.5093 78.6742 18.8228 77.2734 18.8228C74.7035 18.8228 73.08 20.8545 73.08 23.8511C73.08 26.8477 74.685 28.8516 77.2734 28.8516C78.6464 28.8516 79.7783 28.23 80.4091 27.126H80.5575V29.0928C80.5575 30.5679 79.4907 31.4492 77.7001 31.4492C76.2621 31.4492 75.3715 30.9204 75.1952 30.104H73.5068C73.748 31.7554 75.288 32.8408 77.7001 32.8408ZM77.6259 27.4414C75.7704 27.4414 74.7314 26.0312 74.7314 23.8511C74.7314 21.6709 75.7704 20.2607 77.6259 20.2607C79.4721 20.2607 80.5947 21.6709 80.5947 23.8511C80.5947 26.0312 79.4814 27.4414 77.6259 27.4414ZM90.7484 17.0693C91.3607 17.0693 91.8617 16.5684 91.8617 15.9561C91.8617 15.3438 91.3607 14.8428 90.7484 14.8428C90.1361 14.8428 89.6351 15.3438 89.6351 15.9561C89.6351 16.5684 90.1361 17.0693 90.7484 17.0693ZM89.9505 29H91.5462V18.999H89.9505V29ZM94.2852 29H95.8809V23.0811C95.8809 21.3276 96.9107 20.2607 98.5064 20.2607C100.102 20.2607 100.863 21.1143 100.863 22.9141V29H102.459V22.5244C102.459 20.1494 101.206 18.8228 98.961 18.8228C97.4302 18.8228 96.4561 19.4722 95.9551 20.5762H95.8067V18.999H94.2852V29ZM113.327 29H114.997V15.6128H113.336L109.773 18.1733V19.936L113.178 17.4683H113.327V29ZM123.191 29.3154C126.196 29.3154 127.922 26.7734 127.922 22.3296C127.922 17.895 126.169 15.2974 123.191 15.2974C120.194 15.2974 118.441 17.8857 118.441 22.3018C118.441 26.7549 120.175 29.3154 123.191 29.3154ZM123.191 27.8589C121.215 27.8589 120.12 25.8828 120.12 22.3018C120.12 18.7671 121.233 16.7632 123.191 16.7632C125.148 16.7632 126.243 18.7485 126.243 22.3018C126.243 25.8921 125.167 27.8589 123.191 27.8589ZM17.5029 51H19.0986V44.8027C19.0986 43.3926 20.1099 42.2607 21.418 42.2607C22.6797 42.2607 23.5054 43.0215 23.5054 44.209V51H25.1011V44.5708C25.1011 43.2998 26.0288 42.2607 27.4204 42.2607C28.8306 42.2607 29.5264 42.9844 29.5264 44.4595V51H31.1221V44.0884C31.1221 41.9917 29.981 40.8228 27.9399 40.8228C26.5576 40.8228 25.4165 41.5186 24.8784 42.5762H24.73C24.2661 41.5371 23.3198 40.8228 21.9653 40.8228C20.6294 40.8228 19.6274 41.4629 19.1729 42.5762H19.0244V40.999H17.5029V51ZM34.5661 39.0693C35.1784 39.0693 35.6794 38.5684 35.6794 37.9561C35.6794 37.3438 35.1784 36.8428 34.5661 36.8428C33.9538 36.8428 33.4528 37.3438 33.4528 37.9561C33.4528 38.5684 33.9538 39.0693 34.5661 39.0693ZM33.7683 51H35.364V40.999H33.7683V51ZM38.1029 51H39.6986V45.0811C39.6986 43.3276 40.7284 42.2607 42.3241 42.2607C43.9198 42.2607 44.6806 43.1143 44.6806 44.9141V51H46.2763V44.5244C46.2763 42.1494 45.0238 40.8228 42.7787 40.8228C41.248 40.8228 40.2738 41.4722 39.7729 42.5762H39.6244V40.999H38.1029V51ZM56.9845 40.999H55.3888V46.918C55.3888 48.6714 54.4239 49.7197 52.6612 49.7197C51.0655 49.7197 50.3976 48.8848 50.3976 47.085V40.999H48.8019V47.4746C48.8019 49.8403 49.9708 51.1763 52.2159 51.1763C53.7467 51.1763 54.8136 50.5454 55.3146 49.4321H55.463V51H56.9845V40.999ZM60.3543 38.4106V40.999H58.7401V42.335H60.3543V48.4023C60.3543 50.3135 61.18 51.0742 63.2396 51.0742C63.555 51.0742 63.8611 51.0371 64.1766 50.9814V49.6362C63.8797 49.6641 63.722 49.6733 63.4344 49.6733C62.3953 49.6733 61.95 49.1724 61.95 47.9941V42.335H64.1766V40.999H61.95V38.4106H60.3543ZM72.7603 48.4116C72.3428 49.293 71.4707 49.7661 70.1812 49.7661C68.4834 49.7661 67.3794 48.5137 67.2959 46.5376V46.4634H74.4859V45.8511C74.4859 42.7432 72.8438 40.8228 70.1441 40.8228C67.398 40.8228 65.6353 42.8638 65.6353 46.0088C65.6353 49.1724 67.3701 51.1763 70.1441 51.1763C72.3335 51.1763 73.8921 50.1187 74.356 48.4116H72.7603ZM70.1255 42.2329C71.7119 42.2329 72.7696 43.4019 72.8067 45.1738H67.2959C67.4165 43.4019 68.5298 42.2329 70.1255 42.2329ZM76.4548 43.7358C76.4548 45.1831 77.3083 45.9902 79.1823 46.4448L80.8987 46.8623C81.9655 47.1221 82.4851 47.5859 82.4851 48.2725C82.4851 49.1909 81.5202 49.8311 80.175 49.8311C78.8947 49.8311 78.0969 49.293 77.8279 48.4487H76.1858C76.362 50.1094 77.8928 51.1763 80.1194 51.1763C82.3923 51.1763 84.1272 49.9424 84.1272 48.1519C84.1272 46.7139 83.218 45.8975 81.3347 45.4429L79.7947 45.0718C78.6164 44.7842 78.0598 44.3574 78.0598 43.6709C78.0598 42.7803 78.9875 42.1772 80.175 42.1772C81.3811 42.1772 82.1604 42.7061 82.3738 43.5039H83.9509C83.7375 41.8618 82.281 40.8228 80.1843 40.8228C78.0598 40.8228 76.4548 42.0752 76.4548 43.7358ZM86.8476 37.6035L87.0053 46.5469H88.5453L88.7031 37.6035H86.8476ZM87.7846 51.167C88.5361 51.167 89.0649 50.6289 89.0649 49.8774C89.0649 49.1167 88.5361 48.5786 87.7846 48.5786C87.0331 48.5786 86.495 49.1167 86.495 49.8774C86.495 50.6289 87.0331 51.167 87.7846 51.167Z" fill="white"/>
<defs>
<linearGradient id="paint0_linear" x1="155.433" y1="-24" x2="155.433" y2="64" gradientUnits="userSpaceOnUse">
<stop stop-color="#7C4DFF"/>
<stop offset="1" stop-color="#7C4DFF"/>
</linearGradient>
</defs>
</svg>
