<svg width="1745" height="1577" viewBox="0 0 1745 1577" fill="none" xmlns="http://www.w3.org/2000/svg">
<g filter="url(#filter0_d)">
<path d="M1443.6 1275C1443.6 1277.75 1441.35 1280 1438.6 1280C1438.6 1280 1438.55 1280 1438.5 1280H1298.5C1296.7 1280 1295.05 1279.05 1294.15 1277.5C1293.3 1275.95 1293.3 1274.05 1294.15 1272.5L1314.15 1237.5C1315.05 1235.95 1316.7 1235 1318.5 1235H1418.5C1420.3 1235 1421.95 1235.95 1422.85 1237.5L1442.4 1271.75C1443.15 1272.65 1443.6 1273.75 1443.6 1275Z" fill="#DAAE69"/>
<path d="M1443.49 1275V1380C1443.49 1382.75 1441.24 1385 1438.49 1385H1298.49C1295.74 1385 1293.49 1382.75 1293.49 1380V1275H1443.49Z" fill="#E9B96E"/>
<path d="M1386.55 1269.53V1312.68C1386.55 1314.32 1385.79 1315.83 1384.57 1316.53C1384.06 1316.87 1382.09 1317 1381.55 1317H1354.4C1354.4 1317 1353.75 1317.26 1352.53 1316.53C1351.3 1315.83 1350.55 1314.32 1350.55 1312.68V1269.53C1350.58 1269.14 1350.65 1268.75 1350.69 1268.36L1358.65 1235H1378.45L1386.4 1268.36C1386.44 1268.75 1386.51 1269.14 1386.55 1269.53Z" fill="#FFE5A0"/>
<rect x="1315.55" y="1292.78" width="53" height="77" rx="5" transform="rotate(-3.00404 1315.55 1292.78)" fill="#F2F2F2"/>
<line x1="1331.05" y1="1340.03" x2="1331.83" y2="1355.01" stroke="black" stroke-width="2"/>
<line x1="1335.04" y1="1339.82" x2="1335.83" y2="1354.8" stroke="black" stroke-width="2"/>
<line x1="1339.03" y1="1339.61" x2="1339.82" y2="1354.59" stroke="black" stroke-width="2"/>
<line x1="1343.03" y1="1339.4" x2="1343.82" y2="1354.38" stroke="black" stroke-width="2"/>
<line x1="1347.03" y1="1339.19" x2="1347.81" y2="1354.17" stroke="black" stroke-width="2"/>
<line x1="1351.02" y1="1338.98" x2="1351.8" y2="1353.96" stroke="black" stroke-width="2"/>
<line x1="1355.01" y1="1338.77" x2="1355.8" y2="1353.75" stroke="black" stroke-width="2"/>
<line x1="1359.01" y1="1338.56" x2="1359.79" y2="1353.54" stroke="black" stroke-width="2"/>
<rect x="1327.42" y="1337.72" width="35" height="20" rx="1.5" transform="rotate(-3.00404 1327.42 1337.72)" stroke="black"/>
<line x1="1326.34" y1="1326.76" x2="1362.29" y2="1324.87" stroke="black"/>
<line x1="1325.92" y1="1318.77" x2="1361.87" y2="1316.88" stroke="black"/>
<line x1="1325.45" y1="1309.78" x2="1361.4" y2="1307.9" stroke="black"/>
<line x1="1324.98" y1="1300.79" x2="1360.93" y2="1298.91" stroke="black"/>
</g>
<g filter="url(#filter1_d)">
<path d="M1661.11 1212.37C1661.15 1219.47 1660.75 1226.57 1659.92 1233.62C1658.64 1257.77 1652.44 1281.41 1641.68 1303.08C1630.92 1324.74 1615.83 1343.97 1597.36 1359.59C1579.43 1374.43 1556.88 1382.55 1533.61 1382.55C1510.33 1382.55 1487.79 1374.43 1469.86 1359.59C1451.38 1343.97 1436.3 1324.74 1425.54 1303.08C1414.78 1281.41 1408.57 1257.77 1407.3 1233.62C1406.46 1226.57 1406.07 1219.47 1406.11 1212.37C1406.11 1118.53 1463.06 1042.37 1533.61 1042.37C1604.16 1042.37 1661.11 1118.19 1661.11 1212.37Z" fill="#C5B0FD"/>
<path d="M1694.75 1212.38C1694.75 1223.69 1690.25 1234.55 1682.25 1242.55C1674.25 1250.55 1663.4 1255.05 1652.08 1255.05C1628.62 1255.05 1652.08 1236.01 1652.08 1212.38C1652.08 1188.75 1628.62 1169.88 1652.08 1169.88C1657.67 1169.85 1663.22 1170.94 1668.4 1173.06C1673.57 1175.19 1678.28 1178.31 1682.24 1182.26C1686.21 1186.21 1689.35 1190.9 1691.5 1196.07C1693.64 1201.24 1694.75 1206.78 1694.75 1212.38V1212.38Z" fill="#C5B0FD"/>
<path d="M1372.48 1212.38C1372.48 1223.69 1376.98 1234.55 1384.98 1242.55C1392.98 1250.55 1403.83 1255.05 1415.15 1255.05C1438.61 1255.05 1415.15 1236.01 1415.15 1212.38C1415.15 1188.75 1438.61 1169.88 1415.15 1169.88C1409.56 1169.85 1404.01 1170.94 1398.83 1173.06C1393.66 1175.19 1388.95 1178.31 1384.99 1182.26C1381.02 1186.21 1377.88 1190.9 1375.73 1196.07C1373.59 1201.24 1372.48 1206.78 1372.48 1212.38Z" fill="#C5B0FD"/>
<path d="M1482.61 1182.27C1487.31 1182.27 1491.11 1178.46 1491.11 1173.77C1491.11 1169.07 1487.31 1165.27 1482.61 1165.27C1477.92 1165.27 1474.11 1169.07 1474.11 1173.77C1474.11 1178.46 1477.92 1182.27 1482.61 1182.27Z" fill="#42505A"/>
<path d="M1584.61 1182.27C1589.31 1182.27 1593.11 1178.46 1593.11 1173.77C1593.11 1169.07 1589.31 1165.27 1584.61 1165.27C1579.92 1165.27 1576.11 1169.07 1576.11 1173.77C1576.11 1178.46 1579.92 1182.27 1584.61 1182.27Z" fill="#42505A"/>
<path d="M1452.86 1148.28C1452.86 1148.28 1481.76 1114.28 1512.36 1131.28" stroke="#3F1400" stroke-width="0.5" stroke-linecap="round" stroke-linejoin="round"/>
<path d="M1614.36 1148.28C1614.36 1148.28 1585.46 1114.28 1554.86 1131.28" stroke="#42505A" stroke-width="8" stroke-linecap="round" stroke-linejoin="round"/>
<path d="M1525.12 1182.27C1525.12 1182.27 1491.12 1267.27 1508.12 1267.27H1525.12" stroke="#42505A" stroke-width="8" stroke-linecap="round" stroke-linejoin="round"/>
<path d="M1369.53 1083.02L1391.15 1155.76C1392.4 1160.46 1394.64 1164.84 1397.73 1168.6C1400.81 1172.36 1404.67 1175.42 1409.04 1177.56C1413.4 1179.7 1418.18 1180.88 1423.04 1181.02C1427.9 1181.16 1432.74 1180.26 1437.22 1178.37L1582.06 1094.9C1586.51 1092.84 1591.33 1091.71 1596.22 1091.58C1601.12 1091.45 1605.99 1092.31 1610.54 1094.13C1615.09 1095.94 1619.22 1098.66 1622.69 1102.13C1626.15 1105.59 1628.87 1109.73 1630.68 1114.28L1666.38 1178.37L1637.82 1053.48C1636.38 1046.71 1632.9 1040.54 1627.86 1035.81C1622.81 1031.07 1616.45 1027.98 1609.6 1026.96L1436.04 994.328C1427.94 993.45 1407.27 994.146 1400.56 998.764C1393.85 1003.38 1380.47 1013.06 1378.4 1020.93L1369.52 1047.55C1368.21 1052.74 1368.23 1077.83 1369.53 1083.02Z" fill="#42505A"/>
<path d="M1515.86 1340.23C1515.86 1340.23 1577.95 1344.67 1595.69 1287.02" stroke="#42505A" stroke-width="8" stroke-linecap="round" stroke-linejoin="round"/>
</g>
<g filter="url(#filter2_d)">
<path d="M539.365 230.559V312.125C539.365 318.534 534.124 323.777 527.718 323.777H411.252C404.846 323.777 399.605 318.534 399.605 312.125V172.297C399.605 165.888 404.846 160.645 411.252 160.645H481.132C484.626 160.645 488.003 162.276 490.216 165.072L536.803 223.218C537.385 224.033 537.967 224.965 538.433 225.898C538.433 226.014 538.433 226.014 538.433 226.014C538.433 226.014 538.433 226.014 538.433 226.131C539.132 227.529 539.365 229.044 539.365 230.559Z" fill="#563712"/>
<path d="M539.364 230.564V230.681L469.484 230.564V160.645H481.131C484.625 160.645 488.003 162.276 490.215 165.073L536.802 223.223C537.384 224.038 537.967 224.971 538.432 225.903C538.432 226.019 538.432 226.019 538.432 226.019C538.432 226.019 538.432 226.019 538.432 226.136C539.131 227.534 539.364 229.049 539.364 230.564Z" fill="#412A0E"/>
<path d="M184 151C184 145.477 188.477 141 194 141H458.923C464.446 141 468.923 145.477 468.923 151V323.572H194C188.477 323.572 184 319.094 184 313.572V151Z" fill="#644117"/>
<path fill-rule="evenodd" clip-rule="evenodd" d="M269.898 203.576L270.416 262.484L283.622 278.833L323.239 299.854L371.919 275.978L382.017 251.844L380.981 173.73L344.213 172.692L305.891 178.92L270.936 199.162L269.898 203.576Z" fill="#301506"/>
<path d="M326.621 161.003C303.544 161.003 283.415 165.481 266.789 174.311V244.905C266.789 259.76 272.358 272.181 282.891 280.834C292.67 288.875 322.915 302.124 326.622 303.734C330.137 302.201 360.74 288.746 370.365 280.834C380.891 272.186 386.462 259.761 386.462 244.905V174.311C369.833 165.48 349.704 161.002 326.619 161.002L326.621 161.003ZM360.79 174.672C367.672 174.762 374.429 175.188 380.961 175.797V244.905C380.961 258.185 376.153 268.913 366.875 276.572C358.587 283.412 333.595 294.635 326.622 297.715C319.555 294.593 294.5 283.229 286.361 276.574C277.139 269.047 272.284 258.064 272.284 244.908V204.526C298.787 180.167 330.969 174.283 360.788 174.674L360.79 174.672ZM328.181 206.852C322.503 206.852 317.922 208.124 314.15 210.564V278.557H324.564V256.591C325.603 256.898 327.111 257.185 329.248 257.185C340.8 257.185 347.439 246.749 347.439 231.51C347.439 216.302 340.603 206.852 328.181 206.852L328.181 206.852ZM363.763 206.852C356.915 207.051 349.753 212.023 349.796 220.452C349.814 226.002 351.349 230.153 359.932 235.2C364.512 237.895 366.357 239.67 366.436 242.944C366.524 246.584 364.015 248.779 360.196 248.764C356.874 248.738 352.903 246.89 350.243 244.517V254.122C353.504 256.07 357.573 257.358 361.683 257.358C371.971 257.358 376.565 250.075 376.763 243.401C376.959 237.318 375.282 232.716 366.582 227.593C362.699 225.31 359.633 223.811 359.735 220.013C359.838 216.306 362.908 215.003 365.857 215.03C369.494 215.062 373.013 217.081 375.185 219.313V210.243C373.354 208.83 369.479 206.676 363.763 206.851L363.763 206.852ZM277.602 207.908V240.705C277.602 251.762 282.821 257.359 293.12 257.359C299.493 257.359 304.831 255.881 308.807 253.172V207.908H298.416V247.233C297.283 248.012 295.603 248.509 293.489 248.509C288.719 248.509 288.007 244.125 288.007 241.167V207.908H277.602L277.602 207.908ZM328.251 215.254C334.291 215.254 336.794 220.087 336.794 231.776C336.794 243.181 333.931 248.691 327.941 248.691C326.531 248.691 325.305 248.341 324.561 248.06V216.009C325.404 215.588 326.838 215.255 328.251 215.255V215.254Z" fill="#FAB80A"/>
<ellipse cx="296.169" cy="323.458" rx="30.3607" ry="30.4286" fill="#412A0E"/>
<ellipse cx="494.138" cy="323.571" rx="30.3607" ry="30.4286" fill="#412A0E"/>
</g>
<g filter="url(#filter3_d)">
<path d="M539.198 568.732V633.763C539.198 638.873 534.648 643.054 529.087 643.054H427.971C422.41 643.054 417.859 638.873 417.859 633.763V522.28C417.859 517.171 422.41 512.99 427.971 512.99H488.641C491.674 512.99 494.606 514.291 496.528 516.521L536.974 562.879C537.479 563.529 537.985 564.272 538.39 565.016C538.39 565.109 538.39 565.109 538.39 565.109C538.39 565.109 538.39 565.109 538.39 565.201C538.996 566.316 539.198 567.524 539.198 568.732Z" fill="#E8E8E8"/>
<path d="M539.197 568.522V568.615L478.527 568.522V512.99H488.639C491.672 512.99 494.605 514.286 496.526 516.507L536.972 562.691C537.478 563.339 537.984 564.08 538.388 564.82C538.388 564.913 538.388 564.913 538.388 564.913C538.388 564.913 538.388 564.913 538.388 565.005C538.995 566.116 539.197 567.319 539.197 568.522Z" fill="#DADADA"/>
<path d="M176 478C176 472.477 180.477 468 186 468H440.113C445.636 468 450.113 472.477 450.113 478V642.857H186C180.477 642.857 176 638.38 176 632.857V478Z" fill="#F5F5F5"/>
<ellipse cx="283.916" cy="642.748" rx="29.2088" ry="29.1429" fill="#DADADA"/>
<ellipse cx="496.26" cy="642.748" rx="29.2088" ry="29.1429" fill="#DADADA"/>
<g clip-path="url(#clip0)">
<path d="M368.64 532.293L376.01 540.444L383.105 532.293H398.257L383.449 549.002L398.46 565.848H382.697L375.396 557.633L368.162 565.848H352.941L367.82 549.072L352.941 532.293H368.64Z" fill="#FF5900"/>
<path d="M352.943 532.293V543.63H336.091V554.034H352.943V565.848H323.707V512.99H352.943V524.772H336.091V532.293H352.943Z" fill="#FF5900"/>
<path d="M311.377 512.99V534.622H311.24C308.508 531.473 305.098 530.378 301.14 530.378C293.033 530.378 286.925 535.911 284.781 543.223C282.334 535.166 276.028 530.226 266.678 530.226C259.085 530.226 253.088 533.646 249.96 539.219V532.293H234.264V524.772H251.393V512.99H220.273V565.848H234.264V543.63H248.21C247.794 545.262 247.571 547.01 247.571 548.855C247.571 559.88 255.966 567.619 266.678 567.619C275.686 567.619 281.623 563.374 284.762 555.638H272.771C271.15 557.965 269.92 558.653 266.678 558.653C262.918 558.653 259.676 555.362 259.676 551.461H284.091C285.15 560.218 291.949 567.77 301.276 567.77C305.301 567.77 308.986 565.783 311.238 562.431H311.374V565.853H323.706V512.99H311.377ZM260.067 543.786C260.844 540.429 263.44 538.236 266.68 538.236C270.246 538.236 272.709 540.362 273.357 543.786C273.63 543.786 260.067 543.786 260.067 543.786ZM303.89 557.801C299.344 557.801 296.517 553.549 296.517 549.111C296.517 544.368 298.975 539.805 303.89 539.805C308.986 539.805 311.015 544.368 311.015 549.111C311.015 553.609 308.864 557.801 303.89 557.801Z" fill="#2A007C"/>
<path d="M323.715 592.278V573.336H334.144V574.749H325.435V581.733H333.775V583.146H325.435V590.86H334.533V592.276H323.715V592.278Z" fill="#2A007C"/>
<path d="M335.773 592.278L340.859 585.476L336.036 579.041H337.991L341.928 584.299L345.787 579.041H347.742L342.842 585.476L347.95 592.278H345.97L341.745 586.651L337.731 592.278H335.773V592.278Z" fill="#2A007C"/>
<path d="M351.256 597.244H349.665V582.991C349.665 581.682 349.665 580.351 349.586 579.039H351.153L351.205 581.029C352.192 579.457 353.496 578.727 355.454 578.727C359.52 578.727 361.265 582.099 361.265 585.656C361.265 589.217 359.52 592.59 355.454 592.59C353.627 592.59 352.194 591.884 351.256 590.365V597.244V597.244ZM359.572 585.656C359.572 582.832 358.397 580.058 355.271 580.058C352.326 580.058 351.256 582.492 351.256 585.656C351.256 588.822 352.326 591.254 355.271 591.254C358.399 591.254 359.572 588.482 359.572 585.656Z" fill="#2A007C"/>
<path d="M369.44 580.266C366.806 580.266 365.891 582.492 365.891 584.791V592.277H364.299V582.934C364.299 581.652 364.275 580.348 364.223 579.039H365.792L365.893 580.949C366.675 579.434 367.982 578.727 369.727 578.727C369.962 578.727 370.222 578.751 370.457 578.779V580.376C370.091 580.319 369.804 580.266 369.44 580.266Z" fill="#2A007C"/>
<path d="M372.411 585.944C372.411 588.924 373.817 591.383 376.71 591.383C378.95 591.383 379.994 589.893 380.385 588.403H381.897C381.192 591.174 379.497 592.59 376.5 592.59C372.485 592.59 370.711 589.607 370.711 585.894C370.711 582.102 372.562 578.727 376.708 578.727C380.905 578.727 382.026 582.412 382.026 585.944H372.411V585.944ZM372.461 584.742H380.333C380.333 582.151 379.111 579.929 376.606 579.929C374.339 579.926 372.773 581.652 372.461 584.742Z" fill="#2A007C"/>
<path d="M388.234 592.59C385.524 592.59 383.492 591.306 383.492 588.403H385.084C385.084 590.389 386.385 591.383 388.316 591.383C390.115 591.383 391.521 590.519 391.521 588.745C391.521 587.148 389.88 586.729 388.16 586.232C386.076 585.631 383.807 584.975 383.807 582.412C383.807 579.564 386.177 578.727 388.395 578.727C390.947 578.727 392.852 579.718 392.929 582.464H391.338C391.261 580.897 390.14 580.008 388.444 580.008C387.115 580.008 385.499 580.53 385.499 582.256C385.499 583.828 387.115 584.272 388.835 584.742C390.924 585.315 393.216 585.944 393.216 588.509C393.214 591.49 390.922 592.59 388.234 592.59Z" fill="#2A007C"/>
<path d="M399.264 592.59C396.551 592.59 394.52 591.306 394.52 588.403H396.111C396.111 590.389 397.413 591.383 399.346 591.383C401.145 591.383 402.551 590.519 402.551 588.745C402.551 587.148 400.907 586.729 399.187 586.232C397.103 585.631 394.836 584.975 394.836 582.412C394.836 579.564 397.207 578.727 399.425 578.727C401.976 578.727 403.882 579.718 403.959 582.464H402.367C402.291 580.897 401.17 580.008 399.474 580.008C398.145 580.008 396.529 580.53 396.529 582.256C396.529 583.828 398.145 584.272 399.868 584.742C401.954 585.315 404.248 585.944 404.248 588.509C404.243 591.49 401.949 592.59 399.264 592.59V592.59Z" fill="#2A007C"/>
</g>
</g>
<g filter="url(#filter4_d)">
<path d="M1009.08 258.927C1015.16 261.664 1019.07 267.702 1019.1 274.369L1019.24 315.261C1019.24 320.646 1014.46 325.052 1008.62 325.052H902.375C896.532 325.052 891.751 320.646 891.751 315.261V197.767C891.751 192.381 888.244 166.002 894.087 166.002L962.571 237.989L1009.08 258.927Z" fill="#E8E8E8"/>
<path d="M971.249 241.869H907.934V180.658L962.204 237.558L971.249 241.869Z" fill="#DADADA"/>
<path d="M653.812 151C653.812 145.477 658.29 141 663.812 141H897.934C903.457 141 907.934 145.477 907.934 151V325.493H663.812C658.29 325.493 653.812 321.016 653.812 315.493V151Z" fill="#F5F5F5"/>
<ellipse cx="747.385" cy="325.171" rx="30.6898" ry="30.7143" fill="#DADADA"/>
<ellipse cx="973.944" cy="325.171" rx="30.6898" ry="30.7143" fill="#DADADA"/>
<path fill-rule="evenodd" clip-rule="evenodd" d="M746.986 164.53H747.363L747.994 164.654L748.749 164.781L750.761 165.286L753.529 165.788L755.039 166.17L756.675 166.546L758.437 166.799L760.196 167.304L762.084 167.555L763.971 168.06L770.009 169.193L771.897 169.698L773.91 170.076L775.668 170.454L777.558 170.832L779.317 171.21L781.08 171.463L782.589 171.843L784.1 172.094L785.357 172.47L786.489 172.725L787.494 172.848L788.376 172.975L789.007 173.103L789.382 173.228H789.633L791.27 173.606L792.779 173.859L794.038 174.237L795.043 174.488L796.051 174.868L796.806 175.12L797.811 175.624L798.188 175.877L798.818 176.506V176.633L798.946 176.758V176.884H804.352L804.858 177.011H805.36L805.737 177.136H806.115L806.492 177.263L807.499 177.765L807.624 178.02L808.505 179.405L808.757 181.043L808.505 183.062L807.878 184.953L807.121 186.843L806.365 188.357L805.737 189.366L805.487 189.744L805.235 189.873L804.605 190.121L803.724 190.501L802.465 191.004L801.081 191.511L799.322 192.266L797.434 193.022L795.295 193.78L792.905 194.787L790.387 195.67L787.875 196.677L782.339 198.949L779.444 200.084L776.549 201.094L773.658 202.349L770.64 203.487L767.745 204.494L764.976 205.757L762.084 206.768L759.442 207.775L754.408 209.791L752.145 210.674L750.006 211.43L748.12 212.185L746.485 212.816L745.1 213.446L743.97 213.826L743.088 214.206L742.584 214.33L742.457 214.453H807.499L818.066 164.277H746.986V164.53V164.53Z" fill="#284E80"/>
<path fill-rule="evenodd" clip-rule="evenodd" d="M795.674 180.795L795.295 180.922L792.78 181.424H792.15L791.646 181.549H791.145L790.387 181.678L790.012 181.804L789.76 181.929L789.633 182.184V182.433L789.887 182.685H790.387L790.892 182.811H792.15L792.905 182.685H793.659L795.422 182.433H796.304L797.309 182.306L798.189 182.184L798.946 182.055L799.825 181.929H803.222L803.597 182.055L803.851 182.184L804.102 182.56V183.064L803.976 183.567L803.851 184.198L803.597 184.954L803.222 185.837L802.97 186.721L802.844 187.224L803.095 187.477L803.347 187.35L803.851 186.845L804.102 186.468L804.479 185.837L804.858 185.081L805.235 184.198L805.611 183.443L805.863 182.685L805.988 182.055V181.298L805.738 180.668L805.36 180.29L804.858 179.912L804.228 179.659L803.472 179.533L802.594 179.406H797.309L797.184 179.533H797.057L796.806 179.659L796.552 180.164L796.304 180.29L796.052 180.542L795.674 180.795Z" fill="#284E80"/>
<path fill-rule="evenodd" clip-rule="evenodd" d="M744.597 175.877L736.293 214.454L736.672 214.33L737.427 213.827L738.684 213.323L740.321 212.44L742.206 211.558L744.346 210.424L746.862 209.288L749.253 208.026L751.768 206.892L754.157 205.63L756.548 204.494L758.811 203.36L760.7 202.349L762.334 201.595L763.593 200.968L764.474 200.588L765.731 199.957L766.865 199.326L768.247 198.694L769.631 197.939L770.89 197.309L772.399 196.678L773.783 195.922L775.292 195.294L776.803 194.535L784.35 191.384L787.747 190.248L788.25 190.121L788.752 189.874L789.382 189.745L791.645 188.989L794.29 188.232L795.169 188.105L797.81 187.349L799.321 187.098L799.824 186.971L800.201 186.844H800.58L800.955 186.72L801.208 186.467H801.334V186.338L801.081 185.837L800.703 185.711L800.201 185.584H799.698L798.946 185.46H798.188L797.308 185.584L795.799 185.711L794.163 185.962L792.401 186.338L790.513 186.72L788.629 187.223L786.615 187.854L784.727 188.485L782.716 189.114L780.829 189.874L778.939 190.501L777.18 191.132L775.546 191.762L774.033 192.519L772.776 193.022L771.644 193.529L770.763 194.033L765.983 179.154H796.428L796.552 178.525L796.051 177.893L795.295 177.515L794.163 177.137L792.904 176.759L789.632 176.255L784.35 175.877H744.597V175.877Z" fill="#284E80"/>
<path fill-rule="evenodd" clip-rule="evenodd" d="M886.76 256.49H673.613L673.919 253.281H887.068L886.76 256.49Z" fill="#CA4256"/>
<path fill-rule="evenodd" clip-rule="evenodd" d="M683.298 249.395L681.662 249.268L680.028 248.89L678.769 248.512L677.637 247.755L676.884 246.874L676.38 245.736L676.253 244.478L676.38 242.964L677.009 240.19L677.512 237.669L678.016 235.524L678.393 233.76L678.645 232.248L678.896 231.114L679.023 230.485L679.146 230.232H683.298L683.171 230.734L682.921 231.995L682.416 233.886L682.039 236.031L681.537 238.176L680.909 241.326L680.782 241.704L680.659 242.713V244.48L680.909 245.109L681.411 245.612L682.039 245.99L682.921 246.241L683.927 246.367L685.059 246.241L685.941 246.116L686.82 245.736L687.45 245.107L687.954 244.478L688.458 243.718L689.213 241.702L689.336 240.693L689.713 239.181L690.094 237.29L690.471 235.273L690.972 233.379L691.226 231.741L691.476 230.605L691.603 230.229H695.755L695 233.884L694.623 235.778L694.371 236.407V236.658L694.244 237.416L693.867 239.306L692.989 242.964L692.862 243.718L692.485 244.478L692.231 245.107L691.854 245.736L691.353 246.367L690.346 247.374L689.715 247.754L688.962 248.133L688.333 248.512L687.58 248.762L686.824 248.89L686.067 249.141L684.308 249.395H683.298V249.395ZM876.781 233.257H870.87L869.865 233.508L869.112 234.013L868.985 234.264L868.858 234.644V235.147L868.985 235.653L869.361 236.158L869.74 236.787L870.872 237.921L871.624 238.425L872.254 238.93L873.01 239.561L874.265 240.822L874.771 241.453L875.524 242.965L875.648 243.72L875.524 244.603L875.274 245.488L874.895 246.37L874.265 247.126L873.384 247.757L872.379 248.259L871.12 248.637L869.486 248.89L867.725 249.015H861.311L862.064 245.99H868.857L869.486 245.863L869.988 245.736L870.367 245.485L870.746 244.98L870.995 244.478L870.872 243.467L870.119 242.458L868.86 241.451L867.601 240.317L866.221 239.057L865.085 237.669L864.333 236.28L864.209 234.642L864.458 233.76L864.964 232.753L865.466 231.997L866.348 231.366L867.479 230.863L868.611 230.485L870.122 230.232H877.417L876.781 233.257V233.257ZM862.187 233.257H852.755L851.62 238.174H859.927L859.298 240.821H850.994L849.986 245.99H859.421L858.792 249.015H845.206L849.233 230.23H862.822L862.187 233.257V233.257ZM845.832 233.257H840.048L836.652 249.015H832.502L835.898 233.257H829.983L830.739 230.23H846.465L845.832 233.257ZM816.9 249.015L818.538 245.99H824.449L822.815 234.013L814.511 249.015H810.357L821.177 230.23H826.083L828.978 249.015H816.9V249.015ZM816.145 233.257H810.357L806.962 249.015H802.808L806.204 233.257H800.296L801.049 230.23H816.771L816.145 233.257ZM798.156 233.257H792.368L791.739 233.381L791.236 233.508L790.857 233.76L790.355 234.262V235.146L790.482 235.651L790.732 236.156L791.234 236.785L792.366 237.919L792.996 238.423L793.752 238.928L795.635 240.821L796.141 241.451L796.643 242.208L796.894 242.964L797.021 243.718V244.602L796.767 245.487L796.391 246.368L795.635 247.125L794.882 247.755L793.754 248.257L792.495 248.635L790.984 248.888L789.098 249.013H782.807L783.433 245.989H790.353L790.982 245.863L791.485 245.736L791.864 245.485L792.239 244.98L792.366 244.478L792.239 243.467L791.487 242.458L790.355 241.451L789.099 240.317L787.712 239.057L786.58 237.669L785.827 236.28L785.7 234.642L785.954 233.76L786.33 232.753L786.959 231.997L787.841 231.366L788.849 230.863L790.104 230.485L791.615 230.232H798.91L798.156 233.257V233.257ZM760.164 239.559L758.274 249.015H766.704L767.709 248.89H768.718L770.475 248.384L771.484 248.006L772.365 247.501L773.876 246.494L775.384 244.98L776.642 243.216L777.145 242.208L777.524 241.2L777.774 240.064L777.901 239.561L778.024 238.805L778.275 237.041L778.151 235.402L777.772 234.015L777.143 232.755L776.138 231.619L774.883 230.863L773.245 230.359L771.359 230.232H762.175L760.164 239.559V239.559ZM773.876 239.559L773.749 240.19L773.37 240.946L773.12 241.577L772.871 242.333L772.492 242.835L771.99 243.467L770.981 244.478L769.723 245.232L769.097 245.485L768.344 245.736L766.83 245.989H763.058L764.314 239.557L765.701 233.255H771.11L772.115 233.633L772.871 234.137L773.497 234.891L773.876 235.647L774.126 236.655V238.672L773.876 239.428V239.559V239.559ZM758.529 233.257H749.217L748.086 238.174H756.266L755.76 240.821H747.46L746.451 245.99H755.76L755.257 249.015H741.672L745.698 230.23H759.157L758.529 233.257V233.257ZM742.301 233.257H736.388L732.991 249.015H728.966L732.362 233.257H726.45L727.078 230.23H742.805L742.301 233.257V233.257ZM720.285 249.015H716.258L720.158 230.23H724.308L720.285 249.015V249.015ZM712.234 249.015H707.075L702.421 235.022H702.296L699.403 249.015H695.755L699.78 230.23H705.064L709.594 244.352L712.489 230.23H716.262L712.234 249.015V249.015ZM677.764 273.221H677.261L677.009 273.097H676.255L676.004 272.973H675.754L675.502 270.325H676.509L676.634 270.448H677.39L678.395 270.325L679.904 269.821L680.408 269.314L681.161 268.304L681.413 267.803V267.296L681.538 266.666V266.038L681.413 265.531L681.161 265.155L680.408 264.648H679.904L679.403 264.524H676.006L672.609 280.284H668.457L672.485 261.496H681.417L682.801 261.623L683.807 262.13L684.687 262.757L685.191 263.641L685.442 264.524L685.568 265.531V266.542L685.442 267.425L685.064 268.687L684.435 269.821L683.68 270.828L682.675 271.712L681.667 272.342L679.15 273.097L677.764 273.221V273.221ZM884.833 264.523H875.274L874.265 269.44H882.569L881.94 272.212H873.639L872.631 277.381H882.066L881.437 280.283H867.852L871.878 261.494H885.464L884.833 264.523V264.523ZM868.102 264.775L867.596 264.648H867.22L866.216 264.399L865.583 264.272H864.957L864.451 264.144H863.698L862.314 264.272L861.055 264.648L859.8 265.155L858.668 266.038L857.787 266.922L856.905 268.056L856.403 269.443L855.9 270.954L855.647 272.468L855.773 273.855L856.149 274.989L856.655 275.873L857.408 276.63L858.416 277.261L859.548 277.638L860.803 277.761H861.556L862.312 277.638H862.942L864.201 277.387H864.7L865.332 277.263L865.835 277.136L864.826 280.288L864.324 280.411H863.695L863.192 280.539H862.563L862.06 280.662H859.166L857.152 280.411L856.271 280.162L855.389 279.782L854.636 279.403L853.884 278.899L853.254 278.395L852.625 277.761L852.246 277.007L851.87 276.123L851.491 275.369L851.364 274.362V273.351L851.491 272.217L851.615 270.955L851.994 269.825L852.373 268.563L853.378 266.545L854.007 265.662L855.518 264.148L856.399 263.517L858.157 262.51L860.17 261.752L861.179 261.501L862.184 261.377L863.316 261.254H865.958L866.461 261.377H866.967L867.469 261.501H867.972L868.474 261.628L868.102 264.775V264.775ZM847.346 280.283H843.193L847.219 261.494H851.37L847.346 280.283ZM834.008 280.283H829.101L826.335 261.494H830.489L832.375 276.627L840.679 261.494H844.705L834.008 280.283V280.283ZM818.786 272.213L821.808 280.283H817.275L813.88 270.072H816.274L817.027 269.945L817.78 269.694L818.409 269.314L818.911 268.938L819.414 268.431L819.664 267.803L819.918 267.049L820.042 266.542V266.038L819.791 265.28L819.541 265.03L819.038 264.779L817.78 264.528H814.005L810.61 280.288H806.459L810.486 261.499H819.165L820.421 261.627L821.556 261.878L822.437 262.257L823.067 262.761L823.569 263.392L823.948 264.275L824.072 265.282V266.289L823.948 267.551L823.569 268.689L823.067 269.696L822.437 270.45L821.681 271.205L820.676 271.712L819.795 272.091L818.786 272.213V272.213ZM806.838 264.523H797.4L796.395 269.44H804.571L804.069 272.212H795.765L794.76 277.381H804.196L803.566 280.283H789.854L793.881 261.494H807.466L806.838 264.523V264.523ZM789.725 264.523H784.443L783.185 264.773L782.682 264.901L782.432 265.152L782.053 265.402L781.802 265.906V266.537L781.929 267.044L782.18 267.544L782.682 268.051L783.185 268.682L783.814 269.182L784.443 269.816L785.196 270.32L785.826 270.947L786.578 271.454L787.084 272.208L787.587 272.839L788.089 273.594L788.343 274.224L788.463 275.108V275.862L788.214 276.873L787.835 277.627L786.325 279.141L785.32 279.645L783.932 280.025L782.425 280.276H774.248L774.878 277.375H781.794L782.423 277.251L782.926 276.996L783.305 276.746L783.68 276.369L783.931 275.862L783.68 274.855L782.927 273.844L781.796 272.714L780.54 271.576L779.153 270.442L778.021 269.055L777.268 267.54L777.141 266.03L777.392 265.019L777.771 264.136L778.4 263.381L779.282 262.751L780.286 262.247L781.545 261.867L783.056 261.616L784.814 261.489H790.351L789.725 264.523V264.523ZM767.335 280.283H754.628L758.529 261.494H762.806L759.407 277.381H767.961L767.335 280.283V280.283ZM740.411 280.283L742.046 277.381H747.957L746.199 265.277L738.022 280.281H733.871L744.565 261.493H749.596L752.491 280.281H740.411V280.283V280.283ZM739.658 264.523H733.745L730.348 280.283H726.196L729.595 264.523H723.808L724.439 261.494H740.163L739.658 264.523ZM721.669 264.523H716.384L715.127 264.773L714.749 264.901L714.372 265.152L713.871 265.655L713.744 265.906V266.537L713.871 267.044L714.624 268.051L715.125 268.682L715.754 269.182L716.382 269.816L717.138 270.32L717.893 270.947L718.52 271.454L719.025 272.208L719.654 272.839L720.031 273.594L720.283 274.224L720.534 275.108L720.409 275.862L720.156 276.873L719.779 277.627L719.152 278.385L718.395 279.14L717.263 279.643L715.881 280.023L714.37 280.274H706.321L706.823 277.373H713.87L714.37 277.249L715.377 276.742L715.627 276.366L715.879 275.859L715.753 274.852L714.998 273.841L713.868 272.71L712.482 271.572L711.224 270.438L710.092 269.051L709.337 267.537L709.085 266.026L709.337 265.016L709.838 264.132L710.472 263.388L711.225 262.757L712.232 262.254L713.614 261.874L715.123 261.623L716.758 261.496H722.295L721.669 264.523V264.523ZM686.695 270.95L686.441 272.971L686.82 275.616L687.577 277.131L688.077 277.885L689.211 279.019L689.964 279.523L690.718 279.903L691.6 280.283L692.605 280.533L693.611 280.657H695.752L697.763 280.406L698.768 280.157L699.775 279.777L700.656 279.397L701.411 278.894L702.292 278.39L703.047 277.756L703.674 277.002L704.431 276.247L704.931 275.364L705.938 273.346L706.315 272.212L706.566 270.95L706.818 269.943V268.053L706.691 267.045L706.566 266.162L705.811 264.645L704.811 263.388L704.18 262.885L703.426 262.381L702.671 262.001L701.665 261.621L700.783 261.371L699.778 261.247H697.638L695.626 261.496L694.621 261.747L693.615 262.13L692.733 262.507L691.98 263.01L691.099 263.641L690.344 264.144L689.59 264.902L688.961 265.786L688.331 266.54L687.829 267.547L687.451 268.558L687.074 269.819L686.695 270.95V270.95ZM702.419 270.95L702.042 272.464L701.414 273.851L700.783 274.986L699.905 275.869L698.898 276.627L697.765 277.258L696.633 277.634L695.247 277.758L693.862 277.634L692.857 277.131L691.975 276.5L691.348 275.616L690.969 274.733L690.718 273.475V272.213L690.969 270.952L691.348 269.441L691.975 268.054L692.605 266.92L693.486 266.037L694.491 265.153L695.625 264.646L696.757 264.27L698.14 264.143L699.399 264.397L700.531 264.646L701.412 265.404L702.04 266.162L702.417 267.169L702.67 268.3V269.562L702.419 270.95V270.95Z" fill="black"/>
</g>
<g filter="url(#filter5_d)">
<path d="M1023.21 598.523L1025.64 626.468C1025.64 640.238 1015.11 648.337 997.002 648.337H890.541C885.042 648.337 880.543 644.302 880.543 639.37V531.757C880.543 526.825 885.042 522.789 890.541 522.789H950.527C953.526 522.789 956.425 524.045 958.325 526.197L998.315 570.946C998.815 571.574 999.315 572.291 999.715 573.008C999.715 573.098 999.715 573.098 999.715 573.098C999.715 573.098 999.715 573.098 999.715 573.188C1000.31 574.264 1023.21 598.118 1023.21 598.523Z" fill="#ECBD00"/>
<path d="M1000.51 576.159V576.248L940.527 576.159V522.789H950.525C953.524 522.789 956.424 524.034 958.323 526.169L998.314 570.556C998.814 571.178 999.314 571.89 999.713 572.601C999.713 572.69 999.713 572.69 999.713 572.69C999.713 572.69 999.713 572.69 999.713 572.779C1000.31 573.847 1000.51 575.003 1000.51 576.159Z" fill="#D2A800"/>
<path d="M656 485C656 479.477 660.477 475 666 475H917.024C922.547 475 927.024 479.477 927.024 485V648.143H666C660.477 648.143 656 643.666 656 638.143V485Z" fill="#FFCC00"/>
<ellipse cx="762.7" cy="648.035" rx="28.8796" ry="28.8572" fill="#D2A800"/>
<ellipse cx="964.79" cy="648.142" rx="28.8797" ry="28.8572" fill="#D2A800"/>
<g clip-path="url(#clip1)">
<path d="M917.83 533.318V589.208H664.105V533.318H917.83Z" fill="#FECC00"/>
<path d="M745.912 556.671C744.803 558.17 742.948 560.775 741.819 562.297C741.246 563.071 740.211 564.476 743.642 564.476C747.273 564.476 761.71 564.476 761.71 564.476C761.71 564.476 764.622 560.522 767.063 557.215C770.384 552.716 767.35 543.355 755.479 543.355C744.854 543.355 708.727 543.355 708.727 543.355L700.621 554.349C700.621 554.349 742.645 554.349 744.802 554.349C747.032 554.349 747.002 555.196 745.912 556.671ZM732.639 567.188C729.207 567.188 730.242 565.78 730.815 565.006C731.944 563.484 733.83 560.906 734.938 559.408C736.03 557.932 736.059 557.085 733.825 557.085C731.67 557.085 713.619 557.085 713.619 557.085L697.339 579.169C697.339 579.169 726.416 579.169 737.042 579.169C750.155 579.169 757.455 570.267 759.706 567.189C759.706 567.188 736.268 567.188 732.639 567.188ZM758.466 579.169H781.757L790.586 567.186L767.298 567.189C767.291 567.188 758.466 579.169 758.466 579.169ZM818.559 543.355L809.626 555.467H799.231L808.16 543.355H784.877L769.299 564.476H826.267L841.84 543.355H818.559ZM792.151 579.169H815.434L824.268 567.189H800.985C800.977 567.188 792.151 579.169 792.151 579.169ZM664.105 571.914V574.459H696.542L698.416 571.914H664.105ZM701.903 567.188H664.105V569.729H700.024L701.903 567.188ZM664.105 579.169H693.067L694.932 576.639H664.105V579.169ZM883.649 574.457H917.83V571.913H885.526L883.649 574.457ZM880.177 579.169H917.83V576.639H882.041L880.177 579.169ZM889.007 567.188L887.134 569.732H917.83V567.188H889.007V567.188ZM858.51 564.476L874.086 543.355H849.427C849.418 543.355 833.839 564.476 833.839 564.476H858.51ZM831.843 567.188C831.843 567.188 830.14 569.509 829.313 570.627C826.39 574.57 828.975 579.169 838.518 579.169C849.542 579.169 875.911 579.169 875.911 579.169L884.745 567.189H831.843V567.188Z" fill="#D50029"/>
</g>
</g>
<g filter="url(#filter6_d)">
<path d="M189.554 231.351C238.594 231.351 278.349 191.596 278.349 142.556C278.349 93.515 238.594 53.7598 189.554 53.7598C140.513 53.7598 100.758 93.515 100.758 142.556C100.758 191.596 140.513 231.351 189.554 231.351Z" fill="#F5F5F5"/>
<path d="M222.599 199.211C232.602 193.336 240.89 184.942 246.636 174.865C252.383 164.787 255.388 153.38 255.35 141.779C255.313 130.179 252.235 118.791 246.424 108.751C240.612 98.7106 232.271 90.3695 222.23 84.559C212.19 78.7485 200.801 75.6717 189.201 75.6353C177.6 75.599 166.193 78.6044 156.116 84.3519C146.039 90.0994 137.645 98.3881 131.771 108.391C125.897 118.395 122.748 129.763 122.638 141.363L188.993 141.993L222.599 199.211Z" fill="#A7B7C1"/>
<path d="M188.997 154.719C196.022 154.719 201.717 149.024 201.717 141.999C201.717 134.974 196.022 129.279 188.997 129.279C181.972 129.279 176.277 134.974 176.277 141.999C176.277 149.024 181.972 154.719 188.997 154.719Z" fill="black"/>
<path d="M227.294 206.375L188.716 142.202L108.001 142.5" stroke="black" stroke-width="4" stroke-miterlimit="10" stroke-linecap="round"/>
<path d="M189.662 73.6821C188.563 73.6821 187.672 72.791 187.672 71.692V60.1698C187.672 59.0708 188.563 58.1797 189.662 58.1797C190.761 58.1797 191.652 59.0708 191.652 60.1698V71.692C191.652 72.791 190.761 73.6821 189.662 73.6821Z" fill="#221F20"/>
<path d="M272.146 144.646H260.623C259.524 144.646 258.633 143.755 258.633 142.656C258.633 141.557 259.524 140.666 260.623 140.666H272.146C273.245 140.666 274.136 141.557 274.136 142.656C274.136 143.755 273.245 144.646 272.146 144.646Z" fill="#221F20"/>
<path d="M189.662 226.921C188.563 226.921 187.672 226.03 187.672 224.931V213.408C187.672 212.309 188.563 211.418 189.662 211.418C190.761 211.418 191.652 212.309 191.652 213.408V224.931C191.652 226.03 190.761 226.921 189.662 226.921Z" fill="#221F20"/>
<path d="M118.907 144.646H107.385C106.286 144.646 105.395 143.755 105.395 142.656C105.395 141.557 106.286 140.666 107.385 140.666H118.907C120.006 140.666 120.897 141.557 120.897 142.656C120.897 143.755 120.006 144.646 118.907 144.646Z" fill="#221F20"/>
</g>
<g filter="url(#filter7_d)">
<path d="M657.554 228.351C706.594 228.351 746.349 188.596 746.349 139.556C746.349 90.515 706.594 50.7598 657.554 50.7598C608.513 50.7598 568.758 90.515 568.758 139.556C568.758 188.596 608.513 228.351 657.554 228.351Z" fill="#F5F5F5"/>
<path d="M717.415 168.351C725.067 152.46 726.092 134.18 720.267 117.534C714.441 100.887 702.24 87.236 686.35 79.5845C670.459 71.933 652.179 70.9074 635.533 76.7334C618.886 82.5593 605.235 94.7596 597.583 110.65L657.499 139.5L717.415 168.351Z" fill="#A7B7C1"/>
<path d="M656.997 151.719C664.022 151.719 669.717 146.024 669.717 138.999C669.717 131.974 664.022 126.279 656.997 126.279C649.972 126.279 644.277 131.974 644.277 138.999C644.277 146.024 649.972 151.719 656.997 151.719Z" fill="black"/>
<path d="M590.001 106.133L623.646 122.551L657.292 138.969L722.5 170.5" stroke="black" stroke-width="4" stroke-miterlimit="10" stroke-linecap="round"/>
<path d="M657.662 70.6821C656.563 70.6821 655.672 69.791 655.672 68.692V57.1698C655.672 56.0708 656.563 55.1797 657.662 55.1797C658.761 55.1797 659.652 56.0708 659.652 57.1698V68.692C659.652 69.791 658.761 70.6821 657.662 70.6821Z" fill="#221F20"/>
<path d="M740.146 141.646H728.623C727.524 141.646 726.633 140.755 726.633 139.656C726.633 138.557 727.524 137.666 728.623 137.666H740.146C741.245 137.666 742.136 138.557 742.136 139.656C742.136 140.755 741.245 141.646 740.146 141.646Z" fill="#221F20"/>
<path d="M657.662 223.921C656.563 223.921 655.672 223.03 655.672 221.931V210.408C655.672 209.309 656.563 208.418 657.662 208.418C658.761 208.418 659.652 209.309 659.652 210.408V221.931C659.652 223.03 658.761 223.921 657.662 223.921Z" fill="#221F20"/>
<path d="M586.907 141.646H575.385C574.286 141.646 573.395 140.755 573.395 139.656C573.395 138.557 574.286 137.666 575.385 137.666H586.907C588.006 137.666 588.897 138.557 588.897 139.656C588.897 140.755 588.006 141.646 586.907 141.646Z" fill="#221F20"/>
</g>
<g filter="url(#filter8_d)">
<path d="M189.554 557.351C238.594 557.351 278.349 517.596 278.349 468.556C278.349 419.515 238.594 379.76 189.554 379.76C140.513 379.76 100.758 419.515 100.758 468.556C100.758 517.596 140.513 557.351 189.554 557.351Z" fill="#F5F5F5"/>
<path d="M159.689 527.944C171.446 533.84 184.687 536.117 197.738 534.488C210.789 532.859 223.064 527.396 233.01 518.79C242.957 510.184 250.128 498.823 253.617 486.141C257.106 473.46 256.756 460.029 252.612 447.547C248.468 435.064 240.715 424.091 230.334 416.014C219.953 407.938 207.411 403.121 194.293 402.173C181.174 401.225 168.07 404.189 156.636 410.688C145.201 417.188 135.951 426.933 130.055 438.69L189.499 468.5L159.689 527.944Z" fill="#A7B7C1"/>
<path d="M188.997 480.719C196.022 480.719 201.717 475.024 201.717 467.999C201.717 460.974 196.022 455.279 188.997 455.279C181.972 455.279 176.277 460.974 176.277 467.999C176.277 475.024 181.972 480.719 188.997 480.719Z" fill="black"/>
<path d="M122 435.131L155.646 451.55L189.292 467.968L155.646 534.998" stroke="black" stroke-width="4" stroke-miterlimit="10" stroke-linecap="round"/>
<path d="M189.662 399.682C188.563 399.682 187.672 398.791 187.672 397.692V386.17C187.672 385.071 188.563 384.18 189.662 384.18C190.761 384.18 191.652 385.071 191.652 386.17V397.692C191.652 398.791 190.761 399.682 189.662 399.682Z" fill="#221F20"/>
<path d="M272.146 470.646H260.623C259.524 470.646 258.633 469.755 258.633 468.656C258.633 467.557 259.524 466.666 260.623 466.666H272.146C273.245 466.666 274.136 467.557 274.136 468.656C274.136 469.755 273.245 470.646 272.146 470.646Z" fill="#221F20"/>
<path d="M189.662 552.921C188.563 552.921 187.672 552.03 187.672 550.931V539.408C187.672 538.309 188.563 537.418 189.662 537.418C190.761 537.418 191.652 538.309 191.652 539.408V550.931C191.652 552.03 190.761 552.921 189.662 552.921Z" fill="#221F20"/>
<path d="M118.907 470.646H107.385C106.286 470.646 105.395 469.755 105.395 468.656C105.395 467.557 106.286 466.666 107.385 466.666H118.907C120.006 466.666 120.897 467.557 120.897 468.656C120.897 469.755 120.006 470.646 118.907 470.646Z" fill="#221F20"/>
</g>
<g filter="url(#filter9_d)">
<path d="M656.554 557.351C705.594 557.351 745.349 517.596 745.349 468.556C745.349 419.515 705.594 379.76 656.554 379.76C607.513 379.76 567.758 419.515 567.758 468.556C567.758 517.596 607.513 557.351 656.554 557.351Z" fill="#F5F5F5"/>
<path d="M656.5 535C666.538 535 676.446 532.728 685.48 528.353C694.515 523.979 702.442 517.616 708.667 509.741C714.892 501.867 719.254 492.685 721.426 482.885C723.597 473.085 723.521 462.92 721.205 453.153C718.888 443.386 714.391 434.27 708.049 426.489C701.708 418.708 693.687 412.463 684.589 408.223C675.49 403.983 665.55 401.858 655.513 402.007C645.476 402.156 635.603 404.576 626.634 409.084L656.5 468.5V535Z" fill="#A7B7C1"/>
<path d="M655.997 480.719C663.022 480.719 668.717 475.024 668.717 467.999C668.717 460.974 663.022 455.279 655.997 455.279C648.972 455.279 643.277 460.974 643.277 467.999C643.277 475.024 648.972 480.719 655.997 480.719Z" fill="black"/>
<path d="M622.648 401.5L656.293 467.968L656.294 542.499" stroke="black" stroke-width="4" stroke-miterlimit="10" stroke-linecap="round"/>
<path d="M656.662 399.682C655.563 399.682 654.672 398.791 654.672 397.692V386.17C654.672 385.071 655.563 384.18 656.662 384.18C657.761 384.18 658.652 385.071 658.652 386.17V397.692C658.652 398.791 657.761 399.682 656.662 399.682Z" fill="#221F20"/>
<path d="M739.146 470.646H727.623C726.524 470.646 725.633 469.755 725.633 468.656C725.633 467.557 726.524 466.666 727.623 466.666H739.146C740.245 466.666 741.136 467.557 741.136 468.656C741.136 469.755 740.245 470.646 739.146 470.646Z" fill="#221F20"/>
<path d="M656.662 552.921C655.563 552.921 654.672 552.03 654.672 550.931V539.408C654.672 538.309 655.563 537.418 656.662 537.418C657.761 537.418 658.652 538.309 658.652 539.408V550.931C658.652 552.03 657.761 552.921 656.662 552.921Z" fill="#221F20"/>
<path d="M585.907 470.646H574.385C573.286 470.646 572.395 469.755 572.395 468.656C572.395 467.557 573.286 466.666 574.385 466.666H585.907C587.006 466.666 587.897 467.557 587.897 468.656C587.897 469.755 587.006 470.646 585.907 470.646Z" fill="#221F20"/>
</g>
<path d="M1355.05 1477.9H1618.05V1545C1618.05 1550.8 1613.35 1555.5 1607.55 1555.5H1365.55C1359.75 1555.5 1355.05 1550.8 1355.05 1545V1477.9Z" fill="#F5F5F5" stroke="#7C4DFF" stroke-width="9"/>
<path d="M1406.88 1488.61C1409.64 1488.61 1412.08 1489.23 1414.2 1490.47C1416.36 1491.67 1418.04 1493.35 1419.24 1495.51C1420.44 1497.63 1421.04 1500.05 1421.04 1502.77C1421.04 1505.53 1420.44 1507.99 1419.24 1510.15C1418.04 1512.27 1416.36 1513.95 1414.2 1515.19C1412.08 1516.39 1409.64 1516.99 1406.88 1516.99C1404.16 1516.99 1401.74 1516.39 1399.62 1515.19C1397.5 1513.95 1395.84 1512.27 1394.64 1510.15C1393.44 1507.99 1392.84 1505.53 1392.84 1502.77C1392.84 1500.05 1393.44 1497.63 1394.64 1495.51C1395.84 1493.35 1397.5 1491.67 1399.62 1490.47C1401.74 1489.23 1404.16 1488.61 1406.88 1488.61ZM1406.94 1493.65C1405.26 1493.65 1403.74 1494.05 1402.38 1494.85C1401.06 1495.61 1400.02 1496.69 1399.26 1498.09C1398.5 1499.45 1398.12 1501.01 1398.12 1502.77C1398.12 1504.57 1398.5 1506.17 1399.26 1507.57C1400.02 1508.93 1401.06 1510.01 1402.38 1510.81C1403.74 1511.61 1405.26 1512.01 1406.94 1512.01C1408.66 1512.01 1410.18 1511.61 1411.5 1510.81C1412.82 1510.01 1413.84 1508.93 1414.56 1507.57C1415.32 1506.17 1415.7 1504.57 1415.7 1502.77C1415.7 1501.01 1415.32 1499.45 1414.56 1498.09C1413.84 1496.69 1412.82 1495.61 1411.5 1494.85C1410.18 1494.05 1408.66 1493.65 1406.94 1493.65ZM1419.12 1510.27L1404.9 1533.91C1404.26 1534.91 1403.42 1535.41 1402.38 1535.41C1401.62 1535.41 1400.98 1535.19 1400.46 1534.75C1399.94 1534.31 1399.62 1533.77 1399.5 1533.13C1399.38 1532.45 1399.52 1531.79 1399.92 1531.15L1408.86 1516.33L1419.12 1510.27ZM1430.4 1510.75C1429.36 1510.75 1428.44 1510.37 1427.64 1509.61C1426.88 1508.81 1426.5 1507.87 1426.5 1506.79C1426.5 1505.71 1426.88 1504.79 1427.64 1504.03C1428.4 1503.23 1429.32 1502.83 1430.4 1502.83C1431.52 1502.83 1432.44 1503.23 1433.16 1504.03C1433.92 1504.79 1434.3 1505.71 1434.3 1506.79C1434.3 1507.87 1433.92 1508.81 1433.16 1509.61C1432.44 1510.37 1431.52 1510.75 1430.4 1510.75ZM1430.88 1536.49C1429.84 1536.49 1428.92 1536.11 1428.12 1535.35C1427.36 1534.55 1426.98 1533.63 1426.98 1532.59C1426.98 1531.47 1427.36 1530.53 1428.12 1529.77C1428.92 1528.97 1429.84 1528.57 1430.88 1528.57C1432 1528.57 1432.94 1528.97 1433.7 1529.77C1434.46 1530.53 1434.84 1531.47 1434.84 1532.59C1434.84 1533.63 1434.46 1534.55 1433.7 1535.35C1432.94 1536.11 1432 1536.49 1430.88 1536.49ZM1443.5 1535.53C1442.7 1535.53 1442.02 1535.27 1441.46 1534.75C1440.94 1534.19 1440.68 1533.51 1440.68 1532.71C1440.68 1531.91 1440.94 1531.25 1441.46 1530.73L1458.86 1510.27C1460.02 1508.99 1460.92 1507.71 1461.56 1506.43C1462.2 1505.15 1462.52 1503.95 1462.52 1502.83C1462.52 1501.03 1462.18 1499.47 1461.5 1498.15C1460.86 1496.79 1459.94 1495.75 1458.74 1495.03C1457.58 1494.27 1456.18 1493.89 1454.54 1493.89C1452.98 1493.89 1451.56 1494.31 1450.28 1495.15C1449 1495.95 1448 1497.03 1447.28 1498.39C1446.56 1499.71 1446.2 1501.19 1446.2 1502.83C1446.2 1503.59 1445.92 1504.25 1445.36 1504.81C1444.84 1505.33 1444.18 1505.59 1443.38 1505.59C1442.62 1505.59 1441.96 1505.33 1441.4 1504.81C1440.84 1504.25 1440.56 1503.59 1440.56 1502.83C1440.56 1500.11 1441.16 1497.69 1442.36 1495.57C1443.6 1493.45 1445.28 1491.77 1447.4 1490.53C1449.52 1489.29 1451.9 1488.67 1454.54 1488.67C1457.22 1488.67 1459.56 1489.25 1461.56 1490.41C1463.6 1491.57 1465.16 1493.21 1466.24 1495.33C1467.36 1497.45 1467.92 1499.95 1467.92 1502.83C1467.92 1504.11 1467.66 1505.39 1467.14 1506.67C1466.66 1507.95 1466.02 1509.19 1465.22 1510.39C1464.46 1511.55 1463.66 1512.61 1462.82 1513.57L1448.54 1529.89H1466C1466.8 1529.89 1467.48 1530.19 1468.04 1530.79C1468.6 1531.35 1468.88 1531.99 1468.88 1532.71C1468.88 1533.51 1468.6 1534.19 1468.04 1534.75C1467.48 1535.27 1466.8 1535.53 1466 1535.53H1443.5ZM1489.88 1535.53C1487.12 1535.53 1484.66 1534.93 1482.5 1533.73C1480.38 1532.49 1478.72 1530.81 1477.52 1528.69C1476.32 1526.53 1475.72 1524.09 1475.72 1521.37C1475.72 1518.61 1476.32 1516.17 1477.52 1514.05C1478.72 1511.89 1480.38 1510.21 1482.5 1509.01C1484.66 1507.77 1487.12 1507.15 1489.88 1507.15C1492.6 1507.15 1495.02 1507.77 1497.14 1509.01C1499.26 1510.21 1500.92 1511.89 1502.12 1514.05C1503.32 1516.17 1503.92 1518.61 1503.92 1521.37C1503.92 1524.09 1503.32 1526.53 1502.12 1528.69C1500.92 1530.81 1499.26 1532.49 1497.14 1533.73C1495.02 1534.93 1492.6 1535.53 1489.88 1535.53ZM1489.82 1530.49C1491.5 1530.49 1493 1530.11 1494.32 1529.35C1495.68 1528.55 1496.74 1527.47 1497.5 1526.11C1498.26 1524.71 1498.64 1523.13 1498.64 1521.37C1498.64 1519.57 1498.26 1517.99 1497.5 1516.63C1496.74 1515.23 1495.68 1514.13 1494.32 1513.33C1493 1512.53 1491.5 1512.13 1489.82 1512.13C1488.1 1512.13 1486.58 1512.53 1485.26 1513.33C1483.94 1514.13 1482.9 1515.23 1482.14 1516.63C1481.42 1517.99 1481.06 1519.57 1481.06 1521.37C1481.06 1523.13 1481.42 1524.71 1482.14 1526.11C1482.9 1527.47 1483.94 1528.55 1485.26 1529.35C1486.58 1530.11 1488.1 1530.49 1489.82 1530.49ZM1477.64 1513.87L1491.86 1490.23C1492.5 1489.23 1493.34 1488.73 1494.38 1488.73C1495.14 1488.73 1495.78 1488.95 1496.3 1489.39C1496.82 1489.83 1497.14 1490.39 1497.26 1491.07C1497.38 1491.71 1497.24 1492.35 1496.84 1492.99L1487.9 1507.81L1477.64 1513.87ZM1514.84 1549.57C1514 1549.57 1513.32 1549.31 1512.8 1548.79C1512.28 1548.27 1512.02 1547.59 1512.02 1546.75V1519.09C1512.06 1515.93 1512.8 1513.09 1514.24 1510.57C1515.72 1508.05 1517.7 1506.07 1520.18 1504.63C1522.66 1503.19 1525.44 1502.47 1528.52 1502.47C1531.72 1502.47 1534.56 1503.21 1537.04 1504.69C1539.56 1506.13 1541.54 1508.11 1542.98 1510.63C1544.46 1513.11 1545.2 1515.95 1545.2 1519.15C1545.2 1522.31 1544.5 1525.15 1543.1 1527.67C1541.74 1530.19 1539.88 1532.17 1537.52 1533.61C1535.16 1535.05 1532.5 1535.77 1529.54 1535.77C1527.06 1535.77 1524.8 1535.27 1522.76 1534.27C1520.72 1533.23 1519.02 1531.83 1517.66 1530.07V1546.75C1517.66 1547.59 1517.4 1548.27 1516.88 1548.79C1516.36 1549.31 1515.68 1549.57 1514.84 1549.57ZM1528.58 1530.79C1530.7 1530.79 1532.6 1530.29 1534.28 1529.29C1535.96 1528.25 1537.28 1526.85 1538.24 1525.09C1539.24 1523.33 1539.74 1521.35 1539.74 1519.15C1539.74 1516.91 1539.24 1514.91 1538.24 1513.15C1537.28 1511.39 1535.96 1510.01 1534.28 1509.01C1532.6 1507.97 1530.7 1507.45 1528.58 1507.45C1526.46 1507.45 1524.56 1507.97 1522.88 1509.01C1521.2 1510.01 1519.88 1511.39 1518.92 1513.15C1517.96 1514.91 1517.48 1516.91 1517.48 1519.15C1517.48 1521.35 1517.96 1523.35 1518.92 1525.15C1519.88 1526.91 1521.2 1528.29 1522.88 1529.29C1524.56 1530.29 1526.46 1530.79 1528.58 1530.79ZM1597.77 1535.59C1596.97 1535.59 1596.29 1535.33 1595.73 1534.81C1595.21 1534.25 1594.95 1533.57 1594.95 1532.77V1515.55C1594.95 1512.95 1594.29 1510.97 1592.97 1509.61C1591.65 1508.21 1589.93 1507.51 1587.81 1507.51C1585.61 1507.51 1583.79 1508.27 1582.35 1509.79C1580.95 1511.31 1580.25 1513.27 1580.25 1515.67H1575.57C1575.57 1513.07 1576.13 1510.77 1577.25 1508.77C1578.37 1506.77 1579.93 1505.21 1581.93 1504.09C1583.93 1502.97 1586.21 1502.41 1588.77 1502.41C1591.09 1502.41 1593.13 1502.93 1594.89 1503.97C1596.69 1505.01 1598.09 1506.51 1599.09 1508.47C1600.09 1510.43 1600.59 1512.79 1600.59 1515.55V1532.77C1600.59 1533.57 1600.33 1534.25 1599.81 1534.81C1599.29 1535.33 1598.61 1535.59 1597.77 1535.59ZM1557.09 1535.59C1556.25 1535.59 1555.57 1535.33 1555.05 1534.81C1554.53 1534.25 1554.27 1533.57 1554.27 1532.77V1505.59C1554.27 1504.75 1554.53 1504.07 1555.05 1503.55C1555.57 1503.03 1556.25 1502.77 1557.09 1502.77C1557.93 1502.77 1558.61 1503.03 1559.13 1503.55C1559.65 1504.07 1559.91 1504.75 1559.91 1505.59V1532.77C1559.91 1533.57 1559.65 1534.25 1559.13 1534.81C1558.61 1535.33 1557.93 1535.59 1557.09 1535.59ZM1577.49 1535.59C1576.65 1535.59 1575.97 1535.33 1575.45 1534.81C1574.93 1534.25 1574.67 1533.57 1574.67 1532.77V1515.55C1574.67 1512.95 1574.01 1510.97 1572.69 1509.61C1571.37 1508.21 1569.65 1507.51 1567.53 1507.51C1565.33 1507.51 1563.51 1508.27 1562.07 1509.79C1560.63 1511.27 1559.91 1513.19 1559.91 1515.55H1556.25C1556.29 1512.99 1556.83 1510.73 1557.87 1508.77C1558.91 1506.77 1560.35 1505.21 1562.19 1504.09C1564.03 1502.97 1566.13 1502.41 1568.49 1502.41C1570.81 1502.41 1572.85 1502.93 1574.61 1503.97C1576.41 1505.01 1577.79 1506.51 1578.75 1508.47C1579.75 1510.43 1580.25 1512.79 1580.25 1515.55V1532.77C1580.25 1533.57 1579.99 1534.25 1579.47 1534.81C1578.99 1535.33 1578.33 1535.59 1577.49 1535.59Z" fill="black"/>
<path d="M1350.55 1435C1350.55 1426.72 1357.26 1420 1365.55 1420H1607.55C1615.83 1420 1622.55 1426.72 1622.55 1435V1473H1350.55V1435Z" fill="#7C4DFF"/>
<path d="M1379.43 1461.45C1377.14 1461.45 1375.05 1461.08 1373.15 1460.32C1371.25 1459.54 1369.61 1458.45 1368.24 1457.05C1366.88 1455.64 1365.82 1453.99 1365.04 1452.09C1364.28 1450.19 1363.91 1448.1 1363.91 1445.81C1363.91 1443.55 1364.28 1441.47 1365.04 1439.57C1365.82 1437.68 1366.88 1436.02 1368.24 1434.62C1369.61 1433.22 1371.25 1432.14 1373.15 1431.38C1375.05 1430.6 1377.14 1430.21 1379.43 1430.21C1381.69 1430.21 1383.77 1430.6 1385.67 1431.38C1387.57 1432.14 1389.2 1433.22 1390.58 1434.62C1391.96 1436.02 1393.03 1437.68 1393.78 1439.57C1394.56 1441.47 1394.95 1443.55 1394.95 1445.81C1394.95 1448.1 1394.56 1450.19 1393.78 1452.09C1393.03 1453.99 1391.96 1455.64 1390.58 1457.05C1389.2 1458.45 1387.57 1459.54 1385.67 1460.32C1383.77 1461.08 1381.69 1461.45 1379.43 1461.45ZM1379.43 1458.06C1381.14 1458.06 1382.73 1457.75 1384.19 1457.12C1385.64 1456.5 1386.9 1455.64 1387.97 1454.55C1389.06 1453.43 1389.89 1452.13 1390.47 1450.65C1391.04 1449.17 1391.32 1447.56 1391.32 1445.81C1391.32 1444.1 1391.04 1442.5 1390.47 1441.02C1389.89 1439.51 1389.06 1438.21 1387.97 1437.12C1386.9 1436 1385.64 1435.14 1384.19 1434.54C1382.73 1433.92 1381.14 1433.61 1379.43 1433.61C1377.69 1433.61 1376.09 1433.92 1374.63 1434.54C1373.18 1435.14 1371.91 1436 1370.85 1437.12C1369.81 1438.21 1368.99 1439.51 1368.39 1441.02C1367.79 1442.5 1367.49 1444.1 1367.49 1445.81C1367.49 1447.56 1367.79 1449.17 1368.39 1450.65C1368.99 1452.13 1369.81 1453.43 1370.85 1454.55C1371.91 1455.64 1373.18 1456.5 1374.63 1457.12C1376.09 1457.75 1377.69 1458.06 1379.43 1458.06ZM1418.97 1461.1C1418.45 1461.1 1418.01 1460.93 1417.64 1460.59C1417.31 1460.23 1417.14 1459.79 1417.14 1459.27V1449.48C1417.14 1447.97 1416.85 1446.74 1416.28 1445.77C1415.73 1444.79 1414.97 1444.06 1413.98 1443.59C1413.02 1443.1 1411.92 1442.85 1410.7 1442.85C1409.53 1442.85 1408.48 1443.08 1407.54 1443.55C1406.63 1444.02 1405.91 1444.64 1405.36 1445.42C1404.81 1446.2 1404.54 1447.09 1404.54 1448.08H1402.16C1402.19 1446.44 1402.6 1444.98 1403.41 1443.71C1404.22 1442.41 1405.31 1441.39 1406.69 1440.67C1408.06 1439.91 1409.61 1439.53 1411.33 1439.53C1413.12 1439.53 1414.73 1439.92 1416.16 1440.7C1417.59 1441.46 1418.72 1442.58 1419.56 1444.06C1420.39 1445.54 1420.8 1447.35 1420.8 1449.48V1459.27C1420.8 1459.79 1420.62 1460.23 1420.26 1460.59C1419.92 1460.93 1419.49 1461.1 1418.97 1461.1ZM1402.71 1461.1C1402.16 1461.1 1401.72 1460.93 1401.38 1460.59C1401.04 1460.23 1400.87 1459.79 1400.87 1459.27V1441.56C1400.87 1441.02 1401.04 1440.57 1401.38 1440.24C1401.72 1439.9 1402.16 1439.73 1402.71 1439.73C1403.25 1439.73 1403.7 1439.9 1404.03 1440.24C1404.37 1440.57 1404.54 1441.02 1404.54 1441.56V1459.27C1404.54 1459.79 1404.37 1460.23 1404.03 1460.59C1403.7 1460.93 1403.25 1461.1 1402.71 1461.1ZM1427.11 1452.21C1426.59 1452.21 1426.16 1452.04 1425.82 1451.7C1425.48 1451.36 1425.31 1450.94 1425.31 1450.42C1425.31 1449.87 1425.48 1449.43 1425.82 1449.09C1426.16 1448.75 1426.59 1448.58 1427.11 1448.58H1435.96C1436.51 1448.58 1436.95 1448.75 1437.29 1449.09C1437.63 1449.43 1437.79 1449.87 1437.79 1450.42C1437.79 1450.94 1437.63 1451.36 1437.29 1451.7C1436.95 1452.04 1436.51 1452.21 1435.96 1452.21H1427.11ZM1444.88 1461.06C1444.33 1461.06 1443.88 1460.89 1443.51 1460.56C1443.18 1460.19 1443.01 1459.74 1443.01 1459.19V1432.48C1443.01 1431.93 1443.18 1431.49 1443.51 1431.15C1443.88 1430.79 1444.33 1430.6 1444.88 1430.6H1451.9C1454.13 1430.6 1456.18 1430.98 1458.02 1431.73C1459.87 1432.46 1461.47 1433.52 1462.82 1434.89C1464.17 1436.25 1465.21 1437.84 1465.94 1439.69C1466.67 1441.54 1467.03 1443.58 1467.03 1445.81C1467.03 1448.05 1466.67 1450.1 1465.94 1451.98C1465.21 1453.82 1464.17 1455.43 1462.82 1456.81C1461.47 1458.16 1459.87 1459.22 1458.02 1459.97C1456.18 1460.7 1454.13 1461.06 1451.9 1461.06H1444.88ZM1446.71 1457.75H1451.9C1454.16 1457.75 1456.15 1457.24 1457.87 1456.23C1459.61 1455.19 1460.97 1453.77 1461.96 1451.98C1462.95 1450.18 1463.44 1448.13 1463.44 1445.81C1463.44 1443.47 1462.95 1441.42 1461.96 1439.65C1460.97 1437.86 1459.61 1436.45 1457.87 1435.44C1456.15 1434.43 1454.16 1433.92 1451.9 1433.92H1446.71V1457.75ZM1482.91 1461.22C1480.78 1461.22 1478.88 1460.76 1477.22 1459.85C1475.56 1458.92 1474.26 1457.64 1473.32 1456.03C1472.38 1454.39 1471.92 1452.52 1471.92 1450.42C1471.92 1448.28 1472.36 1446.41 1473.24 1444.8C1474.13 1443.16 1475.35 1441.89 1476.91 1440.98C1478.49 1440.04 1480.3 1439.57 1482.33 1439.57C1484.33 1439.57 1486.06 1440.03 1487.52 1440.94C1489 1441.82 1490.13 1443.06 1490.91 1444.64C1491.69 1446.2 1492.08 1448.01 1492.08 1450.06C1492.08 1450.53 1491.92 1450.92 1491.61 1451.23C1491.3 1451.52 1490.9 1451.66 1490.4 1451.66H1474.41V1448.74H1490.44L1488.8 1449.87C1488.8 1448.49 1488.54 1447.27 1488.02 1446.2C1487.5 1445.11 1486.76 1444.25 1485.8 1443.63C1484.84 1443.01 1483.68 1442.69 1482.33 1442.69C1480.85 1442.69 1479.56 1443.03 1478.47 1443.71C1477.4 1444.36 1476.58 1445.27 1476.01 1446.44C1475.47 1447.61 1475.19 1448.93 1475.19 1450.42C1475.19 1451.9 1475.52 1453.22 1476.17 1454.39C1476.84 1455.54 1477.75 1456.45 1478.9 1457.12C1480.07 1457.77 1481.41 1458.1 1482.91 1458.1C1483.77 1458.1 1484.63 1457.94 1485.49 1457.63C1486.37 1457.32 1487.09 1456.95 1487.63 1456.54C1488 1456.28 1488.39 1456.15 1488.8 1456.15C1489.22 1456.12 1489.58 1456.24 1489.9 1456.5C1490.31 1456.86 1490.53 1457.27 1490.56 1457.71C1490.58 1458.12 1490.39 1458.49 1489.97 1458.8C1489.12 1459.5 1488.02 1460.09 1486.7 1460.56C1485.37 1461 1484.11 1461.22 1482.91 1461.22ZM1525.43 1461.1C1524.91 1461.1 1524.47 1460.93 1524.1 1460.59C1523.77 1460.23 1523.6 1459.79 1523.6 1459.27V1448.08C1523.6 1446.39 1523.17 1445.1 1522.31 1444.21C1521.45 1443.3 1520.33 1442.85 1518.96 1442.85C1517.53 1442.85 1516.34 1443.34 1515.41 1444.33C1514.5 1445.32 1514.04 1446.59 1514.04 1448.15H1511C1511 1446.46 1511.36 1444.97 1512.09 1443.67C1512.82 1442.37 1513.83 1441.35 1515.13 1440.63C1516.43 1439.9 1517.92 1439.53 1519.58 1439.53C1521.09 1439.53 1522.41 1439.87 1523.56 1440.55C1524.73 1441.22 1525.64 1442.2 1526.29 1443.47C1526.94 1444.75 1527.26 1446.28 1527.26 1448.08V1459.27C1527.26 1459.79 1527.09 1460.23 1526.76 1460.59C1526.42 1460.93 1525.98 1461.1 1525.43 1461.1ZM1498.99 1461.1C1498.44 1461.1 1498 1460.93 1497.66 1460.59C1497.32 1460.23 1497.16 1459.79 1497.16 1459.27V1441.6C1497.16 1441.06 1497.32 1440.61 1497.66 1440.28C1498 1439.94 1498.44 1439.77 1498.99 1439.77C1499.53 1439.77 1499.98 1439.94 1500.31 1440.28C1500.65 1440.61 1500.82 1441.06 1500.82 1441.6V1459.27C1500.82 1459.79 1500.65 1460.23 1500.31 1460.59C1499.98 1460.93 1499.53 1461.1 1498.99 1461.1ZM1512.25 1461.1C1511.7 1461.1 1511.26 1460.93 1510.92 1460.59C1510.58 1460.23 1510.42 1459.79 1510.42 1459.27V1448.08C1510.42 1446.39 1509.99 1445.1 1509.13 1444.21C1508.27 1443.3 1507.15 1442.85 1505.77 1442.85C1504.34 1442.85 1503.16 1443.34 1502.23 1444.33C1501.29 1445.29 1500.82 1446.54 1500.82 1448.08H1498.44C1498.47 1446.41 1498.82 1444.94 1499.5 1443.67C1500.17 1442.37 1501.11 1441.35 1502.3 1440.63C1503.5 1439.9 1504.86 1439.53 1506.4 1439.53C1507.91 1439.53 1509.23 1439.87 1510.38 1440.55C1511.55 1441.22 1512.44 1442.2 1513.07 1443.47C1513.72 1444.75 1514.04 1446.28 1514.04 1448.08V1459.27C1514.04 1459.79 1513.87 1460.23 1513.54 1460.59C1513.22 1460.93 1512.79 1461.1 1512.25 1461.1ZM1542.92 1461.22C1540.99 1461.22 1539.27 1460.75 1537.73 1459.81C1536.2 1458.88 1534.99 1457.59 1534.1 1455.95C1533.22 1454.32 1532.78 1452.47 1532.78 1450.42C1532.78 1448.34 1533.25 1446.49 1534.18 1444.88C1535.14 1443.24 1536.43 1441.95 1538.04 1441.02C1539.68 1440.05 1541.51 1439.57 1543.54 1439.57C1545.6 1439.57 1547.43 1440.05 1549.04 1441.02C1550.65 1441.95 1551.93 1443.24 1552.86 1444.88C1553.83 1446.52 1554.31 1448.36 1554.31 1450.42L1552.9 1450.73C1552.9 1452.7 1552.46 1454.48 1551.58 1456.07C1550.72 1457.66 1549.54 1458.92 1548.03 1459.85C1546.55 1460.76 1544.84 1461.22 1542.92 1461.22ZM1543.54 1457.98C1544.95 1457.98 1546.18 1457.66 1547.25 1457.01C1548.34 1456.33 1549.2 1455.42 1549.82 1454.28C1550.47 1453.13 1550.8 1451.85 1550.8 1450.42C1550.8 1448.96 1550.47 1447.66 1549.82 1446.52C1549.2 1445.37 1548.34 1444.47 1547.25 1443.82C1546.18 1443.15 1544.95 1442.81 1543.54 1442.81C1542.19 1442.81 1540.96 1443.15 1539.84 1443.82C1538.75 1444.47 1537.87 1445.37 1537.22 1446.52C1536.6 1447.66 1536.29 1448.96 1536.29 1450.42C1536.29 1451.85 1536.6 1453.13 1537.22 1454.28C1537.87 1455.42 1538.75 1456.33 1539.84 1457.01C1540.96 1457.66 1542.19 1457.98 1543.54 1457.98ZM1552.47 1461.1C1551.95 1461.1 1551.51 1460.93 1551.15 1460.59C1550.81 1460.23 1550.64 1459.79 1550.64 1459.27V1453.07L1551.38 1449.28L1554.31 1450.42V1459.27C1554.31 1459.79 1554.14 1460.23 1553.8 1460.59C1553.46 1460.93 1553.02 1461.1 1552.47 1461.1ZM1578.32 1461.1C1577.8 1461.1 1577.36 1460.93 1577 1460.59C1576.66 1460.23 1576.49 1459.79 1576.49 1459.27V1449.48C1576.49 1447.97 1576.2 1446.74 1575.63 1445.77C1575.08 1444.79 1574.32 1444.06 1573.33 1443.59C1572.37 1443.1 1571.28 1442.85 1570.05 1442.85C1568.88 1442.85 1567.83 1443.08 1566.89 1443.55C1565.98 1444.02 1565.26 1444.64 1564.71 1445.42C1564.16 1446.2 1563.89 1447.09 1563.89 1448.08H1561.51C1561.54 1446.44 1561.95 1444.98 1562.76 1443.71C1563.57 1442.41 1564.66 1441.39 1566.04 1440.67C1567.41 1439.91 1568.96 1439.53 1570.68 1439.53C1572.47 1439.53 1574.08 1439.92 1575.51 1440.7C1576.94 1441.46 1578.07 1442.58 1578.91 1444.06C1579.74 1445.54 1580.15 1447.35 1580.15 1449.48V1459.27C1580.15 1459.79 1579.97 1460.23 1579.61 1460.59C1579.27 1460.93 1578.84 1461.1 1578.32 1461.1ZM1562.06 1461.1C1561.51 1461.1 1561.07 1460.93 1560.73 1460.59C1560.39 1460.23 1560.23 1459.79 1560.23 1459.27V1441.56C1560.23 1441.02 1560.39 1440.57 1560.73 1440.24C1561.07 1439.9 1561.51 1439.73 1562.06 1439.73C1562.6 1439.73 1563.05 1439.9 1563.38 1440.24C1563.72 1440.57 1563.89 1441.02 1563.89 1441.56V1459.27C1563.89 1459.79 1563.72 1460.23 1563.38 1460.59C1563.05 1460.93 1562.6 1461.1 1562.06 1461.1ZM1596.41 1461.22C1594.38 1461.22 1592.54 1460.75 1590.91 1459.81C1589.29 1458.85 1588.01 1457.55 1587.05 1455.91C1586.11 1454.28 1585.64 1452.43 1585.64 1450.38C1585.64 1448.32 1586.08 1446.49 1586.97 1444.88C1587.85 1443.24 1589.06 1441.95 1590.59 1441.02C1592.13 1440.05 1593.86 1439.57 1595.78 1439.57C1597.39 1439.57 1598.86 1439.91 1600.19 1440.59C1601.54 1441.24 1602.65 1442.13 1603.5 1443.28V1432.44C1603.5 1431.89 1603.67 1431.45 1604.01 1431.11C1604.37 1430.77 1604.82 1430.6 1605.34 1430.6C1605.88 1430.6 1606.32 1430.77 1606.66 1431.11C1607 1431.45 1607.17 1431.89 1607.17 1432.44V1450.42C1607.17 1452.47 1606.69 1454.32 1605.73 1455.95C1604.79 1457.59 1603.5 1458.88 1601.87 1459.81C1600.25 1460.75 1598.43 1461.22 1596.41 1461.22ZM1596.41 1457.98C1597.81 1457.98 1599.04 1457.66 1600.11 1457.01C1601.2 1456.33 1602.06 1455.42 1602.68 1454.28C1603.33 1453.11 1603.66 1451.81 1603.66 1450.38C1603.66 1448.92 1603.33 1447.63 1602.68 1446.52C1602.06 1445.37 1601.2 1444.47 1600.11 1443.82C1599.04 1443.15 1597.81 1442.81 1596.41 1442.81C1595.05 1442.81 1593.82 1443.15 1592.7 1443.82C1591.61 1444.47 1590.74 1445.37 1590.09 1446.52C1589.46 1447.63 1589.15 1448.92 1589.15 1450.38C1589.15 1451.81 1589.46 1453.11 1590.09 1454.28C1590.74 1455.42 1591.61 1456.33 1592.7 1457.01C1593.82 1457.66 1595.05 1457.98 1596.41 1457.98Z" fill="white"/>
<g filter="url(#filter10_d)">
<path d="M823 1134H373L381.352 1125.58L435.612 1070.91C439.367 1067.13 444.477 1065 449.807 1065H746.193C751.523 1065 756.633 1067.13 760.388 1070.91L814.647 1125.58L823 1134Z" fill="#7C4DFF"/>
<path d="M597.999 1196.82V1243.82C597.999 1259.39 585.411 1272.03 569.877 1272.03C554.343 1272.03 541.746 1259.39 541.746 1243.82V1196.82H597.999V1196.82Z" fill="#7C4DFF"/>
<path d="M822.998 1197.82V1244.82C822.998 1260.39 810.401 1273.02 794.867 1273.02C793.092 1273.02 791.355 1272.86 789.667 1272.53H789.657C776.621 1270.09 766.746 1258.6 766.746 1244.82V1207.22V1197.82H822.998Z" fill="#7C4DFF"/>
<path d="M766.745 1207.22V1244.82C766.745 1260.39 754.157 1273.03 738.623 1273.03C723.089 1273.03 710.492 1260.39 710.492 1244.82V1197.82H766.745V1207.22Z" fill="#7C4DFF"/>
<path d="M710.493 1197.82V1244.82C710.493 1260.39 697.905 1273.03 682.371 1273.03C666.837 1273.03 654.25 1260.39 654.25 1244.82V1197.82H710.493V1197.82Z" fill="#7C4DFF"/>
<path d="M654.252 1197.82V1244.82C654.252 1260.39 641.655 1273.03 626.121 1273.03C610.587 1273.03 598 1260.39 598 1244.82V1197.82H654.252V1197.82Z" fill="#7C4DFF"/>
<path d="M541.747 1197.82V1244.82C541.747 1260.39 529.159 1273.03 513.625 1273.03C498.091 1273.03 485.504 1260.39 485.504 1244.82V1197.82H541.747V1197.82Z" fill="#7C4DFF"/>
<path d="M485.506 1197.82V1244.82C485.506 1260.39 472.909 1273.03 457.375 1273.03C441.851 1273.03 429.254 1260.39 429.254 1244.82V1197.82H485.506V1197.82Z" fill="#7C4DFF"/>
<path d="M429.252 1197.82V1244.82C429.252 1255.47 423.369 1264.75 414.675 1269.54C410.654 1271.76 406.039 1273.03 401.131 1273.03C385.597 1273.03 373 1260.39 373 1244.82V1197.82H429.252V1197.82Z" fill="#7C4DFF"/>
<path d="M810.992 1504.2C816.185 1504.2 820.394 1508.4 820.394 1513.6V1513.6C820.394 1518.79 816.185 1523 810.992 1523H398.55C393.358 1523 389.148 1518.79 389.148 1513.6V1513.6C389.148 1508.4 393.358 1504.2 398.55 1504.2H414.674H452.173H564.668H789.668H810.992Z" fill="#526471"/>
<path d="M564.667 1482.79V1504.19H452.172V1341.79H564.667V1482.79Z" fill="#A7B7C1"/>
<path d="M732.161 1294.79H622.168C611.122 1294.79 602.168 1303.75 602.168 1314.79V1434.58C602.168 1445.63 611.122 1454.58 622.168 1454.58H732.161C743.207 1454.58 752.161 1445.63 752.161 1434.58V1314.79C752.161 1303.75 743.207 1294.79 732.161 1294.79Z" fill="#7C4DFF"/>
<path d="M766.749 1244.82C766.749 1258.61 776.623 1270.09 789.659 1272.53H789.669V1504.2H564.669V1351.79C564.669 1346.27 560.192 1341.79 554.669 1341.79H462.174C456.651 1341.79 452.174 1346.27 452.174 1351.79V1504.2H414.676V1269.54C423.37 1264.75 429.254 1255.47 429.254 1244.82C429.254 1260.4 441.851 1273.03 457.375 1273.03C472.909 1273.03 485.506 1260.4 485.506 1244.82C485.506 1260.4 498.093 1273.03 513.627 1273.03C529.161 1273.03 541.749 1260.4 541.749 1244.82C541.749 1260.4 554.346 1273.03 569.88 1273.03C585.414 1273.03 598.001 1260.4 598.001 1244.82C598.001 1260.4 610.588 1273.03 626.122 1273.03C641.656 1273.03 654.254 1260.4 654.254 1244.82C654.254 1260.4 666.841 1273.03 682.375 1273.03C697.909 1273.03 710.496 1260.4 710.496 1244.82C710.496 1260.4 723.093 1273.03 738.627 1273.03C754.161 1273.03 766.749 1260.4 766.749 1244.82ZM732.161 1454.59C743.207 1454.59 752.161 1445.63 752.161 1434.59V1314.79C752.161 1303.75 743.207 1294.79 732.161 1294.79H622.168C611.122 1294.79 602.168 1303.75 602.168 1314.79V1434.59C602.168 1445.63 611.122 1454.59 622.168 1454.59H732.161Z" fill="#ECEFF0"/>
<path opacity="0.2" d="M820.394 1512.3H389.148C389.148 1518.21 393.94 1523 399.851 1523H809.691C815.602 1523 820.394 1518.21 820.394 1512.3Z" fill="black"/>
<path opacity="0.2" d="M823 1133.89H373L386.168 1120.73H809.828L823 1133.89Z" fill="#303C44"/>
<rect x="373" y="1133.92" width="450" height="63.9295" fill="#7C4DFF"/>
<path opacity="0.2" d="M429.121 1198V1245C429.121 1255.65 423.238 1264.93 414.544 1269.72C410.523 1271.94 405.908 1273.2 401 1273.2V1198H429.121Z" fill="url(#paint0_linear)"/>
<path opacity="0.2" d="M485.367 1198V1245C485.367 1255.65 479.484 1264.93 470.79 1269.72C466.769 1271.94 462.154 1273.2 457.246 1273.2V1198H485.367Z" fill="url(#paint1_linear)"/>
<path opacity="0.2" d="M541.621 1198V1245C541.621 1255.65 535.738 1264.93 527.044 1269.72C523.023 1271.94 518.408 1273.2 513.5 1273.2V1198H541.621Z" fill="url(#paint2_linear)"/>
<path opacity="0.2" d="M597.863 1198V1245C597.863 1255.65 591.98 1264.93 583.286 1269.72C579.266 1271.94 574.65 1273.2 569.742 1273.2V1198H597.863Z" fill="url(#paint3_linear)"/>
<path opacity="0.2" d="M654.114 1198V1245C654.114 1255.65 648.23 1264.93 639.536 1269.72C635.516 1271.94 630.9 1273.2 625.992 1273.2V1198H654.114Z" fill="url(#paint4_linear)"/>
<path opacity="0.2" d="M710.364 1198V1245C710.364 1255.65 704.48 1264.93 695.786 1269.72C691.766 1271.94 687.15 1273.2 682.242 1273.2V1198H710.364Z" fill="url(#paint5_linear)"/>
<path opacity="0.2" d="M766.606 1198V1245C766.606 1255.65 760.722 1264.93 752.028 1269.72C748.008 1271.94 743.392 1273.2 738.484 1273.2V1198H766.606Z" fill="url(#paint6_linear)"/>
<path opacity="0.2" d="M822.856 1198V1245C822.856 1255.65 816.972 1264.93 808.278 1269.72C804.258 1271.94 799.642 1273.2 794.734 1273.2V1198H822.856Z" fill="url(#paint7_linear)"/>
<path opacity="0.1" d="M752 1331V1454H622C610.954 1454 602 1445.05 602 1434V1428.2L752 1331Z" fill="url(#paint8_linear)"/>
<path d="M463.894 1218.38C459.714 1218.38 455.755 1217.71 452.019 1216.38C448.282 1215.05 445.337 1213.28 443.184 1211.06C442.297 1210.11 441.917 1209.07 442.044 1207.93C442.234 1206.73 442.835 1205.74 443.849 1204.98C444.989 1204.1 446.129 1203.72 447.269 1203.84C448.409 1203.97 449.359 1204.48 450.119 1205.36C451.385 1206.76 453.222 1207.96 455.629 1208.97C458.035 1209.99 460.727 1210.49 463.704 1210.49C467.694 1210.49 470.67 1209.83 472.634 1208.5C474.66 1207.17 475.705 1205.49 475.769 1203.46C475.769 1201.44 474.787 1199.73 472.824 1198.33C470.86 1196.88 467.409 1195.71 462.469 1194.82C456.072 1193.62 451.417 1191.75 448.504 1189.21C445.59 1186.68 444.134 1183.61 444.134 1180C444.134 1176.77 445.052 1174.11 446.889 1172.02C448.725 1169.87 451.1 1168.28 454.014 1167.27C456.99 1166.19 460.125 1165.66 463.419 1165.66C467.599 1165.66 471.272 1166.35 474.439 1167.74C477.669 1169.07 480.234 1170.94 482.134 1173.35C482.894 1174.3 483.242 1175.28 483.179 1176.29C483.115 1177.31 482.577 1178.16 481.564 1178.86C480.677 1179.49 479.6 1179.71 478.334 1179.52C477.067 1179.27 475.99 1178.73 475.104 1177.91C473.52 1176.26 471.779 1175.12 469.879 1174.49C467.979 1173.79 465.762 1173.44 463.229 1173.44C460.189 1173.44 457.687 1174.01 455.724 1175.15C453.76 1176.23 452.779 1177.75 452.779 1179.71C452.779 1180.92 453.095 1182.03 453.729 1183.04C454.425 1183.99 455.66 1184.84 457.434 1185.6C459.27 1186.36 461.93 1187.06 465.414 1187.69C470.164 1188.58 473.9 1189.78 476.624 1191.3C479.41 1192.76 481.374 1194.47 482.514 1196.43C483.717 1198.33 484.319 1200.52 484.319 1202.99C484.319 1205.97 483.495 1208.63 481.849 1210.97C480.265 1213.25 477.954 1215.05 474.914 1216.38C471.937 1217.71 468.264 1218.38 463.894 1218.38ZM520.893 1218.38C515.7 1218.38 511.076 1217.27 507.023 1215.05C502.97 1212.77 499.803 1209.67 497.523 1205.74C495.243 1201.75 494.103 1197.19 494.103 1192.06C494.103 1186.87 495.18 1182.31 497.333 1178.38C499.486 1174.39 502.463 1171.29 506.263 1169.07C510.126 1166.79 514.528 1165.66 519.468 1165.66C524.345 1165.66 528.556 1166.76 532.103 1168.98C535.713 1171.13 538.468 1174.14 540.368 1178C542.268 1181.8 543.218 1186.21 543.218 1191.21C543.218 1192.35 542.838 1193.3 542.078 1194.06C541.318 1194.76 540.336 1195.1 539.133 1195.1H500.183V1187.98H539.228L535.238 1190.73C535.238 1187.38 534.605 1184.4 533.338 1181.8C532.071 1179.14 530.266 1177.05 527.923 1175.53C525.58 1174.01 522.761 1173.25 519.468 1173.25C515.858 1173.25 512.723 1174.08 510.063 1175.72C507.466 1177.31 505.471 1179.52 504.078 1182.37C502.748 1185.22 502.083 1188.45 502.083 1192.06C502.083 1195.67 502.875 1198.9 504.458 1201.75C506.105 1204.54 508.321 1206.76 511.108 1208.4C513.958 1209.99 517.22 1210.78 520.893 1210.78C522.983 1210.78 525.073 1210.4 527.163 1209.64C529.316 1208.88 531.058 1207.99 532.388 1206.98C533.275 1206.35 534.225 1206.03 535.238 1206.03C536.251 1205.97 537.138 1206.25 537.898 1206.88C538.911 1207.77 539.45 1208.75 539.513 1209.83C539.576 1210.84 539.101 1211.73 538.088 1212.49C535.998 1214.2 533.338 1215.62 530.108 1216.76C526.878 1217.84 523.806 1218.38 520.893 1218.38ZM575.766 1218.38C571.079 1218.38 566.867 1217.24 563.131 1214.96C559.394 1212.68 556.449 1209.54 554.296 1205.55C552.142 1201.56 551.066 1197.07 551.066 1192.06C551.066 1187 552.206 1182.5 554.486 1178.57C556.829 1174.58 559.964 1171.45 563.891 1169.17C567.881 1166.83 572.346 1165.66 577.286 1165.66C582.289 1165.66 586.754 1166.83 590.681 1169.17C594.607 1171.45 597.711 1174.58 599.991 1178.57C602.334 1182.56 603.506 1187.06 603.506 1192.06L600.086 1192.82C600.086 1197.64 599.009 1201.98 596.856 1205.84C594.766 1209.7 591.884 1212.77 588.211 1215.05C584.601 1217.27 580.452 1218.38 575.766 1218.38ZM577.286 1210.49C580.706 1210.49 583.714 1209.7 586.311 1208.12C588.971 1206.47 591.061 1204.26 592.581 1201.47C594.164 1198.68 594.956 1195.55 594.956 1192.06C594.956 1188.52 594.164 1185.35 592.581 1182.56C591.061 1179.78 588.971 1177.59 586.311 1176.01C583.714 1174.36 580.706 1173.54 577.286 1173.54C573.992 1173.54 570.984 1174.36 568.261 1176.01C565.601 1177.59 563.479 1179.78 561.896 1182.56C560.376 1185.35 559.616 1188.52 559.616 1192.06C559.616 1195.55 560.376 1198.68 561.896 1201.47C563.479 1204.26 565.601 1206.47 568.261 1208.12C570.984 1209.7 573.992 1210.49 577.286 1210.49ZM599.041 1218.1C597.774 1218.1 596.697 1217.68 595.811 1216.86C594.987 1215.97 594.576 1214.9 594.576 1213.63V1198.52L596.381 1189.31L603.506 1192.06V1213.63C603.506 1214.9 603.094 1215.97 602.271 1216.86C601.447 1217.68 600.371 1218.1 599.041 1218.1ZM629.895 1218C627.172 1218 624.765 1217.27 622.675 1215.81C620.585 1214.29 618.938 1212.27 617.735 1209.73C616.595 1207.14 616.025 1204.16 616.025 1200.8V1148.17C616.025 1146.84 616.405 1145.8 617.165 1145.04C617.988 1144.22 619.065 1143.8 620.395 1143.8C621.725 1143.8 622.77 1144.22 623.53 1145.04C624.353 1145.8 624.765 1146.84 624.765 1148.17V1200.8C624.765 1203.27 625.24 1205.3 626.19 1206.88C627.14 1208.47 628.375 1209.26 629.895 1209.26H632.27C633.473 1209.26 634.423 1209.67 635.12 1210.49C635.817 1211.25 636.165 1212.3 636.165 1213.63C636.165 1214.96 635.627 1216.04 634.55 1216.86C633.473 1217.62 632.112 1218 630.465 1218H629.895ZM667.104 1218.38C661.91 1218.38 657.287 1217.27 653.234 1215.05C649.18 1212.77 646.014 1209.67 643.734 1205.74C641.454 1201.75 640.314 1197.19 640.314 1192.06C640.314 1186.87 641.39 1182.31 643.544 1178.38C645.697 1174.39 648.674 1171.29 652.474 1169.07C656.337 1166.79 660.739 1165.66 665.679 1165.66C670.555 1165.66 674.767 1166.76 678.314 1168.98C681.924 1171.13 684.679 1174.14 686.579 1178C688.479 1181.8 689.429 1186.21 689.429 1191.21C689.429 1192.35 689.049 1193.3 688.289 1194.06C687.529 1194.76 686.547 1195.1 685.344 1195.1H646.394V1187.98H685.439L681.449 1190.73C681.449 1187.38 680.815 1184.4 679.549 1181.8C678.282 1179.14 676.477 1177.05 674.134 1175.53C671.79 1174.01 668.972 1173.25 665.679 1173.25C662.069 1173.25 658.934 1174.08 656.274 1175.72C653.677 1177.31 651.682 1179.52 650.289 1182.37C648.959 1185.22 648.294 1188.45 648.294 1192.06C648.294 1195.67 649.085 1198.9 650.669 1201.75C652.315 1204.54 654.532 1206.76 657.319 1208.4C660.169 1209.99 663.43 1210.78 667.104 1210.78C669.194 1210.78 671.284 1210.4 673.374 1209.64C675.527 1208.88 677.269 1207.99 678.599 1206.98C679.485 1206.35 680.435 1206.03 681.449 1206.03C682.462 1205.97 683.349 1206.25 684.109 1206.88C685.122 1207.77 685.66 1208.75 685.724 1209.83C685.787 1210.84 685.312 1211.73 684.299 1212.49C682.209 1214.2 679.549 1215.62 676.319 1216.76C673.089 1217.84 670.017 1218.38 667.104 1218.38ZM723.497 1218.38C718.557 1218.38 714.092 1217.24 710.102 1214.96C706.175 1212.62 703.04 1209.45 700.697 1205.46C698.417 1201.47 697.277 1196.97 697.277 1191.97C697.277 1186.97 698.353 1182.5 700.507 1178.57C702.66 1174.58 705.605 1171.45 709.342 1169.17C713.078 1166.83 717.29 1165.66 721.977 1165.66C725.903 1165.66 729.482 1166.48 732.712 1168.12C736.005 1169.71 738.697 1171.89 740.787 1174.68V1148.27C740.787 1146.94 741.198 1145.86 742.022 1145.04C742.908 1144.22 743.985 1143.8 745.252 1143.8C746.582 1143.8 747.658 1144.22 748.482 1145.04C749.305 1145.86 749.717 1146.94 749.717 1148.27V1192.06C749.717 1197.07 748.545 1201.56 746.202 1205.55C743.922 1209.54 740.787 1212.68 736.797 1214.96C732.87 1217.24 728.437 1218.38 723.497 1218.38ZM723.497 1210.49C726.917 1210.49 729.925 1209.7 732.522 1208.12C735.182 1206.47 737.272 1204.26 738.792 1201.47C740.375 1198.62 741.167 1195.45 741.167 1191.97C741.167 1188.42 740.375 1185.29 738.792 1182.56C737.272 1179.78 735.182 1177.59 732.522 1176.01C729.925 1174.36 726.917 1173.54 723.497 1173.54C720.203 1173.54 717.195 1174.36 714.472 1176.01C711.812 1177.59 709.69 1179.78 708.107 1182.56C706.587 1185.29 705.827 1188.42 705.827 1191.97C705.827 1195.45 706.587 1198.62 708.107 1201.47C709.69 1204.26 711.812 1206.47 714.472 1208.12C717.195 1209.7 720.203 1210.49 723.497 1210.49Z" fill="white"/>
<path d="M618.595 1393C617.835 1393 617.189 1392.75 616.657 1392.26C616.163 1391.73 615.916 1391.08 615.916 1390.32C615.916 1389.56 616.163 1388.93 616.657 1388.44L633.187 1369C634.289 1367.79 635.144 1366.57 635.752 1365.35C636.36 1364.14 636.664 1363 636.664 1361.93C636.664 1360.22 636.341 1358.74 635.695 1357.49C635.087 1356.2 634.213 1355.21 633.073 1354.52C631.971 1353.8 630.641 1353.44 629.083 1353.44C627.601 1353.44 626.252 1353.84 625.036 1354.64C623.82 1355.4 622.87 1356.42 622.186 1357.72C621.502 1358.97 621.16 1360.38 621.16 1361.93C621.16 1362.66 620.894 1363.28 620.362 1363.82C619.868 1364.31 619.241 1364.56 618.481 1364.56C617.759 1364.56 617.132 1364.31 616.6 1363.82C616.068 1363.28 615.802 1362.66 615.802 1361.93C615.802 1359.35 616.372 1357.05 617.512 1355.04C618.69 1353.02 620.286 1351.43 622.3 1350.25C624.314 1349.07 626.575 1348.48 629.083 1348.48C631.629 1348.48 633.852 1349.03 635.752 1350.14C637.69 1351.24 639.172 1352.8 640.198 1354.81C641.262 1356.82 641.794 1359.2 641.794 1361.93C641.794 1363.15 641.547 1364.37 641.053 1365.58C640.597 1366.8 639.989 1367.98 639.229 1369.12C638.507 1370.22 637.747 1371.23 636.949 1372.14L623.383 1387.64H639.97C640.73 1387.64 641.376 1387.93 641.908 1388.5C642.44 1389.03 642.706 1389.64 642.706 1390.32C642.706 1391.08 642.44 1391.73 641.908 1392.26C641.376 1392.75 640.73 1393 639.97 1393H618.595ZM671.202 1393C670.48 1393 669.872 1392.75 669.378 1392.26C668.884 1391.73 668.637 1391.08 668.637 1390.32V1382.74H649.2C648.402 1382.74 647.775 1382.49 647.319 1382C646.863 1381.5 646.597 1380.93 646.521 1380.29C646.483 1379.64 646.654 1379.05 647.034 1378.52L669.15 1349.62C669.416 1349.28 669.72 1349.01 670.062 1348.82C670.442 1348.6 670.86 1348.48 671.316 1348.48C672.076 1348.48 672.684 1348.75 673.14 1349.28C673.596 1349.77 673.824 1350.42 673.824 1351.22V1377.89H677.586C678.346 1377.89 678.973 1378.08 679.467 1378.46C679.999 1378.81 680.265 1379.43 680.265 1380.35C680.265 1380.99 679.999 1381.56 679.467 1382.06C678.973 1382.51 678.346 1382.74 677.586 1382.74H673.824V1390.32C673.824 1391.08 673.577 1391.73 673.083 1392.26C672.589 1392.75 671.962 1393 671.202 1393ZM652.278 1379.55L650.967 1377.89H668.637V1354.07L670.233 1356.01L652.278 1379.55ZM687.411 1397.28C686.461 1397.28 685.72 1396.88 685.188 1396.08C684.694 1395.32 684.637 1394.46 685.017 1393.51L702.402 1350.02C702.63 1349.53 702.972 1349.15 703.428 1348.88C703.884 1348.58 704.378 1348.43 704.91 1348.43C705.822 1348.43 706.544 1348.82 707.076 1349.62C707.608 1350.38 707.684 1351.26 707.304 1352.24L689.919 1395.74C689.691 1396.31 689.33 1396.71 688.836 1396.93C688.38 1397.16 687.905 1397.28 687.411 1397.28ZM717.892 1393C717.17 1393 716.543 1392.75 716.011 1392.26C715.479 1391.73 715.213 1391.08 715.213 1390.32C715.213 1390.05 715.251 1389.79 715.327 1389.52C715.441 1389.26 715.574 1388.95 715.726 1388.61L732.313 1353.84H714.187C713.427 1353.84 712.781 1353.59 712.249 1353.1C711.755 1352.57 711.508 1351.92 711.508 1351.16C711.508 1350.4 711.755 1349.77 712.249 1349.28C712.781 1348.75 713.427 1348.48 714.187 1348.48H736.417C737.139 1348.48 737.766 1348.75 738.298 1349.28C738.83 1349.77 739.096 1350.4 739.096 1351.16C739.096 1351.39 739.058 1351.62 738.982 1351.85C738.906 1352.07 738.811 1352.32 738.697 1352.59L720.343 1391.52C719.773 1392.51 718.956 1393 717.892 1393Z" fill="white"/>
</g>
<path d="M928.329 1326.52C925.828 1327.69 922.852 1326.61 921.683 1324.11C920.514 1321.6 921.594 1318.63 924.096 1317.46L928.329 1326.52ZM1180.14 1320.39C1181.23 1322.93 1180.07 1325.87 1177.54 1326.97L1136.24 1344.85C1133.71 1345.95 1130.77 1344.79 1129.67 1342.25C1128.57 1339.72 1129.73 1336.78 1132.27 1335.68L1168.97 1319.78L1153.08 1283.08C1151.98 1280.54 1153.14 1277.6 1155.68 1276.5C1158.21 1275.4 1161.15 1276.57 1162.25 1279.1L1180.14 1320.39ZM924.096 1317.46C996.789 1283.49 1098 1286.33 1177.39 1317.73L1173.71 1327.03C1096.33 1296.42 998.041 1293.95 928.329 1326.52L924.096 1317.46Z" fill="black"/>
<path d="M603.575 740.064C602.444 737.545 603.569 734.586 606.088 733.454C608.607 732.323 611.566 733.448 612.697 735.967L603.575 740.064ZM605.917 991.935C603.367 992.994 600.441 991.786 599.381 989.236L582.118 947.679C581.059 945.128 582.268 942.202 584.818 941.143C587.368 940.084 590.294 941.292 591.353 943.842L606.698 980.782L643.638 965.437C646.188 964.378 649.114 965.586 650.173 968.137C651.233 970.687 650.024 973.613 647.474 974.672L605.917 991.935ZM612.697 735.967C645.567 809.162 641.211 910.319 608.62 989.226L599.377 985.409C631.144 908.498 635.097 810.257 603.575 740.064L612.697 735.967Z" fill="black"/>
<defs>
<filter id="filter0_d" x="1238.55" y="1180" width="260" height="260" filterUnits="userSpaceOnUse" color-interpolation-filters="sRGB">
<feFlood flood-opacity="0" result="BackgroundImageFix"/>
<feColorMatrix in="SourceAlpha" type="matrix" values="0 0 0 0 0 0 0 0 0 0 0 0 0 0 0 0 0 0 127 0"/>
<feOffset/>
<feGaussianBlur stdDeviation="25"/>
<feColorMatrix type="matrix" values="0 0 0 0 0 0 0 0 0 0 0 0 0 0 0 0 0 0 0.5 0"/>
<feBlend mode="normal" in2="BackgroundImageFix" result="effect1_dropShadow"/>
<feBlend mode="normal" in="SourceGraphic" in2="effect1_dropShadow" result="shape"/>
</filter>
<filter id="filter1_d" x="1318.55" y="944" width="426.203" height="488.554" filterUnits="userSpaceOnUse" color-interpolation-filters="sRGB">
<feFlood flood-opacity="0" result="BackgroundImageFix"/>
<feColorMatrix in="SourceAlpha" type="matrix" values="0 0 0 0 0 0 0 0 0 0 0 0 0 0 0 0 0 0 127 0"/>
<feOffset/>
<feGaussianBlur stdDeviation="25"/>
<feColorMatrix type="matrix" values="0 0 0 0 0 0 0 0 0 0 0 0 0 0 0 0 0 0 0.5 0"/>
<feBlend mode="normal" in2="BackgroundImageFix" result="effect1_dropShadow"/>
<feBlend mode="normal" in="SourceGraphic" in2="effect1_dropShadow" result="shape"/>
</filter>
<filter id="filter2_d" x="134" y="91" width="469" height="313" filterUnits="userSpaceOnUse" color-interpolation-filters="sRGB">
<feFlood flood-opacity="0" result="BackgroundImageFix"/>
<feColorMatrix in="SourceAlpha" type="matrix" values="0 0 0 0 0 0 0 0 0 0 0 0 0 0 0 0 0 0 127 0"/>
<feOffset/>
<feGaussianBlur stdDeviation="25"/>
<feColorMatrix type="matrix" values="0 0 0 0 0 0 0 0 0 0 0 0 0 0 0 0 0 0 0.5 0"/>
<feBlend mode="normal" in2="BackgroundImageFix" result="effect1_dropShadow"/>
<feBlend mode="normal" in="SourceGraphic" in2="effect1_dropShadow" result="shape"/>
</filter>
<filter id="filter3_d" x="126" y="418" width="463.198" height="304" filterUnits="userSpaceOnUse" color-interpolation-filters="sRGB">
<feFlood flood-opacity="0" result="BackgroundImageFix"/>
<feColorMatrix in="SourceAlpha" type="matrix" values="0 0 0 0 0 0 0 0 0 0 0 0 0 0 0 0 0 0 127 0"/>
<feOffset/>
<feGaussianBlur stdDeviation="25"/>
<feColorMatrix type="matrix" values="0 0 0 0 0 0 0 0 0 0 0 0 0 0 0 0 0 0 0.5 0"/>
<feBlend mode="normal" in2="BackgroundImageFix" result="effect1_dropShadow"/>
<feBlend mode="normal" in="SourceGraphic" in2="effect1_dropShadow" result="shape"/>
</filter>
<filter id="filter4_d" x="584" y="91" width="485.242" height="315" filterUnits="userSpaceOnUse" color-interpolation-filters="sRGB">
<feFlood flood-opacity="0" result="BackgroundImageFix"/>
<feColorMatrix in="SourceAlpha" type="matrix" values="0 0 0 0 0 0 0 0 0 0 0 0 0 0 0 0 0 0 127 0"/>
<feOffset/>
<feGaussianBlur stdDeviation="25"/>
<feColorMatrix type="matrix" values="0 0 0 0 0 0 0 0 0 0 0 0 0 0 0 0 0 0 0.5 0"/>
<feBlend mode="normal" in2="BackgroundImageFix" result="effect1_dropShadow"/>
<feBlend mode="normal" in="SourceGraphic" in2="effect1_dropShadow" result="shape"/>
</filter>
<filter id="filter5_d" x="606" y="425" width="469.644" height="302" filterUnits="userSpaceOnUse" color-interpolation-filters="sRGB">
<feFlood flood-opacity="0" result="BackgroundImageFix"/>
<feColorMatrix in="SourceAlpha" type="matrix" values="0 0 0 0 0 0 0 0 0 0 0 0 0 0 0 0 0 0 127 0"/>
<feOffset/>
<feGaussianBlur stdDeviation="25"/>
<feColorMatrix type="matrix" values="0 0 0 0 0 0 0 0 0 0 0 0 0 0 0 0 0 0 0.5 0"/>
<feBlend mode="normal" in2="BackgroundImageFix" result="effect1_dropShadow"/>
<feBlend mode="normal" in="SourceGraphic" in2="effect1_dropShadow" result="shape"/>
</filter>
<filter id="filter6_d" x="33" y="-14" width="312" height="312" filterUnits="userSpaceOnUse" color-interpolation-filters="sRGB">
<feFlood flood-opacity="0" result="BackgroundImageFix"/>
<feColorMatrix in="SourceAlpha" type="matrix" values="0 0 0 0 0 0 0 0 0 0 0 0 0 0 0 0 0 0 127 0"/>
<feOffset/>
<feGaussianBlur stdDeviation="25"/>
<feColorMatrix type="matrix" values="0 0 0 0 0 0 0 0 0 0 0 0 0 0 0 0 0 0 0.5 0"/>
<feBlend mode="normal" in2="BackgroundImageFix" result="effect1_dropShadow"/>
<feBlend mode="normal" in="SourceGraphic" in2="effect1_dropShadow" result="shape"/>
</filter>
<filter id="filter7_d" x="501" y="-17" width="312" height="312" filterUnits="userSpaceOnUse" color-interpolation-filters="sRGB">
<feFlood flood-opacity="0" result="BackgroundImageFix"/>
<feColorMatrix in="SourceAlpha" type="matrix" values="0 0 0 0 0 0 0 0 0 0 0 0 0 0 0 0 0 0 127 0"/>
<feOffset/>
<feGaussianBlur stdDeviation="25"/>
<feColorMatrix type="matrix" values="0 0 0 0 0 0 0 0 0 0 0 0 0 0 0 0 0 0 0.5 0"/>
<feBlend mode="normal" in2="BackgroundImageFix" result="effect1_dropShadow"/>
<feBlend mode="normal" in="SourceGraphic" in2="effect1_dropShadow" result="shape"/>
</filter>
<filter id="filter8_d" x="33" y="312" width="312" height="312" filterUnits="userSpaceOnUse" color-interpolation-filters="sRGB">
<feFlood flood-opacity="0" result="BackgroundImageFix"/>
<feColorMatrix in="SourceAlpha" type="matrix" values="0 0 0 0 0 0 0 0 0 0 0 0 0 0 0 0 0 0 127 0"/>
<feOffset/>
<feGaussianBlur stdDeviation="25"/>
<feColorMatrix type="matrix" values="0 0 0 0 0 0 0 0 0 0 0 0 0 0 0 0 0 0 0.5 0"/>
<feBlend mode="normal" in2="BackgroundImageFix" result="effect1_dropShadow"/>
<feBlend mode="normal" in="SourceGraphic" in2="effect1_dropShadow" result="shape"/>
</filter>
<filter id="filter9_d" x="500" y="312" width="312" height="312" filterUnits="userSpaceOnUse" color-interpolation-filters="sRGB">
<feFlood flood-opacity="0" result="BackgroundImageFix"/>
<feColorMatrix in="SourceAlpha" type="matrix" values="0 0 0 0 0 0 0 0 0 0 0 0 0 0 0 0 0 0 127 0"/>
<feOffset/>
<feGaussianBlur stdDeviation="25"/>
<feColorMatrix type="matrix" values="0 0 0 0 0 0 0 0 0 0 0 0 0 0 0 0 0 0 0.5 0"/>
<feBlend mode="normal" in2="BackgroundImageFix" result="effect1_dropShadow"/>
<feBlend mode="normal" in="SourceGraphic" in2="effect1_dropShadow" result="shape"/>
</filter>
<filter id="filter10_d" x="323" y="1019" width="550" height="558" filterUnits="userSpaceOnUse" color-interpolation-filters="sRGB">
<feFlood flood-opacity="0" result="BackgroundImageFix"/>
<feColorMatrix in="SourceAlpha" type="matrix" values="0 0 0 0 0 0 0 0 0 0 0 0 0 0 0 0 0 0 127 0"/>
<feOffset dy="4"/>
<feGaussianBlur stdDeviation="25"/>
<feColorMatrix type="matrix" values="0 0 0 0 0 0 0 0 0 0 0 0 0 0 0 0 0 0 0.5 0"/>
<feBlend mode="normal" in2="BackgroundImageFix" result="effect1_dropShadow"/>
<feBlend mode="normal" in="SourceGraphic" in2="effect1_dropShadow" result="shape"/>
</filter>
<linearGradient id="paint0_linear" x1="385.703" y1="1246.64" x2="439.343" y2="1215.75" gradientUnits="userSpaceOnUse">
<stop/>
<stop offset="1" stop-color="white" stop-opacity="0"/>
</linearGradient>
<linearGradient id="paint1_linear" x1="441.949" y1="1246.64" x2="495.589" y2="1215.75" gradientUnits="userSpaceOnUse">
<stop/>
<stop offset="1" stop-color="white" stop-opacity="0"/>
</linearGradient>
<linearGradient id="paint2_linear" x1="498.203" y1="1246.64" x2="551.843" y2="1215.75" gradientUnits="userSpaceOnUse">
<stop/>
<stop offset="1" stop-color="white" stop-opacity="0"/>
</linearGradient>
<linearGradient id="paint3_linear" x1="554.445" y1="1246.64" x2="608.086" y2="1215.75" gradientUnits="userSpaceOnUse">
<stop/>
<stop offset="1" stop-color="white" stop-opacity="0"/>
</linearGradient>
<linearGradient id="paint4_linear" x1="610.695" y1="1246.64" x2="664.336" y2="1215.75" gradientUnits="userSpaceOnUse">
<stop/>
<stop offset="1" stop-color="white" stop-opacity="0"/>
</linearGradient>
<linearGradient id="paint5_linear" x1="666.945" y1="1246.64" x2="720.586" y2="1215.75" gradientUnits="userSpaceOnUse">
<stop/>
<stop offset="1" stop-color="white" stop-opacity="0"/>
</linearGradient>
<linearGradient id="paint6_linear" x1="723.187" y1="1246.64" x2="776.828" y2="1215.75" gradientUnits="userSpaceOnUse">
<stop/>
<stop offset="1" stop-color="white" stop-opacity="0"/>
</linearGradient>
<linearGradient id="paint7_linear" x1="779.437" y1="1246.64" x2="833.078" y2="1215.75" gradientUnits="userSpaceOnUse">
<stop/>
<stop offset="1" stop-color="white" stop-opacity="0"/>
</linearGradient>
<linearGradient id="paint8_linear" x1="657.472" y1="1373.1" x2="744.862" y2="1461.09" gradientUnits="userSpaceOnUse">
<stop/>
<stop offset="1" stop-color="white" stop-opacity="0"/>
</linearGradient>
<clipPath id="clip0">
<rect width="184.468" height="84.2549" fill="white" transform="translate(220.273 512.99)"/>
</clipPath>
<clipPath id="clip1">
<rect width="253.724" height="55.8893" fill="white" transform="translate(664.105 533.318)"/>
</clipPath>
</defs>
</svg>
