<svg width="2996" height="1113" viewBox="0 0 2996 1113" fill="none" xmlns="http://www.w3.org/2000/svg">
<g filter="url(#filter0_d)">
<path d="M2484.05 593C2484.05 595.75 2481.8 598 2479.05 598C2479.05 598 2479 598 2478.95 598H2338.95C2337.15 598 2335.5 597.05 2334.6 595.5C2333.75 593.95 2333.75 592.05 2334.6 590.5L2354.6 555.5C2355.5 553.95 2357.15 553 2358.95 553H2458.95C2460.75 553 2462.4 553.95 2463.3 555.5L2482.85 589.75C2483.6 590.65 2484.05 591.75 2484.05 593Z" fill="#DAAE69"/>
<path d="M2483.94 593V698C2483.94 700.75 2481.69 703 2478.94 703H2338.94C2336.19 703 2333.94 700.75 2333.94 698V593H2483.94Z" fill="#E9B96E"/>
<path d="M2427 587.526V630.684C2427 632.324 2426.24 633.835 2425.02 634.525C2424.52 634.871 2422.54 635 2422 635H2394.85C2394.85 635 2394.2 635.259 2392.98 634.525C2391.76 633.835 2391 632.324 2391 630.684V587.526C2391.04 587.138 2391.11 586.749 2391.14 586.361L2399.1 553H2418.9L2426.86 586.361C2426.89 586.749 2426.96 587.138 2427 587.526Z" fill="#FFE5A0"/>
<rect x="2356" y="610.777" width="53" height="77" rx="5" transform="rotate(-3.00404 2356 610.777)" fill="#F2F2F2"/>
<line x1="2371.5" y1="658.03" x2="2372.28" y2="673.009" stroke="black" stroke-width="2"/>
<line x1="2375.49" y1="657.821" x2="2376.28" y2="672.8" stroke="black" stroke-width="2"/>
<line x1="2379.49" y1="657.612" x2="2380.27" y2="672.591" stroke="black" stroke-width="2"/>
<line x1="2383.48" y1="657.401" x2="2384.27" y2="672.38" stroke="black" stroke-width="2"/>
<line x1="2387.48" y1="657.192" x2="2388.27" y2="672.171" stroke="black" stroke-width="2"/>
<line x1="2391.47" y1="656.983" x2="2392.26" y2="671.962" stroke="black" stroke-width="2"/>
<line x1="2395.47" y1="656.772" x2="2396.25" y2="671.751" stroke="black" stroke-width="2"/>
<line x1="2399.46" y1="656.563" x2="2400.25" y2="671.542" stroke="black" stroke-width="2"/>
<rect x="2367.87" y="655.717" width="35" height="20" rx="1.5" transform="rotate(-3.00404 2367.87 655.717)" stroke="black"/>
<line x1="2366.79" y1="644.758" x2="2402.74" y2="642.872" stroke="black"/>
<line x1="2366.38" y1="636.77" x2="2402.33" y2="634.884" stroke="black"/>
<line x1="2365.9" y1="627.782" x2="2401.85" y2="625.895" stroke="black"/>
<line x1="2365.43" y1="618.794" x2="2401.39" y2="616.907" stroke="black"/>
</g>
<g filter="url(#filter1_d)">
<path d="M2701.56 530.367C2701.6 537.468 2701.21 544.565 2700.37 551.617C2699.1 575.773 2692.89 599.412 2682.13 621.077C2671.37 642.742 2656.29 661.974 2637.81 677.587C2619.88 692.432 2597.34 700.554 2574.06 700.554C2550.79 700.554 2528.24 692.432 2510.31 677.587C2491.84 661.974 2476.75 642.742 2465.99 621.077C2455.23 599.412 2449.03 575.773 2447.75 551.617C2446.92 544.565 2446.52 537.468 2446.56 530.367C2446.56 436.527 2503.51 360.367 2574.06 360.367C2644.61 360.367 2701.56 436.187 2701.56 530.367Z" fill="#C5B0FD"/>
<path d="M2735.2 530.375C2735.2 541.692 2730.71 552.545 2722.7 560.548C2714.7 568.55 2703.85 573.045 2692.53 573.045C2669.07 573.045 2692.53 554.005 2692.53 530.375C2692.53 506.745 2669.07 487.875 2692.53 487.875C2698.13 487.853 2703.67 488.936 2708.85 491.062C2714.02 493.187 2718.73 496.314 2722.69 500.263C2726.66 504.212 2729.8 508.904 2731.95 514.072C2734.1 519.239 2735.2 524.78 2735.2 530.375Z" fill="#C5B0FD"/>
<path d="M2412.93 530.375C2412.93 541.692 2417.43 552.545 2425.43 560.548C2433.43 568.55 2444.29 573.045 2455.6 573.045C2479.06 573.045 2455.6 554.005 2455.6 530.375C2455.6 506.745 2479.06 487.875 2455.6 487.875C2450.01 487.853 2444.46 488.936 2439.29 491.062C2434.11 493.187 2429.41 496.314 2425.44 500.263C2421.48 504.212 2418.33 508.904 2416.18 514.072C2414.04 519.239 2412.93 524.78 2412.93 530.375Z" fill="#C5B0FD"/>
<path d="M2523.07 500.268C2527.76 500.268 2531.57 496.462 2531.57 491.768C2531.57 487.073 2527.76 483.268 2523.07 483.268C2518.37 483.268 2514.57 487.073 2514.57 491.768C2514.57 496.462 2518.37 500.268 2523.07 500.268Z" fill="#42505A"/>
<path d="M2625.07 500.268C2629.76 500.268 2633.57 496.462 2633.57 491.768C2633.57 487.073 2629.76 483.268 2625.07 483.268C2620.37 483.268 2616.57 487.073 2616.57 491.768C2616.57 496.462 2620.37 500.268 2625.07 500.268Z" fill="#42505A"/>
<path d="M2493.31 466.276C2493.31 466.276 2522.21 432.276 2552.81 449.276" stroke="#3F1400" stroke-width="0.5" stroke-linecap="round" stroke-linejoin="round"/>
<path d="M2654.81 466.276C2654.81 466.276 2625.91 432.276 2595.31 449.276" stroke="#42505A" stroke-width="8" stroke-linecap="round" stroke-linejoin="round"/>
<path d="M2565.57 500.27C2565.57 500.27 2531.57 585.27 2548.57 585.27H2565.57" stroke="#42505A" stroke-width="8" stroke-linecap="round" stroke-linejoin="round"/>
<path d="M2409.99 401.018L2431.61 473.757C2432.85 478.459 2435.1 482.838 2438.18 486.599C2441.27 490.36 2445.12 493.416 2449.49 495.559C2453.86 497.702 2458.63 498.883 2463.49 499.023C2468.36 499.162 2473.19 498.256 2477.68 496.367L2622.52 412.897C2626.96 410.84 2631.78 409.71 2636.68 409.578C2641.57 409.445 2646.44 410.313 2651 412.126C2655.55 413.94 2659.68 416.662 2663.14 420.127C2666.6 423.591 2669.32 427.726 2671.14 432.277L2706.84 496.367L2678.28 371.476C2676.83 364.709 2673.35 358.544 2668.31 353.805C2663.27 349.067 2656.9 345.979 2650.06 344.956L2476.49 312.328C2468.4 311.45 2447.72 312.146 2441.01 316.764C2434.3 321.381 2420.92 331.056 2418.86 338.932L2409.97 365.547C2408.67 370.736 2408.68 395.829 2409.99 401.018Z" fill="#42505A"/>
<path d="M2556.32 658.233C2556.32 658.233 2618.4 662.668 2636.14 605.016" stroke="#42505A" stroke-width="8" stroke-linecap="round" stroke-linejoin="round"/>
</g>
<g filter="url(#filter2_d)">
<path d="M1955 437H1505L1513.35 428.585L1567.61 373.912C1571.37 370.128 1576.48 368 1581.81 368H1878.19C1883.52 368 1888.63 370.128 1892.39 373.912L1946.65 428.585L1955 437Z" fill="#7C4DFF"/>
<path d="M1730 499.82V546.82C1730 562.395 1717.41 575.025 1701.88 575.025C1686.34 575.025 1673.75 562.395 1673.75 546.82V499.82H1730Z" fill="#7C4DFF"/>
<path d="M1955 500.82V547.82C1955 563.395 1942.4 576.015 1926.87 576.015C1925.09 576.015 1923.35 575.859 1921.67 575.526H1921.66C1908.62 573.09 1898.75 561.604 1898.75 547.82V510.222V500.82H1955Z" fill="#7C4DFF"/>
<path d="M1898.74 510.222V547.82C1898.74 563.395 1886.16 576.025 1870.62 576.025C1855.09 576.025 1842.49 563.395 1842.49 547.82V500.82H1898.74V510.222Z" fill="#7C4DFF"/>
<path d="M1842.49 500.82V547.82C1842.49 563.395 1829.91 576.025 1814.37 576.025C1798.84 576.025 1786.25 563.395 1786.25 547.82V500.82H1842.49Z" fill="#7C4DFF"/>
<path d="M1786.25 500.82V547.82C1786.25 563.395 1773.66 576.025 1758.12 576.025C1742.59 576.025 1730 563.395 1730 547.82V500.82H1786.25Z" fill="#7C4DFF"/>
<path d="M1673.75 500.82V547.82C1673.75 563.395 1661.16 576.025 1645.63 576.025C1630.09 576.025 1617.5 563.395 1617.5 547.82V500.82H1673.75Z" fill="#7C4DFF"/>
<path d="M1617.51 500.82V547.82C1617.51 563.395 1604.91 576.025 1589.38 576.025C1573.85 576.025 1561.25 563.395 1561.25 547.82V500.82H1617.51Z" fill="#7C4DFF"/>
<path d="M1561.25 500.82V547.82C1561.25 558.474 1555.37 567.748 1546.67 572.542C1542.65 574.763 1538.04 576.025 1533.13 576.025C1517.6 576.025 1505 563.395 1505 547.82V500.82H1561.25Z" fill="#7C4DFF"/>
<path d="M1942.99 807.195C1948.18 807.195 1952.39 811.405 1952.39 816.597C1952.39 821.79 1948.18 825.999 1942.99 825.999H1530.55C1525.36 825.999 1521.15 821.79 1521.15 816.597C1521.15 811.405 1525.36 807.195 1530.55 807.195H1546.67H1584.17H1696.67H1921.67H1942.99Z" fill="#526471"/>
<path d="M1696.67 785.789V807.195H1584.17V644.791H1696.67V785.789Z" fill="#A7B7C1"/>
<path d="M1864.16 597.793H1754.17C1743.12 597.793 1734.17 606.747 1734.17 617.793V737.585C1734.17 748.63 1743.12 757.585 1754.17 757.585H1864.16C1875.21 757.585 1884.16 748.63 1884.16 737.585V617.793C1884.16 606.747 1875.21 597.793 1864.16 597.793Z" fill="#7C4DFF"/>
<path d="M1898.75 547.82C1898.75 561.605 1908.62 573.091 1921.66 575.527H1921.67V807.197H1696.67V654.793C1696.67 649.27 1692.19 644.793 1686.67 644.793H1594.17C1588.65 644.793 1584.17 649.27 1584.17 654.793V807.197H1546.68V572.543C1555.37 567.749 1561.25 558.474 1561.25 547.82C1561.25 563.395 1573.85 576.026 1589.37 576.026C1604.91 576.026 1617.51 563.395 1617.51 547.82C1617.51 563.395 1630.09 576.026 1645.63 576.026C1661.16 576.026 1673.75 563.395 1673.75 547.82C1673.75 563.395 1686.35 576.026 1701.88 576.026C1717.41 576.026 1730 563.395 1730 547.82C1730 563.395 1742.59 576.026 1758.12 576.026C1773.66 576.026 1786.25 563.395 1786.25 547.82C1786.25 563.395 1798.84 576.026 1814.37 576.026C1829.91 576.026 1842.5 563.395 1842.5 547.82C1842.5 563.395 1855.09 576.026 1870.63 576.026C1886.16 576.026 1898.75 563.395 1898.75 547.82ZM1864.16 757.585C1875.21 757.585 1884.16 748.631 1884.16 737.585V617.794C1884.16 606.748 1875.21 597.794 1864.16 597.794H1754.17C1743.12 597.794 1734.17 606.748 1734.17 617.794V737.585C1734.17 748.631 1743.12 757.585 1754.17 757.585H1864.16Z" fill="#ECEFF0"/>
<path opacity="0.2" d="M1952.39 815.297H1521.15C1521.15 821.208 1525.94 826 1531.85 826H1941.69C1947.6 826 1952.39 821.208 1952.39 815.297Z" fill="black"/>
<path opacity="0.2" d="M1955 436.891H1505L1518.17 423.732H1941.83L1955 436.891Z" fill="#303C44"/>
<rect x="1505" y="436.924" width="450" height="63.9295" fill="#7C4DFF"/>
<path opacity="0.2" d="M1561.12 501V547.999C1561.12 558.653 1555.24 567.928 1546.54 572.722C1542.52 574.943 1537.91 576.205 1533 576.205V501H1561.12Z" fill="url(#paint0_linear)"/>
<path opacity="0.2" d="M1617.37 501V547.999C1617.37 558.653 1611.48 567.928 1602.79 572.722C1598.77 574.943 1594.15 576.205 1589.25 576.205V501H1617.37Z" fill="url(#paint1_linear)"/>
<path opacity="0.2" d="M1673.62 501V547.999C1673.62 558.653 1667.74 567.928 1659.04 572.722C1655.02 574.943 1650.41 576.205 1645.5 576.205V501H1673.62Z" fill="url(#paint2_linear)"/>
<path opacity="0.2" d="M1729.86 501V547.999C1729.86 558.653 1723.98 567.928 1715.29 572.722C1711.27 574.943 1706.65 576.205 1701.74 576.205V501H1729.86Z" fill="url(#paint3_linear)"/>
<path opacity="0.2" d="M1786.11 501V547.999C1786.11 558.653 1780.23 567.928 1771.54 572.722C1767.52 574.943 1762.9 576.205 1757.99 576.205V501H1786.11Z" fill="url(#paint4_linear)"/>
<path opacity="0.2" d="M1842.36 501V547.999C1842.36 558.653 1836.48 567.928 1827.79 572.722C1823.77 574.943 1819.15 576.205 1814.24 576.205V501H1842.36Z" fill="url(#paint5_linear)"/>
<path opacity="0.2" d="M1898.61 501V547.999C1898.61 558.653 1892.72 567.928 1884.03 572.722C1880.01 574.943 1875.39 576.205 1870.48 576.205V501H1898.61Z" fill="url(#paint6_linear)"/>
<path opacity="0.2" d="M1954.86 501V547.999C1954.86 558.653 1948.97 567.928 1940.28 572.722C1936.26 574.943 1931.64 576.205 1926.73 576.205V501H1954.86Z" fill="url(#paint7_linear)"/>
<path opacity="0.1" d="M1884 634V757H1754C1742.95 757 1734 748.046 1734 737V731.2L1884 634Z" fill="url(#paint8_linear)"/>
<path d="M1595.89 521.38C1591.71 521.38 1587.76 520.715 1584.02 519.385C1580.28 518.055 1577.34 516.282 1575.18 514.065C1574.3 513.115 1573.92 512.07 1574.04 510.93C1574.23 509.727 1574.84 508.745 1575.85 507.985C1576.99 507.098 1578.13 506.718 1579.27 506.845C1580.41 506.972 1581.36 507.478 1582.12 508.365C1583.39 509.758 1585.22 510.962 1587.63 511.975C1590.04 512.988 1592.73 513.495 1595.7 513.495C1599.69 513.495 1602.67 512.83 1604.63 511.5C1606.66 510.17 1607.71 508.492 1607.77 506.465C1607.77 504.438 1606.79 502.728 1604.82 501.335C1602.86 499.878 1599.41 498.707 1594.47 497.82C1588.07 496.617 1583.42 494.748 1580.5 492.215C1577.59 489.682 1576.13 486.61 1576.13 483C1576.13 479.77 1577.05 477.11 1578.89 475.02C1580.73 472.867 1583.1 471.283 1586.01 470.27C1588.99 469.193 1592.13 468.655 1595.42 468.655C1599.6 468.655 1603.27 469.352 1606.44 470.745C1609.67 472.075 1612.23 473.943 1614.13 476.35C1614.89 477.3 1615.24 478.282 1615.18 479.295C1615.12 480.308 1614.58 481.163 1613.56 481.86C1612.68 482.493 1611.6 482.715 1610.33 482.525C1609.07 482.272 1607.99 481.733 1607.1 480.91C1605.52 479.263 1603.78 478.123 1601.88 477.49C1599.98 476.793 1597.76 476.445 1595.23 476.445C1592.19 476.445 1589.69 477.015 1587.72 478.155C1585.76 479.232 1584.78 480.752 1584.78 482.715C1584.78 483.918 1585.1 485.027 1585.73 486.04C1586.43 486.99 1587.66 487.845 1589.43 488.605C1591.27 489.365 1593.93 490.062 1597.41 490.695C1602.16 491.582 1605.9 492.785 1608.62 494.305C1611.41 495.762 1613.37 497.472 1614.51 499.435C1615.72 501.335 1616.32 503.52 1616.32 505.99C1616.32 508.967 1615.5 511.627 1613.85 513.97C1612.27 516.25 1609.95 518.055 1606.91 519.385C1603.94 520.715 1600.26 521.38 1595.89 521.38ZM1652.89 521.38C1647.7 521.38 1643.08 520.272 1639.02 518.055C1634.97 515.775 1631.8 512.672 1629.52 508.745C1627.24 504.755 1626.1 500.195 1626.1 495.065C1626.1 489.872 1627.18 485.312 1629.33 481.385C1631.49 477.395 1634.46 474.292 1638.26 472.075C1642.13 469.795 1646.53 468.655 1651.47 468.655C1656.34 468.655 1660.56 469.763 1664.1 471.98C1667.71 474.133 1670.47 477.142 1672.37 481.005C1674.27 484.805 1675.22 489.207 1675.22 494.21C1675.22 495.35 1674.84 496.3 1674.08 497.06C1673.32 497.757 1672.34 498.105 1671.13 498.105H1632.18V490.98H1671.23L1667.24 493.735C1667.24 490.378 1666.6 487.402 1665.34 484.805C1664.07 482.145 1662.27 480.055 1659.92 478.535C1657.58 477.015 1654.76 476.255 1651.47 476.255C1647.86 476.255 1644.72 477.078 1642.06 478.725C1639.47 480.308 1637.47 482.525 1636.08 485.375C1634.75 488.225 1634.08 491.455 1634.08 495.065C1634.08 498.675 1634.87 501.905 1636.46 504.755C1638.1 507.542 1640.32 509.758 1643.11 511.405C1645.96 512.988 1649.22 513.78 1652.89 513.78C1654.98 513.78 1657.07 513.4 1659.16 512.64C1661.32 511.88 1663.06 510.993 1664.39 509.98C1665.27 509.347 1666.22 509.03 1667.24 509.03C1668.25 508.967 1669.14 509.252 1669.9 509.885C1670.91 510.772 1671.45 511.753 1671.51 512.83C1671.58 513.843 1671.1 514.73 1670.09 515.49C1668 517.2 1665.34 518.625 1662.11 519.765C1658.88 520.842 1655.81 521.38 1652.89 521.38ZM1707.77 521.38C1703.08 521.38 1698.87 520.24 1695.13 517.96C1691.39 515.68 1688.45 512.545 1686.3 508.555C1684.14 504.565 1683.07 500.068 1683.07 495.065C1683.07 489.998 1684.21 485.502 1686.49 481.575C1688.83 477.585 1691.96 474.45 1695.89 472.17C1699.88 469.827 1704.35 468.655 1709.29 468.655C1714.29 468.655 1718.75 469.827 1722.68 472.17C1726.61 474.45 1729.71 477.585 1731.99 481.575C1734.33 485.565 1735.51 490.062 1735.51 495.065L1732.09 495.825C1732.09 500.638 1731.01 504.977 1728.86 508.84C1726.77 512.703 1723.88 515.775 1720.21 518.055C1716.6 520.272 1712.45 521.38 1707.77 521.38ZM1709.29 513.495C1712.71 513.495 1715.71 512.703 1718.31 511.12C1720.97 509.473 1723.06 507.257 1724.58 504.47C1726.16 501.683 1726.96 498.548 1726.96 495.065C1726.96 491.518 1726.16 488.352 1724.58 485.565C1723.06 482.778 1720.97 480.593 1718.31 479.01C1715.71 477.363 1712.71 476.54 1709.29 476.54C1705.99 476.54 1702.98 477.363 1700.26 479.01C1697.6 480.593 1695.48 482.778 1693.9 485.565C1692.38 488.352 1691.62 491.518 1691.62 495.065C1691.62 498.548 1692.38 501.683 1693.9 504.47C1695.48 507.257 1697.6 509.473 1700.26 511.12C1702.98 512.703 1705.99 513.495 1709.29 513.495ZM1731.04 521.095C1729.77 521.095 1728.7 520.683 1727.81 519.86C1726.99 518.973 1726.58 517.897 1726.58 516.63V501.525L1728.38 492.31L1735.51 495.065V516.63C1735.51 517.897 1735.09 518.973 1734.27 519.86C1733.45 520.683 1732.37 521.095 1731.04 521.095ZM1761.9 521C1759.17 521 1756.77 520.272 1754.68 518.815C1752.59 517.295 1750.94 515.268 1749.74 512.735C1748.6 510.138 1748.03 507.162 1748.03 503.805V451.175C1748.03 449.845 1748.41 448.8 1749.17 448.04C1749.99 447.217 1751.07 446.805 1752.4 446.805C1753.73 446.805 1754.77 447.217 1755.53 448.04C1756.35 448.8 1756.77 449.845 1756.77 451.175V503.805C1756.77 506.275 1757.24 508.302 1758.19 509.885C1759.14 511.468 1760.38 512.26 1761.9 512.26H1764.27C1765.47 512.26 1766.42 512.672 1767.12 513.495C1767.82 514.255 1768.17 515.3 1768.17 516.63C1768.17 517.96 1767.63 519.037 1766.55 519.86C1765.47 520.62 1764.11 521 1762.47 521H1761.9ZM1799.1 521.38C1793.91 521.38 1789.29 520.272 1785.23 518.055C1781.18 515.775 1778.01 512.672 1775.73 508.745C1773.45 504.755 1772.31 500.195 1772.31 495.065C1772.31 489.872 1773.39 485.312 1775.54 481.385C1777.7 477.395 1780.67 474.292 1784.47 472.075C1788.34 469.795 1792.74 468.655 1797.68 468.655C1802.56 468.655 1806.77 469.763 1810.31 471.98C1813.92 474.133 1816.68 477.142 1818.58 481.005C1820.48 484.805 1821.43 489.207 1821.43 494.21C1821.43 495.35 1821.05 496.3 1820.29 497.06C1819.53 497.757 1818.55 498.105 1817.34 498.105H1778.39V490.98H1817.44L1813.45 493.735C1813.45 490.378 1812.82 487.402 1811.55 484.805C1810.28 482.145 1808.48 480.055 1806.13 478.535C1803.79 477.015 1800.97 476.255 1797.68 476.255C1794.07 476.255 1790.93 477.078 1788.27 478.725C1785.68 480.308 1783.68 482.525 1782.29 485.375C1780.96 488.225 1780.29 491.455 1780.29 495.065C1780.29 498.675 1781.09 501.905 1782.67 504.755C1784.32 507.542 1786.53 509.758 1789.32 511.405C1792.17 512.988 1795.43 513.78 1799.1 513.78C1801.19 513.78 1803.28 513.4 1805.37 512.64C1807.53 511.88 1809.27 510.993 1810.6 509.98C1811.49 509.347 1812.44 509.03 1813.45 509.03C1814.46 508.967 1815.35 509.252 1816.11 509.885C1817.12 510.772 1817.66 511.753 1817.72 512.83C1817.79 513.843 1817.31 514.73 1816.3 515.49C1814.21 517.2 1811.55 518.625 1808.32 519.765C1805.09 520.842 1802.02 521.38 1799.1 521.38ZM1855.5 521.38C1850.56 521.38 1846.09 520.24 1842.1 517.96C1838.18 515.617 1835.04 512.45 1832.7 508.46C1830.42 504.47 1829.28 499.973 1829.28 494.97C1829.28 489.967 1830.35 485.502 1832.51 481.575C1834.66 477.585 1837.61 474.45 1841.34 472.17C1845.08 469.827 1849.29 468.655 1853.98 468.655C1857.9 468.655 1861.48 469.478 1864.71 471.125C1868.01 472.708 1870.7 474.893 1872.79 477.68V451.27C1872.79 449.94 1873.2 448.863 1874.02 448.04C1874.91 447.217 1875.99 446.805 1877.25 446.805C1878.58 446.805 1879.66 447.217 1880.48 448.04C1881.31 448.863 1881.72 449.94 1881.72 451.27V495.065C1881.72 500.068 1880.55 504.565 1878.2 508.555C1875.92 512.545 1872.79 515.68 1868.8 517.96C1864.87 520.24 1860.44 521.38 1855.5 521.38ZM1855.5 513.495C1858.92 513.495 1861.93 512.703 1864.52 511.12C1867.18 509.473 1869.27 507.257 1870.79 504.47C1872.38 501.62 1873.17 498.453 1873.17 494.97C1873.17 491.423 1872.38 488.288 1870.79 485.565C1869.27 482.778 1867.18 480.593 1864.52 479.01C1861.93 477.363 1858.92 476.54 1855.5 476.54C1852.2 476.54 1849.2 477.363 1846.47 479.01C1843.81 480.593 1841.69 482.778 1840.11 485.565C1838.59 488.288 1837.83 491.423 1837.83 494.97C1837.83 498.453 1838.59 501.62 1840.11 504.47C1841.69 507.257 1843.81 509.473 1846.47 511.12C1849.2 512.703 1852.2 513.495 1855.5 513.495Z" fill="white"/>
<path d="M1750.59 696C1749.83 696 1749.19 695.753 1748.66 695.259C1748.16 694.727 1747.92 694.081 1747.92 693.321C1747.92 692.561 1748.16 691.934 1748.66 691.44L1765.19 672.003C1766.29 670.787 1767.14 669.571 1767.75 668.355C1768.36 667.139 1768.66 665.999 1768.66 664.935C1768.66 663.225 1768.34 661.743 1767.69 660.489C1767.09 659.197 1766.21 658.209 1765.07 657.525C1763.97 656.803 1762.64 656.442 1761.08 656.442C1759.6 656.442 1758.25 656.841 1757.04 657.639C1755.82 658.399 1754.87 659.425 1754.19 660.717C1753.5 661.971 1753.16 663.377 1753.16 664.935C1753.16 665.657 1752.89 666.284 1752.36 666.816C1751.87 667.31 1751.24 667.557 1750.48 667.557C1749.76 667.557 1749.13 667.31 1748.6 666.816C1748.07 666.284 1747.8 665.657 1747.8 664.935C1747.8 662.351 1748.37 660.052 1749.51 658.038C1750.69 656.024 1752.29 654.428 1754.3 653.25C1756.31 652.072 1758.57 651.483 1761.08 651.483C1763.63 651.483 1765.85 652.034 1767.75 653.136C1769.69 654.238 1771.17 655.796 1772.2 657.81C1773.26 659.824 1773.79 662.199 1773.79 664.935C1773.79 666.151 1773.55 667.367 1773.05 668.583C1772.6 669.799 1771.99 670.977 1771.23 672.117C1770.51 673.219 1769.75 674.226 1768.95 675.138L1755.38 690.642H1771.97C1772.73 690.642 1773.38 690.927 1773.91 691.497C1774.44 692.029 1774.71 692.637 1774.71 693.321C1774.71 694.081 1774.44 694.727 1773.91 695.259C1773.38 695.753 1772.73 696 1771.97 696H1750.59ZM1803.2 696C1802.48 696 1801.87 695.753 1801.38 695.259C1800.88 694.727 1800.64 694.081 1800.64 693.321V685.74H1781.2C1780.4 685.74 1779.78 685.493 1779.32 684.999C1778.86 684.505 1778.6 683.935 1778.52 683.289C1778.48 682.643 1778.65 682.054 1779.03 681.522L1801.15 652.623C1801.42 652.281 1801.72 652.015 1802.06 651.825C1802.44 651.597 1802.86 651.483 1803.32 651.483C1804.08 651.483 1804.68 651.749 1805.14 652.281C1805.6 652.775 1805.82 653.421 1805.82 654.219V680.895H1809.59C1810.35 680.895 1810.97 681.085 1811.47 681.465C1812 681.807 1812.27 682.434 1812.27 683.346C1812.27 683.992 1812 684.562 1811.47 685.056C1810.97 685.512 1810.35 685.74 1809.59 685.74H1805.82V693.321C1805.82 694.081 1805.58 694.727 1805.08 695.259C1804.59 695.753 1803.96 696 1803.2 696ZM1784.28 682.548L1782.97 680.895H1800.64V657.069L1802.23 659.007L1784.28 682.548ZM1819.41 700.275C1818.46 700.275 1817.72 699.876 1817.19 699.078C1816.69 698.318 1816.64 697.463 1817.02 696.513L1834.4 653.022C1834.63 652.528 1834.97 652.148 1835.43 651.882C1835.88 651.578 1836.38 651.426 1836.91 651.426C1837.82 651.426 1838.54 651.825 1839.08 652.623C1839.61 653.383 1839.68 654.257 1839.3 655.245L1821.92 698.736C1821.69 699.306 1821.33 699.705 1820.84 699.933C1820.38 700.161 1819.91 700.275 1819.41 700.275ZM1849.89 696C1849.17 696 1848.54 695.753 1848.01 695.259C1847.48 694.727 1847.21 694.081 1847.21 693.321C1847.21 693.055 1847.25 692.789 1847.33 692.523C1847.44 692.257 1847.57 691.953 1847.73 691.611L1864.31 656.841H1846.19C1845.43 656.841 1844.78 656.594 1844.25 656.1C1843.75 655.568 1843.51 654.922 1843.51 654.162C1843.51 653.402 1843.75 652.775 1844.25 652.281C1844.78 651.749 1845.43 651.483 1846.19 651.483H1868.42C1869.14 651.483 1869.77 651.749 1870.3 652.281C1870.83 652.775 1871.1 653.402 1871.1 654.162C1871.1 654.39 1871.06 654.618 1870.98 654.846C1870.91 655.074 1870.81 655.321 1870.7 655.587L1852.34 694.518C1851.77 695.506 1850.96 696 1849.89 696Z" fill="white"/>
</g>
<path d="M1999.05 628.319C1996.35 628.897 1993.69 627.176 1993.11 624.475C1992.53 621.775 1994.25 619.118 1996.95 618.54L1999.05 628.319ZM2276.97 618.655C2278.41 621.011 2277.67 624.088 2275.31 625.528L2236.91 648.992C2234.56 650.432 2231.48 649.689 2230.04 647.333C2228.6 644.977 2229.34 641.899 2231.7 640.459L2265.83 619.602L2244.97 585.471C2243.53 583.114 2244.28 580.037 2246.63 578.597C2248.99 577.157 2252.07 577.9 2253.51 580.256L2276.97 618.655ZM1996.95 618.54C2091.49 598.323 2156.15 587.98 2273.88 616.401L2271.53 626.122C2155.84 598.194 2092.85 608.258 1999.05 628.319L1996.95 618.54Z" fill="black"/>
<path d="M1251.68 539.561C1249.57 537.78 1246.42 538.048 1244.63 540.159C1242.85 542.27 1243.12 545.425 1245.23 547.205L1251.68 539.561ZM1493.38 633.603C1495.3 631.626 1495.26 628.46 1493.28 626.533L1461.06 595.125C1459.08 593.198 1455.91 593.239 1453.99 595.216C1452.06 597.194 1452.1 600.359 1454.08 602.287L1482.72 630.205L1454.81 658.851C1452.88 660.828 1452.92 663.994 1454.9 665.921C1456.88 667.848 1460.04 667.808 1461.97 665.83L1493.38 633.603ZM1245.23 547.205C1286.23 581.785 1320.39 604.227 1357.97 617.767C1395.55 631.308 1436.17 635.804 1489.86 635.113L1489.73 625.114C1436.63 625.798 1397.36 621.328 1361.36 608.359C1325.36 595.389 1292.25 573.778 1251.68 539.561L1245.23 547.205Z" fill="black"/>
<path d="M1253.42 724.539C1251.34 726.352 1248.18 726.133 1246.37 724.05C1244.56 721.967 1244.78 718.809 1246.86 716.996L1253.42 724.539ZM1493.64 626.783C1495.6 628.731 1495.61 631.897 1493.66 633.854L1461.92 665.753C1459.97 667.71 1456.8 667.718 1454.85 665.77C1452.89 663.822 1452.88 660.657 1454.83 658.699L1483.04 630.345L1454.69 602.131C1452.73 600.183 1452.72 597.017 1454.67 595.06C1456.62 593.102 1459.78 593.094 1461.74 595.042L1493.64 626.783ZM1246.86 716.996C1287.32 681.784 1321.13 658.817 1358.5 644.7C1395.86 630.581 1436.4 625.46 1490.1 625.327L1490.13 635.327C1437.02 635.459 1397.82 640.532 1362.03 654.054C1326.23 667.578 1293.46 689.698 1253.42 724.539L1246.86 716.996Z" fill="black"/>
<g filter="url(#filter3_d)">
<path d="M670.258 422.74V522.687C670.258 530.54 663.824 536.965 655.96 536.965H512.981C505.118 536.965 498.684 530.54 498.684 522.687V351.349C498.684 343.496 505.118 337.07 512.981 337.07H598.769C603.058 337.07 607.205 339.069 609.921 342.496L667.113 413.744C667.828 414.744 668.542 415.886 669.114 417.028C669.114 417.171 669.114 417.171 669.114 417.171C669.114 417.171 669.114 417.171 669.114 417.314C669.972 419.027 670.258 420.883 670.258 422.74Z" fill="#563712"/>
<path d="M670.26 422.746V422.889L584.473 422.746V337.07H598.771C603.06 337.07 607.206 339.069 609.923 342.496L667.114 413.75C667.829 414.75 668.544 415.892 669.116 417.035C669.116 417.177 669.116 417.177 669.116 417.177C669.116 417.177 669.116 417.177 669.116 417.32C669.974 419.034 670.26 420.89 670.26 422.746Z" fill="#412A0E"/>
<path d="M234 323C234 317.477 238.477 313 244 313H573.784C579.307 313 583.784 317.477 583.784 323V536.715H244C238.477 536.715 234 532.237 234 526.715V323Z" fill="#644117"/>
<path fill-rule="evenodd" clip-rule="evenodd" d="M339.457 389.678L340.093 461.862L356.304 481.895L404.941 507.652L464.701 478.397L477.099 448.824L475.827 353.107L430.689 351.835L383.643 359.467L340.73 384.27L339.457 389.678Z" fill="#301506"/>
<path d="M409.088 337.513C380.759 337.513 356.047 343 335.637 353.82V440.323C335.637 458.525 342.473 473.745 355.404 484.349C367.41 494.201 404.54 510.436 409.09 512.408C413.405 510.53 450.975 494.043 462.79 484.349C475.714 473.751 482.552 458.526 482.552 440.323V353.82C462.138 342.998 437.427 337.512 409.086 337.512L409.088 337.513ZM451.037 354.262C459.485 354.373 467.78 354.895 475.799 355.641V440.322C475.799 456.595 469.896 469.741 458.507 479.125C448.332 487.507 417.651 501.259 409.09 505.034C400.414 501.208 369.656 487.283 359.664 479.129C348.342 469.905 342.383 456.447 342.383 440.326V390.845C374.919 360.996 414.427 353.785 451.034 354.264L451.037 354.262ZM411.004 393.694C404.033 393.694 398.409 395.252 393.779 398.242V481.559H406.563V454.642C407.839 455.018 409.691 455.37 412.314 455.37C426.495 455.37 434.646 442.582 434.646 423.909C434.646 405.274 426.253 393.694 411.004 393.694L411.004 393.694ZM454.687 393.694C446.279 393.937 437.486 400.03 437.54 410.359C437.561 417.16 439.446 422.246 449.983 428.43C455.605 431.732 457.871 433.908 457.968 437.92C458.075 442.38 454.995 445.069 450.307 445.051C446.229 445.019 441.353 442.755 438.089 439.847V451.616C442.092 454.004 447.087 455.582 452.133 455.582C464.762 455.582 470.402 446.658 470.646 438.48C470.886 431.026 468.827 425.386 458.147 419.109C453.38 416.312 449.616 414.474 449.742 409.821C449.867 405.278 453.637 403.682 457.257 403.715C461.722 403.754 466.042 406.228 468.708 408.964V397.85C466.461 396.118 461.703 393.478 454.686 393.693L454.687 393.694ZM348.911 394.988V435.176C348.911 448.724 355.318 455.583 367.962 455.583C375.785 455.583 382.338 453.772 387.219 450.452V394.988H374.463V443.175C373.072 444.129 371.01 444.738 368.415 444.738C362.559 444.738 361.684 439.366 361.684 435.742V394.989H348.911L348.911 394.988ZM411.09 403.99C418.505 403.99 421.578 409.912 421.578 424.235C421.578 438.21 418.063 444.962 410.709 444.962C408.978 444.962 407.473 444.533 406.559 444.189V404.915C407.595 404.399 409.355 403.991 411.09 403.991V403.99Z" fill="#FAB80A"/>
<ellipse cx="371.706" cy="536.575" rx="37.2721" ry="37.2858" fill="#412A0E"/>
<ellipse cx="614.741" cy="536.714" rx="37.2721" ry="37.2858" fill="#412A0E"/>
</g>
<g filter="url(#filter4_d)">
<path d="M669 806.143V885.643C669 891.889 663.45 897 656.667 897H533.333C526.55 897 521 891.889 521 885.643V749.357C521 743.111 526.55 738 533.333 738H607.333C611.033 738 614.61 739.59 616.953 742.316L666.287 798.988C666.903 799.783 667.52 800.691 668.013 801.6C668.013 801.714 668.013 801.714 668.013 801.714C668.013 801.714 668.013 801.714 668.013 801.827C668.753 803.19 669 804.666 669 806.143Z" fill="#E8E8E8"/>
<path d="M669 805.887V806L595 805.887V738H607.333C611.033 738 614.61 739.584 616.953 742.3L666.287 798.759C666.903 799.551 667.52 800.456 668.013 801.361C668.013 801.474 668.013 801.474 668.013 801.474C668.013 801.474 668.013 801.474 668.013 801.587C668.753 802.945 669 804.416 669 805.887Z" fill="#DADADA"/>
<path d="M226 693C226 687.477 230.477 683 236 683H550.342C555.865 683 560.342 687.477 560.342 693V896.759H236C230.477 896.759 226 892.282 226 886.759V693Z" fill="#F5F5F5"/>
<circle cx="357.627" cy="896.627" r="35.6266" fill="#DADADA"/>
<circle cx="616.627" cy="896.627" r="35.6266" fill="#DADADA"/>
<g clip-path="url(#clip0)">
<path d="M460.968 761.598L469.957 771.562L478.612 761.598H497.092L479.032 782.025L497.34 802.619H478.114L469.209 792.575L460.385 802.619H441.82L459.969 782.11L441.82 761.598H460.968Z" fill="#FF5900"/>
<path d="M441.82 761.597V775.456H421.266V788.175H441.82V802.618H406.16V738H441.82V752.403H421.266V761.597H441.82Z" fill="#FF5900"/>
<path d="M391.12 738V764.445H390.954C387.622 760.595 383.462 759.256 378.635 759.256C368.746 759.256 361.296 766.02 358.682 774.959C355.696 765.109 348.005 759.071 336.6 759.071C327.339 759.071 320.025 763.251 316.209 770.064V761.597H297.065V752.403H317.957V738H280V802.618H297.065V775.456H314.075C313.568 777.451 313.296 779.589 313.296 781.844C313.296 795.322 323.535 804.782 336.6 804.782C347.588 804.782 354.83 799.594 358.658 790.136H344.032C342.055 792.981 340.555 793.822 336.6 793.822C332.015 793.822 328.06 789.799 328.06 785.029H357.84C359.132 795.735 367.424 804.967 378.801 804.967C383.71 804.967 388.204 802.539 390.951 798.44H391.117V802.624H406.16V738H391.12ZM328.537 775.648C329.485 771.543 332.652 768.862 336.603 768.862C340.953 768.862 343.957 771.461 344.748 775.648C345.08 775.648 328.537 775.648 328.537 775.648ZM381.989 792.781C376.444 792.781 372.996 787.583 372.996 782.157C372.996 776.358 375.994 770.781 381.989 770.781C388.204 770.781 390.68 776.358 390.68 782.157C390.68 787.656 388.057 792.781 381.989 792.781Z" fill="#2A007C"/>
<path d="M406.168 834.928V811.771H418.889V813.499H408.266V822.037H418.439V823.764H408.266V833.194H419.363V834.925H406.168V834.928Z" fill="#2A007C"/>
<path d="M420.875 834.927L427.078 826.611L421.195 818.744H423.58L428.382 825.172L433.089 818.744H435.473L429.496 826.611L435.727 834.927H433.312L428.159 828.047L423.263 834.927H420.875Z" fill="#2A007C"/>
<path d="M439.764 840.999H437.823V823.574C437.823 821.974 437.823 820.347 437.727 818.744H439.637L439.701 821.176C440.905 819.254 442.496 818.361 444.884 818.361C449.844 818.361 451.972 822.484 451.972 826.832C451.972 831.186 449.844 835.309 444.884 835.309C442.656 835.309 440.908 834.447 439.764 832.589V840.999ZM449.907 826.832C449.907 823.38 448.473 819.989 444.66 819.989C441.068 819.989 439.764 822.964 439.764 826.832C439.764 830.703 441.068 833.675 444.66 833.675C448.476 833.675 449.907 830.287 449.907 826.832Z" fill="#2A007C"/>
<path d="M461.945 820.244C458.734 820.244 457.617 822.964 457.617 825.776V834.926H455.676V823.505C455.676 821.938 455.645 820.344 455.582 818.744H457.496L457.62 821.079C458.574 819.227 460.167 818.361 462.296 818.361C462.582 818.361 462.899 818.392 463.186 818.425V820.377C462.739 820.307 462.389 820.244 461.945 820.244Z" fill="#2A007C"/>
<path d="M465.566 827.184C465.566 830.828 467.281 833.833 470.809 833.833C473.541 833.833 474.815 832.012 475.292 830.19H477.137C476.276 833.578 474.208 835.309 470.553 835.309C465.657 835.309 463.492 831.663 463.492 827.124C463.492 822.487 465.75 818.361 470.806 818.361C475.926 818.361 477.294 822.867 477.294 827.184H465.566ZM465.626 825.715H475.229C475.229 822.548 473.738 819.831 470.683 819.831C467.918 819.828 466.007 821.938 465.626 825.715Z" fill="#2A007C"/>
<path d="M484.866 835.309C481.56 835.309 479.082 833.739 479.082 830.19H481.023C481.023 832.619 482.611 833.833 484.965 833.833C487.16 833.833 488.875 832.777 488.875 830.609C488.875 828.657 486.873 828.144 484.775 827.536C482.234 826.802 479.465 826 479.465 822.867C479.465 819.384 482.357 818.361 485.062 818.361C488.174 818.361 490.499 819.573 490.592 822.931H488.651C488.558 821.015 487.19 819.928 485.122 819.928C483.501 819.928 481.53 820.566 481.53 822.676C481.53 824.597 483.501 825.141 485.599 825.715C488.147 826.416 490.942 827.184 490.942 830.321C490.939 833.964 488.144 835.309 484.866 835.309Z" fill="#2A007C"/>
<path d="M498.318 835.309C495.01 835.309 492.531 833.739 492.531 830.19H494.472C494.472 832.619 496.06 833.833 498.418 833.833C500.612 833.833 502.327 832.777 502.327 830.609C502.327 828.657 500.322 828.144 498.224 827.536C495.683 826.802 492.918 826 492.918 822.867C492.918 819.384 495.81 818.361 498.514 818.361C501.627 818.361 503.951 819.573 504.044 822.931H502.103C502.01 821.015 500.642 819.928 498.575 819.928C496.954 819.928 494.982 820.566 494.982 822.676C494.982 824.597 496.954 825.141 499.055 825.715C501.599 826.416 504.398 827.184 504.398 830.321C504.392 833.964 501.593 835.309 498.318 835.309Z" fill="#2A007C"/>
</g>
</g>
<g filter="url(#filter5_d)">
<path d="M1182.01 450.507C1188.09 453.243 1192.02 459.282 1192.04 465.951L1192.21 515.131C1192.21 521.377 1186.66 526.488 1179.88 526.488H1056.54C1049.76 526.488 1044.21 521.377 1044.21 515.131V378.845C1044.21 372.598 1040.14 342 1046.92 342L1126.42 425.5L1182.01 450.507Z" fill="#E8E8E8"/>
<path d="M1136.5 430H1063V359L1126 425L1136.5 430Z" fill="#DADADA"/>
<path d="M768 323C768 317.477 772.477 313 778 313H1053C1058.52 313 1063 317.477 1063 323V527H778C772.477 527 768 522.523 768 517V323Z" fill="#F5F5F5"/>
<circle cx="876.627" cy="526.627" r="35.6266" fill="#DADADA"/>
<circle cx="1139.63" cy="526.627" r="35.6266" fill="#DADADA"/>
<path fill-rule="evenodd" clip-rule="evenodd" d="M876.164 340.293H876.602L877.334 340.437L878.21 340.584L880.546 341.17L883.759 341.752L885.513 342.195L887.412 342.631L889.456 342.925L891.499 343.511L893.691 343.802L895.881 344.388L902.89 345.701L905.082 346.288L907.419 346.726L909.46 347.165L911.653 347.603L913.696 348.042L915.743 348.335L917.494 348.775L919.248 349.067L920.708 349.503L922.021 349.798L923.188 349.942L924.211 350.089L924.944 350.237L925.38 350.382H925.671L927.572 350.821L929.324 351.114L930.785 351.552L931.951 351.844L933.122 352.284L933.998 352.577L935.165 353.161L935.603 353.454L936.333 354.184V354.331L936.482 354.477V354.623H942.757L943.345 354.77H943.928L944.366 354.916H944.804L945.242 355.063L946.41 355.645L946.556 355.94L947.579 357.547L947.872 359.447L947.579 361.789L946.85 363.982L945.972 366.175L945.095 367.931L944.366 369.101L944.075 369.54L943.783 369.69L943.052 369.977L942.029 370.417L940.567 371.001L938.961 371.589L936.918 372.465L934.727 373.342L932.244 374.221L929.469 375.389L926.546 376.414L923.63 377.582L917.204 380.217L913.843 381.533L910.483 382.705L907.126 384.161L903.623 385.48L900.262 386.648L897.047 388.114L893.691 389.286L890.623 390.454L884.78 392.793L882.152 393.817L879.67 394.694L877.48 395.57L875.583 396.301L873.974 397.033L872.662 397.473L871.639 397.914L871.054 398.057L870.906 398.201H946.41L958.678 340H876.164V340.293Z" fill="#284E80"/>
<path fill-rule="evenodd" clip-rule="evenodd" d="M932.681 359.158L932.242 359.305L929.321 359.887H928.59L928.005 360.033H927.424L926.544 360.182L926.108 360.328L925.815 360.473L925.668 360.768V361.057L925.963 361.351H926.544L927.129 361.496H928.59L929.466 361.351H930.342L932.389 361.057H933.412L934.579 360.91L935.6 360.768L936.48 360.619L937.499 360.473H941.443L941.879 360.619L942.173 360.768L942.464 361.205V361.789L942.319 362.373L942.173 363.105L941.879 363.982L941.443 365.007L941.15 366.031L941.005 366.615L941.296 366.908L941.588 366.761L942.173 366.175L942.464 365.738L942.902 365.007L943.342 364.129L943.78 363.105L944.216 362.23L944.509 361.351L944.654 360.619V359.742L944.363 359.01L943.925 358.572L943.342 358.133L942.611 357.84L941.734 357.694L940.714 357.547H934.579L934.433 357.694H934.286L933.995 357.84L933.701 358.426L933.412 358.572L933.119 358.865L932.681 359.158Z" fill="#284E80"/>
<path fill-rule="evenodd" clip-rule="evenodd" d="M873.389 353.455L863.75 398.202L864.19 398.058L865.066 397.474L866.525 396.89L868.426 395.865L870.614 394.843L873.099 393.527L876.019 392.209L878.794 390.746L881.715 389.43L884.488 387.967L887.263 386.649L889.891 385.334L892.083 384.161L893.98 383.286L895.441 382.559L896.464 382.118L897.924 381.386L899.24 380.655L900.844 379.921L902.451 379.046L903.912 378.314L905.664 377.583L907.27 376.706L909.022 375.978L910.776 375.097L919.538 371.443L923.481 370.125L924.065 369.977L924.648 369.69L925.378 369.541L928.006 368.664L931.076 367.787L932.097 367.639L935.163 366.762L936.917 366.471L937.5 366.323L937.938 366.176H938.378L938.814 366.032L939.107 365.739H939.254V365.59L938.96 365.008L938.522 364.862L937.938 364.714H937.355L936.481 364.571H935.601L934.58 364.714L932.828 364.862L930.929 365.153L928.884 365.59L926.692 366.032L924.505 366.616L922.167 367.348L919.976 368.08L917.64 368.809L915.45 369.69L913.257 370.418L911.214 371.15L909.317 371.881L907.561 372.758L906.102 373.342L904.788 373.931L903.765 374.515L898.216 357.257H933.559L933.702 356.527L933.121 355.793L932.243 355.355L930.929 354.916L929.468 354.478L925.669 353.894L919.538 353.455H873.389Z" fill="#284E80"/>
<path fill-rule="evenodd" clip-rule="evenodd" d="M1038.42 446.962H790.984L791.339 443.24H1038.78L1038.42 446.962Z" fill="#CA4256"/>
<path fill-rule="evenodd" clip-rule="evenodd" d="M802.228 438.732L800.329 438.584L798.432 438.146L796.971 437.707L795.657 436.83L794.783 435.807L794.197 434.488L794.05 433.028L794.197 431.272L794.928 428.054L795.511 425.13L796.097 422.642L796.535 420.597L796.827 418.842L797.118 417.527L797.265 416.797L797.409 416.504H802.228L802.081 417.086L801.79 418.549L801.205 420.742L800.767 423.23L800.184 425.718L799.455 429.372L799.308 429.811L799.164 430.981V433.03L799.455 433.76L800.038 434.344L800.767 434.783L801.79 435.074L802.959 435.219L804.273 435.074L805.296 434.928L806.317 434.488L807.048 433.758L807.633 433.028L808.218 432.147L809.094 429.809L809.238 428.639L809.676 426.884L810.118 424.691L810.556 422.351L811.137 420.154L811.432 418.254L811.722 416.937L811.87 416.5H816.689L815.813 420.74L815.375 422.937L815.083 423.667V423.958L814.935 424.837L814.497 427.03L813.478 431.272L813.331 432.147L812.893 433.028L812.598 433.758L812.16 434.488L811.579 435.219L810.41 436.387L809.678 436.828L808.804 437.269L808.073 437.707L807.199 437.998L806.321 438.146L805.443 438.437L803.401 438.732H802.228ZM1026.84 420.013H1019.97L1018.81 420.304L1017.93 420.89L1017.79 421.181L1017.64 421.621V422.205L1017.79 422.792L1018.22 423.378L1018.66 424.107L1019.98 425.423L1020.85 426.007L1021.58 426.593L1022.46 427.325L1023.92 428.788L1024.5 429.52L1025.38 431.274L1025.52 432.149L1025.38 433.174L1025.09 434.201L1024.65 435.223L1023.92 436.1L1022.89 436.832L1021.73 437.414L1020.26 437.853L1018.37 438.146L1016.32 438.291H1008.88L1009.75 434.783H1017.64L1018.37 434.635L1018.95 434.488L1019.39 434.197L1019.83 433.61L1020.12 433.028L1019.98 431.856L1019.1 430.686L1017.64 429.518L1016.18 428.202L1014.58 426.741L1013.26 425.13L1012.38 423.519L1012.24 421.619L1012.53 420.597L1013.12 419.428L1013.7 418.551L1014.72 417.82L1016.04 417.236L1017.35 416.797L1019.11 416.504H1027.57L1026.84 420.013ZM1009.89 420.013H998.945L997.627 425.716H1007.27L1006.54 428.786H996.9L995.73 434.783H1006.68L1005.95 438.291H990.181L994.856 416.502H1010.63L1009.89 420.013ZM990.908 420.013H984.193L980.251 438.291H975.434L979.375 420.013H972.509L973.387 416.502H991.643L990.908 420.013ZM957.322 438.291L959.223 434.783H966.085L964.188 420.89L954.548 438.291H949.727L962.287 416.502H967.982L971.343 438.291H957.322ZM956.446 420.013H949.727L945.785 438.291H940.963L944.905 420.013H938.047L938.921 416.502H957.172L956.446 420.013ZM935.562 420.013H928.844L928.113 420.156L927.53 420.304L927.09 420.597L926.506 421.179V422.203L926.654 422.79L926.944 423.376L927.528 424.105L928.842 425.421L929.572 426.005L930.45 426.591L932.636 428.786L933.223 429.518L933.807 430.395L934.097 431.272L934.245 432.147V433.172L933.95 434.199L933.514 435.221L932.636 436.098L931.762 436.83L930.452 437.412L928.991 437.851L927.237 438.144L925.047 438.289H917.745L918.472 434.781H926.504L927.235 434.635L927.818 434.488L928.258 434.197L928.694 433.61L928.842 433.028L928.694 431.856L927.82 430.686L926.506 429.518L925.049 428.202L923.439 426.741L922.125 425.13L921.251 423.519L921.103 421.619L921.398 420.597L921.834 419.428L922.565 418.551L923.588 417.82L924.758 417.236L926.216 416.797L927.97 416.504H936.438L935.562 420.013ZM891.459 427.323L889.265 438.291H899.052L900.218 438.146H901.389L903.429 437.56L904.6 437.121L905.623 436.535L907.377 435.367L909.127 433.61L910.588 431.565L911.171 430.395L911.611 429.227L911.902 427.909L912.049 427.325L912.193 426.448L912.483 424.402L912.34 422.501L911.9 420.892L911.169 419.43L910.003 418.113L908.546 417.236L906.644 416.652L904.455 416.504H893.794L891.459 427.323ZM907.377 427.323L907.23 428.054L906.79 428.932L906.499 429.663L906.21 430.54L905.77 431.123L905.187 431.856L904.017 433.028L902.555 433.903L901.829 434.197L900.955 434.488L899.197 434.781H894.819L896.276 427.321L897.887 420.011H904.166L905.332 420.449L906.21 421.033L906.937 421.908L907.377 422.786L907.668 423.954V426.294L907.377 427.171V427.323ZM889.562 420.013H878.752L877.438 425.716H886.934L886.346 428.786H876.711L875.54 434.783H886.346L885.763 438.291H869.992L874.667 416.502H890.29L889.562 420.013ZM870.723 420.013H863.859L859.915 438.291H855.243L859.184 420.013H852.322L853.051 416.502H871.308L870.723 420.013ZM845.165 438.291H840.491L845.018 416.502H849.836L845.165 438.291ZM835.819 438.291H829.83L824.427 422.06H824.282L820.924 438.291H816.689L821.362 416.502H827.495L832.755 432.883L836.115 416.502H840.495L835.819 438.291ZM795.804 466.368H795.221L794.928 466.225H794.052L793.761 466.081H793.471L793.178 463.009H794.347L794.492 463.152H795.37L796.537 463.009L798.288 462.425L798.874 461.837L799.748 460.665L800.04 460.084V459.496L800.186 458.765V458.037L800.04 457.449L799.748 457.012L798.874 456.424H798.288L797.707 456.281H793.763L789.82 474.561H785L789.676 452.768H800.044L801.651 452.916L802.819 453.504L803.841 454.231L804.426 455.256L804.717 456.281L804.864 457.449V458.621L804.717 459.646L804.279 461.109L803.548 462.425L802.672 463.593L801.506 464.618L800.335 465.349L797.412 466.225L795.804 466.368ZM1036.18 456.279H1025.09L1023.92 461.982H1033.55L1032.82 465.198H1023.19L1022.02 471.194H1032.97L1032.24 474.559H1016.47L1021.14 452.766H1036.91L1036.18 456.279ZM1016.76 456.572L1016.17 456.424H1015.74L1014.57 456.135L1013.84 455.988H1013.11L1012.52 455.84H1011.65L1010.04 455.988L1008.58 456.424L1007.12 457.012L1005.81 458.037L1004.79 459.062L1003.76 460.377L1003.18 461.986L1002.6 463.739L1002.3 465.495L1002.45 467.104L1002.88 468.419L1003.47 469.444L1004.35 470.323L1005.52 471.055L1006.83 471.491L1008.29 471.635H1009.16L1010.04 471.491H1010.77L1012.23 471.2H1012.81L1013.55 471.057L1014.13 470.909L1012.96 474.565L1012.37 474.709H1011.64L1011.06 474.856H1010.33L1009.75 475H1006.39L1004.05 474.709L1003.03 474.42L1002 473.979L1001.13 473.539L1000.25 472.955L999.524 472.371L998.793 471.635L998.353 470.76L997.917 469.735L997.478 468.86L997.33 467.692V466.52L997.478 465.204L997.621 463.741L998.061 462.429L998.501 460.966L999.667 458.625L1000.4 457.601L1002.15 455.844L1003.18 455.113L1005.22 453.944L1007.55 453.065L1008.72 452.774L1009.89 452.631L1011.2 452.487H1014.27L1014.85 452.631H1015.44L1016.03 452.774H1016.61L1017.19 452.922L1016.76 456.572ZM992.666 474.559H987.844L992.519 452.766H997.336L992.666 474.559ZM977.182 474.559H971.486L968.275 452.766H973.096L975.286 470.319L984.926 452.766H989.6L977.182 474.559ZM959.511 465.2L963.019 474.559H957.758L953.816 462.716H956.595L957.469 462.568L958.343 462.277L959.073 461.837L959.657 461.4L960.24 460.812L960.531 460.084L960.825 459.209L960.969 458.621V458.037L960.678 457.158L960.387 456.867L959.804 456.576L958.343 456.285H953.961L950.019 474.565H945.202L949.876 452.772H959.951L961.409 452.92L962.727 453.211L963.75 453.651L964.48 454.235L965.064 454.967L965.504 455.992L965.647 457.16V458.328L965.504 459.791L965.064 461.111L964.48 462.279L963.75 463.154L962.872 464.03L961.705 464.618L960.682 465.058L959.511 465.2ZM945.642 456.279H934.684L933.518 461.982H943.01L942.427 465.198H932.787L931.621 471.194H942.574L941.843 474.559H925.925L930.599 452.766H946.37L945.642 456.279ZM925.776 456.279H919.644L918.183 456.57L917.6 456.717L917.309 457.008L916.869 457.299L916.578 457.884V458.615L916.726 459.203L917.016 459.783L917.6 460.372L918.183 461.103L918.914 461.683L919.644 462.419L920.518 463.003L921.249 463.731L922.123 464.319L922.71 465.194L923.293 465.925L923.877 466.801L924.171 467.532L924.311 468.557V469.432L924.022 470.604L923.582 471.479L921.828 473.236L920.661 473.82L919.051 474.26L917.301 474.551H907.809L908.54 471.186H916.568L917.299 471.043L917.882 470.748L918.322 470.457L918.758 470.02L919.049 469.432L918.758 468.264L917.884 467.092L916.57 465.78L915.113 464.46L913.503 463.144L912.189 461.536L911.315 459.779L911.167 458.027L911.458 456.855L911.898 455.83L912.629 454.955L913.652 454.223L914.819 453.639L916.28 453.199L918.034 452.908L920.074 452.76H926.502L925.776 456.279ZM899.784 474.559H885.033L889.562 452.766H894.527L890.581 471.194H900.511L899.784 474.559ZM868.529 474.559L870.426 471.194H877.288L875.248 457.154L865.756 474.557H860.936L873.351 452.764H879.192L882.552 474.557H868.529V474.559ZM867.655 456.279H860.791L856.847 474.559H852.027L855.973 456.279H849.254L849.987 452.766H868.24L867.655 456.279ZM846.772 456.279H840.636L839.177 456.57L838.739 456.717L838.301 457.008L837.72 457.593L837.572 457.884V458.615L837.72 459.203L838.594 460.372L839.175 461.103L839.906 461.683L840.634 462.419L841.512 463.003L842.388 463.731L843.117 464.319L843.702 465.194L844.433 465.925L844.871 466.801L845.163 467.532L845.454 468.557L845.309 469.432L845.016 470.604L844.578 471.479L843.849 472.359L842.971 473.234L841.657 473.818L840.053 474.258L838.299 474.549H828.954L829.538 471.184H837.718L838.299 471.041L839.468 470.453L839.758 470.016L840.051 469.428L839.904 468.26L839.028 467.088L837.716 465.776L836.107 464.456L834.646 463.141L833.332 461.532L832.456 459.775L832.163 458.023L832.456 456.851L833.037 455.826L833.774 454.963L834.648 454.231L835.817 453.647L837.421 453.207L839.173 452.916L841.07 452.768H847.498L846.772 456.279ZM806.172 463.735L805.877 466.079L806.317 469.147L807.195 470.903L807.776 471.778L809.092 473.094L809.966 473.678L810.842 474.119L811.866 474.559L813.032 474.85L814.201 474.994H816.685L819.02 474.703L820.187 474.414L821.356 473.973L822.379 473.533L823.255 472.949L824.278 472.365L825.154 471.629L825.883 470.754L826.761 469.879L827.342 468.854L828.51 466.514L828.948 465.198L829.239 463.735L829.532 462.566V460.373L829.384 459.205L829.239 458.181L828.363 456.42L827.202 454.963L826.47 454.379L825.594 453.795L824.718 453.354L823.549 452.914L822.526 452.623L821.36 452.479H818.875L816.54 452.768L815.373 453.059L814.205 453.504L813.181 453.94L812.307 454.524L811.284 455.256L810.408 455.84L809.532 456.719L808.802 457.744L808.071 458.619L807.488 459.787L807.05 460.96L806.612 462.423L806.172 463.735ZM824.425 463.735L823.987 465.491L823.259 467.1L822.526 468.415L821.507 469.44L820.338 470.319L819.022 471.051L817.708 471.487L816.1 471.631L814.491 471.487L813.325 470.903L812.301 470.172L811.573 469.147L811.133 468.122L810.842 466.663V465.2L811.133 463.737L811.573 461.984L812.301 460.375L813.032 459.06L814.055 458.035L815.222 457.01L816.538 456.422L817.852 455.986L819.458 455.838L820.92 456.133L822.233 456.422L823.257 457.301L823.985 458.181L824.423 459.349L824.716 460.661V462.124L824.425 463.735Z" fill="black"/>
</g>
<g filter="url(#filter6_d)">
<path d="M1221 835.5L1224 870C1224 887 1211 897 1188.67 897H1057.33C1050.55 897 1045 892.018 1045 885.929V753.071C1045 746.982 1050.55 742 1057.33 742H1131.33C1135.03 742 1138.61 743.55 1140.95 746.207L1190.29 801.454C1190.9 802.229 1191.52 803.114 1192.01 804C1192.01 804.111 1192.01 804.111 1192.01 804.111C1192.01 804.111 1192.01 804.111 1192.01 804.221C1192.75 805.55 1221 835 1221 835.5Z" fill="#ECBD00"/>
<path d="M1193 807.89V808L1119 807.89V742H1131.33C1135.03 742 1138.61 743.537 1140.95 746.173L1190.29 800.972C1190.9 801.74 1191.52 802.619 1192.01 803.498C1192.01 803.607 1192.01 803.607 1192.01 803.607C1192.01 803.607 1192.01 803.607 1192.01 803.717C1192.75 805.035 1193 806.463 1193 807.89Z" fill="#D2A800"/>
<path d="M768 693C768 687.477 772.477 683 778 683H1092.34C1097.86 683 1102.34 687.477 1102.34 693V896.759H778C772.477 896.759 768 892.282 768 886.759V693Z" fill="#FFCC00"/>
<circle cx="899.627" cy="896.627" r="35.6266" fill="#D2A800"/>
<circle cx="1148.93" cy="896.759" r="35.6266" fill="#D2A800"/>
<path d="M1091 755V824H778V755H1091Z" fill="#FECC00"/>
<path d="M878.918 783.83C877.55 785.68 875.262 788.897 873.869 790.775C873.162 791.731 871.885 793.465 876.118 793.465C880.597 793.465 898.407 793.465 898.407 793.465C898.407 793.465 901.999 788.584 905.011 784.501C909.107 778.947 905.365 767.391 890.72 767.391C877.613 767.391 833.046 767.391 833.046 767.391L823.046 780.963C823.046 780.963 874.888 780.963 877.548 780.963C880.3 780.963 880.263 782.009 878.918 783.83ZM862.544 796.813C858.311 796.813 859.588 795.075 860.295 794.12C861.687 792.241 864.013 789.059 865.381 787.209C866.727 785.387 866.763 784.341 864.008 784.341C861.349 784.341 839.082 784.341 839.082 784.341L818.998 811.606C818.998 811.606 854.868 811.606 867.976 811.606C884.152 811.606 893.159 800.615 895.935 796.815C895.935 796.813 867.021 796.813 862.544 796.813ZM894.405 811.606H923.137L934.03 796.812L905.301 796.815C905.292 796.813 894.405 811.606 894.405 811.606ZM968.538 767.391L957.517 782.343H944.694L955.709 767.391H926.986L907.77 793.465H978.046L997.257 767.391H968.538ZM935.96 811.606H964.682L975.58 796.815H946.858C946.847 796.813 935.96 811.606 935.96 811.606ZM778 802.648V805.79H818.015L820.326 802.648H778ZM824.627 796.813H778V799.952H822.31L824.627 796.813ZM778 811.606H813.728L816.029 808.482H778V811.606ZM1048.83 805.788H1091V802.647H1051.15L1048.83 805.788ZM1044.55 811.606H1091V808.482H1046.85L1044.55 811.606ZM1055.44 796.813L1053.13 799.955H1091V796.813H1055.44ZM1017.82 793.465L1037.04 767.391H1006.62C1006.61 767.391 987.387 793.465 987.387 793.465H1017.82ZM984.924 796.813C984.924 796.813 982.825 799.679 981.804 801.06C978.198 805.927 981.387 811.606 993.159 811.606C1006.76 811.606 1039.29 811.606 1039.29 811.606L1050.19 796.815H984.924V796.813Z" fill="#D50029"/>
</g>
<g filter="url(#filter7_d)">
<path d="M239.554 403.351C288.594 403.351 328.349 363.596 328.349 314.556C328.349 265.515 288.594 225.76 239.554 225.76C190.513 225.76 150.758 265.515 150.758 314.556C150.758 363.596 190.513 403.351 239.554 403.351Z" fill="#F5F5F5"/>
<path d="M272.599 371.211C282.602 365.336 290.89 356.942 296.636 346.865C302.383 336.787 305.388 325.38 305.35 313.779C305.313 302.179 302.235 290.791 296.424 280.751C290.612 270.711 282.271 262.37 272.23 256.559C262.19 250.749 250.801 247.672 239.201 247.635C227.6 247.599 216.193 250.604 206.116 256.352C196.039 262.099 187.645 270.388 181.771 280.391C175.897 290.395 172.748 301.763 172.638 313.363L238.993 313.993L272.599 371.211Z" fill="#FF5900"/>
<path d="M238.997 326.719C246.022 326.719 251.717 321.024 251.717 313.999C251.717 306.974 246.022 301.279 238.997 301.279C231.972 301.279 226.277 306.974 226.277 313.999C226.277 321.024 231.972 326.719 238.997 326.719Z" fill="black"/>
<path d="M277.294 378.375L238.716 314.202L158.001 314.5" stroke="black" stroke-width="4" stroke-miterlimit="10" stroke-linecap="round"/>
<path d="M239.662 245.682C238.563 245.682 237.672 244.791 237.672 243.692V232.17C237.672 231.071 238.563 230.18 239.662 230.18C240.761 230.18 241.652 231.071 241.652 232.17V243.692C241.652 244.791 240.761 245.682 239.662 245.682Z" fill="#221F20"/>
<path d="M322.146 316.646H310.623C309.524 316.646 308.633 315.755 308.633 314.656C308.633 313.557 309.524 312.666 310.623 312.666H322.146C323.245 312.666 324.136 313.557 324.136 314.656C324.136 315.755 323.245 316.646 322.146 316.646Z" fill="#221F20"/>
<path d="M239.662 398.921C238.563 398.921 237.672 398.03 237.672 396.931V385.408C237.672 384.309 238.563 383.418 239.662 383.418C240.761 383.418 241.652 384.309 241.652 385.408V396.931C241.652 398.03 240.761 398.921 239.662 398.921Z" fill="#221F20"/>
<path d="M168.907 316.646H157.385C156.286 316.646 155.395 315.755 155.395 314.656C155.395 313.557 156.286 312.666 157.385 312.666H168.907C170.006 312.666 170.897 313.557 170.897 314.656C170.897 315.755 170.006 316.646 168.907 316.646Z" fill="#221F20"/>
</g>
<g filter="url(#filter8_d)">
<path d="M768.554 400.351C817.594 400.351 857.349 360.596 857.349 311.556C857.349 262.515 817.594 222.76 768.554 222.76C719.513 222.76 679.758 262.515 679.758 311.556C679.758 360.596 719.513 400.351 768.554 400.351Z" fill="#F5F5F5"/>
<path d="M828.415 340.351C836.067 324.46 837.092 306.18 831.267 289.534C825.441 272.887 813.24 259.236 797.35 251.585C781.459 243.933 763.179 242.907 746.533 248.733C729.886 254.559 716.235 266.76 708.583 282.65L768.499 311.5L828.415 340.351Z" fill="#FF5900"/>
<path d="M767.997 323.719C775.022 323.719 780.717 318.024 780.717 310.999C780.717 303.974 775.022 298.279 767.997 298.279C760.972 298.279 755.277 303.974 755.277 310.999C755.277 318.024 760.972 323.719 767.997 323.719Z" fill="black"/>
<path d="M701.001 278.133L734.646 294.551L768.292 310.969L833.5 342.5" stroke="black" stroke-width="4" stroke-miterlimit="10" stroke-linecap="round"/>
<path d="M768.662 242.682C767.563 242.682 766.672 241.791 766.672 240.692V229.17C766.672 228.071 767.563 227.18 768.662 227.18C769.761 227.18 770.652 228.071 770.652 229.17V240.692C770.652 241.791 769.761 242.682 768.662 242.682Z" fill="#221F20"/>
<path d="M851.146 313.646H839.623C838.524 313.646 837.633 312.755 837.633 311.656C837.633 310.557 838.524 309.666 839.623 309.666H851.146C852.245 309.666 853.136 310.557 853.136 311.656C853.136 312.755 852.245 313.646 851.146 313.646Z" fill="#221F20"/>
<path d="M768.662 395.921C767.563 395.921 766.672 395.03 766.672 393.931V382.408C766.672 381.309 767.563 380.418 768.662 380.418C769.761 380.418 770.652 381.309 770.652 382.408V393.931C770.652 395.03 769.761 395.921 768.662 395.921Z" fill="#221F20"/>
<path d="M697.907 313.646H686.385C685.286 313.646 684.395 312.755 684.395 311.656C684.395 310.557 685.286 309.666 686.385 309.666H697.907C699.006 309.666 699.897 310.557 699.897 311.656C699.897 312.755 699.006 313.646 697.907 313.646Z" fill="#221F20"/>
</g>
<g filter="url(#filter9_d)">
<path d="M239.554 772.351C288.594 772.351 328.349 732.596 328.349 683.556C328.349 634.515 288.594 594.76 239.554 594.76C190.513 594.76 150.758 634.515 150.758 683.556C150.758 732.596 190.513 772.351 239.554 772.351Z" fill="#F5F5F5"/>
<path d="M209.689 742.944C221.446 748.84 234.687 751.117 247.738 749.488C260.789 747.859 273.064 742.396 283.01 733.79C292.957 725.184 300.128 713.823 303.617 701.141C307.106 688.46 306.756 675.029 302.612 662.547C298.468 650.064 290.715 639.091 280.334 631.014C269.953 622.938 257.411 618.121 244.293 617.173C231.174 616.225 218.07 619.189 206.636 625.688C195.201 632.188 185.951 641.933 180.055 653.69L239.499 683.5L209.689 742.944Z" fill="#FF5900"/>
<path d="M238.997 695.719C246.022 695.719 251.717 690.024 251.717 682.999C251.717 675.974 246.022 670.279 238.997 670.279C231.972 670.279 226.277 675.974 226.277 682.999C226.277 690.024 231.972 695.719 238.997 695.719Z" fill="black"/>
<path d="M172 650.131L205.646 666.55L239.292 682.968L205.646 749.998" stroke="black" stroke-width="4" stroke-miterlimit="10" stroke-linecap="round"/>
<path d="M239.662 614.682C238.563 614.682 237.672 613.791 237.672 612.692V601.17C237.672 600.071 238.563 599.18 239.662 599.18C240.761 599.18 241.652 600.071 241.652 601.17V612.692C241.652 613.791 240.761 614.682 239.662 614.682Z" fill="#221F20"/>
<path d="M322.146 685.646H310.623C309.524 685.646 308.633 684.755 308.633 683.656C308.633 682.557 309.524 681.666 310.623 681.666H322.146C323.245 681.666 324.136 682.557 324.136 683.656C324.136 684.755 323.245 685.646 322.146 685.646Z" fill="#221F20"/>
<path d="M239.662 767.921C238.563 767.921 237.672 767.03 237.672 765.931V754.408C237.672 753.309 238.563 752.418 239.662 752.418C240.761 752.418 241.652 753.309 241.652 754.408V765.931C241.652 767.03 240.761 767.921 239.662 767.921Z" fill="#221F20"/>
<path d="M168.907 685.646H157.385C156.286 685.646 155.395 684.755 155.395 683.656C155.395 682.557 156.286 681.666 157.385 681.666H168.907C170.006 681.666 170.897 682.557 170.897 683.656C170.897 684.755 170.006 685.646 168.907 685.646Z" fill="#221F20"/>
</g>
<g filter="url(#filter10_d)">
<path d="M767.554 772.351C816.594 772.351 856.349 732.596 856.349 683.556C856.349 634.515 816.594 594.76 767.554 594.76C718.513 594.76 678.758 634.515 678.758 683.556C678.758 732.596 718.513 772.351 767.554 772.351Z" fill="#F5F5F5"/>
<path d="M767.5 750C777.538 750 787.446 747.728 796.48 743.353C805.515 738.979 813.442 732.616 819.667 724.741C825.892 716.867 830.254 707.685 832.426 697.885C834.597 688.085 834.521 677.92 832.205 668.153C829.888 658.386 825.391 649.27 819.049 641.489C812.708 633.708 804.687 627.463 795.589 623.223C786.49 618.983 776.55 616.858 766.513 617.007C756.476 617.156 746.603 619.576 737.634 624.084L767.5 683.5V750Z" fill="#FF5900"/>
<path d="M766.997 695.719C774.022 695.719 779.717 690.024 779.717 682.999C779.717 675.974 774.022 670.279 766.997 670.279C759.972 670.279 754.277 675.974 754.277 682.999C754.277 690.024 759.972 695.719 766.997 695.719Z" fill="black"/>
<path d="M733.648 616.5L767.293 682.968L767.294 757.499" stroke="black" stroke-width="4" stroke-miterlimit="10" stroke-linecap="round"/>
<path d="M767.662 614.682C766.563 614.682 765.672 613.791 765.672 612.692V601.17C765.672 600.071 766.563 599.18 767.662 599.18C768.761 599.18 769.652 600.071 769.652 601.17V612.692C769.652 613.791 768.761 614.682 767.662 614.682Z" fill="#221F20"/>
<path d="M850.146 685.646H838.623C837.524 685.646 836.633 684.755 836.633 683.656C836.633 682.557 837.524 681.666 838.623 681.666H850.146C851.245 681.666 852.136 682.557 852.136 683.656C852.136 684.755 851.245 685.646 850.146 685.646Z" fill="#221F20"/>
<path d="M767.662 767.921C766.563 767.921 765.672 767.03 765.672 765.931V754.408C765.672 753.309 766.563 752.418 767.662 752.418C768.761 752.418 769.652 753.309 769.652 754.408V765.931C769.652 767.03 768.761 767.921 767.662 767.921Z" fill="#221F20"/>
<path d="M696.907 685.646H685.385C684.286 685.646 683.395 684.755 683.395 683.656C683.395 682.557 684.286 681.666 685.385 681.666H696.907C698.006 681.666 698.897 682.557 698.897 683.656C698.897 684.755 698.006 685.646 696.907 685.646Z" fill="#221F20"/>
</g>
<path d="M2395.5 795.898H2658.5V863C2658.5 868.799 2653.8 873.5 2648 873.5H2406C2400.2 873.5 2395.5 868.799 2395.5 863V795.898Z" fill="#F5F5F5" stroke="#7C4DFF" stroke-width="9"/>
<path d="M2447.33 806.611C2450.09 806.611 2452.53 807.231 2454.65 808.471C2456.81 809.671 2458.49 811.351 2459.69 813.511C2460.89 815.631 2461.49 818.051 2461.49 820.771C2461.49 823.531 2460.89 825.991 2459.69 828.151C2458.49 830.271 2456.81 831.951 2454.65 833.191C2452.53 834.391 2450.09 834.991 2447.33 834.991C2444.61 834.991 2442.19 834.391 2440.07 833.191C2437.95 831.951 2436.29 830.271 2435.09 828.151C2433.89 825.991 2433.29 823.531 2433.29 820.771C2433.29 818.051 2433.89 815.631 2435.09 813.511C2436.29 811.351 2437.95 809.671 2440.07 808.471C2442.19 807.231 2444.61 806.611 2447.33 806.611ZM2447.39 811.651C2445.71 811.651 2444.19 812.051 2442.83 812.851C2441.51 813.611 2440.47 814.691 2439.71 816.091C2438.95 817.451 2438.57 819.011 2438.57 820.771C2438.57 822.571 2438.95 824.171 2439.71 825.571C2440.47 826.931 2441.51 828.011 2442.83 828.811C2444.19 829.611 2445.71 830.011 2447.39 830.011C2449.11 830.011 2450.63 829.611 2451.95 828.811C2453.27 828.011 2454.29 826.931 2455.01 825.571C2455.77 824.171 2456.15 822.571 2456.15 820.771C2456.15 819.011 2455.77 817.451 2455.01 816.091C2454.29 814.691 2453.27 813.611 2451.95 812.851C2450.63 812.051 2449.11 811.651 2447.39 811.651ZM2459.57 828.271L2445.35 851.911C2444.71 852.911 2443.87 853.411 2442.83 853.411C2442.07 853.411 2441.43 853.191 2440.91 852.751C2440.39 852.311 2440.07 851.771 2439.95 851.131C2439.83 850.451 2439.97 849.791 2440.37 849.151L2449.31 834.331L2459.57 828.271ZM2470.86 828.751C2469.82 828.751 2468.9 828.371 2468.1 827.611C2467.34 826.811 2466.96 825.871 2466.96 824.791C2466.96 823.711 2467.34 822.791 2468.1 822.031C2468.86 821.231 2469.78 820.831 2470.86 820.831C2471.98 820.831 2472.9 821.231 2473.62 822.031C2474.38 822.791 2474.76 823.711 2474.76 824.791C2474.76 825.871 2474.38 826.811 2473.62 827.611C2472.9 828.371 2471.98 828.751 2470.86 828.751ZM2471.34 854.491C2470.3 854.491 2469.38 854.111 2468.58 853.351C2467.82 852.551 2467.44 851.631 2467.44 850.591C2467.44 849.471 2467.82 848.531 2468.58 847.771C2469.38 846.971 2470.3 846.571 2471.34 846.571C2472.46 846.571 2473.4 846.971 2474.16 847.771C2474.92 848.531 2475.3 849.471 2475.3 850.591C2475.3 851.631 2474.92 852.551 2474.16 853.351C2473.4 854.111 2472.46 854.491 2471.34 854.491ZM2483.96 853.531C2483.16 853.531 2482.48 853.271 2481.92 852.751C2481.4 852.191 2481.14 851.511 2481.14 850.711C2481.14 849.911 2481.4 849.251 2481.92 848.731L2499.32 828.271C2500.48 826.991 2501.38 825.711 2502.02 824.431C2502.66 823.151 2502.98 821.951 2502.98 820.831C2502.98 819.031 2502.64 817.471 2501.96 816.151C2501.32 814.791 2500.4 813.751 2499.2 813.031C2498.04 812.271 2496.64 811.891 2495 811.891C2493.44 811.891 2492.02 812.311 2490.74 813.151C2489.46 813.951 2488.46 815.031 2487.74 816.391C2487.02 817.711 2486.66 819.191 2486.66 820.831C2486.66 821.591 2486.38 822.251 2485.82 822.811C2485.3 823.331 2484.64 823.591 2483.84 823.591C2483.08 823.591 2482.42 823.331 2481.86 822.811C2481.3 822.251 2481.02 821.591 2481.02 820.831C2481.02 818.111 2481.62 815.691 2482.82 813.571C2484.06 811.451 2485.74 809.771 2487.86 808.531C2489.98 807.291 2492.36 806.671 2495 806.671C2497.68 806.671 2500.02 807.251 2502.02 808.411C2504.06 809.571 2505.62 811.211 2506.7 813.331C2507.82 815.451 2508.38 817.951 2508.38 820.831C2508.38 822.111 2508.12 823.391 2507.6 824.671C2507.12 825.951 2506.48 827.191 2505.68 828.391C2504.92 829.551 2504.12 830.611 2503.28 831.571L2489 847.891H2506.46C2507.26 847.891 2507.94 848.191 2508.5 848.791C2509.06 849.351 2509.34 849.991 2509.34 850.711C2509.34 851.511 2509.06 852.191 2508.5 852.751C2507.94 853.271 2507.26 853.531 2506.46 853.531H2483.96ZM2530.33 853.531C2527.57 853.531 2525.11 852.931 2522.95 851.731C2520.83 850.491 2519.17 848.811 2517.97 846.691C2516.77 844.531 2516.17 842.091 2516.17 839.371C2516.17 836.611 2516.77 834.171 2517.97 832.051C2519.17 829.891 2520.83 828.211 2522.95 827.011C2525.11 825.771 2527.57 825.151 2530.33 825.151C2533.05 825.151 2535.47 825.771 2537.59 827.011C2539.71 828.211 2541.37 829.891 2542.57 832.051C2543.77 834.171 2544.37 836.611 2544.37 839.371C2544.37 842.091 2543.77 844.531 2542.57 846.691C2541.37 848.811 2539.71 850.491 2537.59 851.731C2535.47 852.931 2533.05 853.531 2530.33 853.531ZM2530.27 848.491C2531.95 848.491 2533.45 848.111 2534.77 847.351C2536.13 846.551 2537.19 845.471 2537.95 844.111C2538.71 842.711 2539.09 841.131 2539.09 839.371C2539.09 837.571 2538.71 835.991 2537.95 834.631C2537.19 833.231 2536.13 832.131 2534.77 831.331C2533.45 830.531 2531.95 830.131 2530.27 830.131C2528.55 830.131 2527.03 830.531 2525.71 831.331C2524.39 832.131 2523.35 833.231 2522.59 834.631C2521.87 835.991 2521.51 837.571 2521.51 839.371C2521.51 841.131 2521.87 842.711 2522.59 844.111C2523.35 845.471 2524.39 846.551 2525.71 847.351C2527.03 848.111 2528.55 848.491 2530.27 848.491ZM2518.09 831.871L2532.31 808.231C2532.95 807.231 2533.79 806.731 2534.83 806.731C2535.59 806.731 2536.23 806.951 2536.75 807.391C2537.27 807.831 2537.59 808.391 2537.71 809.071C2537.83 809.711 2537.69 810.351 2537.29 810.991L2528.35 825.811L2518.09 831.871ZM2555.3 867.571C2554.46 867.571 2553.78 867.311 2553.26 866.791C2552.74 866.271 2552.48 865.591 2552.48 864.751V837.091C2552.52 833.931 2553.26 831.091 2554.7 828.571C2556.18 826.051 2558.16 824.071 2560.64 822.631C2563.12 821.191 2565.9 820.471 2568.98 820.471C2572.18 820.471 2575.02 821.211 2577.5 822.691C2580.02 824.131 2582 826.111 2583.44 828.631C2584.92 831.111 2585.66 833.951 2585.66 837.151C2585.66 840.311 2584.96 843.151 2583.56 845.671C2582.2 848.191 2580.34 850.171 2577.98 851.611C2575.62 853.051 2572.96 853.771 2570 853.771C2567.52 853.771 2565.26 853.271 2563.22 852.271C2561.18 851.231 2559.48 849.831 2558.12 848.071V864.751C2558.12 865.591 2557.86 866.271 2557.34 866.791C2556.82 867.311 2556.14 867.571 2555.3 867.571ZM2569.04 848.791C2571.16 848.791 2573.06 848.291 2574.74 847.291C2576.42 846.251 2577.74 844.851 2578.7 843.091C2579.7 841.331 2580.2 839.351 2580.2 837.151C2580.2 834.911 2579.7 832.911 2578.7 831.151C2577.74 829.391 2576.42 828.011 2574.74 827.011C2573.06 825.971 2571.16 825.451 2569.04 825.451C2566.92 825.451 2565.02 825.971 2563.34 827.011C2561.66 828.011 2560.34 829.391 2559.38 831.151C2558.42 832.911 2557.94 834.911 2557.94 837.151C2557.94 839.351 2558.42 841.351 2559.38 843.151C2560.34 844.911 2561.66 846.291 2563.34 847.291C2565.02 848.291 2566.92 848.791 2569.04 848.791ZM2638.22 853.591C2637.42 853.591 2636.74 853.331 2636.18 852.811C2635.66 852.251 2635.4 851.571 2635.4 850.771V833.551C2635.4 830.951 2634.74 828.971 2633.42 827.611C2632.1 826.211 2630.38 825.511 2628.26 825.511C2626.06 825.511 2624.24 826.271 2622.8 827.791C2621.4 829.311 2620.7 831.271 2620.7 833.671H2616.02C2616.02 831.071 2616.58 828.771 2617.7 826.771C2618.82 824.771 2620.38 823.211 2622.38 822.091C2624.38 820.971 2626.66 820.411 2629.22 820.411C2631.54 820.411 2633.58 820.931 2635.34 821.971C2637.14 823.011 2638.54 824.511 2639.54 826.471C2640.54 828.431 2641.04 830.791 2641.04 833.551V850.771C2641.04 851.571 2640.78 852.251 2640.26 852.811C2639.74 853.331 2639.06 853.591 2638.22 853.591ZM2597.54 853.591C2596.7 853.591 2596.02 853.331 2595.5 852.811C2594.98 852.251 2594.72 851.571 2594.72 850.771V823.591C2594.72 822.751 2594.98 822.071 2595.5 821.551C2596.02 821.031 2596.7 820.771 2597.54 820.771C2598.38 820.771 2599.06 821.031 2599.58 821.551C2600.1 822.071 2600.36 822.751 2600.36 823.591V850.771C2600.36 851.571 2600.1 852.251 2599.58 852.811C2599.06 853.331 2598.38 853.591 2597.54 853.591ZM2617.94 853.591C2617.1 853.591 2616.42 853.331 2615.9 852.811C2615.38 852.251 2615.12 851.571 2615.12 850.771V833.551C2615.12 830.951 2614.46 828.971 2613.14 827.611C2611.82 826.211 2610.1 825.511 2607.98 825.511C2605.78 825.511 2603.96 826.271 2602.52 827.791C2601.08 829.271 2600.36 831.191 2600.36 833.551H2596.7C2596.74 830.991 2597.28 828.731 2598.32 826.771C2599.36 824.771 2600.8 823.211 2602.64 822.091C2604.48 820.971 2606.58 820.411 2608.94 820.411C2611.26 820.411 2613.3 820.931 2615.06 821.971C2616.86 823.011 2618.24 824.511 2619.2 826.471C2620.2 828.431 2620.7 830.791 2620.7 833.551V850.771C2620.7 851.571 2620.44 852.251 2619.92 852.811C2619.44 853.331 2618.78 853.591 2617.94 853.591Z" fill="black"/>
<path d="M2391 753C2391 744.716 2397.72 738 2406 738H2648C2656.28 738 2663 744.716 2663 753V791H2391V753Z" fill="#7C4DFF"/>
<path d="M2419.88 779.453C2417.59 779.453 2415.5 779.076 2413.6 778.321C2411.7 777.541 2410.07 776.449 2408.69 775.045C2407.34 773.641 2406.27 771.99 2405.49 770.092C2404.74 768.194 2404.36 766.101 2404.36 763.813C2404.36 761.551 2404.74 759.471 2405.49 757.574C2406.27 755.675 2407.34 754.024 2408.69 752.62C2410.07 751.216 2411.7 750.137 2413.6 749.383C2415.5 748.603 2417.59 748.213 2419.88 748.213C2422.14 748.213 2424.22 748.603 2426.12 749.383C2428.02 750.137 2429.66 751.216 2431.04 752.62C2432.41 754.024 2433.48 755.675 2434.23 757.574C2435.01 759.471 2435.4 761.551 2435.4 763.813C2435.4 766.101 2435.01 768.194 2434.23 770.092C2433.48 771.99 2432.41 773.641 2431.04 775.045C2429.66 776.449 2428.02 777.541 2426.12 778.321C2424.22 779.076 2422.14 779.453 2419.88 779.453ZM2419.88 776.059C2421.6 776.059 2423.18 775.747 2424.64 775.123C2426.1 774.499 2427.36 773.641 2428.42 772.549C2429.51 771.431 2430.35 770.131 2430.92 768.649C2431.49 767.167 2431.78 765.555 2431.78 763.813C2431.78 762.097 2431.49 760.498 2430.92 759.017C2430.35 757.508 2429.51 756.208 2428.42 755.116C2427.36 753.998 2426.1 753.14 2424.64 752.542C2423.18 751.918 2421.6 751.606 2419.88 751.606C2418.14 751.606 2416.54 751.918 2415.08 752.542C2413.63 753.14 2412.37 753.998 2411.3 755.116C2410.26 756.208 2409.44 757.508 2408.84 759.017C2408.25 760.498 2407.95 762.097 2407.95 763.813C2407.95 765.555 2408.25 767.167 2408.84 768.649C2409.44 770.131 2410.26 771.431 2411.3 772.549C2412.37 773.641 2413.63 774.499 2415.08 775.123C2416.54 775.747 2418.14 776.059 2419.88 776.059ZM2459.42 779.102C2458.9 779.102 2458.46 778.932 2458.1 778.594C2457.76 778.23 2457.59 777.788 2457.59 777.268V767.479C2457.59 765.971 2457.3 764.736 2456.73 763.774C2456.19 762.786 2455.42 762.058 2454.43 761.59C2453.47 761.096 2452.38 760.849 2451.16 760.849C2449.99 760.849 2448.93 761.083 2448 761.551C2447.09 762.019 2446.36 762.643 2445.81 763.423C2445.27 764.203 2444.99 765.087 2444.99 766.075H2442.61C2442.64 764.437 2443.06 762.981 2443.86 761.707C2444.67 760.407 2445.76 759.393 2447.14 758.665C2448.52 757.911 2450.06 757.534 2451.78 757.534C2453.57 757.534 2455.19 757.924 2456.62 758.704C2458.05 759.458 2459.18 760.576 2460.01 762.058C2460.84 763.54 2461.26 765.347 2461.26 767.479V777.268C2461.26 777.788 2461.07 778.23 2460.71 778.594C2460.37 778.932 2459.94 779.102 2459.42 779.102ZM2443.16 779.102C2442.61 779.102 2442.17 778.932 2441.83 778.594C2441.5 778.23 2441.33 777.788 2441.33 777.268V759.562C2441.33 759.016 2441.5 758.574 2441.83 758.236C2442.17 757.898 2442.61 757.729 2443.16 757.729C2443.71 757.729 2444.15 757.898 2444.49 758.236C2444.82 758.574 2444.99 759.016 2444.99 759.562V777.268C2444.99 777.788 2444.82 778.23 2444.49 778.594C2444.15 778.932 2443.71 779.102 2443.16 779.102ZM2467.56 770.209C2467.04 770.209 2466.61 770.04 2466.28 769.702C2465.94 769.364 2465.77 768.935 2465.77 768.415C2465.77 767.869 2465.94 767.427 2466.28 767.089C2466.61 766.751 2467.04 766.582 2467.56 766.582H2476.42C2476.96 766.582 2477.4 766.751 2477.74 767.089C2478.08 767.427 2478.25 767.869 2478.25 768.415C2478.25 768.935 2478.08 769.364 2477.74 769.702C2477.4 770.04 2476.96 770.209 2476.42 770.209H2467.56ZM2485.33 779.062C2484.79 779.062 2484.33 778.893 2483.97 778.555C2483.63 778.191 2483.46 777.736 2483.46 777.19V750.475C2483.46 749.929 2483.63 749.487 2483.97 749.149C2484.33 748.785 2484.79 748.603 2485.33 748.603H2492.35C2494.59 748.603 2496.63 748.98 2498.47 749.734C2500.32 750.462 2501.92 751.515 2503.27 752.893C2504.62 754.245 2505.66 755.844 2506.39 757.69C2507.12 759.536 2507.48 761.577 2507.48 763.813C2507.48 766.049 2507.12 768.103 2506.39 769.975C2505.66 771.821 2504.62 773.433 2503.27 774.811C2501.92 776.163 2500.32 777.216 2498.47 777.97C2496.63 778.698 2494.59 779.062 2492.35 779.062H2485.33ZM2487.16 775.747H2492.35C2494.61 775.747 2496.6 775.24 2498.32 774.226C2500.06 773.186 2501.43 771.769 2502.41 769.975C2503.4 768.181 2503.9 766.127 2503.9 763.813C2503.9 761.473 2503.4 759.419 2502.41 757.651C2501.43 755.857 2500.06 754.453 2498.32 753.439C2496.6 752.425 2494.61 751.918 2492.35 751.918H2487.16V775.747ZM2523.37 779.219C2521.24 779.219 2519.34 778.763 2517.67 777.853C2516.01 776.917 2514.71 775.643 2513.77 774.031C2512.84 772.393 2512.37 770.521 2512.37 768.415C2512.37 766.283 2512.81 764.411 2513.7 762.799C2514.58 761.161 2515.8 759.887 2517.36 758.977C2518.95 758.041 2520.76 757.574 2522.78 757.574C2524.79 757.574 2526.51 758.028 2527.97 758.938C2529.45 759.822 2530.58 761.057 2531.36 762.643C2532.14 764.203 2532.53 766.01 2532.53 768.064C2532.53 768.532 2532.38 768.922 2532.07 769.234C2531.75 769.52 2531.35 769.663 2530.86 769.663H2514.87V766.738H2530.9L2529.26 767.869C2529.26 766.491 2529 765.269 2528.48 764.203C2527.96 763.111 2527.22 762.253 2526.25 761.629C2525.29 761.005 2524.14 760.693 2522.78 760.693C2521.3 760.693 2520.01 761.031 2518.92 761.707C2517.86 762.357 2517.04 763.267 2516.47 764.437C2515.92 765.607 2515.65 766.933 2515.65 768.415C2515.65 769.897 2515.97 771.223 2516.62 772.393C2517.3 773.537 2518.21 774.447 2519.35 775.123C2520.52 775.773 2521.86 776.098 2523.37 776.098C2524.23 776.098 2525.08 775.942 2525.94 775.63C2526.83 775.318 2527.54 774.954 2528.09 774.538C2528.45 774.278 2528.84 774.148 2529.26 774.148C2529.67 774.122 2530.04 774.239 2530.35 774.499C2530.77 774.863 2530.99 775.266 2531.01 775.708C2531.04 776.124 2530.84 776.488 2530.43 776.8C2529.57 777.502 2528.48 778.087 2527.15 778.555C2525.83 778.998 2524.56 779.219 2523.37 779.219ZM2565.88 779.102C2565.36 779.102 2564.92 778.932 2564.56 778.594C2564.22 778.23 2564.05 777.788 2564.05 777.268V766.075C2564.05 764.385 2563.62 763.098 2562.76 762.214C2561.91 761.304 2560.79 760.849 2559.41 760.849C2557.98 760.849 2556.8 761.343 2555.86 762.331C2554.95 763.319 2554.5 764.593 2554.5 766.153H2551.45C2551.45 764.463 2551.82 762.968 2552.55 761.668C2553.27 760.368 2554.29 759.354 2555.59 758.626C2556.89 757.898 2558.37 757.534 2560.03 757.534C2561.54 757.534 2562.87 757.872 2564.01 758.548C2565.18 759.224 2566.09 760.199 2566.74 761.473C2567.39 762.747 2567.72 764.281 2567.72 766.075V777.268C2567.72 777.788 2567.55 778.23 2567.21 778.594C2566.87 778.932 2566.43 779.102 2565.88 779.102ZM2539.44 779.102C2538.9 779.102 2538.45 778.932 2538.12 778.594C2537.78 778.23 2537.61 777.788 2537.61 777.268V759.601C2537.61 759.055 2537.78 758.613 2538.12 758.275C2538.45 757.937 2538.9 757.768 2539.44 757.768C2539.99 757.768 2540.43 757.937 2540.77 758.275C2541.11 758.613 2541.27 759.055 2541.27 759.601V777.268C2541.27 777.788 2541.11 778.23 2540.77 778.594C2540.43 778.932 2539.99 779.102 2539.44 779.102ZM2552.7 779.102C2552.16 779.102 2551.71 778.932 2551.38 778.594C2551.04 778.23 2550.87 777.788 2550.87 777.268V766.075C2550.87 764.385 2550.44 763.098 2549.58 762.214C2548.72 761.304 2547.61 760.849 2546.23 760.849C2544.8 760.849 2543.61 761.343 2542.68 762.331C2541.74 763.293 2541.27 764.541 2541.27 766.075H2538.9C2538.92 764.411 2539.27 762.942 2539.95 761.668C2540.62 760.368 2541.56 759.354 2542.76 758.626C2543.95 757.898 2545.32 757.534 2546.85 757.534C2548.36 757.534 2549.69 757.872 2550.83 758.548C2552 759.224 2552.9 760.199 2553.52 761.473C2554.17 762.747 2554.5 764.281 2554.5 766.075V777.268C2554.5 777.788 2554.33 778.23 2553.99 778.594C2553.68 778.932 2553.25 779.102 2552.7 779.102ZM2583.37 779.219C2581.45 779.219 2579.72 778.75 2578.18 777.814C2576.65 776.878 2575.44 775.591 2574.56 773.953C2573.67 772.315 2573.23 770.469 2573.23 768.415C2573.23 766.335 2573.7 764.489 2574.64 762.877C2575.6 761.239 2576.88 759.952 2578.5 759.017C2580.13 758.055 2581.97 757.574 2584 757.574C2586.05 757.574 2587.88 758.055 2589.49 759.017C2591.11 759.952 2592.38 761.239 2593.32 762.877C2594.28 764.515 2594.76 766.361 2594.76 768.415L2593.36 768.727C2593.36 770.703 2592.91 772.484 2592.03 774.07C2591.17 775.656 2589.99 776.917 2588.48 777.853C2587 778.763 2585.3 779.219 2583.37 779.219ZM2584 775.981C2585.4 775.981 2586.63 775.656 2587.7 775.006C2588.79 774.33 2589.65 773.42 2590.27 772.276C2590.92 771.132 2591.25 769.845 2591.25 768.415C2591.25 766.959 2590.92 765.659 2590.27 764.515C2589.65 763.371 2588.79 762.474 2587.7 761.824C2586.63 761.148 2585.4 760.81 2584 760.81C2582.64 760.81 2581.41 761.148 2580.29 761.824C2579.2 762.474 2578.33 763.371 2577.68 764.515C2577.05 765.659 2576.74 766.959 2576.74 768.415C2576.74 769.845 2577.05 771.132 2577.68 772.276C2578.33 773.42 2579.2 774.33 2580.29 775.006C2581.41 775.656 2582.64 775.981 2584 775.981ZM2592.93 779.102C2592.41 779.102 2591.96 778.932 2591.6 778.594C2591.26 778.23 2591.09 777.788 2591.09 777.268V771.067L2591.83 767.284L2594.76 768.415V777.268C2594.76 777.788 2594.59 778.23 2594.25 778.594C2593.91 778.932 2593.47 779.102 2592.93 779.102ZM2618.77 779.102C2618.25 779.102 2617.81 778.932 2617.45 778.594C2617.11 778.23 2616.94 777.788 2616.94 777.268V767.479C2616.94 765.971 2616.66 764.736 2616.08 763.774C2615.54 762.786 2614.77 762.058 2613.78 761.59C2612.82 761.096 2611.73 760.849 2610.51 760.849C2609.34 760.849 2608.28 761.083 2607.35 761.551C2606.44 762.019 2605.71 762.643 2605.16 763.423C2604.62 764.203 2604.34 765.087 2604.34 766.075H2601.97C2601.99 764.437 2602.41 762.981 2603.21 761.707C2604.02 760.407 2605.11 759.393 2606.49 758.665C2607.87 757.911 2609.41 757.534 2611.13 757.534C2612.92 757.534 2614.54 757.924 2615.97 758.704C2617.4 759.458 2618.53 760.576 2619.36 762.058C2620.19 763.54 2620.61 765.347 2620.61 767.479V777.268C2620.61 777.788 2620.43 778.23 2620.06 778.594C2619.72 778.932 2619.29 779.102 2618.77 779.102ZM2602.51 779.102C2601.97 779.102 2601.52 778.932 2601.19 778.594C2600.85 778.23 2600.68 777.788 2600.68 777.268V759.562C2600.68 759.016 2600.85 758.574 2601.19 758.236C2601.52 757.898 2601.97 757.729 2602.51 757.729C2603.06 757.729 2603.5 757.898 2603.84 758.236C2604.18 758.574 2604.34 759.016 2604.34 759.562V777.268C2604.34 777.788 2604.18 778.23 2603.84 778.594C2603.5 778.932 2603.06 779.102 2602.51 779.102ZM2636.86 779.219C2634.83 779.219 2633 778.75 2631.36 777.814C2629.75 776.852 2628.46 775.552 2627.5 773.915C2626.56 772.276 2626.09 770.43 2626.09 768.376C2626.09 766.322 2626.54 764.489 2627.42 762.877C2628.3 761.239 2629.51 759.952 2631.05 759.017C2632.58 758.055 2634.31 757.574 2636.23 757.574C2637.85 757.574 2639.32 757.911 2640.64 758.587C2641.99 759.237 2643.1 760.134 2643.96 761.278V750.436C2643.96 749.89 2644.13 749.448 2644.46 749.11C2644.83 748.772 2645.27 748.603 2645.79 748.603C2646.34 748.603 2646.78 748.772 2647.12 749.11C2647.45 749.448 2647.62 749.89 2647.62 750.436V768.415C2647.62 770.469 2647.14 772.315 2646.18 773.953C2645.24 775.591 2643.96 776.878 2642.32 777.814C2640.71 778.75 2638.89 779.219 2636.86 779.219ZM2636.86 775.981C2638.26 775.981 2639.5 775.656 2640.56 775.006C2641.66 774.33 2642.51 773.42 2643.14 772.276C2643.79 771.106 2644.11 769.806 2644.11 768.376C2644.11 766.92 2643.79 765.633 2643.14 764.515C2642.51 763.371 2641.66 762.474 2640.56 761.824C2639.5 761.148 2638.26 760.81 2636.86 760.81C2635.51 760.81 2634.27 761.148 2633.15 761.824C2632.06 762.474 2631.19 763.371 2630.54 764.515C2629.92 765.633 2629.6 766.92 2629.6 768.376C2629.6 769.806 2629.92 771.106 2630.54 772.276C2631.19 773.42 2632.06 774.33 2633.15 775.006C2634.27 775.656 2635.51 775.981 2636.86 775.981Z" fill="white"/>
<defs>
<filter id="filter0_d" x="2279" y="498" width="260" height="260" filterUnits="userSpaceOnUse" color-interpolation-filters="sRGB">
<feFlood flood-opacity="0" result="BackgroundImageFix"/>
<feColorMatrix in="SourceAlpha" type="matrix" values="0 0 0 0 0 0 0 0 0 0 0 0 0 0 0 0 0 0 127 0"/>
<feOffset/>
<feGaussianBlur stdDeviation="25"/>
<feColorMatrix type="matrix" values="0 0 0 0 0 0 0 0 0 0 0 0 0 0 0 0 0 0 0.5 0"/>
<feBlend mode="normal" in2="BackgroundImageFix" result="effect1_dropShadow"/>
<feBlend mode="normal" in="SourceGraphic" in2="effect1_dropShadow" result="shape"/>
</filter>
<filter id="filter1_d" x="2359" y="262" width="426.203" height="488.554" filterUnits="userSpaceOnUse" color-interpolation-filters="sRGB">
<feFlood flood-opacity="0" result="BackgroundImageFix"/>
<feColorMatrix in="SourceAlpha" type="matrix" values="0 0 0 0 0 0 0 0 0 0 0 0 0 0 0 0 0 0 127 0"/>
<feOffset/>
<feGaussianBlur stdDeviation="25"/>
<feColorMatrix type="matrix" values="0 0 0 0 0 0 0 0 0 0 0 0 0 0 0 0 0 0 0.5 0"/>
<feBlend mode="normal" in2="BackgroundImageFix" result="effect1_dropShadow"/>
<feBlend mode="normal" in="SourceGraphic" in2="effect1_dropShadow" result="shape"/>
</filter>
<filter id="filter2_d" x="1455" y="322" width="550" height="558" filterUnits="userSpaceOnUse" color-interpolation-filters="sRGB">
<feFlood flood-opacity="0" result="BackgroundImageFix"/>
<feColorMatrix in="SourceAlpha" type="matrix" values="0 0 0 0 0 0 0 0 0 0 0 0 0 0 0 0 0 0 127 0"/>
<feOffset dy="4"/>
<feGaussianBlur stdDeviation="25"/>
<feColorMatrix type="matrix" values="0 0 0 0 0 0 0 0 0 0 0 0 0 0 0 0 0 0 0.5 0"/>
<feBlend mode="normal" in2="BackgroundImageFix" result="effect1_dropShadow"/>
<feBlend mode="normal" in="SourceGraphic" in2="effect1_dropShadow" result="shape"/>
</filter>
<filter id="filter3_d" x="184" y="263" width="553" height="361" filterUnits="userSpaceOnUse" color-interpolation-filters="sRGB">
<feFlood flood-opacity="0" result="BackgroundImageFix"/>
<feColorMatrix in="SourceAlpha" type="matrix" values="0 0 0 0 0 0 0 0 0 0 0 0 0 0 0 0 0 0 127 0"/>
<feOffset/>
<feGaussianBlur stdDeviation="25"/>
<feColorMatrix type="matrix" values="0 0 0 0 0 0 0 0 0 0 0 0 0 0 0 0 0 0 0.5 0"/>
<feBlend mode="normal" in2="BackgroundImageFix" result="effect1_dropShadow"/>
<feBlend mode="normal" in="SourceGraphic" in2="effect1_dropShadow" result="shape"/>
</filter>
<filter id="filter4_d" x="176" y="633" width="543" height="349.386" filterUnits="userSpaceOnUse" color-interpolation-filters="sRGB">
<feFlood flood-opacity="0" result="BackgroundImageFix"/>
<feColorMatrix in="SourceAlpha" type="matrix" values="0 0 0 0 0 0 0 0 0 0 0 0 0 0 0 0 0 0 127 0"/>
<feOffset/>
<feGaussianBlur stdDeviation="25"/>
<feColorMatrix type="matrix" values="0 0 0 0 0 0 0 0 0 0 0 0 0 0 0 0 0 0 0.5 0"/>
<feBlend mode="normal" in2="BackgroundImageFix" result="effect1_dropShadow"/>
<feBlend mode="normal" in="SourceGraphic" in2="effect1_dropShadow" result="shape"/>
</filter>
<filter id="filter5_d" x="695" y="263" width="547.212" height="349.386" filterUnits="userSpaceOnUse" color-interpolation-filters="sRGB">
<feFlood flood-opacity="0" result="BackgroundImageFix"/>
<feColorMatrix in="SourceAlpha" type="matrix" values="0 0 0 0 0 0 0 0 0 0 0 0 0 0 0 0 0 0 127 0"/>
<feOffset/>
<feGaussianBlur stdDeviation="25"/>
<feColorMatrix type="matrix" values="0 0 0 0 0 0 0 0 0 0 0 0 0 0 0 0 0 0 0.5 0"/>
<feBlend mode="normal" in2="BackgroundImageFix" result="effect1_dropShadow"/>
<feBlend mode="normal" in="SourceGraphic" in2="effect1_dropShadow" result="shape"/>
</filter>
<filter id="filter6_d" x="718" y="633" width="556" height="349.386" filterUnits="userSpaceOnUse" color-interpolation-filters="sRGB">
<feFlood flood-opacity="0" result="BackgroundImageFix"/>
<feColorMatrix in="SourceAlpha" type="matrix" values="0 0 0 0 0 0 0 0 0 0 0 0 0 0 0 0 0 0 127 0"/>
<feOffset/>
<feGaussianBlur stdDeviation="25"/>
<feColorMatrix type="matrix" values="0 0 0 0 0 0 0 0 0 0 0 0 0 0 0 0 0 0 0.5 0"/>
<feBlend mode="normal" in2="BackgroundImageFix" result="effect1_dropShadow"/>
<feBlend mode="normal" in="SourceGraphic" in2="effect1_dropShadow" result="shape"/>
</filter>
<filter id="filter7_d" x="83" y="158" width="312" height="312" filterUnits="userSpaceOnUse" color-interpolation-filters="sRGB">
<feFlood flood-opacity="0" result="BackgroundImageFix"/>
<feColorMatrix in="SourceAlpha" type="matrix" values="0 0 0 0 0 0 0 0 0 0 0 0 0 0 0 0 0 0 127 0"/>
<feOffset/>
<feGaussianBlur stdDeviation="25"/>
<feColorMatrix type="matrix" values="0 0 0 0 0 0 0 0 0 0 0 0 0 0 0 0 0 0 0.5 0"/>
<feBlend mode="normal" in2="BackgroundImageFix" result="effect1_dropShadow"/>
<feBlend mode="normal" in="SourceGraphic" in2="effect1_dropShadow" result="shape"/>
</filter>
<filter id="filter8_d" x="612" y="155" width="312" height="312" filterUnits="userSpaceOnUse" color-interpolation-filters="sRGB">
<feFlood flood-opacity="0" result="BackgroundImageFix"/>
<feColorMatrix in="SourceAlpha" type="matrix" values="0 0 0 0 0 0 0 0 0 0 0 0 0 0 0 0 0 0 127 0"/>
<feOffset/>
<feGaussianBlur stdDeviation="25"/>
<feColorMatrix type="matrix" values="0 0 0 0 0 0 0 0 0 0 0 0 0 0 0 0 0 0 0.5 0"/>
<feBlend mode="normal" in2="BackgroundImageFix" result="effect1_dropShadow"/>
<feBlend mode="normal" in="SourceGraphic" in2="effect1_dropShadow" result="shape"/>
</filter>
<filter id="filter9_d" x="83" y="527" width="312" height="312" filterUnits="userSpaceOnUse" color-interpolation-filters="sRGB">
<feFlood flood-opacity="0" result="BackgroundImageFix"/>
<feColorMatrix in="SourceAlpha" type="matrix" values="0 0 0 0 0 0 0 0 0 0 0 0 0 0 0 0 0 0 127 0"/>
<feOffset/>
<feGaussianBlur stdDeviation="25"/>
<feColorMatrix type="matrix" values="0 0 0 0 0 0 0 0 0 0 0 0 0 0 0 0 0 0 0.5 0"/>
<feBlend mode="normal" in2="BackgroundImageFix" result="effect1_dropShadow"/>
<feBlend mode="normal" in="SourceGraphic" in2="effect1_dropShadow" result="shape"/>
</filter>
<filter id="filter10_d" x="611" y="527" width="312" height="312" filterUnits="userSpaceOnUse" color-interpolation-filters="sRGB">
<feFlood flood-opacity="0" result="BackgroundImageFix"/>
<feColorMatrix in="SourceAlpha" type="matrix" values="0 0 0 0 0 0 0 0 0 0 0 0 0 0 0 0 0 0 127 0"/>
<feOffset/>
<feGaussianBlur stdDeviation="25"/>
<feColorMatrix type="matrix" values="0 0 0 0 0 0 0 0 0 0 0 0 0 0 0 0 0 0 0.5 0"/>
<feBlend mode="normal" in2="BackgroundImageFix" result="effect1_dropShadow"/>
<feBlend mode="normal" in="SourceGraphic" in2="effect1_dropShadow" result="shape"/>
</filter>
<linearGradient id="paint0_linear" x1="1517.7" y1="549.64" x2="1571.34" y2="518.752" gradientUnits="userSpaceOnUse">
<stop/>
<stop offset="1" stop-color="white" stop-opacity="0"/>
</linearGradient>
<linearGradient id="paint1_linear" x1="1573.95" y1="549.64" x2="1627.59" y2="518.752" gradientUnits="userSpaceOnUse">
<stop/>
<stop offset="1" stop-color="white" stop-opacity="0"/>
</linearGradient>
<linearGradient id="paint2_linear" x1="1630.2" y1="549.64" x2="1683.84" y2="518.752" gradientUnits="userSpaceOnUse">
<stop/>
<stop offset="1" stop-color="white" stop-opacity="0"/>
</linearGradient>
<linearGradient id="paint3_linear" x1="1686.45" y1="549.64" x2="1740.09" y2="518.752" gradientUnits="userSpaceOnUse">
<stop/>
<stop offset="1" stop-color="white" stop-opacity="0"/>
</linearGradient>
<linearGradient id="paint4_linear" x1="1742.7" y1="549.64" x2="1796.34" y2="518.752" gradientUnits="userSpaceOnUse">
<stop/>
<stop offset="1" stop-color="white" stop-opacity="0"/>
</linearGradient>
<linearGradient id="paint5_linear" x1="1798.95" y1="549.64" x2="1852.59" y2="518.752" gradientUnits="userSpaceOnUse">
<stop/>
<stop offset="1" stop-color="white" stop-opacity="0"/>
</linearGradient>
<linearGradient id="paint6_linear" x1="1855.19" y1="549.64" x2="1908.83" y2="518.752" gradientUnits="userSpaceOnUse">
<stop/>
<stop offset="1" stop-color="white" stop-opacity="0"/>
</linearGradient>
<linearGradient id="paint7_linear" x1="1911.44" y1="549.64" x2="1965.08" y2="518.752" gradientUnits="userSpaceOnUse">
<stop/>
<stop offset="1" stop-color="white" stop-opacity="0"/>
</linearGradient>
<linearGradient id="paint8_linear" x1="1789.47" y1="676.104" x2="1876.86" y2="764.09" gradientUnits="userSpaceOnUse">
<stop/>
<stop offset="1" stop-color="white" stop-opacity="0"/>
</linearGradient>
<clipPath id="clip0">
<rect width="225" height="103" fill="white" transform="translate(280 738)"/>
</clipPath>
</defs>
</svg>
