<svg width="1774" height="1547" viewBox="0 0 1774 1547" fill="none" xmlns="http://www.w3.org/2000/svg">
<g filter="url(#filter0_d)">
<path d="M1472.05 1245C1472.05 1247.75 1469.8 1250 1467.05 1250C1467.05 1250 1467 1250 1466.95 1250H1326.95C1325.15 1250 1323.5 1249.05 1322.6 1247.5C1321.75 1245.95 1321.75 1244.05 1322.6 1242.5L1342.6 1207.5C1343.5 1205.95 1345.15 1205 1346.95 1205H1446.95C1448.75 1205 1450.4 1205.95 1451.3 1207.5L1470.85 1241.75C1471.6 1242.65 1472.05 1243.75 1472.05 1245Z" fill="#DAAE69"/>
<path d="M1471.94 1245V1350C1471.94 1352.75 1469.69 1355 1466.94 1355H1326.94C1324.19 1355 1321.94 1352.75 1321.94 1350V1245H1471.94Z" fill="#E9B96E"/>
<path d="M1415 1239.53V1282.68C1415 1284.32 1414.24 1285.83 1413.02 1286.53C1412.52 1286.87 1410.54 1287 1410 1287H1382.85C1382.85 1287 1382.2 1287.26 1380.98 1286.53C1379.76 1285.83 1379 1284.32 1379 1282.68V1239.53C1379.04 1239.14 1379.11 1238.75 1379.14 1238.36L1387.1 1205H1406.9L1414.86 1238.36C1414.89 1238.75 1414.96 1239.14 1415 1239.53Z" fill="#FFE5A0"/>
<rect x="1344" y="1262.78" width="53" height="77" rx="5" transform="rotate(-3.00404 1344 1262.78)" fill="#F2F2F2"/>
<line x1="1359.5" y1="1310.03" x2="1360.28" y2="1325.01" stroke="black" stroke-width="2"/>
<line x1="1363.49" y1="1309.82" x2="1364.28" y2="1324.8" stroke="black" stroke-width="2"/>
<line x1="1367.49" y1="1309.61" x2="1368.27" y2="1324.59" stroke="black" stroke-width="2"/>
<line x1="1371.48" y1="1309.4" x2="1372.27" y2="1324.38" stroke="black" stroke-width="2"/>
<line x1="1375.48" y1="1309.19" x2="1376.27" y2="1324.17" stroke="black" stroke-width="2"/>
<line x1="1379.47" y1="1308.98" x2="1380.26" y2="1323.96" stroke="black" stroke-width="2"/>
<line x1="1383.47" y1="1308.77" x2="1384.25" y2="1323.75" stroke="black" stroke-width="2"/>
<line x1="1387.46" y1="1308.56" x2="1388.25" y2="1323.54" stroke="black" stroke-width="2"/>
<rect x="1355.87" y="1307.72" width="35" height="20" rx="1.5" transform="rotate(-3.00404 1355.87 1307.72)" stroke="black"/>
<line x1="1354.79" y1="1296.76" x2="1390.74" y2="1294.87" stroke="black"/>
<line x1="1354.38" y1="1288.77" x2="1390.33" y2="1286.88" stroke="black"/>
<line x1="1353.9" y1="1279.78" x2="1389.85" y2="1277.9" stroke="black"/>
<line x1="1353.43" y1="1270.79" x2="1389.39" y2="1268.91" stroke="black"/>
</g>
<g filter="url(#filter1_d)">
<path d="M1689.56 1182.37C1689.6 1189.47 1689.21 1196.57 1688.37 1203.62C1687.1 1227.77 1680.89 1251.41 1670.13 1273.08C1659.37 1294.74 1644.29 1313.97 1625.81 1329.59C1607.88 1344.43 1585.34 1352.55 1562.06 1352.55C1538.79 1352.55 1516.24 1344.43 1498.31 1329.59C1479.84 1313.97 1464.75 1294.74 1453.99 1273.08C1443.23 1251.41 1437.03 1227.77 1435.75 1203.62C1434.92 1196.57 1434.52 1189.47 1434.56 1182.37C1434.56 1088.53 1491.51 1012.37 1562.06 1012.37C1632.61 1012.37 1689.56 1088.19 1689.56 1182.37Z" fill="#C5B0FD"/>
<path d="M1723.2 1182.38C1723.2 1193.69 1718.71 1204.55 1710.7 1212.55C1702.7 1220.55 1691.85 1225.05 1680.53 1225.05C1657.07 1225.05 1680.53 1206.01 1680.53 1182.38C1680.53 1158.75 1657.07 1139.88 1680.53 1139.88C1686.13 1139.85 1691.67 1140.94 1696.85 1143.06C1702.02 1145.19 1706.73 1148.31 1710.69 1152.26C1714.66 1156.21 1717.8 1160.9 1719.95 1166.07C1722.1 1171.24 1723.2 1176.78 1723.2 1182.38V1182.38Z" fill="#C5B0FD"/>
<path d="M1400.93 1182.38C1400.93 1193.69 1405.43 1204.55 1413.43 1212.55C1421.43 1220.55 1432.29 1225.05 1443.6 1225.05C1467.06 1225.05 1443.6 1206.01 1443.6 1182.38C1443.6 1158.75 1467.06 1139.88 1443.6 1139.88C1438.01 1139.85 1432.46 1140.94 1427.29 1143.06C1422.11 1145.19 1417.41 1148.31 1413.44 1152.26C1409.48 1156.21 1406.33 1160.9 1404.18 1166.07C1402.04 1171.24 1400.93 1176.78 1400.93 1182.38Z" fill="#C5B0FD"/>
<path d="M1511.07 1152.27C1515.76 1152.27 1519.57 1148.46 1519.57 1143.77C1519.57 1139.07 1515.76 1135.27 1511.07 1135.27C1506.37 1135.27 1502.57 1139.07 1502.57 1143.77C1502.57 1148.46 1506.37 1152.27 1511.07 1152.27Z" fill="#42505A"/>
<path d="M1613.07 1152.27C1617.76 1152.27 1621.57 1148.46 1621.57 1143.77C1621.57 1139.07 1617.76 1135.27 1613.07 1135.27C1608.37 1135.27 1604.57 1139.07 1604.57 1143.77C1604.57 1148.46 1608.37 1152.27 1613.07 1152.27Z" fill="#42505A"/>
<path d="M1481.31 1118.28C1481.31 1118.28 1510.21 1084.28 1540.81 1101.28" stroke="#3F1400" stroke-width="0.5" stroke-linecap="round" stroke-linejoin="round"/>
<path d="M1642.81 1118.28C1642.81 1118.28 1613.91 1084.28 1583.31 1101.28" stroke="#42505A" stroke-width="8" stroke-linecap="round" stroke-linejoin="round"/>
<path d="M1553.57 1152.27C1553.57 1152.27 1519.57 1237.27 1536.57 1237.27H1553.57" stroke="#42505A" stroke-width="8" stroke-linecap="round" stroke-linejoin="round"/>
<path d="M1397.99 1053.02L1419.61 1125.76C1420.85 1130.46 1423.1 1134.84 1426.18 1138.6C1429.27 1142.36 1433.12 1145.42 1437.49 1147.56C1441.86 1149.7 1446.63 1150.88 1451.49 1151.02C1456.36 1151.16 1461.19 1150.26 1465.68 1148.37L1610.52 1064.9C1614.96 1062.84 1619.78 1061.71 1624.68 1061.58C1629.57 1061.45 1634.44 1062.31 1639 1064.13C1643.55 1065.94 1647.68 1068.66 1651.14 1072.13C1654.6 1075.59 1657.32 1079.73 1659.14 1084.28L1694.84 1148.37L1666.28 1023.48C1664.83 1016.71 1661.35 1010.54 1656.31 1005.81C1651.27 1001.07 1644.9 997.979 1638.06 996.956L1464.49 964.328C1456.4 963.45 1435.72 964.146 1429.01 968.764C1422.3 973.381 1408.92 983.056 1406.86 990.932L1397.97 1017.55C1396.67 1022.74 1396.68 1047.83 1397.99 1053.02Z" fill="#42505A"/>
<path d="M1544.32 1310.23C1544.32 1310.23 1606.4 1314.67 1624.14 1257.02" stroke="#42505A" stroke-width="8" stroke-linecap="round" stroke-linejoin="round"/>
</g>
<g filter="url(#filter2_d)">
<path d="M539.365 260.559V342.125C539.365 348.534 534.124 353.777 527.718 353.777H411.252C404.846 353.777 399.605 348.534 399.605 342.125V202.297C399.605 195.888 404.846 190.645 411.252 190.645H481.132C484.626 190.645 488.003 192.276 490.216 195.072L536.803 253.218C537.385 254.033 537.967 254.965 538.433 255.898C538.433 256.014 538.433 256.014 538.433 256.014C538.433 256.014 538.433 256.014 538.433 256.131C539.132 257.529 539.365 259.044 539.365 260.559Z" fill="#563712"/>
<path d="M539.364 260.564V260.681L469.484 260.564V190.645H481.131C484.625 190.645 488.003 192.276 490.215 195.073L536.802 253.223C537.384 254.038 537.967 254.971 538.432 255.903C538.432 256.019 538.432 256.019 538.432 256.019C538.432 256.019 538.432 256.019 538.432 256.136C539.131 257.534 539.364 259.049 539.364 260.564Z" fill="#412A0E"/>
<path d="M184 181C184 175.477 188.477 171 194 171H458.923C464.446 171 468.923 175.477 468.923 181V353.572H194C188.477 353.572 184 349.094 184 343.572V181Z" fill="#644117"/>
<path fill-rule="evenodd" clip-rule="evenodd" d="M269.898 233.576L270.416 292.484L283.622 308.833L323.239 329.854L371.919 305.978L382.017 281.844L380.981 203.73L344.213 202.692L305.891 208.92L270.936 229.162L269.898 233.576Z" fill="#301506"/>
<path d="M326.621 191.003C303.544 191.003 283.415 195.481 266.789 204.311V274.905C266.789 289.76 272.358 302.181 282.891 310.834C292.67 318.875 322.915 332.124 326.622 333.734C330.137 332.201 360.74 318.746 370.365 310.834C380.891 302.186 386.462 289.761 386.462 274.905V204.311C369.833 195.48 349.704 191.002 326.619 191.002L326.621 191.003ZM360.79 204.672C367.672 204.762 374.429 205.188 380.961 205.797V274.905C380.961 288.185 376.153 298.913 366.875 306.572C358.587 313.412 333.595 324.635 326.622 327.715C319.555 324.593 294.5 313.229 286.361 306.574C277.139 299.047 272.284 288.064 272.284 274.908V234.526C298.787 210.167 330.969 204.283 360.788 204.674L360.79 204.672ZM328.181 236.852C322.503 236.852 317.922 238.124 314.15 240.564V308.557H324.564V286.591C325.603 286.898 327.111 287.185 329.248 287.185C340.8 287.185 347.439 276.749 347.439 261.51C347.439 246.302 340.603 236.852 328.181 236.852L328.181 236.852ZM363.763 236.852C356.915 237.051 349.753 242.023 349.796 250.452C349.814 256.002 351.349 260.153 359.932 265.2C364.512 267.895 366.357 269.67 366.436 272.944C366.524 276.584 364.015 278.779 360.196 278.764C356.874 278.738 352.903 276.89 350.243 274.517V284.122C353.504 286.07 357.573 287.358 361.683 287.358C371.971 287.358 376.565 280.075 376.763 273.401C376.959 267.318 375.282 262.716 366.582 257.593C362.699 255.31 359.633 253.811 359.735 250.013C359.838 246.306 362.908 245.003 365.857 245.03C369.494 245.062 373.013 247.081 375.185 249.313V240.243C373.354 238.83 369.479 236.676 363.763 236.851L363.763 236.852ZM277.602 237.908V270.705C277.602 281.762 282.821 287.359 293.12 287.359C299.493 287.359 304.831 285.881 308.807 283.172V237.908H298.416V277.233C297.283 278.012 295.603 278.509 293.489 278.509C288.719 278.509 288.007 274.125 288.007 271.167V237.908H277.602L277.602 237.908ZM328.251 245.254C334.291 245.254 336.794 250.087 336.794 261.776C336.794 273.181 333.931 278.691 327.941 278.691C326.531 278.691 325.305 278.341 324.561 278.06V246.009C325.404 245.588 326.838 245.255 328.251 245.255V245.254Z" fill="#FAB80A"/>
<ellipse cx="296.169" cy="353.458" rx="30.3607" ry="30.4286" fill="#412A0E"/>
<ellipse cx="494.138" cy="353.571" rx="30.3607" ry="30.4286" fill="#412A0E"/>
</g>
<g filter="url(#filter3_d)">
<path d="M539.198 611.732V676.763C539.198 681.873 534.648 686.054 529.087 686.054H427.971C422.41 686.054 417.859 681.873 417.859 676.763V565.28C417.859 560.171 422.41 555.99 427.971 555.99H488.641C491.674 555.99 494.606 557.291 496.528 559.521L536.974 605.879C537.479 606.529 537.985 607.272 538.39 608.016C538.39 608.109 538.39 608.109 538.39 608.109C538.39 608.109 538.39 608.109 538.39 608.201C538.996 609.316 539.198 610.524 539.198 611.732Z" fill="#E8E8E8"/>
<path d="M539.197 611.522V611.615L478.527 611.522V555.99H488.639C491.672 555.99 494.605 557.286 496.526 559.507L536.972 605.691C537.478 606.339 537.984 607.08 538.388 607.82C538.388 607.913 538.388 607.913 538.388 607.913C538.388 607.913 538.388 607.913 538.388 608.005C538.995 609.116 539.197 610.319 539.197 611.522Z" fill="#DADADA"/>
<path d="M176 521C176 515.477 180.477 511 186 511H440.113C445.636 511 450.113 515.477 450.113 521V685.857H186C180.477 685.857 176 681.38 176 675.857V521Z" fill="#F5F5F5"/>
<ellipse cx="283.916" cy="685.748" rx="29.2088" ry="29.1429" fill="#DADADA"/>
<ellipse cx="496.26" cy="685.748" rx="29.2088" ry="29.1429" fill="#DADADA"/>
<g clip-path="url(#clip0)">
<path d="M368.64 575.293L376.01 583.444L383.105 575.293H398.257L383.449 592.002L398.46 608.848H382.697L375.396 600.633L368.162 608.848H352.941L367.82 592.072L352.941 575.293H368.64Z" fill="#FF5900"/>
<path d="M352.943 575.293V586.63H336.091V597.034H352.943V608.848H323.707V555.99H352.943V567.772H336.091V575.293H352.943Z" fill="#FF5900"/>
<path d="M311.377 555.99V577.622H311.24C308.508 574.473 305.098 573.378 301.14 573.378C293.033 573.378 286.925 578.911 284.781 586.223C282.334 578.166 276.028 573.226 266.678 573.226C259.085 573.226 253.088 576.646 249.96 582.219V575.293H234.264V567.772H251.393V555.99H220.273V608.848H234.264V586.63H248.21C247.794 588.262 247.571 590.01 247.571 591.855C247.571 602.88 255.966 610.619 266.678 610.619C275.686 610.619 281.623 606.374 284.762 598.638H272.771C271.15 600.965 269.92 601.653 266.678 601.653C262.918 601.653 259.676 598.362 259.676 594.461H284.091C285.15 603.218 291.949 610.77 301.276 610.77C305.301 610.77 308.986 608.783 311.238 605.431H311.374V608.853H323.706V555.99H311.377ZM260.067 586.786C260.844 583.429 263.44 581.236 266.68 581.236C270.246 581.236 272.709 583.362 273.357 586.786C273.63 586.786 260.067 586.786 260.067 586.786ZM303.89 600.801C299.344 600.801 296.517 596.549 296.517 592.111C296.517 587.368 298.975 582.805 303.89 582.805C308.986 582.805 311.015 587.368 311.015 592.111C311.015 596.609 308.864 600.801 303.89 600.801Z" fill="#2A007C"/>
<path d="M323.715 635.278V616.336H334.144V617.749H325.435V624.733H333.775V626.146H325.435V633.86H334.533V635.276H323.715V635.278Z" fill="#2A007C"/>
<path d="M335.773 635.278L340.859 628.476L336.036 622.041H337.991L341.928 627.299L345.787 622.041H347.742L342.842 628.476L347.95 635.278H345.97L341.745 629.651L337.731 635.278H335.773V635.278Z" fill="#2A007C"/>
<path d="M351.256 640.244H349.665V625.991C349.665 624.682 349.665 623.351 349.586 622.039H351.153L351.205 624.029C352.192 622.457 353.496 621.727 355.454 621.727C359.52 621.727 361.265 625.099 361.265 628.656C361.265 632.217 359.52 635.59 355.454 635.59C353.627 635.59 352.194 634.884 351.256 633.365V640.244V640.244ZM359.572 628.656C359.572 625.832 358.397 623.058 355.271 623.058C352.326 623.058 351.256 625.492 351.256 628.656C351.256 631.822 352.326 634.254 355.271 634.254C358.399 634.254 359.572 631.482 359.572 628.656Z" fill="#2A007C"/>
<path d="M369.44 623.266C366.806 623.266 365.891 625.492 365.891 627.791V635.277H364.299V625.934C364.299 624.652 364.275 623.348 364.223 622.039H365.792L365.893 623.949C366.675 622.434 367.982 621.727 369.727 621.727C369.962 621.727 370.222 621.751 370.457 621.779V623.376C370.091 623.319 369.804 623.266 369.44 623.266Z" fill="#2A007C"/>
<path d="M372.411 628.944C372.411 631.924 373.817 634.383 376.71 634.383C378.95 634.383 379.994 632.893 380.385 631.403H381.897C381.192 634.174 379.497 635.59 376.5 635.59C372.485 635.59 370.711 632.607 370.711 628.894C370.711 625.102 372.562 621.727 376.708 621.727C380.905 621.727 382.026 625.412 382.026 628.944H372.411V628.944ZM372.461 627.742H380.333C380.333 625.151 379.111 622.929 376.606 622.929C374.339 622.926 372.773 624.652 372.461 627.742Z" fill="#2A007C"/>
<path d="M388.234 635.59C385.524 635.59 383.492 634.306 383.492 631.403H385.084C385.084 633.389 386.385 634.383 388.316 634.383C390.115 634.383 391.521 633.519 391.521 631.745C391.521 630.148 389.88 629.729 388.16 629.232C386.076 628.631 383.807 627.975 383.807 625.412C383.807 622.564 386.177 621.727 388.395 621.727C390.947 621.727 392.852 622.718 392.929 625.464H391.338C391.261 623.897 390.14 623.008 388.444 623.008C387.115 623.008 385.499 623.53 385.499 625.256C385.499 626.828 387.115 627.272 388.835 627.742C390.924 628.315 393.216 628.944 393.216 631.509C393.214 634.49 390.922 635.59 388.234 635.59Z" fill="#2A007C"/>
<path d="M399.264 635.59C396.551 635.59 394.52 634.306 394.52 631.403H396.111C396.111 633.389 397.413 634.383 399.346 634.383C401.145 634.383 402.551 633.519 402.551 631.745C402.551 630.148 400.907 629.729 399.187 629.232C397.103 628.631 394.836 627.975 394.836 625.412C394.836 622.564 397.207 621.727 399.425 621.727C401.976 621.727 403.882 622.718 403.959 625.464H402.367C402.291 623.897 401.17 623.008 399.474 623.008C398.145 623.008 396.529 623.53 396.529 625.256C396.529 626.828 398.145 627.272 399.868 627.742C401.954 628.315 404.248 628.944 404.248 631.509C404.243 634.49 401.949 635.59 399.264 635.59V635.59Z" fill="#2A007C"/>
</g>
</g>
<g filter="url(#filter4_d)">
<path d="M1009.08 288.927C1015.16 291.664 1019.07 297.702 1019.1 304.369L1019.24 345.261C1019.24 350.646 1014.46 355.052 1008.62 355.052H902.375C896.532 355.052 891.751 350.646 891.751 345.261V227.767C891.751 222.381 888.244 196.002 894.087 196.002L962.571 267.989L1009.08 288.927Z" fill="#E8E8E8"/>
<path d="M971.249 271.869H907.934V210.658L962.204 267.558L971.249 271.869Z" fill="#DADADA"/>
<path d="M653.812 181C653.812 175.477 658.29 171 663.812 171H897.934C903.457 171 907.934 175.477 907.934 181V355.493H663.812C658.29 355.493 653.812 351.016 653.812 345.493V181Z" fill="#F5F5F5"/>
<ellipse cx="747.385" cy="355.171" rx="30.6898" ry="30.7143" fill="#DADADA"/>
<ellipse cx="973.944" cy="355.171" rx="30.6898" ry="30.7143" fill="#DADADA"/>
<path fill-rule="evenodd" clip-rule="evenodd" d="M746.986 194.53H747.363L747.994 194.654L748.749 194.781L750.761 195.286L753.529 195.788L755.039 196.17L756.675 196.546L758.437 196.799L760.196 197.304L762.084 197.555L763.971 198.06L770.009 199.193L771.897 199.698L773.91 200.076L775.668 200.454L777.558 200.832L779.317 201.21L781.08 201.463L782.589 201.843L784.1 202.094L785.357 202.47L786.489 202.725L787.494 202.848L788.376 202.975L789.007 203.103L789.382 203.228H789.633L791.27 203.606L792.779 203.859L794.038 204.237L795.043 204.488L796.051 204.868L796.806 205.12L797.811 205.624L798.188 205.877L798.818 206.506V206.633L798.946 206.758V206.884H804.352L804.858 207.011H805.36L805.737 207.136H806.115L806.492 207.263L807.499 207.765L807.624 208.02L808.505 209.405L808.757 211.043L808.505 213.062L807.878 214.953L807.121 216.843L806.365 218.357L805.737 219.366L805.487 219.744L805.235 219.873L804.605 220.121L803.724 220.501L802.465 221.004L801.081 221.511L799.322 222.266L797.434 223.022L795.295 223.78L792.905 224.787L790.387 225.67L787.875 226.677L782.339 228.949L779.444 230.084L776.549 231.094L773.658 232.349L770.64 233.487L767.745 234.494L764.976 235.757L762.084 236.768L759.442 237.775L754.408 239.791L752.145 240.674L750.006 241.43L748.12 242.185L746.485 242.816L745.1 243.446L743.97 243.826L743.088 244.206L742.584 244.33L742.457 244.453H807.499L818.066 194.277H746.986V194.53V194.53Z" fill="#284E80"/>
<path fill-rule="evenodd" clip-rule="evenodd" d="M795.674 210.795L795.295 210.922L792.78 211.424H792.15L791.646 211.549H791.145L790.387 211.678L790.012 211.804L789.76 211.929L789.633 212.184V212.433L789.887 212.685H790.387L790.892 212.811H792.15L792.905 212.685H793.659L795.422 212.433H796.304L797.309 212.306L798.189 212.184L798.946 212.055L799.825 211.929H803.222L803.597 212.055L803.851 212.184L804.102 212.56V213.064L803.976 213.567L803.851 214.198L803.597 214.954L803.222 215.837L802.97 216.721L802.844 217.224L803.095 217.477L803.347 217.35L803.851 216.845L804.102 216.468L804.479 215.837L804.858 215.081L805.235 214.198L805.611 213.443L805.863 212.685L805.988 212.055V211.298L805.738 210.668L805.36 210.29L804.858 209.912L804.228 209.659L803.472 209.533L802.594 209.406H797.309L797.184 209.533H797.057L796.806 209.659L796.552 210.164L796.304 210.29L796.052 210.542L795.674 210.795Z" fill="#284E80"/>
<path fill-rule="evenodd" clip-rule="evenodd" d="M744.597 205.877L736.293 244.454L736.672 244.33L737.427 243.827L738.684 243.323L740.321 242.44L742.206 241.558L744.346 240.424L746.862 239.288L749.253 238.026L751.768 236.892L754.157 235.63L756.548 234.494L758.811 233.36L760.7 232.349L762.334 231.595L763.593 230.968L764.474 230.588L765.731 229.957L766.865 229.326L768.247 228.694L769.631 227.939L770.89 227.309L772.399 226.678L773.783 225.922L775.292 225.294L776.803 224.535L784.35 221.384L787.747 220.248L788.25 220.121L788.752 219.874L789.382 219.745L791.645 218.989L794.29 218.232L795.169 218.105L797.81 217.349L799.321 217.098L799.824 216.971L800.201 216.844H800.58L800.955 216.72L801.208 216.467H801.334V216.338L801.081 215.837L800.703 215.711L800.201 215.584H799.698L798.946 215.46H798.188L797.308 215.584L795.799 215.711L794.163 215.962L792.401 216.338L790.513 216.72L788.629 217.223L786.615 217.854L784.727 218.485L782.716 219.114L780.829 219.874L778.939 220.501L777.18 221.132L775.546 221.762L774.033 222.519L772.776 223.022L771.644 223.529L770.763 224.033L765.983 209.154H796.428L796.552 208.525L796.051 207.893L795.295 207.515L794.163 207.137L792.904 206.759L789.632 206.255L784.35 205.877H744.597V205.877Z" fill="#284E80"/>
<path fill-rule="evenodd" clip-rule="evenodd" d="M886.76 286.49H673.613L673.919 283.281H887.068L886.76 286.49Z" fill="#CA4256"/>
<path fill-rule="evenodd" clip-rule="evenodd" d="M683.298 279.395L681.662 279.268L680.028 278.89L678.769 278.512L677.637 277.755L676.884 276.874L676.38 275.736L676.253 274.478L676.38 272.964L677.009 270.19L677.512 267.669L678.016 265.524L678.393 263.76L678.645 262.248L678.896 261.114L679.023 260.485L679.146 260.232H683.298L683.171 260.734L682.921 261.995L682.416 263.886L682.039 266.031L681.537 268.176L680.909 271.326L680.782 271.704L680.659 272.713V274.48L680.909 275.109L681.411 275.612L682.039 275.99L682.921 276.241L683.927 276.367L685.059 276.241L685.941 276.116L686.82 275.736L687.45 275.107L687.954 274.478L688.458 273.718L689.213 271.702L689.336 270.693L689.713 269.181L690.094 267.29L690.471 265.273L690.972 263.379L691.226 261.741L691.476 260.605L691.603 260.229H695.755L695 263.884L694.623 265.778L694.371 266.407V266.658L694.244 267.416L693.867 269.306L692.989 272.964L692.862 273.718L692.485 274.478L692.231 275.107L691.854 275.736L691.353 276.367L690.346 277.374L689.715 277.754L688.962 278.133L688.333 278.512L687.58 278.762L686.824 278.89L686.067 279.141L684.308 279.395H683.298V279.395ZM876.781 263.257H870.87L869.865 263.508L869.112 264.013L868.985 264.264L868.858 264.644V265.147L868.985 265.653L869.361 266.158L869.74 266.787L870.872 267.921L871.624 268.425L872.254 268.93L873.01 269.561L874.265 270.822L874.771 271.453L875.524 272.965L875.648 273.72L875.524 274.603L875.274 275.488L874.895 276.37L874.265 277.126L873.384 277.757L872.379 278.259L871.12 278.637L869.486 278.89L867.725 279.015H861.311L862.064 275.99H868.857L869.486 275.863L869.988 275.736L870.367 275.485L870.746 274.98L870.995 274.478L870.872 273.467L870.119 272.458L868.86 271.451L867.601 270.317L866.221 269.057L865.085 267.669L864.333 266.28L864.209 264.642L864.458 263.76L864.964 262.753L865.466 261.997L866.348 261.366L867.479 260.863L868.611 260.485L870.122 260.232H877.417L876.781 263.257V263.257ZM862.187 263.257H852.755L851.62 268.174H859.927L859.298 270.821H850.994L849.986 275.99H859.421L858.792 279.015H845.206L849.233 260.23H862.822L862.187 263.257V263.257ZM845.832 263.257H840.048L836.652 279.015H832.502L835.898 263.257H829.983L830.739 260.23H846.465L845.832 263.257ZM816.9 279.015L818.538 275.99H824.449L822.815 264.013L814.511 279.015H810.357L821.177 260.23H826.083L828.978 279.015H816.9V279.015ZM816.145 263.257H810.357L806.962 279.015H802.808L806.204 263.257H800.296L801.049 260.23H816.771L816.145 263.257ZM798.156 263.257H792.368L791.739 263.381L791.236 263.508L790.857 263.76L790.355 264.262V265.146L790.482 265.651L790.732 266.156L791.234 266.785L792.366 267.919L792.996 268.423L793.752 268.928L795.635 270.821L796.141 271.451L796.643 272.208L796.894 272.964L797.021 273.718V274.602L796.767 275.487L796.391 276.368L795.635 277.125L794.882 277.755L793.754 278.257L792.495 278.635L790.984 278.888L789.098 279.013H782.807L783.433 275.989H790.353L790.982 275.863L791.485 275.736L791.864 275.485L792.239 274.98L792.366 274.478L792.239 273.467L791.487 272.458L790.355 271.451L789.099 270.317L787.712 269.057L786.58 267.669L785.827 266.28L785.7 264.642L785.954 263.76L786.33 262.753L786.959 261.997L787.841 261.366L788.849 260.863L790.104 260.485L791.615 260.232H798.91L798.156 263.257V263.257ZM760.164 269.559L758.274 279.015H766.704L767.709 278.89H768.718L770.475 278.384L771.484 278.006L772.365 277.501L773.876 276.494L775.384 274.98L776.642 273.216L777.145 272.208L777.524 271.2L777.774 270.064L777.901 269.561L778.024 268.805L778.275 267.041L778.151 265.402L777.772 264.015L777.143 262.755L776.138 261.619L774.883 260.863L773.245 260.359L771.359 260.232H762.175L760.164 269.559V269.559ZM773.876 269.559L773.749 270.19L773.37 270.946L773.12 271.577L772.871 272.333L772.492 272.835L771.99 273.467L770.981 274.478L769.723 275.232L769.097 275.485L768.344 275.736L766.83 275.989H763.058L764.314 269.557L765.701 263.255H771.11L772.115 263.633L772.871 264.137L773.497 264.891L773.876 265.647L774.126 266.655V268.672L773.876 269.428V269.559V269.559ZM758.529 263.257H749.217L748.086 268.174H756.266L755.76 270.821H747.46L746.451 275.99H755.76L755.257 279.015H741.672L745.698 260.23H759.157L758.529 263.257V263.257ZM742.301 263.257H736.388L732.991 279.015H728.966L732.362 263.257H726.45L727.078 260.23H742.805L742.301 263.257V263.257ZM720.285 279.015H716.258L720.158 260.23H724.308L720.285 279.015V279.015ZM712.234 279.015H707.075L702.421 265.022H702.296L699.403 279.015H695.755L699.78 260.23H705.064L709.594 274.352L712.489 260.23H716.262L712.234 279.015V279.015ZM677.764 303.221H677.261L677.009 303.097H676.255L676.004 302.973H675.754L675.502 300.325H676.509L676.634 300.448H677.39L678.395 300.325L679.904 299.821L680.408 299.314L681.161 298.304L681.413 297.803V297.296L681.538 296.666V296.038L681.413 295.531L681.161 295.155L680.408 294.648H679.904L679.403 294.524H676.006L672.609 310.284H668.457L672.485 291.496H681.417L682.801 291.623L683.807 292.13L684.687 292.757L685.191 293.641L685.442 294.524L685.568 295.531V296.542L685.442 297.425L685.064 298.687L684.435 299.821L683.68 300.828L682.675 301.712L681.667 302.342L679.15 303.097L677.764 303.221V303.221ZM884.833 294.523H875.274L874.265 299.44H882.569L881.94 302.212H873.639L872.631 307.381H882.066L881.437 310.283H867.852L871.878 291.494H885.464L884.833 294.523V294.523ZM868.102 294.775L867.596 294.648H867.22L866.216 294.399L865.583 294.272H864.957L864.451 294.144H863.698L862.314 294.272L861.055 294.648L859.8 295.155L858.668 296.038L857.787 296.922L856.905 298.056L856.403 299.443L855.9 300.954L855.647 302.468L855.773 303.855L856.149 304.989L856.655 305.873L857.408 306.63L858.416 307.261L859.548 307.638L860.803 307.761H861.556L862.312 307.638H862.942L864.201 307.387H864.7L865.332 307.263L865.835 307.136L864.826 310.288L864.324 310.411H863.695L863.192 310.539H862.563L862.06 310.662H859.166L857.152 310.411L856.271 310.162L855.389 309.782L854.636 309.403L853.884 308.899L853.254 308.395L852.625 307.761L852.246 307.007L851.87 306.123L851.491 305.369L851.364 304.362V303.351L851.491 302.217L851.615 300.955L851.994 299.825L852.373 298.563L853.378 296.545L854.007 295.662L855.518 294.148L856.399 293.517L858.157 292.51L860.17 291.752L861.179 291.501L862.184 291.377L863.316 291.254H865.958L866.461 291.377H866.967L867.469 291.501H867.972L868.474 291.628L868.102 294.775V294.775ZM847.346 310.283H843.193L847.219 291.494H851.37L847.346 310.283ZM834.008 310.283H829.101L826.335 291.494H830.489L832.375 306.627L840.679 291.494H844.705L834.008 310.283V310.283ZM818.786 302.213L821.808 310.283H817.275L813.88 300.072H816.274L817.027 299.945L817.78 299.694L818.409 299.314L818.911 298.938L819.414 298.431L819.664 297.803L819.918 297.049L820.042 296.542V296.038L819.791 295.28L819.541 295.03L819.038 294.779L817.78 294.528H814.005L810.61 310.288H806.459L810.486 291.499H819.165L820.421 291.627L821.556 291.878L822.437 292.257L823.067 292.761L823.569 293.392L823.948 294.275L824.072 295.282V296.289L823.948 297.551L823.569 298.689L823.067 299.696L822.437 300.45L821.681 301.205L820.676 301.712L819.795 302.091L818.786 302.213V302.213ZM806.838 294.523H797.4L796.395 299.44H804.571L804.069 302.212H795.765L794.76 307.381H804.196L803.566 310.283H789.854L793.881 291.494H807.466L806.838 294.523V294.523ZM789.725 294.523H784.443L783.185 294.773L782.682 294.901L782.432 295.152L782.053 295.402L781.802 295.906V296.537L781.929 297.044L782.18 297.544L782.682 298.051L783.185 298.682L783.814 299.182L784.443 299.816L785.196 300.32L785.826 300.947L786.578 301.454L787.084 302.208L787.587 302.839L788.089 303.594L788.343 304.224L788.463 305.108V305.862L788.214 306.873L787.835 307.627L786.325 309.141L785.32 309.645L783.932 310.025L782.425 310.276H774.248L774.878 307.375H781.794L782.423 307.251L782.926 306.996L783.305 306.746L783.68 306.369L783.931 305.862L783.68 304.855L782.927 303.844L781.796 302.714L780.54 301.576L779.153 300.442L778.021 299.055L777.268 297.54L777.141 296.03L777.392 295.019L777.771 294.136L778.4 293.381L779.282 292.751L780.286 292.247L781.545 291.867L783.056 291.616L784.814 291.489H790.351L789.725 294.523V294.523ZM767.335 310.283H754.628L758.529 291.494H762.806L759.407 307.381H767.961L767.335 310.283V310.283ZM740.411 310.283L742.046 307.381H747.957L746.199 295.277L738.022 310.281H733.871L744.565 291.493H749.596L752.491 310.281H740.411V310.283V310.283ZM739.658 294.523H733.745L730.348 310.283H726.196L729.595 294.523H723.808L724.439 291.494H740.163L739.658 294.523ZM721.669 294.523H716.384L715.127 294.773L714.749 294.901L714.372 295.152L713.871 295.655L713.744 295.906V296.537L713.871 297.044L714.624 298.051L715.125 298.682L715.754 299.182L716.382 299.816L717.138 300.32L717.893 300.947L718.52 301.454L719.025 302.208L719.654 302.839L720.031 303.594L720.283 304.224L720.534 305.108L720.409 305.862L720.156 306.873L719.779 307.627L719.152 308.385L718.395 309.14L717.263 309.643L715.881 310.023L714.37 310.274H706.321L706.823 307.373H713.87L714.37 307.249L715.377 306.742L715.627 306.366L715.879 305.859L715.753 304.852L714.998 303.841L713.868 302.71L712.482 301.572L711.224 300.438L710.092 299.051L709.337 297.537L709.085 296.026L709.337 295.016L709.838 294.132L710.472 293.388L711.225 292.757L712.232 292.254L713.614 291.874L715.123 291.623L716.758 291.496H722.295L721.669 294.523V294.523ZM686.695 300.95L686.441 302.971L686.82 305.616L687.577 307.131L688.077 307.885L689.211 309.019L689.964 309.523L690.718 309.903L691.6 310.283L692.605 310.533L693.611 310.657H695.752L697.763 310.406L698.768 310.157L699.775 309.777L700.656 309.397L701.411 308.894L702.292 308.39L703.047 307.756L703.674 307.002L704.431 306.247L704.931 305.364L705.938 303.346L706.315 302.212L706.566 300.95L706.818 299.943V298.053L706.691 297.045L706.566 296.162L705.811 294.645L704.811 293.388L704.18 292.885L703.426 292.381L702.671 292.001L701.665 291.621L700.783 291.371L699.778 291.247H697.638L695.626 291.496L694.621 291.747L693.615 292.13L692.733 292.507L691.98 293.01L691.099 293.641L690.344 294.144L689.59 294.902L688.961 295.786L688.331 296.54L687.829 297.547L687.451 298.558L687.074 299.819L686.695 300.95V300.95ZM702.419 300.95L702.042 302.464L701.414 303.851L700.783 304.986L699.905 305.869L698.898 306.627L697.765 307.258L696.633 307.634L695.247 307.758L693.862 307.634L692.857 307.131L691.975 306.5L691.348 305.616L690.969 304.733L690.718 303.475V302.213L690.969 300.952L691.348 299.441L691.975 298.054L692.605 296.92L693.486 296.037L694.491 295.153L695.625 294.646L696.757 294.27L698.14 294.143L699.399 294.397L700.531 294.646L701.412 295.404L702.04 296.162L702.417 297.169L702.67 298.3V299.562L702.419 300.95V300.95Z" fill="black"/>
</g>
<g filter="url(#filter5_d)">
<path d="M1023.21 641.523L1025.64 669.468C1025.64 683.238 1015.11 691.337 997.002 691.337H890.541C885.042 691.337 880.543 687.302 880.543 682.37V574.757C880.543 569.825 885.042 565.789 890.541 565.789H950.527C953.526 565.789 956.425 567.045 958.325 569.197L998.315 613.946C998.815 614.574 999.315 615.291 999.715 616.008C999.715 616.098 999.715 616.098 999.715 616.098C999.715 616.098 999.715 616.098 999.715 616.188C1000.31 617.264 1023.21 641.118 1023.21 641.523Z" fill="#ECBD00"/>
<path d="M1000.51 619.159V619.248L940.527 619.159V565.789H950.525C953.524 565.789 956.424 567.034 958.323 569.169L998.314 613.556C998.814 614.178 999.314 614.89 999.713 615.601C999.713 615.69 999.713 615.69 999.713 615.69C999.713 615.69 999.713 615.69 999.713 615.779C1000.31 616.847 1000.51 618.003 1000.51 619.159Z" fill="#D2A800"/>
<path d="M656 528C656 522.477 660.477 518 666 518H917.024C922.547 518 927.024 522.477 927.024 528V691.143H666C660.477 691.143 656 686.666 656 681.143V528Z" fill="#FFCC00"/>
<ellipse cx="762.7" cy="691.035" rx="28.8796" ry="28.8572" fill="#D2A800"/>
<ellipse cx="964.79" cy="691.142" rx="28.8797" ry="28.8572" fill="#D2A800"/>
<g clip-path="url(#clip1)">
<path d="M917.83 576.318V632.208H664.105V576.318H917.83Z" fill="#FECC00"/>
<path d="M745.912 599.671C744.803 601.17 742.948 603.775 741.819 605.297C741.246 606.071 740.211 607.476 743.642 607.476C747.273 607.476 761.71 607.476 761.71 607.476C761.71 607.476 764.622 603.522 767.063 600.215C770.384 595.716 767.35 586.355 755.479 586.355C744.854 586.355 708.727 586.355 708.727 586.355L700.621 597.349C700.621 597.349 742.645 597.349 744.802 597.349C747.032 597.349 747.002 598.196 745.912 599.671ZM732.639 610.188C729.207 610.188 730.242 608.78 730.815 608.006C731.944 606.484 733.83 603.906 734.938 602.408C736.03 600.932 736.059 600.085 733.825 600.085C731.67 600.085 713.619 600.085 713.619 600.085L697.339 622.169C697.339 622.169 726.416 622.169 737.042 622.169C750.155 622.169 757.455 613.267 759.706 610.189C759.706 610.188 736.268 610.188 732.639 610.188ZM758.466 622.169H781.757L790.586 610.186L767.298 610.189C767.291 610.188 758.466 622.169 758.466 622.169ZM818.559 586.355L809.626 598.467H799.231L808.16 586.355H784.877L769.299 607.476H826.267L841.84 586.355H818.559ZM792.151 622.169H815.434L824.268 610.189H800.985C800.977 610.188 792.151 622.169 792.151 622.169ZM664.105 614.914V617.459H696.542L698.416 614.914H664.105ZM701.903 610.188H664.105V612.729H700.024L701.903 610.188ZM664.105 622.169H693.067L694.932 619.639H664.105V622.169ZM883.649 617.457H917.83V614.913H885.526L883.649 617.457ZM880.177 622.169H917.83V619.639H882.041L880.177 622.169ZM889.007 610.188L887.134 612.732H917.83V610.188H889.007V610.188ZM858.51 607.476L874.086 586.355H849.427C849.418 586.355 833.839 607.476 833.839 607.476H858.51ZM831.843 610.188C831.843 610.188 830.14 612.509 829.313 613.627C826.39 617.57 828.975 622.169 838.518 622.169C849.542 622.169 875.911 622.169 875.911 622.169L884.745 610.189H831.843V610.188Z" fill="#D50029"/>
</g>
</g>
<g filter="url(#filter6_d)">
<path d="M189.554 261.351C238.594 261.351 278.349 221.596 278.349 172.556C278.349 123.515 238.594 83.7598 189.554 83.7598C140.513 83.7598 100.758 123.515 100.758 172.556C100.758 221.596 140.513 261.351 189.554 261.351Z" fill="#F5F5F5"/>
<path d="M222.599 229.211C232.602 223.336 240.89 214.942 246.636 204.865C252.383 194.787 255.388 183.38 255.35 171.779C255.313 160.179 252.235 148.791 246.424 138.751C240.612 128.711 232.271 120.37 222.23 114.559C212.19 108.749 200.801 105.672 189.201 105.635C177.6 105.599 166.193 108.604 156.116 114.352C146.039 120.099 137.645 128.388 131.771 138.391C125.897 148.395 122.748 159.763 122.638 171.363L188.993 171.993L222.599 229.211Z" fill="#FF5900"/>
<path d="M188.997 184.719C196.022 184.719 201.717 179.024 201.717 171.999C201.717 164.974 196.022 159.279 188.997 159.279C181.972 159.279 176.277 164.974 176.277 171.999C176.277 179.024 181.972 184.719 188.997 184.719Z" fill="black"/>
<path d="M227.294 236.375L188.716 172.202L108.001 172.5" stroke="black" stroke-width="4" stroke-miterlimit="10" stroke-linecap="round"/>
<path d="M189.662 103.682C188.563 103.682 187.672 102.791 187.672 101.692V90.1698C187.672 89.0708 188.563 88.1797 189.662 88.1797C190.761 88.1797 191.652 89.0708 191.652 90.1698V101.692C191.652 102.791 190.761 103.682 189.662 103.682Z" fill="#221F20"/>
<path d="M272.146 174.646H260.623C259.524 174.646 258.633 173.755 258.633 172.656C258.633 171.557 259.524 170.666 260.623 170.666H272.146C273.245 170.666 274.136 171.557 274.136 172.656C274.136 173.755 273.245 174.646 272.146 174.646Z" fill="#221F20"/>
<path d="M189.662 256.921C188.563 256.921 187.672 256.03 187.672 254.931V243.408C187.672 242.309 188.563 241.418 189.662 241.418C190.761 241.418 191.652 242.309 191.652 243.408V254.931C191.652 256.03 190.761 256.921 189.662 256.921Z" fill="#221F20"/>
<path d="M118.907 174.646H107.385C106.286 174.646 105.395 173.755 105.395 172.656C105.395 171.557 106.286 170.666 107.385 170.666H118.907C120.006 170.666 120.897 171.557 120.897 172.656C120.897 173.755 120.006 174.646 118.907 174.646Z" fill="#221F20"/>
</g>
<g filter="url(#filter7_d)">
<path d="M657.554 258.351C706.594 258.351 746.349 218.596 746.349 169.556C746.349 120.515 706.594 80.7598 657.554 80.7598C608.513 80.7598 568.758 120.515 568.758 169.556C568.758 218.596 608.513 258.351 657.554 258.351Z" fill="#F5F5F5"/>
<path d="M717.415 198.351C725.067 182.46 726.092 164.18 720.267 147.534C714.441 130.887 702.24 117.236 686.35 109.585C670.459 101.933 652.179 100.907 635.533 106.733C618.886 112.559 605.235 124.76 597.583 140.65L657.499 169.5L717.415 198.351Z" fill="#FF5900"/>
<path d="M656.997 181.719C664.022 181.719 669.717 176.024 669.717 168.999C669.717 161.974 664.022 156.279 656.997 156.279C649.972 156.279 644.277 161.974 644.277 168.999C644.277 176.024 649.972 181.719 656.997 181.719Z" fill="black"/>
<path d="M590.001 136.133L623.646 152.551L657.292 168.969L722.5 200.5" stroke="black" stroke-width="4" stroke-miterlimit="10" stroke-linecap="round"/>
<path d="M657.662 100.682C656.563 100.682 655.672 99.791 655.672 98.692V87.1698C655.672 86.0708 656.563 85.1797 657.662 85.1797C658.761 85.1797 659.652 86.0708 659.652 87.1698V98.692C659.652 99.791 658.761 100.682 657.662 100.682Z" fill="#221F20"/>
<path d="M740.146 171.646H728.623C727.524 171.646 726.633 170.755 726.633 169.656C726.633 168.557 727.524 167.666 728.623 167.666H740.146C741.245 167.666 742.136 168.557 742.136 169.656C742.136 170.755 741.245 171.646 740.146 171.646Z" fill="#221F20"/>
<path d="M657.662 253.921C656.563 253.921 655.672 253.03 655.672 251.931V240.408C655.672 239.309 656.563 238.418 657.662 238.418C658.761 238.418 659.652 239.309 659.652 240.408V251.931C659.652 253.03 658.761 253.921 657.662 253.921Z" fill="#221F20"/>
<path d="M586.907 171.646H575.385C574.286 171.646 573.395 170.755 573.395 169.656C573.395 168.557 574.286 167.666 575.385 167.666H586.907C588.006 167.666 588.897 168.557 588.897 169.656C588.897 170.755 588.006 171.646 586.907 171.646Z" fill="#221F20"/>
</g>
<g filter="url(#filter8_d)">
<path d="M189.554 600.351C238.594 600.351 278.349 560.596 278.349 511.556C278.349 462.515 238.594 422.76 189.554 422.76C140.513 422.76 100.758 462.515 100.758 511.556C100.758 560.596 140.513 600.351 189.554 600.351Z" fill="#F5F5F5"/>
<path d="M159.689 570.944C171.446 576.84 184.687 579.117 197.738 577.488C210.789 575.859 223.064 570.396 233.01 561.79C242.957 553.184 250.128 541.823 253.617 529.141C257.106 516.46 256.756 503.029 252.612 490.547C248.468 478.064 240.715 467.091 230.334 459.014C219.953 450.938 207.411 446.121 194.293 445.173C181.174 444.225 168.07 447.189 156.636 453.688C145.201 460.188 135.951 469.933 130.055 481.69L189.499 511.5L159.689 570.944Z" fill="#FF5900"/>
<path d="M188.997 523.719C196.022 523.719 201.717 518.024 201.717 510.999C201.717 503.974 196.022 498.279 188.997 498.279C181.972 498.279 176.277 503.974 176.277 510.999C176.277 518.024 181.972 523.719 188.997 523.719Z" fill="black"/>
<path d="M122 478.131L155.646 494.55L189.292 510.968L155.646 577.998" stroke="black" stroke-width="4" stroke-miterlimit="10" stroke-linecap="round"/>
<path d="M189.662 442.682C188.563 442.682 187.672 441.791 187.672 440.692V429.17C187.672 428.071 188.563 427.18 189.662 427.18C190.761 427.18 191.652 428.071 191.652 429.17V440.692C191.652 441.791 190.761 442.682 189.662 442.682Z" fill="#221F20"/>
<path d="M272.146 513.646H260.623C259.524 513.646 258.633 512.755 258.633 511.656C258.633 510.557 259.524 509.666 260.623 509.666H272.146C273.245 509.666 274.136 510.557 274.136 511.656C274.136 512.755 273.245 513.646 272.146 513.646Z" fill="#221F20"/>
<path d="M189.662 595.921C188.563 595.921 187.672 595.03 187.672 593.931V582.408C187.672 581.309 188.563 580.418 189.662 580.418C190.761 580.418 191.652 581.309 191.652 582.408V593.931C191.652 595.03 190.761 595.921 189.662 595.921Z" fill="#221F20"/>
<path d="M118.907 513.646H107.385C106.286 513.646 105.395 512.755 105.395 511.656C105.395 510.557 106.286 509.666 107.385 509.666H118.907C120.006 509.666 120.897 510.557 120.897 511.656C120.897 512.755 120.006 513.646 118.907 513.646Z" fill="#221F20"/>
</g>
<g filter="url(#filter9_d)">
<path d="M656.554 600.351C705.594 600.351 745.349 560.596 745.349 511.556C745.349 462.515 705.594 422.76 656.554 422.76C607.513 422.76 567.758 462.515 567.758 511.556C567.758 560.596 607.513 600.351 656.554 600.351Z" fill="#F5F5F5"/>
<path d="M656.5 578C666.538 578 676.446 575.728 685.48 571.353C694.515 566.979 702.442 560.616 708.667 552.741C714.892 544.867 719.254 535.685 721.426 525.885C723.597 516.085 723.521 505.92 721.205 496.153C718.888 486.386 714.391 477.27 708.049 469.489C701.708 461.708 693.687 455.463 684.589 451.223C675.49 446.983 665.55 444.858 655.513 445.007C645.476 445.156 635.603 447.576 626.634 452.084L656.5 511.5V578Z" fill="#FF5900"/>
<path d="M655.997 523.719C663.022 523.719 668.717 518.024 668.717 510.999C668.717 503.974 663.022 498.279 655.997 498.279C648.972 498.279 643.277 503.974 643.277 510.999C643.277 518.024 648.972 523.719 655.997 523.719Z" fill="black"/>
<path d="M622.648 444.5L656.293 510.968L656.294 585.499" stroke="black" stroke-width="4" stroke-miterlimit="10" stroke-linecap="round"/>
<path d="M656.662 442.682C655.563 442.682 654.672 441.791 654.672 440.692V429.17C654.672 428.071 655.563 427.18 656.662 427.18C657.761 427.18 658.652 428.071 658.652 429.17V440.692C658.652 441.791 657.761 442.682 656.662 442.682Z" fill="#221F20"/>
<path d="M739.146 513.646H727.623C726.524 513.646 725.633 512.755 725.633 511.656C725.633 510.557 726.524 509.666 727.623 509.666H739.146C740.245 509.666 741.136 510.557 741.136 511.656C741.136 512.755 740.245 513.646 739.146 513.646Z" fill="#221F20"/>
<path d="M656.662 595.921C655.563 595.921 654.672 595.03 654.672 593.931V582.408C654.672 581.309 655.563 580.418 656.662 580.418C657.761 580.418 658.652 581.309 658.652 582.408V593.931C658.652 595.03 657.761 595.921 656.662 595.921Z" fill="#221F20"/>
<path d="M585.907 513.646H574.385C573.286 513.646 572.395 512.755 572.395 511.656C572.395 510.557 573.286 509.666 574.385 509.666H585.907C587.006 509.666 587.897 510.557 587.897 511.656C587.897 512.755 587.006 513.646 585.907 513.646Z" fill="#221F20"/>
</g>
<path d="M1383.5 1447.9H1646.5V1515C1646.5 1520.8 1641.8 1525.5 1636 1525.5H1394C1388.2 1525.5 1383.5 1520.8 1383.5 1515V1447.9Z" fill="#F5F5F5" stroke="#7C4DFF" stroke-width="9"/>
<path d="M1435.33 1458.61C1438.09 1458.61 1440.53 1459.23 1442.65 1460.47C1444.81 1461.67 1446.49 1463.35 1447.69 1465.51C1448.89 1467.63 1449.49 1470.05 1449.49 1472.77C1449.49 1475.53 1448.89 1477.99 1447.69 1480.15C1446.49 1482.27 1444.81 1483.95 1442.65 1485.19C1440.53 1486.39 1438.09 1486.99 1435.33 1486.99C1432.61 1486.99 1430.19 1486.39 1428.07 1485.19C1425.95 1483.95 1424.29 1482.27 1423.09 1480.15C1421.89 1477.99 1421.29 1475.53 1421.29 1472.77C1421.29 1470.05 1421.89 1467.63 1423.09 1465.51C1424.29 1463.35 1425.95 1461.67 1428.07 1460.47C1430.19 1459.23 1432.61 1458.61 1435.33 1458.61ZM1435.39 1463.65C1433.71 1463.65 1432.19 1464.05 1430.83 1464.85C1429.51 1465.61 1428.47 1466.69 1427.71 1468.09C1426.95 1469.45 1426.57 1471.01 1426.57 1472.77C1426.57 1474.57 1426.95 1476.17 1427.71 1477.57C1428.47 1478.93 1429.51 1480.01 1430.83 1480.81C1432.19 1481.61 1433.71 1482.01 1435.39 1482.01C1437.11 1482.01 1438.63 1481.61 1439.95 1480.81C1441.27 1480.01 1442.29 1478.93 1443.01 1477.57C1443.77 1476.17 1444.15 1474.57 1444.15 1472.77C1444.15 1471.01 1443.77 1469.45 1443.01 1468.09C1442.29 1466.69 1441.27 1465.61 1439.95 1464.85C1438.63 1464.05 1437.11 1463.65 1435.39 1463.65ZM1447.57 1480.27L1433.35 1503.91C1432.71 1504.91 1431.87 1505.41 1430.83 1505.41C1430.07 1505.41 1429.43 1505.19 1428.91 1504.75C1428.39 1504.31 1428.07 1503.77 1427.95 1503.13C1427.83 1502.45 1427.97 1501.79 1428.37 1501.15L1437.31 1486.33L1447.57 1480.27ZM1458.86 1480.75C1457.82 1480.75 1456.9 1480.37 1456.1 1479.61C1455.34 1478.81 1454.96 1477.87 1454.96 1476.79C1454.96 1475.71 1455.34 1474.79 1456.1 1474.03C1456.86 1473.23 1457.78 1472.83 1458.86 1472.83C1459.98 1472.83 1460.9 1473.23 1461.62 1474.03C1462.38 1474.79 1462.76 1475.71 1462.76 1476.79C1462.76 1477.87 1462.38 1478.81 1461.62 1479.61C1460.9 1480.37 1459.98 1480.75 1458.86 1480.75ZM1459.34 1506.49C1458.3 1506.49 1457.38 1506.11 1456.58 1505.35C1455.82 1504.55 1455.44 1503.63 1455.44 1502.59C1455.44 1501.47 1455.82 1500.53 1456.58 1499.77C1457.38 1498.97 1458.3 1498.57 1459.34 1498.57C1460.46 1498.57 1461.4 1498.97 1462.16 1499.77C1462.92 1500.53 1463.3 1501.47 1463.3 1502.59C1463.3 1503.63 1462.92 1504.55 1462.16 1505.35C1461.4 1506.11 1460.46 1506.49 1459.34 1506.49ZM1471.96 1505.53C1471.16 1505.53 1470.48 1505.27 1469.92 1504.75C1469.4 1504.19 1469.14 1503.51 1469.14 1502.71C1469.14 1501.91 1469.4 1501.25 1469.92 1500.73L1487.32 1480.27C1488.48 1478.99 1489.38 1477.71 1490.02 1476.43C1490.66 1475.15 1490.98 1473.95 1490.98 1472.83C1490.98 1471.03 1490.64 1469.47 1489.96 1468.15C1489.32 1466.79 1488.4 1465.75 1487.2 1465.03C1486.04 1464.27 1484.64 1463.89 1483 1463.89C1481.44 1463.89 1480.02 1464.31 1478.74 1465.15C1477.46 1465.95 1476.46 1467.03 1475.74 1468.39C1475.02 1469.71 1474.66 1471.19 1474.66 1472.83C1474.66 1473.59 1474.38 1474.25 1473.82 1474.81C1473.3 1475.33 1472.64 1475.59 1471.84 1475.59C1471.08 1475.59 1470.42 1475.33 1469.86 1474.81C1469.3 1474.25 1469.02 1473.59 1469.02 1472.83C1469.02 1470.11 1469.62 1467.69 1470.82 1465.57C1472.06 1463.45 1473.74 1461.77 1475.86 1460.53C1477.98 1459.29 1480.36 1458.67 1483 1458.67C1485.68 1458.67 1488.02 1459.25 1490.02 1460.41C1492.06 1461.57 1493.62 1463.21 1494.7 1465.33C1495.82 1467.45 1496.38 1469.95 1496.38 1472.83C1496.38 1474.11 1496.12 1475.39 1495.6 1476.67C1495.12 1477.95 1494.48 1479.19 1493.68 1480.39C1492.92 1481.55 1492.12 1482.61 1491.28 1483.57L1477 1499.89H1494.46C1495.26 1499.89 1495.94 1500.19 1496.5 1500.79C1497.06 1501.35 1497.34 1501.99 1497.34 1502.71C1497.34 1503.51 1497.06 1504.19 1496.5 1504.75C1495.94 1505.27 1495.26 1505.53 1494.46 1505.53H1471.96ZM1518.33 1505.53C1515.57 1505.53 1513.11 1504.93 1510.95 1503.73C1508.83 1502.49 1507.17 1500.81 1505.97 1498.69C1504.77 1496.53 1504.17 1494.09 1504.17 1491.37C1504.17 1488.61 1504.77 1486.17 1505.97 1484.05C1507.17 1481.89 1508.83 1480.21 1510.95 1479.01C1513.11 1477.77 1515.57 1477.15 1518.33 1477.15C1521.05 1477.15 1523.47 1477.77 1525.59 1479.01C1527.71 1480.21 1529.37 1481.89 1530.57 1484.05C1531.77 1486.17 1532.37 1488.61 1532.37 1491.37C1532.37 1494.09 1531.77 1496.53 1530.57 1498.69C1529.37 1500.81 1527.71 1502.49 1525.59 1503.73C1523.47 1504.93 1521.05 1505.53 1518.33 1505.53ZM1518.27 1500.49C1519.95 1500.49 1521.45 1500.11 1522.77 1499.35C1524.13 1498.55 1525.19 1497.47 1525.95 1496.11C1526.71 1494.71 1527.09 1493.13 1527.09 1491.37C1527.09 1489.57 1526.71 1487.99 1525.95 1486.63C1525.19 1485.23 1524.13 1484.13 1522.77 1483.33C1521.45 1482.53 1519.95 1482.13 1518.27 1482.13C1516.55 1482.13 1515.03 1482.53 1513.71 1483.33C1512.39 1484.13 1511.35 1485.23 1510.59 1486.63C1509.87 1487.99 1509.51 1489.57 1509.51 1491.37C1509.51 1493.13 1509.87 1494.71 1510.59 1496.11C1511.35 1497.47 1512.39 1498.55 1513.71 1499.35C1515.03 1500.11 1516.55 1500.49 1518.27 1500.49ZM1506.09 1483.87L1520.31 1460.23C1520.95 1459.23 1521.79 1458.73 1522.83 1458.73C1523.59 1458.73 1524.23 1458.95 1524.75 1459.39C1525.27 1459.83 1525.59 1460.39 1525.71 1461.07C1525.83 1461.71 1525.69 1462.35 1525.29 1462.99L1516.35 1477.81L1506.09 1483.87ZM1543.3 1519.57C1542.46 1519.57 1541.78 1519.31 1541.26 1518.79C1540.74 1518.27 1540.48 1517.59 1540.48 1516.75V1489.09C1540.52 1485.93 1541.26 1483.09 1542.7 1480.57C1544.18 1478.05 1546.16 1476.07 1548.64 1474.63C1551.12 1473.19 1553.9 1472.47 1556.98 1472.47C1560.18 1472.47 1563.02 1473.21 1565.5 1474.69C1568.02 1476.13 1570 1478.11 1571.44 1480.63C1572.92 1483.11 1573.66 1485.95 1573.66 1489.15C1573.66 1492.31 1572.96 1495.15 1571.56 1497.67C1570.2 1500.19 1568.34 1502.17 1565.98 1503.61C1563.62 1505.05 1560.96 1505.77 1558 1505.77C1555.52 1505.77 1553.26 1505.27 1551.22 1504.27C1549.18 1503.23 1547.48 1501.83 1546.12 1500.07V1516.75C1546.12 1517.59 1545.86 1518.27 1545.34 1518.79C1544.82 1519.31 1544.14 1519.57 1543.3 1519.57ZM1557.04 1500.79C1559.16 1500.79 1561.06 1500.29 1562.74 1499.29C1564.42 1498.25 1565.74 1496.85 1566.7 1495.09C1567.7 1493.33 1568.2 1491.35 1568.2 1489.15C1568.2 1486.91 1567.7 1484.91 1566.7 1483.15C1565.74 1481.39 1564.42 1480.01 1562.74 1479.01C1561.06 1477.97 1559.16 1477.45 1557.04 1477.45C1554.92 1477.45 1553.02 1477.97 1551.34 1479.01C1549.66 1480.01 1548.34 1481.39 1547.38 1483.15C1546.42 1484.91 1545.94 1486.91 1545.94 1489.15C1545.94 1491.35 1546.42 1493.35 1547.38 1495.15C1548.34 1496.91 1549.66 1498.29 1551.34 1499.29C1553.02 1500.29 1554.92 1500.79 1557.04 1500.79ZM1626.22 1505.59C1625.42 1505.59 1624.74 1505.33 1624.18 1504.81C1623.66 1504.25 1623.4 1503.57 1623.4 1502.77V1485.55C1623.4 1482.95 1622.74 1480.97 1621.42 1479.61C1620.1 1478.21 1618.38 1477.51 1616.26 1477.51C1614.06 1477.51 1612.24 1478.27 1610.8 1479.79C1609.4 1481.31 1608.7 1483.27 1608.7 1485.67H1604.02C1604.02 1483.07 1604.58 1480.77 1605.7 1478.77C1606.82 1476.77 1608.38 1475.21 1610.38 1474.09C1612.38 1472.97 1614.66 1472.41 1617.22 1472.41C1619.54 1472.41 1621.58 1472.93 1623.34 1473.97C1625.14 1475.01 1626.54 1476.51 1627.54 1478.47C1628.54 1480.43 1629.04 1482.79 1629.04 1485.55V1502.77C1629.04 1503.57 1628.78 1504.25 1628.26 1504.81C1627.74 1505.33 1627.06 1505.59 1626.22 1505.59ZM1585.54 1505.59C1584.7 1505.59 1584.02 1505.33 1583.5 1504.81C1582.98 1504.25 1582.72 1503.57 1582.72 1502.77V1475.59C1582.72 1474.75 1582.98 1474.07 1583.5 1473.55C1584.02 1473.03 1584.7 1472.77 1585.54 1472.77C1586.38 1472.77 1587.06 1473.03 1587.58 1473.55C1588.1 1474.07 1588.36 1474.75 1588.36 1475.59V1502.77C1588.36 1503.57 1588.1 1504.25 1587.58 1504.81C1587.06 1505.33 1586.38 1505.59 1585.54 1505.59ZM1605.94 1505.59C1605.1 1505.59 1604.42 1505.33 1603.9 1504.81C1603.38 1504.25 1603.12 1503.57 1603.12 1502.77V1485.55C1603.12 1482.95 1602.46 1480.97 1601.14 1479.61C1599.82 1478.21 1598.1 1477.51 1595.98 1477.51C1593.78 1477.51 1591.96 1478.27 1590.52 1479.79C1589.08 1481.27 1588.36 1483.19 1588.36 1485.55H1584.7C1584.74 1482.99 1585.28 1480.73 1586.32 1478.77C1587.36 1476.77 1588.8 1475.21 1590.64 1474.09C1592.48 1472.97 1594.58 1472.41 1596.94 1472.41C1599.26 1472.41 1601.3 1472.93 1603.06 1473.97C1604.86 1475.01 1606.24 1476.51 1607.2 1478.47C1608.2 1480.43 1608.7 1482.79 1608.7 1485.55V1502.77C1608.7 1503.57 1608.44 1504.25 1607.92 1504.81C1607.44 1505.33 1606.78 1505.59 1605.94 1505.59Z" fill="black"/>
<path d="M1379 1405C1379 1396.72 1385.72 1390 1394 1390H1636C1644.28 1390 1651 1396.72 1651 1405V1443H1379V1405Z" fill="#7C4DFF"/>
<path d="M1407.88 1431.45C1405.59 1431.45 1403.5 1431.08 1401.6 1430.32C1399.7 1429.54 1398.07 1428.45 1396.69 1427.05C1395.34 1425.64 1394.27 1423.99 1393.49 1422.09C1392.74 1420.19 1392.36 1418.1 1392.36 1415.81C1392.36 1413.55 1392.74 1411.47 1393.49 1409.57C1394.27 1407.68 1395.34 1406.02 1396.69 1404.62C1398.07 1403.22 1399.7 1402.14 1401.6 1401.38C1403.5 1400.6 1405.59 1400.21 1407.88 1400.21C1410.14 1400.21 1412.22 1400.6 1414.12 1401.38C1416.02 1402.14 1417.66 1403.22 1419.04 1404.62C1420.41 1406.02 1421.48 1407.68 1422.23 1409.57C1423.01 1411.47 1423.4 1413.55 1423.4 1415.81C1423.4 1418.1 1423.01 1420.19 1422.23 1422.09C1421.48 1423.99 1420.41 1425.64 1419.04 1427.05C1417.66 1428.45 1416.02 1429.54 1414.12 1430.32C1412.22 1431.08 1410.14 1431.45 1407.88 1431.45ZM1407.88 1428.06C1409.6 1428.06 1411.18 1427.75 1412.64 1427.12C1414.1 1426.5 1415.36 1425.64 1416.42 1424.55C1417.51 1423.43 1418.35 1422.13 1418.92 1420.65C1419.49 1419.17 1419.78 1417.56 1419.78 1415.81C1419.78 1414.1 1419.49 1412.5 1418.92 1411.02C1418.35 1409.51 1417.51 1408.21 1416.42 1407.12C1415.36 1406 1414.1 1405.14 1412.64 1404.54C1411.18 1403.92 1409.6 1403.61 1407.88 1403.61C1406.14 1403.61 1404.54 1403.92 1403.08 1404.54C1401.63 1405.14 1400.37 1406 1399.3 1407.12C1398.26 1408.21 1397.44 1409.51 1396.84 1411.02C1396.25 1412.5 1395.95 1414.1 1395.95 1415.81C1395.95 1417.56 1396.25 1419.17 1396.84 1420.65C1397.44 1422.13 1398.26 1423.43 1399.3 1424.55C1400.37 1425.64 1401.63 1426.5 1403.08 1427.12C1404.54 1427.75 1406.14 1428.06 1407.88 1428.06ZM1447.42 1431.1C1446.9 1431.1 1446.46 1430.93 1446.1 1430.59C1445.76 1430.23 1445.59 1429.79 1445.59 1429.27V1419.48C1445.59 1417.97 1445.3 1416.74 1444.73 1415.77C1444.19 1414.79 1443.42 1414.06 1442.43 1413.59C1441.47 1413.1 1440.38 1412.85 1439.16 1412.85C1437.99 1412.85 1436.93 1413.08 1436 1413.55C1435.09 1414.02 1434.36 1414.64 1433.81 1415.42C1433.27 1416.2 1432.99 1417.09 1432.99 1418.08H1430.61C1430.64 1416.44 1431.06 1414.98 1431.86 1413.71C1432.67 1412.41 1433.76 1411.39 1435.14 1410.67C1436.52 1409.91 1438.06 1409.53 1439.78 1409.53C1441.57 1409.53 1443.19 1409.92 1444.62 1410.7C1446.05 1411.46 1447.18 1412.58 1448.01 1414.06C1448.84 1415.54 1449.26 1417.35 1449.26 1419.48V1429.27C1449.26 1429.79 1449.07 1430.23 1448.71 1430.59C1448.37 1430.93 1447.94 1431.1 1447.42 1431.1ZM1431.16 1431.1C1430.61 1431.1 1430.17 1430.93 1429.83 1430.59C1429.5 1430.23 1429.33 1429.79 1429.33 1429.27V1411.56C1429.33 1411.02 1429.5 1410.57 1429.83 1410.24C1430.17 1409.9 1430.61 1409.73 1431.16 1409.73C1431.71 1409.73 1432.15 1409.9 1432.49 1410.24C1432.82 1410.57 1432.99 1411.02 1432.99 1411.56V1429.27C1432.99 1429.79 1432.82 1430.23 1432.49 1430.59C1432.15 1430.93 1431.71 1431.1 1431.16 1431.1ZM1455.56 1422.21C1455.04 1422.21 1454.61 1422.04 1454.28 1421.7C1453.94 1421.36 1453.77 1420.94 1453.77 1420.42C1453.77 1419.87 1453.94 1419.43 1454.28 1419.09C1454.61 1418.75 1455.04 1418.58 1455.56 1418.58H1464.42C1464.96 1418.58 1465.4 1418.75 1465.74 1419.09C1466.08 1419.43 1466.25 1419.87 1466.25 1420.42C1466.25 1420.94 1466.08 1421.36 1465.74 1421.7C1465.4 1422.04 1464.96 1422.21 1464.42 1422.21H1455.56ZM1473.33 1431.06C1472.79 1431.06 1472.33 1430.89 1471.97 1430.56C1471.63 1430.19 1471.46 1429.74 1471.46 1429.19V1402.48C1471.46 1401.93 1471.63 1401.49 1471.97 1401.15C1472.33 1400.79 1472.79 1400.6 1473.33 1400.6H1480.35C1482.59 1400.6 1484.63 1400.98 1486.47 1401.73C1488.32 1402.46 1489.92 1403.52 1491.27 1404.89C1492.62 1406.25 1493.66 1407.84 1494.39 1409.69C1495.12 1411.54 1495.48 1413.58 1495.48 1415.81C1495.48 1418.05 1495.12 1420.1 1494.39 1421.98C1493.66 1423.82 1492.62 1425.43 1491.27 1426.81C1489.92 1428.16 1488.32 1429.22 1486.47 1429.97C1484.63 1430.7 1482.59 1431.06 1480.35 1431.06H1473.33ZM1475.16 1427.75H1480.35C1482.61 1427.75 1484.6 1427.24 1486.32 1426.23C1488.06 1425.19 1489.43 1423.77 1490.41 1421.98C1491.4 1420.18 1491.9 1418.13 1491.9 1415.81C1491.9 1413.47 1491.4 1411.42 1490.41 1409.65C1489.43 1407.86 1488.06 1406.45 1486.32 1405.44C1484.6 1404.43 1482.61 1403.92 1480.35 1403.92H1475.16V1427.75ZM1511.37 1431.22C1509.24 1431.22 1507.34 1430.76 1505.67 1429.85C1504.01 1428.92 1502.71 1427.64 1501.77 1426.03C1500.84 1424.39 1500.37 1422.52 1500.37 1420.42C1500.37 1418.28 1500.81 1416.41 1501.7 1414.8C1502.58 1413.16 1503.8 1411.89 1505.36 1410.98C1506.95 1410.04 1508.76 1409.57 1510.78 1409.57C1512.79 1409.57 1514.51 1410.03 1515.97 1410.94C1517.45 1411.82 1518.58 1413.06 1519.36 1414.64C1520.14 1416.2 1520.53 1418.01 1520.53 1420.06C1520.53 1420.53 1520.38 1420.92 1520.07 1421.23C1519.75 1421.52 1519.35 1421.66 1518.86 1421.66H1502.87V1418.74H1518.9L1517.26 1419.87C1517.26 1418.49 1517 1417.27 1516.48 1416.2C1515.96 1415.11 1515.22 1414.25 1514.25 1413.63C1513.29 1413.01 1512.14 1412.69 1510.78 1412.69C1509.3 1412.69 1508.01 1413.03 1506.92 1413.71C1505.86 1414.36 1505.04 1415.27 1504.47 1416.44C1503.92 1417.61 1503.65 1418.93 1503.65 1420.42C1503.65 1421.9 1503.97 1423.22 1504.62 1424.39C1505.3 1425.54 1506.21 1426.45 1507.35 1427.12C1508.52 1427.77 1509.86 1428.1 1511.37 1428.1C1512.23 1428.1 1513.08 1427.94 1513.94 1427.63C1514.83 1427.32 1515.54 1426.95 1516.09 1426.54C1516.45 1426.28 1516.84 1426.15 1517.26 1426.15C1517.67 1426.12 1518.04 1426.24 1518.35 1426.5C1518.77 1426.86 1518.99 1427.27 1519.01 1427.71C1519.04 1428.12 1518.84 1428.49 1518.43 1428.8C1517.57 1429.5 1516.48 1430.09 1515.15 1430.56C1513.83 1431 1512.56 1431.22 1511.37 1431.22ZM1553.88 1431.1C1553.36 1431.1 1552.92 1430.93 1552.56 1430.59C1552.22 1430.23 1552.05 1429.79 1552.05 1429.27V1418.08C1552.05 1416.39 1551.62 1415.1 1550.76 1414.21C1549.91 1413.3 1548.79 1412.85 1547.41 1412.85C1545.98 1412.85 1544.8 1413.34 1543.86 1414.33C1542.95 1415.32 1542.5 1416.59 1542.5 1418.15H1539.45C1539.45 1416.46 1539.82 1414.97 1540.55 1413.67C1541.27 1412.37 1542.29 1411.35 1543.59 1410.63C1544.89 1409.9 1546.37 1409.53 1548.03 1409.53C1549.54 1409.53 1550.87 1409.87 1552.01 1410.55C1553.18 1411.22 1554.09 1412.2 1554.74 1413.47C1555.39 1414.75 1555.72 1416.28 1555.72 1418.08V1429.27C1555.72 1429.79 1555.55 1430.23 1555.21 1430.59C1554.87 1430.93 1554.43 1431.1 1553.88 1431.1ZM1527.44 1431.1C1526.9 1431.1 1526.45 1430.93 1526.12 1430.59C1525.78 1430.23 1525.61 1429.79 1525.61 1429.27V1411.6C1525.61 1411.06 1525.78 1410.61 1526.12 1410.28C1526.45 1409.94 1526.9 1409.77 1527.44 1409.77C1527.99 1409.77 1528.43 1409.94 1528.77 1410.28C1529.11 1410.61 1529.27 1411.06 1529.27 1411.6V1429.27C1529.27 1429.79 1529.11 1430.23 1528.77 1430.59C1528.43 1430.93 1527.99 1431.1 1527.44 1431.1ZM1540.7 1431.1C1540.16 1431.1 1539.71 1430.93 1539.38 1430.59C1539.04 1430.23 1538.87 1429.79 1538.87 1429.27V1418.08C1538.87 1416.39 1538.44 1415.1 1537.58 1414.21C1536.72 1413.3 1535.61 1412.85 1534.23 1412.85C1532.8 1412.85 1531.61 1413.34 1530.68 1414.33C1529.74 1415.29 1529.27 1416.54 1529.27 1418.08H1526.9C1526.92 1416.41 1527.27 1414.94 1527.95 1413.67C1528.62 1412.37 1529.56 1411.35 1530.76 1410.63C1531.95 1409.9 1533.32 1409.53 1534.85 1409.53C1536.36 1409.53 1537.69 1409.87 1538.83 1410.55C1540 1411.22 1540.9 1412.2 1541.52 1413.47C1542.17 1414.75 1542.5 1416.28 1542.5 1418.08V1429.27C1542.5 1429.79 1542.33 1430.23 1541.99 1430.59C1541.68 1430.93 1541.25 1431.1 1540.7 1431.1ZM1571.37 1431.22C1569.45 1431.22 1567.72 1430.75 1566.18 1429.81C1564.65 1428.88 1563.44 1427.59 1562.56 1425.95C1561.67 1424.32 1561.23 1422.47 1561.23 1420.42C1561.23 1418.34 1561.7 1416.49 1562.64 1414.88C1563.6 1413.24 1564.88 1411.95 1566.5 1411.02C1568.13 1410.05 1569.97 1409.57 1572 1409.57C1574.05 1409.57 1575.88 1410.05 1577.49 1411.02C1579.11 1411.95 1580.38 1413.24 1581.32 1414.88C1582.28 1416.52 1582.76 1418.36 1582.76 1420.42L1581.36 1420.73C1581.36 1422.7 1580.91 1424.48 1580.03 1426.07C1579.17 1427.66 1577.99 1428.92 1576.48 1429.85C1575 1430.76 1573.3 1431.22 1571.37 1431.22ZM1572 1427.98C1573.4 1427.98 1574.63 1427.66 1575.7 1427.01C1576.79 1426.33 1577.65 1425.42 1578.27 1424.28C1578.92 1423.13 1579.25 1421.85 1579.25 1420.42C1579.25 1418.96 1578.92 1417.66 1578.27 1416.52C1577.65 1415.37 1576.79 1414.47 1575.7 1413.82C1574.63 1413.15 1573.4 1412.81 1572 1412.81C1570.64 1412.81 1569.41 1413.15 1568.29 1413.82C1567.2 1414.47 1566.33 1415.37 1565.68 1416.52C1565.05 1417.66 1564.74 1418.96 1564.74 1420.42C1564.74 1421.85 1565.05 1423.13 1565.68 1424.28C1566.33 1425.42 1567.2 1426.33 1568.29 1427.01C1569.41 1427.66 1570.64 1427.98 1572 1427.98ZM1580.93 1431.1C1580.41 1431.1 1579.96 1430.93 1579.6 1430.59C1579.26 1430.23 1579.09 1429.79 1579.09 1429.27V1423.07L1579.83 1419.28L1582.76 1420.42V1429.27C1582.76 1429.79 1582.59 1430.23 1582.25 1430.59C1581.91 1430.93 1581.47 1431.1 1580.93 1431.1ZM1606.77 1431.1C1606.25 1431.1 1605.81 1430.93 1605.45 1430.59C1605.11 1430.23 1604.94 1429.79 1604.94 1429.27V1419.48C1604.94 1417.97 1604.66 1416.74 1604.08 1415.77C1603.54 1414.79 1602.77 1414.06 1601.78 1413.59C1600.82 1413.1 1599.73 1412.85 1598.51 1412.85C1597.34 1412.85 1596.28 1413.08 1595.35 1413.55C1594.44 1414.02 1593.71 1414.64 1593.16 1415.42C1592.62 1416.2 1592.34 1417.09 1592.34 1418.08H1589.97C1589.99 1416.44 1590.41 1414.98 1591.21 1413.71C1592.02 1412.41 1593.11 1411.39 1594.49 1410.67C1595.87 1409.91 1597.41 1409.53 1599.13 1409.53C1600.92 1409.53 1602.54 1409.92 1603.97 1410.7C1605.4 1411.46 1606.53 1412.58 1607.36 1414.06C1608.19 1415.54 1608.61 1417.35 1608.61 1419.48V1429.27C1608.61 1429.79 1608.43 1430.23 1608.06 1430.59C1607.72 1430.93 1607.29 1431.1 1606.77 1431.1ZM1590.51 1431.1C1589.97 1431.1 1589.52 1430.93 1589.19 1430.59C1588.85 1430.23 1588.68 1429.79 1588.68 1429.27V1411.56C1588.68 1411.02 1588.85 1410.57 1589.19 1410.24C1589.52 1409.9 1589.97 1409.73 1590.51 1409.73C1591.06 1409.73 1591.5 1409.9 1591.84 1410.24C1592.18 1410.57 1592.34 1411.02 1592.34 1411.56V1429.27C1592.34 1429.79 1592.18 1430.23 1591.84 1430.59C1591.5 1430.93 1591.06 1431.1 1590.51 1431.1ZM1624.86 1431.22C1622.83 1431.22 1621 1430.75 1619.36 1429.81C1617.75 1428.85 1616.46 1427.55 1615.5 1425.91C1614.56 1424.28 1614.09 1422.43 1614.09 1420.38C1614.09 1418.32 1614.54 1416.49 1615.42 1414.88C1616.3 1413.24 1617.51 1411.95 1619.05 1411.02C1620.58 1410.05 1622.31 1409.57 1624.23 1409.57C1625.85 1409.57 1627.32 1409.91 1628.64 1410.59C1629.99 1411.24 1631.1 1412.13 1631.96 1413.28V1402.44C1631.96 1401.89 1632.13 1401.45 1632.46 1401.11C1632.83 1400.77 1633.27 1400.6 1633.79 1400.6C1634.34 1400.6 1634.78 1400.77 1635.12 1401.11C1635.45 1401.45 1635.62 1401.89 1635.62 1402.44V1420.42C1635.62 1422.47 1635.14 1424.32 1634.18 1425.95C1633.24 1427.59 1631.96 1428.88 1630.32 1429.81C1628.71 1430.75 1626.89 1431.22 1624.86 1431.22ZM1624.86 1427.98C1626.26 1427.98 1627.5 1427.66 1628.56 1427.01C1629.66 1426.33 1630.51 1425.42 1631.14 1424.28C1631.79 1423.11 1632.11 1421.81 1632.11 1420.38C1632.11 1418.92 1631.79 1417.63 1631.14 1416.52C1630.51 1415.37 1629.66 1414.47 1628.56 1413.82C1627.5 1413.15 1626.26 1412.81 1624.86 1412.81C1623.51 1412.81 1622.27 1413.15 1621.15 1413.82C1620.06 1414.47 1619.19 1415.37 1618.54 1416.52C1617.92 1417.63 1617.6 1418.92 1617.6 1420.38C1617.6 1421.81 1617.92 1423.11 1618.54 1424.28C1619.19 1425.42 1620.06 1426.33 1621.15 1427.01C1622.27 1427.66 1623.51 1427.98 1624.86 1427.98Z" fill="white"/>
<g filter="url(#filter10_d)">
<path d="M823 1104H373L381.352 1095.58L435.612 1040.91C439.367 1037.13 444.477 1035 449.807 1035H746.193C751.523 1035 756.633 1037.13 760.388 1040.91L814.647 1095.58L823 1104Z" fill="#7C4DFF"/>
<path d="M597.999 1166.82V1213.82C597.999 1229.39 585.411 1242.03 569.877 1242.03C554.343 1242.03 541.746 1229.39 541.746 1213.82V1166.82H597.999V1166.82Z" fill="#7C4DFF"/>
<path d="M822.998 1167.82V1214.82C822.998 1230.39 810.401 1243.02 794.867 1243.02C793.092 1243.02 791.355 1242.86 789.667 1242.53H789.657C776.621 1240.09 766.746 1228.6 766.746 1214.82V1177.22V1167.82H822.998Z" fill="#7C4DFF"/>
<path d="M766.745 1177.22V1214.82C766.745 1230.39 754.157 1243.03 738.623 1243.03C723.089 1243.03 710.492 1230.39 710.492 1214.82V1167.82H766.745V1177.22Z" fill="#7C4DFF"/>
<path d="M710.493 1167.82V1214.82C710.493 1230.39 697.905 1243.03 682.371 1243.03C666.837 1243.03 654.25 1230.39 654.25 1214.82V1167.82H710.493V1167.82Z" fill="#7C4DFF"/>
<path d="M654.252 1167.82V1214.82C654.252 1230.39 641.655 1243.03 626.121 1243.03C610.587 1243.03 598 1230.39 598 1214.82V1167.82H654.252V1167.82Z" fill="#7C4DFF"/>
<path d="M541.747 1167.82V1214.82C541.747 1230.39 529.159 1243.03 513.625 1243.03C498.091 1243.03 485.504 1230.39 485.504 1214.82V1167.82H541.747V1167.82Z" fill="#7C4DFF"/>
<path d="M485.506 1167.82V1214.82C485.506 1230.39 472.909 1243.03 457.375 1243.03C441.851 1243.03 429.254 1230.39 429.254 1214.82V1167.82H485.506V1167.82Z" fill="#7C4DFF"/>
<path d="M429.252 1167.82V1214.82C429.252 1225.47 423.369 1234.75 414.675 1239.54C410.654 1241.76 406.039 1243.03 401.131 1243.03C385.597 1243.03 373 1230.39 373 1214.82V1167.82H429.252V1167.82Z" fill="#7C4DFF"/>
<path d="M810.992 1474.2C816.185 1474.2 820.394 1478.4 820.394 1483.6V1483.6C820.394 1488.79 816.185 1493 810.992 1493H398.55C393.358 1493 389.148 1488.79 389.148 1483.6V1483.6C389.148 1478.4 393.358 1474.2 398.55 1474.2H414.674H452.173H564.668H789.668H810.992Z" fill="#526471"/>
<path d="M564.667 1452.79V1474.19H452.172V1311.79H564.667V1452.79Z" fill="#A7B7C1"/>
<path d="M732.161 1264.79H622.168C611.122 1264.79 602.168 1273.75 602.168 1284.79V1404.58C602.168 1415.63 611.122 1424.58 622.168 1424.58H732.161C743.207 1424.58 752.161 1415.63 752.161 1404.58V1284.79C752.161 1273.75 743.207 1264.79 732.161 1264.79Z" fill="#7C4DFF"/>
<path d="M766.749 1214.82C766.749 1228.61 776.623 1240.09 789.659 1242.53H789.669V1474.2H564.669V1321.79C564.669 1316.27 560.192 1311.79 554.669 1311.79H462.174C456.651 1311.79 452.174 1316.27 452.174 1321.79V1474.2H414.676V1239.54C423.37 1234.75 429.254 1225.47 429.254 1214.82C429.254 1230.4 441.851 1243.03 457.375 1243.03C472.909 1243.03 485.506 1230.4 485.506 1214.82C485.506 1230.4 498.093 1243.03 513.627 1243.03C529.161 1243.03 541.749 1230.4 541.749 1214.82C541.749 1230.4 554.346 1243.03 569.88 1243.03C585.414 1243.03 598.001 1230.4 598.001 1214.82C598.001 1230.4 610.588 1243.03 626.122 1243.03C641.656 1243.03 654.254 1230.4 654.254 1214.82C654.254 1230.4 666.841 1243.03 682.375 1243.03C697.909 1243.03 710.496 1230.4 710.496 1214.82C710.496 1230.4 723.093 1243.03 738.627 1243.03C754.161 1243.03 766.749 1230.4 766.749 1214.82ZM732.161 1424.59C743.207 1424.59 752.161 1415.63 752.161 1404.59V1284.79C752.161 1273.75 743.207 1264.79 732.161 1264.79H622.168C611.122 1264.79 602.168 1273.75 602.168 1284.79V1404.59C602.168 1415.63 611.122 1424.59 622.168 1424.59H732.161Z" fill="#ECEFF0"/>
<path opacity="0.2" d="M820.394 1482.3H389.148C389.148 1488.21 393.94 1493 399.851 1493H809.691C815.602 1493 820.394 1488.21 820.394 1482.3Z" fill="black"/>
<path opacity="0.2" d="M823 1103.89H373L386.168 1090.73H809.828L823 1103.89Z" fill="#303C44"/>
<rect x="373" y="1103.92" width="450" height="63.9295" fill="#7C4DFF"/>
<path opacity="0.2" d="M429.121 1168V1215C429.121 1225.65 423.238 1234.93 414.544 1239.72C410.523 1241.94 405.908 1243.2 401 1243.2V1168H429.121Z" fill="url(#paint0_linear)"/>
<path opacity="0.2" d="M485.367 1168V1215C485.367 1225.65 479.484 1234.93 470.79 1239.72C466.769 1241.94 462.154 1243.2 457.246 1243.2V1168H485.367Z" fill="url(#paint1_linear)"/>
<path opacity="0.2" d="M541.621 1168V1215C541.621 1225.65 535.738 1234.93 527.044 1239.72C523.023 1241.94 518.408 1243.2 513.5 1243.2V1168H541.621Z" fill="url(#paint2_linear)"/>
<path opacity="0.2" d="M597.863 1168V1215C597.863 1225.65 591.98 1234.93 583.286 1239.72C579.266 1241.94 574.65 1243.2 569.742 1243.2V1168H597.863Z" fill="url(#paint3_linear)"/>
<path opacity="0.2" d="M654.114 1168V1215C654.114 1225.65 648.23 1234.93 639.536 1239.72C635.516 1241.94 630.9 1243.2 625.992 1243.2V1168H654.114Z" fill="url(#paint4_linear)"/>
<path opacity="0.2" d="M710.364 1168V1215C710.364 1225.65 704.48 1234.93 695.786 1239.72C691.766 1241.94 687.15 1243.2 682.242 1243.2V1168H710.364Z" fill="url(#paint5_linear)"/>
<path opacity="0.2" d="M766.606 1168V1215C766.606 1225.65 760.722 1234.93 752.028 1239.72C748.008 1241.94 743.392 1243.2 738.484 1243.2V1168H766.606Z" fill="url(#paint6_linear)"/>
<path opacity="0.2" d="M822.856 1168V1215C822.856 1225.65 816.972 1234.93 808.278 1239.72C804.258 1241.94 799.642 1243.2 794.734 1243.2V1168H822.856Z" fill="url(#paint7_linear)"/>
<path opacity="0.1" d="M752 1301V1424H622C610.954 1424 602 1415.05 602 1404V1398.2L752 1301Z" fill="url(#paint8_linear)"/>
<path d="M463.894 1188.38C459.714 1188.38 455.755 1187.71 452.019 1186.38C448.282 1185.05 445.337 1183.28 443.184 1181.06C442.297 1180.11 441.917 1179.07 442.044 1177.93C442.234 1176.73 442.835 1175.74 443.849 1174.98C444.989 1174.1 446.129 1173.72 447.269 1173.84C448.409 1173.97 449.359 1174.48 450.119 1175.36C451.385 1176.76 453.222 1177.96 455.629 1178.97C458.035 1179.99 460.727 1180.49 463.704 1180.49C467.694 1180.49 470.67 1179.83 472.634 1178.5C474.66 1177.17 475.705 1175.49 475.769 1173.46C475.769 1171.44 474.787 1169.73 472.824 1168.33C470.86 1166.88 467.409 1165.71 462.469 1164.82C456.072 1163.62 451.417 1161.75 448.504 1159.21C445.59 1156.68 444.134 1153.61 444.134 1150C444.134 1146.77 445.052 1144.11 446.889 1142.02C448.725 1139.87 451.1 1138.28 454.014 1137.27C456.99 1136.19 460.125 1135.66 463.419 1135.66C467.599 1135.66 471.272 1136.35 474.439 1137.74C477.669 1139.07 480.234 1140.94 482.134 1143.35C482.894 1144.3 483.242 1145.28 483.179 1146.29C483.115 1147.31 482.577 1148.16 481.564 1148.86C480.677 1149.49 479.6 1149.71 478.334 1149.52C477.067 1149.27 475.99 1148.73 475.104 1147.91C473.52 1146.26 471.779 1145.12 469.879 1144.49C467.979 1143.79 465.762 1143.44 463.229 1143.44C460.189 1143.44 457.687 1144.01 455.724 1145.15C453.76 1146.23 452.779 1147.75 452.779 1149.71C452.779 1150.92 453.095 1152.03 453.729 1153.04C454.425 1153.99 455.66 1154.84 457.434 1155.6C459.27 1156.36 461.93 1157.06 465.414 1157.69C470.164 1158.58 473.9 1159.78 476.624 1161.3C479.41 1162.76 481.374 1164.47 482.514 1166.43C483.717 1168.33 484.319 1170.52 484.319 1172.99C484.319 1175.97 483.495 1178.63 481.849 1180.97C480.265 1183.25 477.954 1185.05 474.914 1186.38C471.937 1187.71 468.264 1188.38 463.894 1188.38ZM520.893 1188.38C515.7 1188.38 511.076 1187.27 507.023 1185.05C502.97 1182.77 499.803 1179.67 497.523 1175.74C495.243 1171.75 494.103 1167.19 494.103 1162.06C494.103 1156.87 495.18 1152.31 497.333 1148.38C499.486 1144.39 502.463 1141.29 506.263 1139.07C510.126 1136.79 514.528 1135.66 519.468 1135.66C524.345 1135.66 528.556 1136.76 532.103 1138.98C535.713 1141.13 538.468 1144.14 540.368 1148C542.268 1151.8 543.218 1156.21 543.218 1161.21C543.218 1162.35 542.838 1163.3 542.078 1164.06C541.318 1164.76 540.336 1165.1 539.133 1165.1H500.183V1157.98H539.228L535.238 1160.73C535.238 1157.38 534.605 1154.4 533.338 1151.8C532.071 1149.14 530.266 1147.05 527.923 1145.53C525.58 1144.01 522.761 1143.25 519.468 1143.25C515.858 1143.25 512.723 1144.08 510.063 1145.72C507.466 1147.31 505.471 1149.52 504.078 1152.37C502.748 1155.22 502.083 1158.45 502.083 1162.06C502.083 1165.67 502.875 1168.9 504.458 1171.75C506.105 1174.54 508.321 1176.76 511.108 1178.4C513.958 1179.99 517.22 1180.78 520.893 1180.78C522.983 1180.78 525.073 1180.4 527.163 1179.64C529.316 1178.88 531.058 1177.99 532.388 1176.98C533.275 1176.35 534.225 1176.03 535.238 1176.03C536.251 1175.97 537.138 1176.25 537.898 1176.88C538.911 1177.77 539.45 1178.75 539.513 1179.83C539.576 1180.84 539.101 1181.73 538.088 1182.49C535.998 1184.2 533.338 1185.62 530.108 1186.76C526.878 1187.84 523.806 1188.38 520.893 1188.38ZM575.766 1188.38C571.079 1188.38 566.867 1187.24 563.131 1184.96C559.394 1182.68 556.449 1179.54 554.296 1175.55C552.142 1171.56 551.066 1167.07 551.066 1162.06C551.066 1157 552.206 1152.5 554.486 1148.57C556.829 1144.58 559.964 1141.45 563.891 1139.17C567.881 1136.83 572.346 1135.66 577.286 1135.66C582.289 1135.66 586.754 1136.83 590.681 1139.17C594.607 1141.45 597.711 1144.58 599.991 1148.57C602.334 1152.56 603.506 1157.06 603.506 1162.06L600.086 1162.82C600.086 1167.64 599.009 1171.98 596.856 1175.84C594.766 1179.7 591.884 1182.77 588.211 1185.05C584.601 1187.27 580.452 1188.38 575.766 1188.38ZM577.286 1180.49C580.706 1180.49 583.714 1179.7 586.311 1178.12C588.971 1176.47 591.061 1174.26 592.581 1171.47C594.164 1168.68 594.956 1165.55 594.956 1162.06C594.956 1158.52 594.164 1155.35 592.581 1152.56C591.061 1149.78 588.971 1147.59 586.311 1146.01C583.714 1144.36 580.706 1143.54 577.286 1143.54C573.992 1143.54 570.984 1144.36 568.261 1146.01C565.601 1147.59 563.479 1149.78 561.896 1152.56C560.376 1155.35 559.616 1158.52 559.616 1162.06C559.616 1165.55 560.376 1168.68 561.896 1171.47C563.479 1174.26 565.601 1176.47 568.261 1178.12C570.984 1179.7 573.992 1180.49 577.286 1180.49ZM599.041 1188.1C597.774 1188.1 596.697 1187.68 595.811 1186.86C594.987 1185.97 594.576 1184.9 594.576 1183.63V1168.52L596.381 1159.31L603.506 1162.06V1183.63C603.506 1184.9 603.094 1185.97 602.271 1186.86C601.447 1187.68 600.371 1188.1 599.041 1188.1ZM629.895 1188C627.172 1188 624.765 1187.27 622.675 1185.81C620.585 1184.29 618.938 1182.27 617.735 1179.73C616.595 1177.14 616.025 1174.16 616.025 1170.8V1118.17C616.025 1116.84 616.405 1115.8 617.165 1115.04C617.988 1114.22 619.065 1113.8 620.395 1113.8C621.725 1113.8 622.77 1114.22 623.53 1115.04C624.353 1115.8 624.765 1116.84 624.765 1118.17V1170.8C624.765 1173.27 625.24 1175.3 626.19 1176.88C627.14 1178.47 628.375 1179.26 629.895 1179.26H632.27C633.473 1179.26 634.423 1179.67 635.12 1180.49C635.817 1181.25 636.165 1182.3 636.165 1183.63C636.165 1184.96 635.627 1186.04 634.55 1186.86C633.473 1187.62 632.112 1188 630.465 1188H629.895ZM667.104 1188.38C661.91 1188.38 657.287 1187.27 653.234 1185.05C649.18 1182.77 646.014 1179.67 643.734 1175.74C641.454 1171.75 640.314 1167.19 640.314 1162.06C640.314 1156.87 641.39 1152.31 643.544 1148.38C645.697 1144.39 648.674 1141.29 652.474 1139.07C656.337 1136.79 660.739 1135.66 665.679 1135.66C670.555 1135.66 674.767 1136.76 678.314 1138.98C681.924 1141.13 684.679 1144.14 686.579 1148C688.479 1151.8 689.429 1156.21 689.429 1161.21C689.429 1162.35 689.049 1163.3 688.289 1164.06C687.529 1164.76 686.547 1165.1 685.344 1165.1H646.394V1157.98H685.439L681.449 1160.73C681.449 1157.38 680.815 1154.4 679.549 1151.8C678.282 1149.14 676.477 1147.05 674.134 1145.53C671.79 1144.01 668.972 1143.25 665.679 1143.25C662.069 1143.25 658.934 1144.08 656.274 1145.72C653.677 1147.31 651.682 1149.52 650.289 1152.37C648.959 1155.22 648.294 1158.45 648.294 1162.06C648.294 1165.67 649.085 1168.9 650.669 1171.75C652.315 1174.54 654.532 1176.76 657.319 1178.4C660.169 1179.99 663.43 1180.78 667.104 1180.78C669.194 1180.78 671.284 1180.4 673.374 1179.64C675.527 1178.88 677.269 1177.99 678.599 1176.98C679.485 1176.35 680.435 1176.03 681.449 1176.03C682.462 1175.97 683.349 1176.25 684.109 1176.88C685.122 1177.77 685.66 1178.75 685.724 1179.83C685.787 1180.84 685.312 1181.73 684.299 1182.49C682.209 1184.2 679.549 1185.62 676.319 1186.76C673.089 1187.84 670.017 1188.38 667.104 1188.38ZM723.497 1188.38C718.557 1188.38 714.092 1187.24 710.102 1184.96C706.175 1182.62 703.04 1179.45 700.697 1175.46C698.417 1171.47 697.277 1166.97 697.277 1161.97C697.277 1156.97 698.353 1152.5 700.507 1148.57C702.66 1144.58 705.605 1141.45 709.342 1139.17C713.078 1136.83 717.29 1135.66 721.977 1135.66C725.903 1135.66 729.482 1136.48 732.712 1138.12C736.005 1139.71 738.697 1141.89 740.787 1144.68V1118.27C740.787 1116.94 741.198 1115.86 742.022 1115.04C742.908 1114.22 743.985 1113.8 745.252 1113.8C746.582 1113.8 747.658 1114.22 748.482 1115.04C749.305 1115.86 749.717 1116.94 749.717 1118.27V1162.06C749.717 1167.07 748.545 1171.56 746.202 1175.55C743.922 1179.54 740.787 1182.68 736.797 1184.96C732.87 1187.24 728.437 1188.38 723.497 1188.38ZM723.497 1180.49C726.917 1180.49 729.925 1179.7 732.522 1178.12C735.182 1176.47 737.272 1174.26 738.792 1171.47C740.375 1168.62 741.167 1165.45 741.167 1161.97C741.167 1158.42 740.375 1155.29 738.792 1152.56C737.272 1149.78 735.182 1147.59 732.522 1146.01C729.925 1144.36 726.917 1143.54 723.497 1143.54C720.203 1143.54 717.195 1144.36 714.472 1146.01C711.812 1147.59 709.69 1149.78 708.107 1152.56C706.587 1155.29 705.827 1158.42 705.827 1161.97C705.827 1165.45 706.587 1168.62 708.107 1171.47C709.69 1174.26 711.812 1176.47 714.472 1178.12C717.195 1179.7 720.203 1180.49 723.497 1180.49Z" fill="white"/>
<path d="M618.595 1363C617.835 1363 617.189 1362.75 616.657 1362.26C616.163 1361.73 615.916 1361.08 615.916 1360.32C615.916 1359.56 616.163 1358.93 616.657 1358.44L633.187 1339C634.289 1337.79 635.144 1336.57 635.752 1335.35C636.36 1334.14 636.664 1333 636.664 1331.93C636.664 1330.22 636.341 1328.74 635.695 1327.49C635.087 1326.2 634.213 1325.21 633.073 1324.52C631.971 1323.8 630.641 1323.44 629.083 1323.44C627.601 1323.44 626.252 1323.84 625.036 1324.64C623.82 1325.4 622.87 1326.42 622.186 1327.72C621.502 1328.97 621.16 1330.38 621.16 1331.93C621.16 1332.66 620.894 1333.28 620.362 1333.82C619.868 1334.31 619.241 1334.56 618.481 1334.56C617.759 1334.56 617.132 1334.31 616.6 1333.82C616.068 1333.28 615.802 1332.66 615.802 1331.93C615.802 1329.35 616.372 1327.05 617.512 1325.04C618.69 1323.02 620.286 1321.43 622.3 1320.25C624.314 1319.07 626.575 1318.48 629.083 1318.48C631.629 1318.48 633.852 1319.03 635.752 1320.14C637.69 1321.24 639.172 1322.8 640.198 1324.81C641.262 1326.82 641.794 1329.2 641.794 1331.93C641.794 1333.15 641.547 1334.37 641.053 1335.58C640.597 1336.8 639.989 1337.98 639.229 1339.12C638.507 1340.22 637.747 1341.23 636.949 1342.14L623.383 1357.64H639.97C640.73 1357.64 641.376 1357.93 641.908 1358.5C642.44 1359.03 642.706 1359.64 642.706 1360.32C642.706 1361.08 642.44 1361.73 641.908 1362.26C641.376 1362.75 640.73 1363 639.97 1363H618.595ZM671.202 1363C670.48 1363 669.872 1362.75 669.378 1362.26C668.884 1361.73 668.637 1361.08 668.637 1360.32V1352.74H649.2C648.402 1352.74 647.775 1352.49 647.319 1352C646.863 1351.5 646.597 1350.93 646.521 1350.29C646.483 1349.64 646.654 1349.05 647.034 1348.52L669.15 1319.62C669.416 1319.28 669.72 1319.01 670.062 1318.82C670.442 1318.6 670.86 1318.48 671.316 1318.48C672.076 1318.48 672.684 1318.75 673.14 1319.28C673.596 1319.77 673.824 1320.42 673.824 1321.22V1347.89H677.586C678.346 1347.89 678.973 1348.08 679.467 1348.46C679.999 1348.81 680.265 1349.43 680.265 1350.35C680.265 1350.99 679.999 1351.56 679.467 1352.06C678.973 1352.51 678.346 1352.74 677.586 1352.74H673.824V1360.32C673.824 1361.08 673.577 1361.73 673.083 1362.26C672.589 1362.75 671.962 1363 671.202 1363ZM652.278 1349.55L650.967 1347.89H668.637V1324.07L670.233 1326.01L652.278 1349.55ZM687.411 1367.28C686.461 1367.28 685.72 1366.88 685.188 1366.08C684.694 1365.32 684.637 1364.46 685.017 1363.51L702.402 1320.02C702.63 1319.53 702.972 1319.15 703.428 1318.88C703.884 1318.58 704.378 1318.43 704.91 1318.43C705.822 1318.43 706.544 1318.82 707.076 1319.62C707.608 1320.38 707.684 1321.26 707.304 1322.24L689.919 1365.74C689.691 1366.31 689.33 1366.71 688.836 1366.93C688.38 1367.16 687.905 1367.28 687.411 1367.28ZM717.892 1363C717.17 1363 716.543 1362.75 716.011 1362.26C715.479 1361.73 715.213 1361.08 715.213 1360.32C715.213 1360.05 715.251 1359.79 715.327 1359.52C715.441 1359.26 715.574 1358.95 715.726 1358.61L732.313 1323.84H714.187C713.427 1323.84 712.781 1323.59 712.249 1323.1C711.755 1322.57 711.508 1321.92 711.508 1321.16C711.508 1320.4 711.755 1319.77 712.249 1319.28C712.781 1318.75 713.427 1318.48 714.187 1318.48H736.417C737.139 1318.48 737.766 1318.75 738.298 1319.28C738.83 1319.77 739.096 1320.4 739.096 1321.16C739.096 1321.39 739.058 1321.62 738.982 1321.85C738.906 1322.07 738.811 1322.32 738.697 1322.59L720.343 1361.52C719.773 1362.51 718.956 1363 717.892 1363Z" fill="white"/>
</g>
<path d="M926.002 1294.9C923.472 1296 920.524 1294.85 919.418 1292.32C918.313 1289.79 919.467 1286.84 921.998 1285.73L926.002 1294.9ZM1220.3 1268.53C1221.44 1271.05 1220.33 1274.01 1217.82 1275.16L1176.85 1293.78C1174.34 1294.93 1171.38 1293.82 1170.23 1291.3C1169.09 1288.79 1170.2 1285.82 1172.71 1284.68L1209.13 1268.12L1192.57 1231.71C1191.42 1229.2 1192.54 1226.23 1195.05 1225.09C1197.56 1223.95 1200.53 1225.06 1201.67 1227.57L1220.3 1268.53ZM921.998 1285.73C971.749 1263.99 1014.12 1247.09 1059.84 1241.66C1105.71 1236.21 1154.58 1242.34 1217.5 1265.92L1213.99 1275.29C1152.22 1252.13 1104.97 1246.37 1061.02 1251.59C1016.92 1256.83 975.767 1273.15 926.002 1294.9L921.998 1285.73Z" fill="black"/>
<path d="M676.909 769.004C678.704 766.905 678.458 763.749 676.359 761.954C674.261 760.159 671.104 760.406 669.31 762.504L676.909 769.004ZM589.315 987.961C591.279 989.902 594.445 989.883 596.386 987.918L628.014 955.908C629.955 953.944 629.936 950.778 627.972 948.838C626.007 946.897 622.842 946.916 620.901 948.88L592.787 977.333L564.333 949.219C562.369 947.278 559.203 947.297 557.262 949.261C555.321 951.226 555.34 954.392 557.305 956.332L589.315 987.961ZM669.31 762.504C637.629 799.547 616.995 830.479 604.436 864.597C591.876 898.718 587.537 935.638 587.829 984.434L597.829 984.374C597.54 936.167 601.843 900.59 613.82 868.051C625.799 835.509 645.595 805.618 676.909 769.004L669.31 762.504Z" fill="black"/>
<path d="M512.143 769.446C510.345 767.35 510.586 764.194 512.681 762.395C514.777 760.597 517.933 760.838 519.732 762.933L512.143 769.446ZM600.099 988.258C598.138 990.202 594.972 990.188 593.028 988.227L561.348 956.267C559.404 954.306 559.418 951.14 561.38 949.196C563.341 947.252 566.507 947.266 568.451 949.227L596.61 977.636L625.019 949.476C626.98 947.532 630.146 947.546 632.09 949.508C634.034 951.469 634.02 954.635 632.058 956.579L600.099 988.258ZM519.732 762.933C551.476 799.922 572.163 830.82 584.778 864.917C597.395 899.018 601.794 935.931 601.579 984.729L591.579 984.685C591.791 936.476 587.431 900.906 575.4 868.387C563.368 835.865 543.52 806.007 512.143 769.446L519.732 762.933Z" fill="black"/>
<defs>
<filter id="filter0_d" x="1267" y="1150" width="260" height="260" filterUnits="userSpaceOnUse" color-interpolation-filters="sRGB">
<feFlood flood-opacity="0" result="BackgroundImageFix"/>
<feColorMatrix in="SourceAlpha" type="matrix" values="0 0 0 0 0 0 0 0 0 0 0 0 0 0 0 0 0 0 127 0"/>
<feOffset/>
<feGaussianBlur stdDeviation="25"/>
<feColorMatrix type="matrix" values="0 0 0 0 0 0 0 0 0 0 0 0 0 0 0 0 0 0 0.5 0"/>
<feBlend mode="normal" in2="BackgroundImageFix" result="effect1_dropShadow"/>
<feBlend mode="normal" in="SourceGraphic" in2="effect1_dropShadow" result="shape"/>
</filter>
<filter id="filter1_d" x="1347" y="914" width="426.203" height="488.554" filterUnits="userSpaceOnUse" color-interpolation-filters="sRGB">
<feFlood flood-opacity="0" result="BackgroundImageFix"/>
<feColorMatrix in="SourceAlpha" type="matrix" values="0 0 0 0 0 0 0 0 0 0 0 0 0 0 0 0 0 0 127 0"/>
<feOffset/>
<feGaussianBlur stdDeviation="25"/>
<feColorMatrix type="matrix" values="0 0 0 0 0 0 0 0 0 0 0 0 0 0 0 0 0 0 0.5 0"/>
<feBlend mode="normal" in2="BackgroundImageFix" result="effect1_dropShadow"/>
<feBlend mode="normal" in="SourceGraphic" in2="effect1_dropShadow" result="shape"/>
</filter>
<filter id="filter2_d" x="134" y="121" width="469" height="313" filterUnits="userSpaceOnUse" color-interpolation-filters="sRGB">
<feFlood flood-opacity="0" result="BackgroundImageFix"/>
<feColorMatrix in="SourceAlpha" type="matrix" values="0 0 0 0 0 0 0 0 0 0 0 0 0 0 0 0 0 0 127 0"/>
<feOffset/>
<feGaussianBlur stdDeviation="25"/>
<feColorMatrix type="matrix" values="0 0 0 0 0 0 0 0 0 0 0 0 0 0 0 0 0 0 0.5 0"/>
<feBlend mode="normal" in2="BackgroundImageFix" result="effect1_dropShadow"/>
<feBlend mode="normal" in="SourceGraphic" in2="effect1_dropShadow" result="shape"/>
</filter>
<filter id="filter3_d" x="126" y="461" width="463.198" height="304" filterUnits="userSpaceOnUse" color-interpolation-filters="sRGB">
<feFlood flood-opacity="0" result="BackgroundImageFix"/>
<feColorMatrix in="SourceAlpha" type="matrix" values="0 0 0 0 0 0 0 0 0 0 0 0 0 0 0 0 0 0 127 0"/>
<feOffset/>
<feGaussianBlur stdDeviation="25"/>
<feColorMatrix type="matrix" values="0 0 0 0 0 0 0 0 0 0 0 0 0 0 0 0 0 0 0.5 0"/>
<feBlend mode="normal" in2="BackgroundImageFix" result="effect1_dropShadow"/>
<feBlend mode="normal" in="SourceGraphic" in2="effect1_dropShadow" result="shape"/>
</filter>
<filter id="filter4_d" x="584" y="121" width="485.242" height="315" filterUnits="userSpaceOnUse" color-interpolation-filters="sRGB">
<feFlood flood-opacity="0" result="BackgroundImageFix"/>
<feColorMatrix in="SourceAlpha" type="matrix" values="0 0 0 0 0 0 0 0 0 0 0 0 0 0 0 0 0 0 127 0"/>
<feOffset/>
<feGaussianBlur stdDeviation="25"/>
<feColorMatrix type="matrix" values="0 0 0 0 0 0 0 0 0 0 0 0 0 0 0 0 0 0 0.5 0"/>
<feBlend mode="normal" in2="BackgroundImageFix" result="effect1_dropShadow"/>
<feBlend mode="normal" in="SourceGraphic" in2="effect1_dropShadow" result="shape"/>
</filter>
<filter id="filter5_d" x="606" y="468" width="469.644" height="302" filterUnits="userSpaceOnUse" color-interpolation-filters="sRGB">
<feFlood flood-opacity="0" result="BackgroundImageFix"/>
<feColorMatrix in="SourceAlpha" type="matrix" values="0 0 0 0 0 0 0 0 0 0 0 0 0 0 0 0 0 0 127 0"/>
<feOffset/>
<feGaussianBlur stdDeviation="25"/>
<feColorMatrix type="matrix" values="0 0 0 0 0 0 0 0 0 0 0 0 0 0 0 0 0 0 0.5 0"/>
<feBlend mode="normal" in2="BackgroundImageFix" result="effect1_dropShadow"/>
<feBlend mode="normal" in="SourceGraphic" in2="effect1_dropShadow" result="shape"/>
</filter>
<filter id="filter6_d" x="33" y="16" width="312" height="312" filterUnits="userSpaceOnUse" color-interpolation-filters="sRGB">
<feFlood flood-opacity="0" result="BackgroundImageFix"/>
<feColorMatrix in="SourceAlpha" type="matrix" values="0 0 0 0 0 0 0 0 0 0 0 0 0 0 0 0 0 0 127 0"/>
<feOffset/>
<feGaussianBlur stdDeviation="25"/>
<feColorMatrix type="matrix" values="0 0 0 0 0 0 0 0 0 0 0 0 0 0 0 0 0 0 0.5 0"/>
<feBlend mode="normal" in2="BackgroundImageFix" result="effect1_dropShadow"/>
<feBlend mode="normal" in="SourceGraphic" in2="effect1_dropShadow" result="shape"/>
</filter>
<filter id="filter7_d" x="501" y="13" width="312" height="312" filterUnits="userSpaceOnUse" color-interpolation-filters="sRGB">
<feFlood flood-opacity="0" result="BackgroundImageFix"/>
<feColorMatrix in="SourceAlpha" type="matrix" values="0 0 0 0 0 0 0 0 0 0 0 0 0 0 0 0 0 0 127 0"/>
<feOffset/>
<feGaussianBlur stdDeviation="25"/>
<feColorMatrix type="matrix" values="0 0 0 0 0 0 0 0 0 0 0 0 0 0 0 0 0 0 0.5 0"/>
<feBlend mode="normal" in2="BackgroundImageFix" result="effect1_dropShadow"/>
<feBlend mode="normal" in="SourceGraphic" in2="effect1_dropShadow" result="shape"/>
</filter>
<filter id="filter8_d" x="33" y="355" width="312" height="312" filterUnits="userSpaceOnUse" color-interpolation-filters="sRGB">
<feFlood flood-opacity="0" result="BackgroundImageFix"/>
<feColorMatrix in="SourceAlpha" type="matrix" values="0 0 0 0 0 0 0 0 0 0 0 0 0 0 0 0 0 0 127 0"/>
<feOffset/>
<feGaussianBlur stdDeviation="25"/>
<feColorMatrix type="matrix" values="0 0 0 0 0 0 0 0 0 0 0 0 0 0 0 0 0 0 0.5 0"/>
<feBlend mode="normal" in2="BackgroundImageFix" result="effect1_dropShadow"/>
<feBlend mode="normal" in="SourceGraphic" in2="effect1_dropShadow" result="shape"/>
</filter>
<filter id="filter9_d" x="500" y="355" width="312" height="312" filterUnits="userSpaceOnUse" color-interpolation-filters="sRGB">
<feFlood flood-opacity="0" result="BackgroundImageFix"/>
<feColorMatrix in="SourceAlpha" type="matrix" values="0 0 0 0 0 0 0 0 0 0 0 0 0 0 0 0 0 0 127 0"/>
<feOffset/>
<feGaussianBlur stdDeviation="25"/>
<feColorMatrix type="matrix" values="0 0 0 0 0 0 0 0 0 0 0 0 0 0 0 0 0 0 0.5 0"/>
<feBlend mode="normal" in2="BackgroundImageFix" result="effect1_dropShadow"/>
<feBlend mode="normal" in="SourceGraphic" in2="effect1_dropShadow" result="shape"/>
</filter>
<filter id="filter10_d" x="323" y="989" width="550" height="558" filterUnits="userSpaceOnUse" color-interpolation-filters="sRGB">
<feFlood flood-opacity="0" result="BackgroundImageFix"/>
<feColorMatrix in="SourceAlpha" type="matrix" values="0 0 0 0 0 0 0 0 0 0 0 0 0 0 0 0 0 0 127 0"/>
<feOffset dy="4"/>
<feGaussianBlur stdDeviation="25"/>
<feColorMatrix type="matrix" values="0 0 0 0 0 0 0 0 0 0 0 0 0 0 0 0 0 0 0.5 0"/>
<feBlend mode="normal" in2="BackgroundImageFix" result="effect1_dropShadow"/>
<feBlend mode="normal" in="SourceGraphic" in2="effect1_dropShadow" result="shape"/>
</filter>
<linearGradient id="paint0_linear" x1="385.703" y1="1216.64" x2="439.343" y2="1185.75" gradientUnits="userSpaceOnUse">
<stop/>
<stop offset="1" stop-color="white" stop-opacity="0"/>
</linearGradient>
<linearGradient id="paint1_linear" x1="441.949" y1="1216.64" x2="495.589" y2="1185.75" gradientUnits="userSpaceOnUse">
<stop/>
<stop offset="1" stop-color="white" stop-opacity="0"/>
</linearGradient>
<linearGradient id="paint2_linear" x1="498.203" y1="1216.64" x2="551.843" y2="1185.75" gradientUnits="userSpaceOnUse">
<stop/>
<stop offset="1" stop-color="white" stop-opacity="0"/>
</linearGradient>
<linearGradient id="paint3_linear" x1="554.445" y1="1216.64" x2="608.086" y2="1185.75" gradientUnits="userSpaceOnUse">
<stop/>
<stop offset="1" stop-color="white" stop-opacity="0"/>
</linearGradient>
<linearGradient id="paint4_linear" x1="610.695" y1="1216.64" x2="664.336" y2="1185.75" gradientUnits="userSpaceOnUse">
<stop/>
<stop offset="1" stop-color="white" stop-opacity="0"/>
</linearGradient>
<linearGradient id="paint5_linear" x1="666.945" y1="1216.64" x2="720.586" y2="1185.75" gradientUnits="userSpaceOnUse">
<stop/>
<stop offset="1" stop-color="white" stop-opacity="0"/>
</linearGradient>
<linearGradient id="paint6_linear" x1="723.187" y1="1216.64" x2="776.828" y2="1185.75" gradientUnits="userSpaceOnUse">
<stop/>
<stop offset="1" stop-color="white" stop-opacity="0"/>
</linearGradient>
<linearGradient id="paint7_linear" x1="779.437" y1="1216.64" x2="833.078" y2="1185.75" gradientUnits="userSpaceOnUse">
<stop/>
<stop offset="1" stop-color="white" stop-opacity="0"/>
</linearGradient>
<linearGradient id="paint8_linear" x1="657.472" y1="1343.1" x2="744.862" y2="1431.09" gradientUnits="userSpaceOnUse">
<stop/>
<stop offset="1" stop-color="white" stop-opacity="0"/>
</linearGradient>
<clipPath id="clip0">
<rect width="184.468" height="84.2549" fill="white" transform="translate(220.273 555.99)"/>
</clipPath>
<clipPath id="clip1">
<rect width="253.724" height="55.8893" fill="white" transform="translate(664.105 576.318)"/>
</clipPath>
</defs>
</svg>
