<svg width="132" height="72" viewBox="0 0 132 72" fill="none" xmlns="http://www.w3.org/2000/svg">
<path fill-rule="evenodd" clip-rule="evenodd" d="M13.9429 38.9744L20.19 32.6509C20.6144 32.2213 21.1791 31.985 21.7811 31.985C22.3826 31.985 22.9474 32.221 23.3714 32.6507L23.8581 33.1433L24.8317 32.1578L24.345 31.6651C23.6613 30.973 22.7508 30.5918 21.7807 30.5918C20.811 30.592 19.9003 30.9732 19.2165 31.6655L12.9695 37.9889L13.9429 38.9744Z" fill="#7C4DFF"/>
<path fill-rule="evenodd" clip-rule="evenodd" d="M22.3011 34.7513L21.3228 33.7672L15.0464 40.0814C14.165 40.9681 12.7309 40.9683 11.8497 40.0819C10.9683 39.1952 10.9683 37.7523 11.8497 36.8656L17.2657 31.4175L16.2874 30.4336L10.8717 35.8817C9.45097 37.311 9.45097 39.6367 10.8717 41.0657C11.5587 41.7568 12.4735 42.1377 13.4477 42.1377C14.4222 42.1377 15.3374 41.7566 16.0244 41.0655L22.3011 34.7513Z" fill="#7C4DFF"/>
<path fill-rule="evenodd" clip-rule="evenodd" d="M28.511 35.9338C27.8242 35.2427 26.9094 34.8621 25.9347 34.8621C24.9602 34.8623 24.045 35.2429 23.358 35.9342L17.0818 42.2483L18.0596 43.2325L24.3363 36.9181C25.2179 36.0315 26.6518 36.0317 27.5329 36.9179C27.9591 37.3467 28.1939 37.9175 28.1939 38.5257C28.1939 39.1342 27.9591 39.7052 27.5329 40.134L22.1172 45.5822L23.0954 46.5661L28.511 41.1181C29.9319 39.6889 29.9319 37.3631 28.511 35.9338Z" fill="#7C4DFF"/>
<path fill-rule="evenodd" clip-rule="evenodd" d="M25.4399 38.0254L19.1929 44.3489C18.3155 45.2367 16.8884 45.2372 16.0114 44.3492L15.5247 43.8565L14.551 44.8421L15.0377 45.3347C15.7215 46.0269 16.6319 46.408 17.6022 46.408C18.5719 46.4078 19.4824 46.0266 20.1663 45.3343L26.4133 39.011L25.4399 38.0254Z" fill="#7C4DFF"/>
<path fill-rule="evenodd" clip-rule="evenodd" d="M35.3456 40.1465C35.4261 40.55 35.615 40.8658 35.9116 41.0934C36.208 41.3215 36.5981 41.4353 37.0818 41.4353C37.5578 41.4353 37.9257 41.3233 38.1858 41.0991C38.4459 40.8751 38.5759 40.58 38.5759 40.2137C38.5759 40.0345 38.5411 39.8832 38.4716 39.7599C38.4019 39.6366 38.3049 39.5321 38.1805 39.446C38.0557 39.3605 37.902 39.2873 37.7189 39.2277C37.5359 39.1679 37.3306 39.1044 37.1035 39.0371L36.5104 38.8691C36.1587 38.772 35.8437 38.6544 35.5654 38.516C35.2869 38.3778 35.0489 38.2152 34.8512 38.0285C34.6535 37.8418 34.5032 37.627 34.4007 37.3841C34.2982 37.1413 34.2469 36.8591 34.2469 36.538C34.2469 36.2018 34.3128 35.8918 34.4448 35.6077C34.5765 35.3241 34.7633 35.081 35.0051 34.8793C35.2468 34.6777 35.5397 34.519 35.8842 34.4029C36.2282 34.2875 36.6163 34.2295 37.0486 34.2295C37.8617 34.2295 38.5062 34.4255 38.9826 34.8177C39.4585 35.2101 39.7368 35.7349 39.8176 36.3924L38.4991 36.5044C38.4183 36.1682 38.2573 35.9067 38.0156 35.72C37.7738 35.5332 37.4369 35.4398 37.0048 35.4398C36.6019 35.4398 36.2869 35.535 36.0599 35.7256C35.8326 35.9162 35.719 36.1609 35.719 36.4597C35.719 36.6315 35.7522 36.7751 35.8182 36.8909C35.8842 37.007 35.9791 37.1077 36.1038 37.1935C36.2282 37.2795 36.3803 37.3561 36.5596 37.4231C36.7391 37.4904 36.9423 37.5618 37.1695 37.6363L37.73 37.8156C38.0813 37.9276 38.3983 38.0452 38.6802 38.1685C38.9622 38.2918 39.2022 38.4394 39.3998 38.6113C39.5978 38.7831 39.7498 38.9886 39.8559 39.2277C39.9621 39.4668 40.0153 39.7619 40.0153 40.113C40.0153 40.4867 39.942 40.8286 39.7957 41.1384C39.6489 41.4486 39.4441 41.7119 39.1802 41.9284C38.9166 42.1452 38.6036 42.3134 38.2407 42.4326C37.8781 42.5521 37.4772 42.6121 37.0378 42.6121C36.2246 42.6121 35.547 42.418 35.0051 42.0294C34.4629 41.6408 34.1298 41.0544 34.0051 40.2697L35.3456 40.1465Z" fill="#7C4DFF"/>
<path fill-rule="evenodd" clip-rule="evenodd" d="M45.6872 35.5924C45.2919 35.5924 44.9385 35.6668 44.6274 35.8151C44.316 35.9637 44.0524 36.1696 43.8367 36.433C43.6205 36.6966 43.4556 37.0086 43.3421 37.3682C43.2288 37.7285 43.1721 38.12 43.1721 38.543C43.1721 38.9662 43.2305 39.3595 43.3478 39.7234C43.4647 40.087 43.6315 40.4024 43.8475 40.6698C44.0633 40.9368 44.3271 41.1465 44.6384 41.2989C44.9494 41.4508 45.3028 41.5268 45.6983 41.5268C46.0937 41.5268 46.4469 41.4547 46.7583 41.3099C47.0692 41.1652 47.333 40.9629 47.549 40.7029C47.765 40.4433 47.9316 40.1295 48.0487 39.7623C48.1657 39.3948 48.2244 38.992 48.2244 38.5542C48.2244 38.1236 48.1657 37.7264 48.0487 37.3628C47.9316 36.9993 47.765 36.6874 47.549 36.4276C47.333 36.168 47.0674 35.9637 46.7525 35.8151C46.4378 35.6668 46.0827 35.5924 45.6872 35.5924ZM45.6983 34.3877C46.2913 34.3877 46.8333 34.49 47.3239 34.6945C47.8143 34.899 48.2317 35.1851 48.576 35.5533C48.9199 35.9216 49.1871 36.3622 49.3778 36.8753C49.5681 37.3884 49.6633 37.9498 49.6633 38.5596C49.6633 39.1921 49.5626 39.7627 49.3614 40.272C49.1596 40.7815 48.8726 41.222 48.499 41.5938L49.5535 42.8544V43.2448H48.2136L47.4775 42.3303C47.2212 42.4492 46.9464 42.542 46.6538 42.609C46.3608 42.676 46.0459 42.7095 45.7093 42.7095C45.1014 42.7095 44.5541 42.607 44.0673 42.4027C43.5802 42.1982 43.1664 41.9118 42.826 41.5437C42.4854 41.1755 42.2218 40.737 42.0353 40.2273C41.8485 39.718 41.7551 39.1622 41.7551 38.5596C41.7551 37.9498 41.8485 37.3904 42.0353 36.8807C42.2218 36.3716 42.4872 35.9327 42.8315 35.5645C43.1754 35.1964 43.591 34.9082 44.0781 34.6999C44.5652 34.492 45.1052 34.3877 45.6983 34.3877Z" fill="#7C4DFF"/>
<path fill-rule="evenodd" clip-rule="evenodd" d="M55.041 41.4581C55.6029 41.4581 56.0406 41.2808 56.3544 40.9259C56.668 40.571 56.825 40.0276 56.825 39.2954V34.3877H58.2042V39.3291C58.2042 39.9118 58.1312 40.4103 57.9852 40.825C57.839 41.2395 57.6313 41.5795 57.3614 41.8448C57.0914 42.1101 56.7593 42.3042 56.3654 42.4275C55.9714 42.5508 55.5299 42.6122 55.041 42.6122C54.5445 42.6122 54.1013 42.5508 53.7112 42.4275C53.3206 42.3042 52.9905 42.1101 52.7205 41.8448C52.4506 41.5795 52.2427 41.2395 52.0964 40.825C51.9505 40.4103 51.8777 39.9118 51.8777 39.3291V34.3877H53.2569V39.2954C53.2569 40.0276 53.4137 40.571 53.7275 40.9259C54.0413 41.2808 54.479 41.4581 55.041 41.4581Z" fill="#7C4DFF"/>
<path fill-rule="evenodd" clip-rule="evenodd" d="M62.1554 39.0066H64.7945L64.3602 37.751C64.1892 37.2593 64.0521 36.8589 63.9482 36.5507C63.8441 36.2422 63.7513 35.9706 63.6698 35.7356H63.3248C63.2801 35.8603 63.2355 35.9852 63.1911 36.11C63.1464 36.2349 63.0964 36.3745 63.0407 36.5285C62.9849 36.6827 62.9239 36.8589 62.857 37.0573C62.7901 37.2553 62.7085 37.4867 62.612 37.751L62.1554 39.0066ZM59.6277 42.0686L62.4673 34.5459H64.5719L67.3777 42.0686V42.4541H65.997L65.1954 40.1961H61.7323L60.9307 42.4541H59.6277V42.0686Z" fill="#7C4DFF"/>
<path fill-rule="evenodd" clip-rule="evenodd" d="M70.4848 38.1586H71.6869C72.2165 38.1586 72.6335 38.062 72.9386 37.8694C73.2437 37.6765 73.3966 37.3619 73.3966 36.9249C73.3966 36.4811 73.2419 36.1719 72.933 35.9973C72.6244 35.8228 72.2091 35.7354 71.6869 35.7354H70.4848V38.1586ZM75.1277 42.4541H73.7932L71.3781 39.3481H70.4848V42.4541H69.1174V34.5459H71.6869C72.0911 34.5459 72.4755 34.5734 72.8393 34.6285C73.2032 34.6835 73.5323 34.8102 73.8265 35.0084C74.4511 35.4194 74.764 36.0399 74.764 36.8692C74.764 37.2291 74.7106 37.5429 74.6038 37.811C74.4971 38.0789 74.3556 38.3064 74.1794 38.4937C74.0027 38.681 73.7987 38.8332 73.5674 38.9504C73.3357 39.068 73.0948 39.1561 72.8448 39.2147L75.1277 42.0684V42.4541Z" fill="#7C4DFF"/>
<path fill-rule="evenodd" clip-rule="evenodd" d="M76.8674 34.5459H82.0094V35.7573H78.2276V37.828H81.744V39.0175H78.2276V41.2424H82.0869V42.4541H76.8674V34.5459Z" fill="#7C4DFF"/>
<path fill-rule="evenodd" clip-rule="evenodd" d="M85.1673 40.1465C85.2476 40.55 85.4365 40.8658 85.7331 41.0934C86.0297 41.3215 86.4198 41.4353 86.9033 41.4353C87.3792 41.4353 87.7471 41.3233 88.0075 41.0991C88.2674 40.8751 88.3975 40.58 88.3975 40.2137C88.3975 40.0345 88.3628 39.8832 88.293 39.7599C88.2235 39.6366 88.1263 39.5321 88.0019 39.446C87.8773 39.3605 87.7234 39.2873 87.5406 39.2277C87.3573 39.1679 87.1521 39.1044 86.925 39.0371L86.3319 38.8691C85.9804 38.772 85.6651 38.6544 85.3869 38.516C85.1084 38.3778 84.8704 38.2152 84.673 38.0285C84.4751 37.8418 84.3247 37.627 84.2222 37.3841C84.1198 37.1413 84.0684 36.8591 84.0684 36.538C84.0684 36.2018 84.1344 35.8918 84.2663 35.6077C84.398 35.3241 84.5849 35.081 84.8266 34.8793C85.0683 34.6777 85.3612 34.519 85.7057 34.4029C86.0497 34.2875 86.4379 34.2295 86.8701 34.2295C87.6832 34.2295 88.3276 34.4255 88.804 34.8177C89.2799 35.2101 89.5584 35.7349 89.639 36.3924L88.3205 36.5044C88.2399 36.1682 88.0787 35.9067 87.8372 35.72C87.5955 35.5332 87.2583 35.4398 86.8262 35.4398C86.4233 35.4398 86.1083 35.535 85.8814 35.7256C85.6543 35.9162 85.5407 36.1609 85.5407 36.4597C85.5407 36.6315 85.5737 36.7751 85.6397 36.8909C85.7057 37.007 85.8006 37.1077 85.9252 37.1935C86.0497 37.2795 86.2017 37.3561 86.3813 37.4231C86.5608 37.4904 86.764 37.5618 86.9909 37.6363L87.5514 37.8156C87.903 37.9276 88.2198 38.0452 88.5018 38.1685C88.7836 38.2918 89.0238 38.4394 89.2212 38.6113C89.4191 38.7831 89.5712 38.9886 89.6775 39.2277C89.7835 39.4668 89.8369 39.7619 89.8369 40.113C89.8369 40.4867 89.7636 40.8286 89.617 41.1384C89.4703 41.4486 89.2655 41.7119 89.0016 41.9284C88.738 42.1452 88.425 42.3134 88.0624 42.4326C87.6995 42.5521 87.2986 42.6121 86.8592 42.6121C86.0463 42.6121 85.3685 42.418 84.8266 42.0294C84.2845 41.6408 83.9513 41.0544 83.8267 40.2697L85.1673 40.1465Z" fill="#7C4DFF"/>
<path fill-rule="evenodd" clip-rule="evenodd" d="M93.2942 38.2246H94.6395C94.8862 38.2246 95.1122 38.2046 95.3178 38.1644C95.5231 38.1245 95.7027 38.0573 95.8558 37.9625C96.0092 37.868 96.1287 37.7406 96.2148 37.5804C96.3006 37.4204 96.3435 37.2237 96.3435 36.9907C96.3435 36.7506 96.3006 36.5489 96.2148 36.3851C96.1287 36.2214 96.0108 36.0922 95.8615 35.9974C95.712 35.9027 95.5344 35.8354 95.3291 35.7955C95.1233 35.7556 94.9011 35.7354 94.6621 35.7354H93.2942V38.2246ZM91.8928 34.5459H94.8301C95.3756 34.5459 95.8335 34.6083 96.2035 34.7332C96.5735 34.8579 96.8723 35.0303 97.1004 35.2509C97.3281 35.4711 97.4928 35.7298 97.5935 36.0274C97.6943 36.3245 97.7449 36.6459 97.7449 36.991C97.7449 37.4024 97.6757 37.7601 97.5375 38.0648C97.3993 38.3695 97.1994 38.6209 96.9378 38.8193C96.676 39.0175 96.3584 39.1662 95.9848 39.2654C95.611 39.3646 95.1888 39.414 94.7181 39.414H93.2942V42.4541H91.8928V34.5459Z" fill="#7C4DFF"/>
<path fill-rule="evenodd" clip-rule="evenodd" d="M100.589 39.0066H103.228L102.794 37.751C102.623 37.2593 102.485 36.8589 102.382 36.5507C102.278 36.2422 102.185 35.9706 102.103 35.7356H101.758C101.714 35.8603 101.669 35.9852 101.624 36.11C101.58 36.2349 101.53 36.3745 101.474 36.5285C101.418 36.6827 101.357 36.8589 101.291 37.0573C101.224 37.2553 101.142 37.4867 101.046 37.751L100.589 39.0066ZM98.0613 42.0686L100.901 34.5459H103.005L105.811 42.0686V42.4541H104.431L103.629 40.1961H100.166L99.3641 42.4541H98.0613V42.0686Z" fill="#7C4DFF"/>
<path fill-rule="evenodd" clip-rule="evenodd" d="M114.194 40.3631C114.068 40.6719 113.904 40.9624 113.7 41.235C113.497 41.5075 113.251 41.7463 112.962 41.9502C112.674 42.1542 112.339 42.3154 111.958 42.434C111.577 42.5527 111.154 42.6122 110.688 42.6122C110.096 42.6122 109.558 42.5091 109.074 42.3032C108.589 42.0977 108.176 41.8128 107.833 41.4491C107.491 41.0851 107.226 40.6517 107.04 40.1481C106.853 39.6448 106.76 39.099 106.76 38.5108C106.76 37.9231 106.853 37.3773 107.04 36.8737C107.226 36.3704 107.492 35.9348 107.838 35.5672C108.185 35.2 108.6 34.9112 109.085 34.702C109.569 34.4923 110.111 34.3877 110.71 34.3877C111.583 34.3877 112.313 34.5901 112.901 34.9941C113.49 35.3982 113.906 35.9348 114.15 36.6036L112.741 36.8791C112.548 36.475 112.28 36.1569 111.936 35.9255C111.592 35.694 111.176 35.5783 110.688 35.5783C110.296 35.5783 109.946 35.6534 109.639 35.8035C109.332 35.9537 109.074 36.1605 108.863 36.4242C108.652 36.6876 108.491 36.9988 108.38 37.3578C108.269 37.7165 108.214 38.1008 108.214 38.5108C108.214 38.9282 108.271 39.3145 108.386 39.6697C108.5 40.0251 108.667 40.3323 108.885 40.5924C109.103 40.8523 109.368 41.0553 109.678 41.2017C109.989 41.3483 110.344 41.4216 110.743 41.4216C111.261 41.4216 111.688 41.2965 112.025 41.0466C112.362 40.7967 112.622 40.4918 112.807 40.1315L114.194 40.3631Z" fill="#7C4DFF"/>
<mask id="mask0" mask-type="alpha" maskUnits="userSpaceOnUse" x="116" y="34" width="6" height="9">
<path d="M116.003 34.4504H121.253V42.4352H116.003V34.4504Z" fill="white"/>
</mask>
<g mask="url(#mask0)">
<path fill-rule="evenodd" clip-rule="evenodd" d="M116.003 34.4504H121.175V35.6736H117.371V37.7644H120.908V38.9653H117.371V41.2118H121.253V42.4352H116.003V34.4504Z" fill="#7C4DFF"/>
</g>
<path fill-rule="evenodd" clip-rule="evenodd" d="M31.3387 57H51.8504C53.1484 57 54.1993 58.0508 54.1993 59.3489V67.1786C54.1993 68.4766 53.1484 69.5275 51.8504 69.5275H44.4946L45.5042 72L41.064 69.5275H31.349C30.0509 69.5275 29.0001 68.4766 29.0001 67.1786V59.3489C28.9898 58.0611 30.0406 57 31.3387 57Z" fill="#7C4DFF"/>
<path d="M30.257 59.1325C30.4012 58.9367 30.6175 58.8337 30.906 58.8131C31.4314 58.7719 31.7302 59.0191 31.8023 59.5549C32.1217 61.708 32.4719 63.5315 32.8428 65.0253L35.099 60.7293C35.305 60.3378 35.5626 60.1318 35.8717 60.1112C36.325 60.0803 36.6031 60.3687 36.7164 60.9766C36.974 62.3467 37.3037 63.5109 37.6951 64.4999C37.963 61.8831 38.4163 59.9978 39.055 58.8337C39.2096 58.5452 39.4362 58.401 39.735 58.3804C39.9719 58.3598 40.1883 58.4319 40.384 58.5864C40.5798 58.741 40.6828 58.9367 40.7034 59.1737C40.7137 59.3591 40.6828 59.5136 40.6004 59.6682C40.1986 60.4099 39.8689 61.6565 39.6011 63.3873C39.3435 65.0665 39.2508 66.3749 39.3126 67.3124C39.3332 67.57 39.292 67.7966 39.189 67.9924C39.0653 68.219 38.8799 68.3426 38.6429 68.3632C38.3751 68.3838 38.0969 68.2602 37.8291 67.982C36.871 67.0033 36.1086 65.5404 35.5523 63.5933C34.8826 64.912 34.3881 65.901 34.0688 66.5603C33.4609 67.7245 32.9458 68.322 32.5131 68.3529C32.235 68.3735 31.998 68.1366 31.792 67.6421C31.2666 66.2925 30.7 63.686 30.0921 59.8227C30.0612 59.5549 30.1127 59.3179 30.257 59.1325Z" fill="white"/>
<path d="M52.4066 60.75C52.0357 60.101 51.4897 59.7095 50.7582 59.555C50.5625 59.5138 50.377 59.4932 50.2019 59.4932C49.2129 59.4932 48.4093 60.0083 47.7809 61.0385C47.2452 61.9142 46.9773 62.8826 46.9773 63.9437C46.9773 64.737 47.1421 65.4169 47.4718 65.9835C47.8427 66.6326 48.3887 67.0241 49.1202 67.1786C49.3159 67.2198 49.5013 67.2404 49.6765 67.2404C50.6758 67.2404 51.4794 66.7253 52.0975 65.6951C52.6332 64.8091 52.9011 63.8407 52.9011 62.7796C52.9011 61.976 52.7362 61.3064 52.4066 60.75ZM51.1085 63.6037C50.9642 64.2837 50.7067 64.7885 50.3255 65.1285C50.0267 65.3963 49.7486 65.5096 49.491 65.4581C49.2438 65.4066 49.0377 65.1903 48.8832 64.7885C48.7596 64.4691 48.6978 64.1498 48.6978 63.851C48.6978 63.5934 48.7184 63.3359 48.7699 63.0989C48.8626 62.6765 49.0377 62.2645 49.3159 61.873C49.6559 61.3682 50.0164 61.1621 50.3873 61.2342C50.6346 61.2857 50.8406 61.5021 50.9952 61.9039C51.1188 62.2232 51.1806 62.5426 51.1806 62.8414C51.1806 63.1092 51.1497 63.3668 51.1085 63.6037Z" fill="white"/>
<path d="M45.9473 60.75C45.5764 60.101 45.0201 59.7095 44.299 59.555C44.1032 59.5138 43.9178 59.4932 43.7427 59.4932C42.7536 59.4932 41.9501 60.0083 41.3216 61.0385C40.7859 61.9142 40.5181 62.8826 40.5181 63.9437C40.5181 64.737 40.6829 65.4169 41.0126 65.9835C41.3835 66.6326 41.9295 67.0241 42.6609 67.1786C42.8567 67.2198 43.0421 67.2404 43.2172 67.2404C44.2166 67.2404 45.0201 66.7253 45.6383 65.6951C46.174 64.8091 46.4418 63.8407 46.4418 62.7796C46.4418 61.976 46.277 61.3064 45.9473 60.75ZM44.6492 63.6037C44.505 64.2837 44.2475 64.7885 43.8663 65.1285C43.5675 65.3963 43.2894 65.5096 43.0318 65.4581C42.7846 65.4066 42.5785 65.1903 42.424 64.7885C42.3003 64.4691 42.2385 64.1498 42.2385 63.851C42.2385 63.5934 42.2591 63.3359 42.3107 63.0989C42.4034 62.6765 42.5785 62.2645 42.8567 61.873C43.1966 61.3682 43.5572 61.1621 43.9281 61.2342C44.1753 61.2857 44.3814 61.5021 44.5359 61.9039C44.6595 62.2232 44.7214 62.5426 44.7214 62.8414C44.7214 63.1092 44.7008 63.3668 44.6492 63.6037Z" fill="white"/>
<path d="M56.8056 60.6574C56.1154 61.3373 55.7754 62.2027 55.7754 63.2535C55.7754 64.3765 56.1154 65.2934 56.7953 65.9836C57.4753 66.6739 58.3612 67.0241 59.4636 67.0241C59.7829 67.0241 60.1435 66.9726 60.535 66.8593V65.1903C60.1744 65.2934 59.8654 65.3449 59.5975 65.3449C59.0515 65.3449 58.6188 65.1594 58.2891 64.7989C57.9595 64.428 57.7946 63.9335 57.7946 63.305C57.7946 62.7178 57.9595 62.2336 58.2788 61.8627C58.6085 61.4815 59.0103 61.2961 59.5048 61.2961C59.8242 61.2961 60.1641 61.3476 60.535 61.4506V59.7817C60.195 59.689 59.8139 59.6478 59.4121 59.6478C58.3612 59.6375 57.4959 59.9774 56.8056 60.6574ZM63.9553 59.6375C63.0075 59.6375 62.2658 59.9568 61.7301 60.5853C61.1943 61.2137 60.9368 62.0997 60.9368 63.2329C60.9368 64.4589 61.2047 65.3964 61.7301 66.0454C62.2555 66.6945 63.0281 67.0241 64.0378 67.0241C65.0165 67.0241 65.7685 66.6945 66.2939 66.0454C66.8193 65.3964 67.0872 64.4795 67.0872 63.305C67.0872 62.1306 66.8193 61.224 66.2836 60.5853C65.7376 59.9568 64.965 59.6375 63.9553 59.6375ZM64.7692 64.9946C64.5838 65.2831 64.3056 65.4273 63.9553 65.4273C63.6257 65.4273 63.3784 65.2831 63.2033 64.9946C63.0281 64.7061 62.9457 64.1292 62.9457 63.2535C62.9457 61.9039 63.2857 61.2343 63.9759 61.2343C64.6971 61.2343 65.068 61.9142 65.068 63.2844C65.0577 64.1292 64.9547 64.7061 64.7692 64.9946ZM72.1765 59.8332L71.8056 61.4094C71.7129 61.8112 71.6202 62.2233 71.5378 62.6457L71.3317 63.7377C71.136 62.6457 70.8681 61.3476 70.5281 59.8332H68.138L67.2417 66.849H69.0343L69.5185 62.0173L70.7445 66.849H72.022L73.1964 62.0276L73.7012 66.849H75.5762L74.6284 59.8332H72.1765V59.8332ZM80.7582 59.8332L80.3873 61.4094C80.2946 61.8112 80.2019 62.2233 80.1195 62.6457L79.9134 63.7377C79.7177 62.6457 79.4498 61.3476 79.1099 59.8332H76.7198L75.8235 66.849H77.6161L78.1003 62.0173L79.3262 66.849H80.6037L81.7678 62.0276L82.2726 66.849H84.1476L83.1998 59.8332H80.7582V59.8332ZM86.5893 64.0777H88.2685V62.6251H86.5893V61.3373H88.5261V59.8435H84.6937V66.8593H88.5364V65.3655H86.5893V64.0777ZM93.8729 62.9651C94.0687 62.6457 94.1717 62.316 94.1717 61.9761C94.1717 61.3167 93.9141 60.7913 93.399 60.4101C92.8839 60.0289 92.1731 59.8332 91.2871 59.8332H89.0824V66.849H90.978V63.6553H91.0089L92.5439 66.849H94.5426L93.0281 63.6862C93.3887 63.5214 93.6772 63.2844 93.8729 62.9651ZM90.9677 62.8517V61.1828C91.421 61.1931 91.7404 61.2652 91.9361 61.4094C92.1319 61.5537 92.2246 61.7803 92.2246 62.11C92.2246 62.5942 91.8022 62.8414 90.9677 62.8517ZM95.2843 60.6574C94.5941 61.3373 94.2541 62.2027 94.2541 63.2535C94.2541 64.3765 94.5941 65.2934 95.274 65.9836C95.954 66.6739 96.84 67.0241 97.9423 67.0241C98.2617 67.0241 98.6222 66.9726 99.0137 66.8593V65.1903C98.6531 65.2934 98.3441 65.3449 98.0762 65.3449C97.5302 65.3449 97.0975 65.1594 96.7678 64.7989C96.4382 64.428 96.2733 63.9335 96.2733 63.305C96.2733 62.7178 96.4382 62.2336 96.7575 61.8627C97.0872 61.4815 97.489 61.2961 97.9835 61.2961C98.3029 61.2961 98.6428 61.3476 99.0137 61.4506V59.7817C98.6738 59.689 98.2926 59.6478 97.8908 59.6478C96.8503 59.6375 95.9746 59.9774 95.2843 60.6574ZM101.435 65.3449V64.0674H103.114V62.6148H101.435V61.327H103.382V59.8332H99.5494V66.849H103.392V65.3552H101.435V65.3449Z" fill="#7C4DFF"/>
<g clip-path="url(#clip0)">
<path d="M54.2195 11.1213C53.6234 10.7919 53.3097 10.5253 53.3097 10.1488C53.3097 9.66251 53.7332 9.36447 54.4077 9.36447C55.192 9.36447 55.8822 9.69388 55.8822 9.69388L56.4313 8.01545C56.4313 8.01545 55.9293 7.62329 54.4391 7.62329C52.3685 7.62329 50.9254 8.81545 50.9254 10.4782C50.9254 11.4194 51.5999 12.1409 52.494 12.6586C53.2156 13.0664 53.4665 13.3645 53.4665 13.788C53.4665 14.2429 53.1058 14.6037 52.4313 14.6037C51.4273 14.6037 50.4862 14.086 50.4862 14.086L49.9058 15.7645C49.9058 15.7645 50.7842 16.3449 52.243 16.3449C54.3763 16.3449 55.8979 15.2939 55.8979 13.4115C55.9293 12.3762 55.145 11.6547 54.2195 11.1213Z" fill="#7C4DFF"/>
<path d="M62.7215 7.59216C61.6705 7.59216 60.8548 8.09412 60.2117 8.84706L60.1803 8.83137L61.0901 4.06274H58.7058L56.3999 16.1882H58.7685L59.5528 12.0471C59.8666 10.4784 60.6666 9.52157 61.4195 9.52157C61.9528 9.52157 62.1568 9.88235 62.1568 10.4C62.1568 10.7294 62.1254 11.1216 62.047 11.451L61.1528 16.2039H63.5215L64.447 11.3098C64.5568 10.7922 64.6195 10.1804 64.6195 9.75686C64.6509 8.39216 63.9607 7.59216 62.7215 7.59216Z" fill="#7C4DFF"/>
<path d="M70.0156 7.59204C67.1607 7.59204 65.2627 10.1646 65.2627 13.0352C65.2627 14.8705 66.3921 16.3607 68.5254 16.3607C71.3333 16.3607 73.2156 13.8509 73.2156 10.9175C73.2313 9.20773 72.2431 7.59204 70.0156 7.59204ZM68.8549 14.5254C68.0392 14.5254 67.7098 13.8352 67.7098 12.9724C67.7098 11.6077 68.4156 9.39596 69.7019 9.39596C70.549 9.39596 70.8156 10.1175 70.8156 10.8234C70.8156 12.2979 70.1098 14.5254 68.8549 14.5254Z" fill="#7C4DFF"/>
<path d="M79.3018 7.59204C77.7018 7.59204 76.792 9.00381 76.792 9.00381H76.7606L76.9018 7.73322H74.7998C74.69 8.59596 74.5018 9.89792 74.3136 10.8862L72.6665 19.545H75.0351L75.694 16.0313H75.741C75.741 16.0313 76.2273 16.345 77.1371 16.345C79.9292 16.345 81.7489 13.4901 81.7489 10.6038C81.7489 9.01949 81.043 7.59204 79.3018 7.59204ZM77.043 14.5724C76.4312 14.5724 76.0704 14.2273 76.0704 14.2273L76.4626 12.0156C76.7449 10.5411 77.5136 9.55283 78.3292 9.55283C79.0508 9.55283 79.2704 10.2273 79.2704 10.8548C79.2704 12.3764 78.3606 14.5724 77.043 14.5724Z" fill="#7C4DFF"/>
<path d="M85.1372 4.18823C84.3842 4.18823 83.7725 4.78431 83.7725 5.56862C83.7725 6.27451 84.2117 6.76078 84.8862 6.76078H84.9176C85.6548 6.76078 86.2979 6.25882 86.3136 5.38039C86.3293 4.67451 85.8587 4.18823 85.1372 4.18823Z" fill="#7C4DFF"/>
<path d="M81.8118 16.1881H84.1961L85.8118 7.78027H83.4118L81.8118 16.1881Z" fill="#7C4DFF"/>
<path d="M91.8353 7.76459H90.1882L90.2667 7.37243C90.4078 6.55674 90.8784 5.83517 91.6784 5.83517C92.102 5.83517 92.4314 5.96066 92.4314 5.96066L92.902 4.10968C92.902 4.10968 92.4941 3.90576 91.6157 3.90576C90.7686 3.90576 89.9373 4.14106 89.2941 4.69008C88.4784 5.38027 88.102 6.36851 87.9137 7.37243L87.851 7.76459H86.7529L86.4078 9.55282H87.5059L86.251 16.1881H88.6196L89.8745 9.55282H91.5059L91.8353 7.76459Z" fill="#7C4DFF"/>
<path d="M97.5449 7.78027C97.5449 7.78027 96.0547 11.5136 95.3959 13.5528H95.3645C95.3174 12.894 94.7841 7.78027 94.7841 7.78027H92.29L93.7174 15.4979C93.7488 15.6705 93.7331 15.7803 93.6704 15.8901C93.388 16.4234 92.9331 16.9411 92.3841 17.3175C91.9449 17.6469 91.4429 17.8509 91.0508 17.992L91.7096 19.9999C92.1959 19.8901 93.1841 19.4979 94.0312 18.7136C95.1135 17.694 96.1174 16.1411 97.1371 14.0077L100.039 7.78027H97.5449V7.78027Z" fill="#7C4DFF"/>
<path d="M41.7334 2.32148C41.7334 2.32148 41.5138 2.38422 41.153 2.49403C41.0903 2.2901 40.9961 2.05481 40.8706 1.80383C40.4628 1.01952 39.851 0.595986 39.1295 0.595986C39.0824 0.595986 39.0354 0.595986 38.9726 0.611672C38.9569 0.5803 38.9256 0.564614 38.9099 0.533241C38.5961 0.188143 38.1883 0.0312802 37.702 0.0469665C36.7608 0.078339 35.8197 0.752849 35.0667 1.96069C34.5334 2.80775 34.1256 3.87442 34.0157 4.70579C32.9334 5.0352 32.1805 5.2705 32.1648 5.28618C31.6157 5.45873 31.6001 5.47442 31.5373 5.99207C31.4903 6.38422 30.0471 17.4274 30.0471 17.4274L41.9059 19.4823V2.30579C41.8118 2.30579 41.7648 2.32148 41.7334 2.32148ZM38.9883 3.16854C38.3608 3.35677 37.6706 3.57638 36.9961 3.7803C37.1844 3.04305 37.5608 2.30579 38.0001 1.81952C38.1726 1.64697 38.4079 1.44304 38.6746 1.31755C38.9412 1.88226 39.004 2.65089 38.9883 3.16854ZM37.702 0.690104C37.9216 0.690104 38.1099 0.737163 38.2667 0.83128C38.0157 0.956771 37.7648 1.16069 37.5295 1.39599C36.9334 2.03912 36.4785 3.04304 36.2903 3.99991C35.7256 4.17246 35.1608 4.34501 34.6432 4.50187C34.9883 2.99599 36.2589 0.721476 37.702 0.690104ZM35.8824 9.31756C35.9452 10.3215 38.5961 10.5411 38.753 12.9097C38.8628 14.7764 37.7648 16.047 36.1805 16.1411C34.2667 16.2666 33.2157 15.1372 33.2157 15.1372L33.6236 13.4117C33.6236 13.4117 34.6746 14.2117 35.5216 14.1489C36.0706 14.1176 36.2746 13.6627 36.2589 13.3489C36.1805 12.0313 34.0157 12.1097 33.8746 9.94501C33.7491 8.1254 34.9412 6.2901 37.5765 6.11756C38.5961 6.05481 39.1138 6.30579 39.1138 6.30579L38.5177 8.56461C38.5177 8.56461 37.8432 8.25089 37.0432 8.31363C35.8824 8.39207 35.8667 9.12932 35.8824 9.31756ZM39.6157 2.9803C39.6157 2.50971 39.553 1.8352 39.3334 1.2705C40.055 1.41167 40.4001 2.21167 40.5569 2.69795C40.2746 2.77638 39.9608 2.8705 39.6157 2.9803Z" fill="#7C4DFF"/>
<path d="M42.2668 19.451L47.1923 18.2275C47.1923 18.2275 45.0747 3.90591 45.059 3.81179C45.0433 3.71767 44.9649 3.65492 44.8865 3.65492C44.808 3.65492 43.4276 3.62355 43.4276 3.62355C43.4276 3.62355 42.5806 2.80787 42.2668 2.49414V19.451Z" fill="#7C4DFF"/>
</g>
<defs>
<clipPath id="clip0">
<rect width="70.0078" height="20" fill="white" transform="translate(30)"/>
</clipPath>
</defs>
</svg>
