<svg width="91" height="91" viewBox="0 0 91 91" fill="none" xmlns="http://www.w3.org/2000/svg">
<path d="M45.5 0L51.3278 4.96681L58.3188 1.84307L62.5112 8.25057L70.0992 7.22297L72.3165 14.5521L79.8866 15.7038L79.9493 23.3608L86.8883 26.5986L84.7912 33.9631L90.5369 39.0247L86.45 45.5L90.5369 51.9753L84.7912 57.0369L86.8883 64.4014L79.9493 67.6392L79.8866 75.2962L72.3165 76.4479L70.0992 83.777L62.5112 82.7494L58.3188 89.1569L51.3278 86.0332L45.5 91L39.6722 86.0332L32.6812 89.1569L28.4888 82.7494L20.9008 83.777L18.6835 76.4479L11.1134 75.2962L11.0507 67.6392L4.11174 64.4014L6.20876 57.0369L0.463123 51.9753L4.55 45.5L0.463123 39.0247L6.20876 33.9631L4.11174 26.5986L11.0507 23.3608L11.1134 15.7038L18.6835 14.5521L20.9008 7.22297L28.4888 8.25057L32.6812 1.84307L39.6722 4.96681L45.5 0Z" fill="#42CA9A"/>
<path d="M43.9624 35.8241C43.9624 37.6356 43.3073 39.094 41.997 40.1991C40.6868 41.2928 38.8525 41.948 36.4941 42.1644V45.6678H34.1528V42.2328C31.3729 42.1758 28.9347 41.6859 26.8384 40.7631V36.2513C27.8296 36.7413 29.0202 37.1742 30.4101 37.5502C31.8115 37.9261 33.0591 38.1483 34.1528 38.2167V32.9188L33.0078 32.4745C30.7519 31.5858 29.1512 30.6231 28.2055 29.5863C27.2713 28.5381 26.8042 27.245 26.8042 25.7069C26.8042 24.0549 27.4479 22.6991 28.7353 21.6395C30.0342 20.5686 31.84 19.9191 34.1528 19.6913V17.0765H36.4941V19.6229C39.1032 19.7369 41.4616 20.2609 43.5693 21.1952L41.9629 25.1942C40.1855 24.465 38.3626 24.0207 36.4941 23.8612V28.9027C38.7158 29.7572 40.2938 30.4978 41.228 31.1244C42.1736 31.751 42.8629 32.4403 43.2959 33.1923C43.7402 33.9442 43.9624 34.8215 43.9624 35.8241ZM38.8183 36.0804C38.8183 35.6019 38.6246 35.1975 38.2373 34.8671C37.8499 34.5367 37.2689 34.1949 36.4941 33.8417V38.097C38.0436 37.835 38.8183 37.1628 38.8183 36.0804ZM31.9482 25.7069C31.9482 26.2082 32.1191 26.6241 32.4609 26.9545C32.8141 27.2735 33.3781 27.6039 34.1528 27.9457V23.9296C32.6831 24.146 31.9482 24.7385 31.9482 25.7069ZM63.3259 31.1415C63.3259 35.5051 62.6081 38.7351 61.1725 40.8314C59.7484 42.9278 57.5495 43.976 54.5759 43.976C51.6934 43.976 49.5173 42.8936 48.0475 40.7289C46.5892 38.5642 45.86 35.3684 45.86 31.1415C45.86 26.7323 46.5721 23.4852 47.9963 21.4003C49.4204 19.3039 51.6136 18.2557 54.5759 18.2557C57.4583 18.2557 59.6344 19.3495 61.1042 21.537C62.5853 23.7245 63.3259 26.926 63.3259 31.1415ZM51.1066 31.1415C51.1066 34.2063 51.3687 36.4052 51.8927 37.7382C52.4282 39.0598 53.3226 39.7206 54.5759 39.7206C55.8063 39.7206 56.695 39.0484 57.2419 37.704C57.7887 36.3596 58.0622 34.1721 58.0622 31.1415C58.0622 28.0767 57.783 25.8778 57.2248 24.5448C56.6779 23.2004 55.7949 22.5282 54.5759 22.5282C53.334 22.5282 52.4453 23.2004 51.9098 24.5448C51.3744 25.8778 51.1066 28.0767 51.1066 31.1415ZM21.3018 52.2933H20.0128V56.6342H18.5235V52.2933H17.7032V51.5756L18.5235 51.1752V50.7748C18.5235 50.153 18.6765 49.6989 18.9825 49.4125C19.2885 49.126 19.7784 48.9828 20.4522 48.9828C20.9665 48.9828 21.4239 49.0593 21.8243 49.2123L21.4434 50.306C21.144 50.2116 20.8673 50.1644 20.6134 50.1644C20.4018 50.1644 20.2488 50.2279 20.1544 50.3549C20.06 50.4786 20.0128 50.6381 20.0128 50.8334V51.1752H21.3018V52.2933ZM22.0928 49.764C22.0928 49.279 22.363 49.0365 22.9034 49.0365C23.4438 49.0365 23.7139 49.279 23.7139 49.764C23.7139 49.9952 23.6456 50.1758 23.5089 50.306C23.3754 50.433 23.1736 50.4965 22.9034 50.4965C22.363 50.4965 22.0928 50.2523 22.0928 49.764ZM23.6456 56.6342H22.1563V51.1752H23.6456V56.6342ZM28.055 51.0726C28.2568 51.0726 28.4244 51.0873 28.5579 51.1166L28.4456 52.5131C28.3251 52.4805 28.1787 52.4642 28.0061 52.4642C27.5309 52.4642 27.1598 52.5863 26.8928 52.8304C26.6292 53.0746 26.4973 53.4164 26.4973 53.8558V56.6342H25.0081V51.1752H26.136L26.3557 52.0931H26.429C26.5982 51.7872 26.8261 51.5414 27.1126 51.3558C27.4023 51.167 27.7164 51.0726 28.055 51.0726ZM33.1577 55.0131C33.1577 55.573 32.9624 55.9994 32.5718 56.2924C32.1844 56.5853 31.6033 56.7318 30.8286 56.7318C30.4315 56.7318 30.0929 56.7041 29.813 56.6488C29.533 56.5967 29.271 56.5186 29.0268 56.4144V55.184C29.3035 55.3142 29.6144 55.4232 29.9594 55.5111C30.3078 55.599 30.6137 55.6429 30.8774 55.6429C31.4178 55.6429 31.688 55.4867 31.688 55.1742C31.688 55.057 31.6522 54.9626 31.5805 54.891C31.5089 54.8161 31.3852 54.7331 31.2094 54.642C31.0337 54.5476 30.7993 54.4385 30.5063 54.3148C30.0864 54.139 29.7772 53.9763 29.5786 53.8265C29.3833 53.6768 29.24 53.5059 29.1489 53.3138C29.061 53.1185 29.0171 52.8793 29.0171 52.5961C29.0171 52.111 29.2042 51.7367 29.5786 51.473C29.9562 51.2061 30.49 51.0726 31.1802 51.0726C31.8377 51.0726 32.4774 51.2159 33.0991 51.5023L32.6499 52.5765C32.3764 52.4594 32.1209 52.3633 31.8833 52.2885C31.6456 52.2136 31.4031 52.1761 31.1557 52.1761C30.7163 52.1761 30.4966 52.295 30.4966 52.5326C30.4966 52.6661 30.5665 52.7816 30.7065 52.8793C30.8497 52.9769 31.1606 53.1218 31.6391 53.3138C32.0656 53.4864 32.3781 53.6475 32.5766 53.7972C32.7752 53.947 32.9217 54.1195 33.0161 54.3148C33.1105 54.5101 33.1577 54.7429 33.1577 55.0131ZM36.4196 55.5453C36.68 55.5453 36.9925 55.4883 37.3571 55.3744V56.4828C36.986 56.6488 36.5303 56.7318 35.9899 56.7318C35.3942 56.7318 34.9596 56.5821 34.6862 56.2826C34.416 55.9799 34.2809 55.5274 34.2809 54.9252V52.2933H33.568V51.6635L34.3884 51.1654L34.818 50.0131H35.7702V51.1752H37.2985V52.2933H35.7702V54.9252C35.7702 55.1368 35.8288 55.293 35.946 55.3939C36.0664 55.4948 36.2243 55.5453 36.4196 55.5453ZM45.5509 56.6342H44.0616V53.4457C44.0616 53.0518 43.9949 52.7572 43.8614 52.5619C43.7312 52.3633 43.5245 52.264 43.2413 52.264C42.8604 52.264 42.5837 52.404 42.4112 52.684C42.2387 52.9639 42.1524 53.4245 42.1524 54.0658V56.6342H40.6632V51.1752H41.8009L42.001 51.8734H42.0841C42.2305 51.6228 42.4421 51.4274 42.7188 51.2875C42.9955 51.1442 43.3129 51.0726 43.671 51.0726C44.488 51.0726 45.0414 51.3396 45.3311 51.8734H45.463C45.6094 51.6195 45.8243 51.4226 46.1075 51.2826C46.394 51.1426 46.7162 51.0726 47.0743 51.0726C47.6928 51.0726 48.1599 51.2321 48.4757 51.5511C48.7947 51.8669 48.9542 52.3747 48.9542 53.0746V56.6342H47.46V53.4457C47.46 53.0518 47.3933 52.7572 47.2598 52.5619C47.1296 52.3633 46.9229 52.264 46.6397 52.264C46.2751 52.264 46.0017 52.3942 45.8194 52.6547C45.6404 52.9151 45.5509 53.3285 45.5509 53.8949V56.6342ZM51.4739 53.8949C51.4739 54.4353 51.5618 54.8438 51.7376 55.1205C51.9166 55.3972 52.2063 55.5355 52.6067 55.5355C53.0038 55.5355 53.2887 55.3988 53.4612 55.1254C53.637 54.8487 53.7249 54.4385 53.7249 53.8949C53.7249 53.3545 53.637 52.9493 53.4612 52.6791C53.2854 52.4089 52.9973 52.2738 52.5969 52.2738C52.1998 52.2738 51.9134 52.4089 51.7376 52.6791C51.5618 52.946 51.4739 53.3513 51.4739 53.8949ZM55.2483 53.8949C55.2483 54.7836 55.0139 55.4786 54.5452 55.9799C54.0764 56.4812 53.4238 56.7318 52.5872 56.7318C52.0631 56.7318 51.6009 56.6179 51.2005 56.39C50.8001 56.1589 50.4925 55.8285 50.2776 55.3988C50.0628 54.9691 49.9553 54.4678 49.9553 53.8949C49.9553 53.003 50.1881 52.3096 50.6536 51.8148C51.1191 51.32 51.7734 51.0726 52.6165 51.0726C53.1406 51.0726 53.6028 51.1866 54.0032 51.4144C54.4036 51.6423 54.7112 51.9694 54.926 52.3959C55.1409 52.8223 55.2483 53.322 55.2483 53.8949ZM61.3178 56.6342H59.8286V53.4457C59.8286 53.0518 59.7586 52.7572 59.6186 52.5619C59.4787 52.3633 59.2557 52.264 58.9497 52.264C58.533 52.264 58.2319 52.404 58.0464 52.684C57.8608 52.9607 57.768 53.4213 57.768 54.0658V56.6342H56.2788V51.1752H57.4165L57.6167 51.8734H57.6997C57.8657 51.6097 58.0936 51.4112 58.3833 51.2777C58.6762 51.141 59.0083 51.0726 59.3794 51.0726C60.0141 51.0726 60.4959 51.2452 60.8247 51.5902C61.1535 51.932 61.3178 52.4268 61.3178 53.0746V56.6342ZM64.9509 55.5453C65.2113 55.5453 65.5238 55.4883 65.8884 55.3744V56.4828C65.5173 56.6488 65.0615 56.7318 64.5212 56.7318C63.9255 56.7318 63.4909 56.5821 63.2175 56.2826C62.9473 55.9799 62.8122 55.5274 62.8122 54.9252V52.2933H62.0993V51.6635L62.9196 51.1654L63.3493 50.0131H64.3014V51.1752H65.8298V52.2933H64.3014V54.9252C64.3014 55.1368 64.36 55.293 64.4772 55.3939C64.5977 55.4948 64.7555 55.5453 64.9509 55.5453ZM71.8358 56.6342H70.3466V53.4457C70.3466 52.6579 70.0536 52.264 69.4677 52.264C69.051 52.264 68.7499 52.4056 68.5643 52.6888C68.3788 52.972 68.286 53.431 68.286 54.0658V56.6342H66.7968V49.0365H68.286V50.5844C68.286 50.7048 68.2746 50.988 68.2518 51.434L68.2177 51.8734H68.2958C68.6278 51.3396 69.1552 51.0726 69.8778 51.0726C70.5191 51.0726 71.0057 51.2452 71.3378 51.5902C71.6698 51.9353 71.8358 52.4301 71.8358 53.0746V56.6342ZM19.8835 66.6342H18.3942V63.4457C18.3942 63.0518 18.3275 62.7572 18.194 62.5619C18.0638 62.3633 17.8571 62.264 17.5739 62.264C17.193 62.264 16.9163 62.404 16.7438 62.684C16.5713 62.9639 16.485 63.4245 16.485 64.0658V66.6342H14.9958V61.1752H16.1335L16.3337 61.8734H16.4167C16.5632 61.6228 16.7747 61.4274 17.0514 61.2875C17.3281 61.1442 17.6455 61.0726 18.0036 61.0726C18.8206 61.0726 19.374 61.3396 19.6637 61.8734H19.7956C19.9421 61.6195 20.1569 61.4226 20.4401 61.2826C20.7266 61.1426 21.0488 61.0726 21.4069 61.0726C22.0254 61.0726 22.4925 61.2321 22.8083 61.5511C23.1273 61.8669 23.2868 62.3747 23.2868 63.0746V66.6342H21.7927V63.4457C21.7927 63.0518 21.7259 62.7572 21.5925 62.5619C21.4622 62.3633 21.2555 62.264 20.9723 62.264C20.6078 62.264 20.3343 62.3942 20.152 62.6547C19.973 62.9151 19.8835 63.3285 19.8835 63.8949V66.6342ZM26.8807 62.1322C26.565 62.1322 26.3176 62.2331 26.1385 62.4349C25.9595 62.6335 25.857 62.9167 25.8309 63.2845H27.9208C27.9143 62.9167 27.8182 62.6335 27.6327 62.4349C27.4471 62.2331 27.1965 62.1322 26.8807 62.1322ZM27.0907 66.7318C26.2118 66.7318 25.5249 66.4893 25.0302 66.0043C24.5354 65.5192 24.288 64.8324 24.288 63.9437C24.288 63.029 24.5158 62.3226 24.9716 61.8246C25.4305 61.3233 26.0637 61.0726 26.871 61.0726C27.6425 61.0726 28.243 61.2924 28.6727 61.7318C29.1024 62.1713 29.3173 62.7784 29.3173 63.5531V64.2758H25.7968C25.813 64.6989 25.9384 65.0293 26.1727 65.267C26.4071 65.5046 26.7359 65.6234 27.1591 65.6234C27.4878 65.6234 27.7987 65.5892 28.0917 65.5209C28.3846 65.4525 28.6906 65.3435 29.0096 65.1937V66.3461C28.7492 66.4763 28.4709 66.5723 28.1747 66.6342C27.8785 66.6993 27.5171 66.7318 27.0907 66.7318ZM35.2159 66.6342H33.7266V63.4457C33.7266 63.0518 33.6599 62.7572 33.5264 62.5619C33.3962 62.3633 33.1895 62.264 32.9063 62.264C32.5255 62.264 32.2488 62.404 32.0762 62.684C31.9037 62.9639 31.8175 63.4245 31.8175 64.0658V66.6342H30.3282V61.1752H31.4659L31.6661 61.8734H31.7491C31.8956 61.6228 32.1072 61.4274 32.3839 61.2875C32.6606 61.1442 32.9779 61.0726 33.336 61.0726C34.1531 61.0726 34.7065 61.3396 34.9962 61.8734H35.128C35.2745 61.6195 35.4893 61.4226 35.7725 61.2826C36.059 61.1426 36.3813 61.0726 36.7393 61.0726C37.3578 61.0726 37.8249 61.2321 38.1407 61.5511C38.4597 61.8669 38.6192 62.3747 38.6192 63.0746V66.6342H37.1251V63.4457C37.1251 63.0518 37.0583 62.7572 36.9249 62.5619C36.7947 62.3633 36.588 62.264 36.3048 62.264C35.9402 62.264 35.6667 62.3942 35.4844 62.6547C35.3054 62.9151 35.2159 63.3285 35.2159 63.8949V66.6342ZM42.9895 61.0726C43.6341 61.0726 44.1386 61.3249 44.5032 61.8295C44.8678 62.3308 45.0501 63.0192 45.0501 63.8949C45.0501 64.7966 44.8613 65.4948 44.4837 65.9896C44.1093 66.4844 43.5982 66.7318 42.9505 66.7318C42.3092 66.7318 41.8063 66.4991 41.4417 66.0336H41.3391L41.0901 66.6342H39.9524V59.0365H41.4417V60.8041C41.4417 61.0287 41.4221 61.3884 41.3831 61.8832H41.4417C41.79 61.3428 42.3059 61.0726 42.9895 61.0726ZM42.511 62.264C42.1432 62.264 41.8746 62.378 41.7053 62.6058C41.5361 62.8304 41.4482 63.2032 41.4417 63.724V63.8851C41.4417 64.4711 41.5279 64.891 41.7005 65.1449C41.8762 65.3988 42.1529 65.5258 42.5305 65.5258C42.8365 65.5258 43.079 65.3858 43.2581 65.1058C43.4404 64.8226 43.5315 64.4125 43.5315 63.8754C43.5315 63.3383 43.4404 62.9362 43.2581 62.6693C43.0758 62.3991 42.8268 62.264 42.511 62.264ZM48.3413 62.1322C48.0255 62.1322 47.7781 62.2331 47.5991 62.4349C47.4201 62.6335 47.3175 62.9167 47.2915 63.2845H49.3813C49.3748 62.9167 49.2788 62.6335 49.0932 62.4349C48.9077 62.2331 48.657 62.1322 48.3413 62.1322ZM48.5512 66.7318C47.6723 66.7318 46.9855 66.4893 46.4907 66.0043C45.9959 65.5192 45.7485 64.8324 45.7485 63.9437C45.7485 63.029 45.9764 62.3226 46.4321 61.8246C46.8911 61.3233 47.5242 61.0726 48.3315 61.0726C49.103 61.0726 49.7036 61.2924 50.1333 61.7318C50.563 62.1713 50.7778 62.7784 50.7778 63.5531V64.2758H47.2573C47.2736 64.6989 47.3989 65.0293 47.6333 65.267C47.8677 65.5046 48.1964 65.6234 48.6196 65.6234C48.9484 65.6234 49.2593 65.5892 49.5522 65.5209C49.8452 65.4525 50.1512 65.3435 50.4702 65.1937V66.3461C50.2098 66.4763 49.9315 66.5723 49.6352 66.6342C49.339 66.6993 48.9777 66.7318 48.5512 66.7318ZM54.8356 61.0726C55.0374 61.0726 55.2051 61.0873 55.3385 61.1166L55.2262 62.5131C55.1058 62.4805 54.9593 62.4642 54.7868 62.4642C54.3115 62.4642 53.9404 62.5863 53.6735 62.8304C53.4098 63.0746 53.278 63.4164 53.278 63.8558V66.6342H51.7887V61.1752H52.9167L53.1364 62.0931H53.2096C53.3789 61.7872 53.6068 61.5414 53.8932 61.3558C54.1829 61.167 54.4971 61.0726 54.8356 61.0726ZM59.9384 65.0131C59.9384 65.573 59.743 65.9994 59.3524 66.2924C58.965 66.5853 58.384 66.7318 57.6093 66.7318C57.2121 66.7318 56.8736 66.7041 56.5936 66.6488C56.3137 66.5967 56.0516 66.5186 55.8075 66.4144V65.184C56.0842 65.3142 56.3951 65.4232 56.7401 65.5111C57.0884 65.599 57.3944 65.6429 57.6581 65.6429C58.1984 65.6429 58.4686 65.4867 58.4686 65.1742C58.4686 65.057 58.4328 64.9626 58.3612 64.891C58.2896 64.8161 58.1659 64.7331 57.9901 64.642C57.8143 64.5476 57.58 64.4385 57.287 64.3148C56.8671 64.139 56.5578 63.9763 56.3593 63.8265C56.1639 63.6768 56.0207 63.5059 55.9296 63.3138C55.8417 63.1185 55.7977 62.8793 55.7977 62.5961C55.7977 62.111 55.9849 61.7367 56.3593 61.473C56.7369 61.2061 57.2707 61.0726 57.9608 61.0726C58.6184 61.0726 59.258 61.2159 59.8798 61.5023L59.4305 62.5765C59.1571 62.4594 58.9016 62.3633 58.6639 62.2885C58.4263 62.2136 58.1838 62.1761 57.9364 62.1761C57.4969 62.1761 57.2772 62.295 57.2772 62.5326C57.2772 62.6661 57.3472 62.7816 57.4872 62.8793C57.6304 62.9769 57.9413 63.1218 58.4198 63.3138C58.8462 63.4864 59.1587 63.6475 59.3573 63.7972C59.5559 63.947 59.7024 64.1195 59.7968 64.3148C59.8912 64.5101 59.9384 64.7429 59.9384 65.0131ZM65.9395 66.6342H64.4503V63.4457C64.4503 62.6579 64.1573 62.264 63.5714 62.264C63.1547 62.264 62.8536 62.4056 62.668 62.6888C62.4825 62.972 62.3897 63.431 62.3897 64.0658V66.6342H60.9005V59.0365H62.3897V60.5844C62.3897 60.7048 62.3783 60.988 62.3555 61.434L62.3214 61.8734H62.3995C62.7315 61.3396 63.2589 61.0726 63.9815 61.0726C64.6228 61.0726 65.1094 61.2452 65.4415 61.5902C65.7735 61.9353 65.9395 62.4301 65.9395 63.0746V66.6342ZM67.2093 59.764C67.2093 59.279 67.4794 59.0365 68.0198 59.0365C68.5602 59.0365 68.8303 59.279 68.8303 59.764C68.8303 59.9952 68.762 60.1758 68.6253 60.306C68.4918 60.433 68.29 60.4965 68.0198 60.4965C67.4794 60.4965 67.2093 60.2523 67.2093 59.764ZM68.762 66.6342H67.2727V61.1752H68.762V66.6342ZM73.1274 66.7318C72.4861 66.7318 71.9832 66.4991 71.6186 66.0336H71.5405C71.5926 66.4893 71.6186 66.753 71.6186 66.8246V69.0365H70.1294V61.1752H71.3403L71.5503 61.8832H71.6186C71.9669 61.3428 72.4829 61.0726 73.1665 61.0726C73.811 61.0726 74.3156 61.3217 74.6802 61.8197C75.0447 62.3177 75.227 63.0095 75.227 63.8949C75.227 64.4776 75.1408 64.9838 74.9682 65.4135C74.799 65.8431 74.5565 66.1703 74.2407 66.3949C73.9249 66.6195 73.5539 66.7318 73.1274 66.7318ZM72.688 62.264C72.3201 62.264 72.0516 62.378 71.8823 62.6058C71.713 62.8304 71.6251 63.2032 71.6186 63.724V63.8851C71.6186 64.4711 71.7049 64.891 71.8774 65.1449C72.0532 65.3988 72.3299 65.5258 72.7075 65.5258C73.3748 65.5258 73.7085 64.9756 73.7085 63.8754C73.7085 63.3383 73.6255 62.9362 73.4594 62.6693C73.2967 62.3991 73.0395 62.264 72.688 62.264Z" fill="white"/>
</svg>
