<?xml version="1.0" encoding="UTF-8" standalone="no"?>
<!-- Created with Inkscape (http://www.inkscape.org/) -->

<svg
   xmlns:dc="http://purl.org/dc/elements/1.1/"
   xmlns:cc="http://creativecommons.org/ns#"
   xmlns:rdf="http://www.w3.org/1999/02/22-rdf-syntax-ns#"
   xmlns:svg="http://www.w3.org/2000/svg"
   xmlns="http://www.w3.org/2000/svg"
   xmlns:sodipodi="http://sodipodi.sourceforge.net/DTD/sodipodi-0.dtd"
   xmlns:inkscape="http://www.inkscape.org/namespaces/inkscape"
   version="1.1"
   id="svg885"
   width="388"
   height="149"
   viewBox="0 0 388 149"
   sodipodi:docname="Aritzia_logo.svg"
   inkscape:version="0.92.4 5da689c313, 2019-01-14">
  <metadata
     id="metadata891">
    <rdf:RDF>
      <cc:Work
         rdf:about="">
        <dc:format>image/svg+xml</dc:format>
        <dc:type
           rdf:resource="http://purl.org/dc/dcmitype/StillImage" />
        <dc:title></dc:title>
      </cc:Work>
    </rdf:RDF>
  </metadata>
  <defs
     id="defs889" />
  <sodipodi:namedview
     pagecolor="#ffffff"
     bordercolor="#666666"
     borderopacity="1"
     objecttolerance="10"
     gridtolerance="10"
     guidetolerance="10"
     inkscape:pageopacity="0"
     inkscape:pageshadow="2"
     inkscape:window-width="1855"
     inkscape:window-height="1056"
     id="namedview887"
     showgrid="false"
     inkscape:zoom="2.330901"
     inkscape:cx="165.5097"
     inkscape:cy="80.804711"
     inkscape:window-x="65"
     inkscape:window-y="24"
     inkscape:window-maximized="1"
     inkscape:current-layer="svg885" />
  <g
     id="g895"
     transform="translate(0.42901865,0.42902072)">
    <path
       style="fill:#b9b9b9;fill-opacity:1"
       d="m 154.20587,135.87288 c -8.53273,-4.22362 -10.93674,-14.82855 -6.6018,-29.12288 0.42382,-1.39755 -0.0776,-1.75 -2.48977,-1.75 -2.50933,0 -3.31965,0.63458 -4.78849,3.75 -2.61194,5.53998 -10.13101,12.59902 -14.94183,14.02768 -5.5547,1.64956 -11.38266,1.53864 -15.78413,-0.30041 C 104.8428,120.48965 98.558062,114.7615 96.995528,110.9892 96.314535,109.34514 95.537548,108 95.268889,108 c -0.268659,0 -2.976841,2.27423 -6.018183,5.05385 C 78.736291,122.66343 67.251139,126.61317 52.5,125.6924 22.172401,123.79934 5.850199,104.05171 7.2945638,71 8.1500005,51.424859 13.532711,38.460215 25.99005,25.970582 37.378107,14.553004 47.043386,9.8638812 62,8.5003096 79.206338,6.9316341 93.2257,12.950374 99.267843,24.5 c 2.408077,4.603077 2.911447,15.530875 0.886717,19.25 -1.204468,2.21242 -1.130528,2.25 4.42689,2.25 5.37959,0 5.62172,0.108372 5.02704,2.25 -4.31006,15.521731 -5.57597,47.206602 -2.24738,56.25 2.20728,5.99692 4.98022,9.26444 9.49248,11.18558 5.76304,2.45367 14.08222,-0.73561 17.98097,-6.89327 l 1.98756,-3.13913 -3.16106,-1.65589 c -8.72015,-4.567968 -9.45438,-22.505156 -1.00798,-24.625067 6.3794,-1.601128 10.06092,2.456598 11.06623,12.197062 0.64256,6.225813 0.68091,6.23266 9.65153,1.723128 5.14097,-2.584367 8.95339,-2.495835 10.00024,0.232224 0.32543,0.848045 -0.96527,5.303095 -2.86821,9.900113 -5.46682,13.20645 -5.67231,24.80865 -0.48853,27.58293 3.93406,2.10544 8.79435,1.15995 12.84391,-2.49858 l 3.86401,-3.4909 -0.46619,-9.2591 c -0.4777,-9.48755 0.91632,-23.331491 2.50982,-24.924991 0.4905,-0.490496 3.49056,-0.586379 6.6668,-0.213074 l 5.77499,0.678737 -0.65946,4.100114 c -3.02777,18.824844 -2.64468,26.739634 1.50821,31.160184 4.32577,4.60457 11.2811,2.17005 16.82627,-5.88958 l 3.08268,-4.48052 -2.40754,-4.34499 C 205.69641,104.8761 204,96.376622 204,83.998667 c 0,-9.589233 -0.21864,-11.128746 -1.51008,-10.633171 -4.01173,1.539442 -15.41796,2.833831 -21.01373,2.384656 -7.00493,-0.562289 -15.22705,-3.975484 -20.20581,-8.387906 C 157.74102,64.234344 151,53.54228 151,51.072177 c 0,-0.850014 1.54111,0.742939 3.42469,3.539897 5.05006,7.498897 11.95714,13.152349 18.33356,15.006025 7.56469,2.199114 20.10002,1.520712 26.79097,-1.449907 l 5.04921,-2.24173 2.18469,-11.713231 c 3.4405,-18.446266 3.60521,-18.85037 7.97827,-19.573231 2.05623,-0.339894 5.02857,-0.622941 6.60519,-0.628994 3.29481,-0.01265 3.33849,-0.849878 -0.72668,13.927376 -1.42806,5.19111 -2.47617,9.558681 -2.32914,9.705713 0.14703,0.147033 2.21837,-0.404854 4.60297,-1.226415 4.65095,-1.602385 14.69113,-2.042848 19.58627,-0.859251 4.22932,1.022609 9.87617,3.978952 11.5669,6.055714 1.29753,1.593795 1.2439,1.6808 -0.5669,0.919722 -8.53803,-3.588519 -13.41973,-4.703732 -19,-4.340507 -6.10832,0.397597 -14.10617,3.608995 -17.0276,6.837141 -3.41631,3.774976 -4.22997,25.675809 -1.43763,38.696001 2.13054,9.93441 10.42358,15.86376 19.75059,14.12129 5.58607,-1.04359 8.61958,-3.7288 11.80166,-10.44663 1.45755,-3.0771 4.89295,-7.39674 8.66409,-10.894145 15.47149,-14.348479 17.3413,-16.42712 20.49889,-22.788417 3.53557,-7.122773 4.46547,-10.732307 1.08681,-4.218598 -2.79592,5.390241 -4.65601,7.365353 -9.04697,9.60641 -4.56423,2.32949 -9.09196,2.39177 -17.18106,0.23633 -7.62566,-2.031949 -11.32315,-1.328968 -12.2408,2.327266 -1.02322,4.076827 0.73143,5.845308 5.68612,5.730923 l 4.29134,-0.09907 -2.2835,1.849071 c -2.98436,2.41659 -6.16666,2.341141 -9.42708,-0.223509 C 235.50974,87.255805 235,86.013185 235,82.504343 c 0,-3.536321 0.58301,-4.933503 3.11526,-7.465755 l 3.11526,-3.115258 12.63474,0.217988 c 13.52319,0.233316 15.4734,-0.262225 22.89391,-5.817259 2.81564,-2.107801 3.34253,-2.222611 3.87169,-0.84365 1.46836,3.826497 -2.62248,17.250877 -7.41596,24.335965 -1.4932,2.207042 -4.7015,6.186557 -7.12957,8.843365 -5.83828,6.388281 -8.47365,12.408441 -7.76025,17.727271 0.58664,4.37372 3.49086,7.61299 6.82554,7.61299 5.14959,0 12.24866,-5.6944 17.34337,-13.9117 2.55342,-4.11841 2.74608,-5.21531 2.89821,-16.499998 0.15115,-11.211538 0.40299,-12.668542 3.47229,-20.088302 1.82012,-4.4 3.48175,-8.174044 3.69251,-8.386765 0.55118,-0.556318 11.40552,4.254099 11.42593,5.063735 0.009,0.372334 -1.52049,4.005685 -3.39973,8.074114 -4.40414,9.534642 -5.87534,17.288265 -4.4985,23.708246 1.37283,6.40131 3.84432,8.54067 9.86659,8.54067 6.85865,0 7.9571,-1.32003 7.93115,-9.53104 -0.0645,-20.397388 18.6784,-32.712157 33.68663,-22.133384 2.6033,1.834976 5.73749,3.164424 7.46017,3.164424 3.50996,0 3.53069,0.2174 0.94722,9.932371 -3.18593,11.980489 -2.57981,20.016059 1.65535,21.945729 6.0742,2.76759 13.01008,-0.60069 16.7154,-8.11753 1.40079,-2.84173 1.61017,-2.96642 1.63002,-0.97073 0.0526,5.28878 -5.79358,13.05996 -11.43236,15.19679 -4.91658,1.86314 -14.24304,-0.50816 -17.51779,-4.454 -1.20713,-1.45451 -1.51732,-1.42125 -3.42717,0.36745 C 340.68594,118.6292 336.64035,120 331.5,120 c -5.90477,0 -9.18041,-1.3997 -12.97783,-5.54552 l -3.1941,-3.48714 -4.81069,2.128 c -7.02361,3.10687 -14.43299,2.34802 -18.84707,-1.93027 C 289.87427,109.42428 288.13147,108 287.79741,108 c -0.33405,0 -1.84339,2.10911 -3.35407,4.6869 -3.82117,6.52033 -10.10578,13.09341 -14.89839,15.58223 -5.12588,2.66189 -13.03312,2.737 -17.3869,0.16516 C 249.04383,126.59467 246,121.69953 246,118.53078 c 0,-1.49236 -0.28805,-1.46489 -2.75,0.26232 -6.86759,4.81802 -18.80278,5.43836 -25.75159,1.33846 l -3.48578,-2.05666 -1.64333,3.21255 C 207.58507,130.64016 201.5962,135 193.53313,135 c -5.18432,0 -7.73642,-1.03556 -11.73229,-4.76057 l -2.69916,-2.51619 -5.01113,4.50544 c -6.94483,6.244 -12.55523,7.2722 -19.88468,3.6442 z M 79.45,113.56826 c 7.620828,-3.72852 13.955398,-9.95204 13.141102,-12.91071 C 90.609056,93.45595 89.802603,83.075271 90.287071,71 c 0.297895,-7.425 0.883294,-14.365624 1.300887,-15.423609 0.64604,-1.636764 0.472415,-1.787857 -1.164349,-1.013243 -1.057985,0.500702 -4.464368,0.916326 -7.56974,0.923609 C 76.19178,55.502383 73.383482,53.561054 72.387396,48.251463 71.619618,44.158851 74.114726,38 76.540525,38 c 1.425658,0 1.427172,0.208032 0.01618,2.222506 -2.088334,2.981514 -1.960832,4.994011 0.515876,8.142635 3.950424,5.02215 13.890235,2.475021 17.487465,-4.481255 1.178773,-2.279495 1.535526,-4.885868 1.235849,-9.028868 C 95.291772,27.885609 91.836493,22.914269 84.921335,19.209068 80.94354,17.077732 79.49101,16.875001 70.442104,17.18819 61.484866,17.498206 59.656583,17.894509 53.735111,20.80964 37.492081,28.806058 27.541664,48.077944 27.562781,71.5 c 0.01918,21.269767 7.796237,35.98861 22.797657,43.14676 4.518588,2.15612 6.233728,2.41167 14.195559,2.1151 7.50503,-0.27955 10.055839,-0.8265 14.894003,-3.1936 z m 262.23349,-1.05912 c 1.87603,-1.31402 2.06625,-2.17747 1.60366,-7.27903 -0.31922,-3.52044 0.11543,-8.884226 1.1094,-13.690598 1.30577,-6.314006 1.37991,-8.068742 0.36886,-8.729813 -4.94729,-3.234753 -11.61611,-0.691408 -15.90028,6.064024 C 322.47383,98.951751 326.71808,114 335.95181,114 c 1.98175,0 4.56101,-0.67089 5.73168,-1.49086 z M 139.1508,94.75 C 139.62743,87.638485 138.01719,83 135.07181,83 c -3.85248,0 -4.27422,7.888498 -0.61726,11.545455 3.05317,3.053176 4.5011,3.116241 4.69625,0.204545 z M 182.63486,61.92742 C 177.78315,58.111067 180.29841,51 186.5,51 c 6.09726,0 8.4522,6.138713 4.04545,10.545455 -2.9947,2.994701 -4.49683,3.067231 -7.91059,0.381965 z M 301.81107,58.75 c -0.86415,-0.6875 -1.86112,-2.496997 -2.21548,-4.021105 -0.91288,-3.926345 3.32677,-8.204369 7.20473,-7.26994 3.36635,0.811152 5.19968,3.130167 5.19968,6.577187 0,4.905177 -6.29043,7.815412 -10.18893,4.713858 z"
       id="path909"
       inkscape:connector-curvature="0" />
    <path
       style="fill:#a3a3a3;fill-opacity:1"
       d="m 151.65802,134.0046 c -4.89115,-4.29449 -5.95675,-7.60464 -5.3828,-16.72102 0.26953,-4.28097 0.82034,-8.79608 1.22404,-10.03358 0.65206,-1.99881 0.39671,-2.25 -2.28717,-2.25 -2.61911,0 -3.43425,0.73193 -6.12511,5.49987 -5.16422,9.1505 -14.1275,14.24765 -23.17088,13.1766 -8.27839,-0.98045 -15.32889,-5.73547 -18.955249,-12.78385 l -1.855984,-3.60739 -5.634238,5.45719 C 74.735716,127.01431 50.795741,129.99286 31.027303,120.01378 14.672501,111.7579 6.0911641,94.134725 7.271782,71.227935 8.2928563,51.416672 13.821291,38.27729 26.5,25.528402 34.010851,17.975978 41.853846,13.229964 51.357325,10.486546 c 8.349464,-2.4102819 27.273805,-1.7605934 33.69348,1.156726 6.031348,2.740849 11.594315,7.740782 14.1194,12.690357 2.287575,4.484018 2.747345,14.145589 0.903275,18.981471 -0.590413,1.548304 -1.074278,2.898304 -1.075252,3 -9.75e-4,0.101695 2.361522,0.1849 5.250002,0.1849 3.59166,0 5.17614,0.384951 5.0125,1.217796 -3.83419,19.515037 -5.31612,42.130701 -3.36034,51.282204 2.803,13.1158 8.68455,18.88917 17.84387,17.51564 3.46535,-0.51966 5.4438,-1.65107 8.85878,-5.06605 2.41833,-2.41833 4.39411,-4.7463 4.39064,-5.17327 -0.003,-0.42698 -1.34409,-1.5375 -2.97913,-2.46783 -5.1291,-2.91843 -7.17632,-7.365897 -6.76294,-14.692109 0.40234,-7.130578 2.67609,-10.144023 7.60917,-10.084578 5.33135,0.06424 8.42493,4.716364 8.42493,12.669387 0,6.33731 0.46899,6.461027 8.71429,2.29881 6.97428,-3.520603 8.11139,-3.639381 10.41998,-1.088421 1.64857,1.821651 1.58981,2.233288 -1.24912,8.750001 -5.70263,13.09027 -6.67408,21.3607 -3.18182,27.08842 1.73906,2.85227 2.50566,3.25 6.26413,3.25 3.98178,0 11.59471,-3.7243 11.82741,-5.78605 0.0443,-0.39267 0.20528,-7.01395 0.3577,-14.71395 0.15241,-7.7 0.6224,-15.4625 1.04442,-17.25 L 178.25,91 h 6.50584 6.50584 l -0.64222,3.75 c -3.0721,17.93821 -3.02184,25.04559 0.21594,30.54117 3.82836,6.49798 12.05452,4.24717 18.50704,-5.06381 l 2.71925,-3.92388 -2.50799,-4.90174 C 205.60139,103.67713 204,95.684124 204,83.681493 V 72.783184 l -2.72532,0.684013 C 180.21141,78.753741 166.94508,75.199746 156.4027,61.446173 154.22195,58.601177 150.53085,51 151.33007,51 c 0.19631,0 1.83777,2.1375 3.64771,4.75 7.46709,10.778145 16.86441,15.563456 30.16566,15.360987 6.36873,-0.09694 16.98225,-2.836677 19.06761,-4.92204 0.45523,-0.455225 1.49107,-4.846466 2.30186,-9.758314 1.7258,-10.454921 4.0077,-19.351243 5.29336,-20.636903 C 212.8507,34.749296 224,33.409852 224,34.328811 c 0,0.334739 -1.39433,5.603366 -3.09851,11.708059 -1.70418,6.104693 -2.92445,11.273498 -2.71172,11.486234 0.21274,0.212735 2.16957,-0.248184 4.34851,-1.024264 9.29873,-3.311949 26.3038,-0.744593 31.0757,4.691682 1.85517,2.113464 1.85331,2.135565 -0.11398,1.351156 -11.70398,-4.666684 -12.05824,-4.746016 -19.1981,-4.299187 -5.9275,0.370957 -8.17237,1.040944 -12.71745,3.795554 -5.04036,3.054778 -5.58727,3.740681 -6.3019,7.903517 -1.26006,7.340012 -0.88377,28.042795 0.61715,33.954828 2.50916,9.88337 11.11562,16.32659 19.43398,14.54922 5.87453,-1.2552 8.76101,-3.738 12.15964,-10.45914 3.21012,-6.34833 7.58208,-11.112672 17.83655,-19.437349 5.69589,-4.623984 10.20463,-10.880567 13.34982,-18.524958 2.7364,-6.650845 3.16518,-3.688028 0.7874,5.440875 -2.10575,8.08454 -5.91038,14.713343 -12.82722,22.348857 -3.22307,3.557955 -6.48557,7.965905 -7.25,9.795445 -3.71768,8.89766 0.0993,17.22208 7.35668,16.04436 4.82214,-0.78252 9.88177,-4.98966 14.88303,-12.37539 l 4.12958,-6.09846 -0.51176,-8.975433 c -0.42368,-7.430708 -0.1274,-10.240819 1.72147,-16.327822 1.22827,-4.043815 3.08856,-9.028998 4.13397,-11.078184 l 1.90076,-3.725793 4.7482,2.027276 c 2.61151,1.115001 5.09964,2.372602 5.52918,2.794669 0.42954,0.422066 -0.80339,4.105953 -2.73983,8.186415 -4.55961,9.60799 -6.09541,17.657715 -4.54553,23.824822 1.43238,5.69957 3.33529,7.87805 7.57649,8.67371 3.73909,0.70145 10.38781,-1.13816 10.50667,-2.90706 0.0433,-0.64485 0.0143,-3.92995 -0.0645,-7.30023 -0.24326,-10.404675 4.72836,-18.946907 13.36868,-22.970062 2.81437,-1.310441 6.82246,-2.387016 8.90687,-2.392389 3.98473,-0.01027 10.43915,2.753831 12.6495,5.417143 C 349.71604,81.362773 351.81561,82 354.12244,82 356.2551,82 358,82.455696 358,83.012658 c 0,0.556963 -0.9,4.260418 -2,8.229901 -1.1,3.969483 -2,10.038791 -2,13.487341 0,7.66061 1.97312,10.27366 7.75,10.26351 4.65338,-0.008 8.90073,-2.72235 12.03296,-7.68939 2.33357,-3.70053 2.3811,-3.7224 1.74707,-0.80402 -1.11239,5.12023 -5.12059,10.12338 -10.00415,12.48747 -4.14713,2.00759 -5.07537,2.11181 -9.31598,1.04595 -2.59044,-0.6511 -6.14473,-2.27677 -7.89841,-3.61261 -2.12674,-1.62001 -3.41658,-2.05979 -3.87338,-1.32068 -1.26472,2.04637 -8.89811,4.85574 -13.25385,4.87791 -5.11781,0.026 -7.46735,-1.05247 -12.25743,-5.62655 l -3.57317,-3.41204 -4.42683,2.00831 c -7.68462,3.48627 -15.60742,2.37763 -20.33418,-2.84538 C 289.54621,108.94607 288.37243,108 287.98426,108 c -0.38818,0 -2.56572,2.87601 -4.839,6.39112 C 275.84376,125.68129 269.28274,130 259.43212,130 c -5.07385,0 -5.96976,-0.33764 -9.03837,-3.40625 -1.87344,-1.87344 -3.68469,-4.79844 -4.025,-6.5 C 246.02844,118.39219 245.60123,117 245.41941,117 c -0.18183,0 -1.97084,1.1131 -3.97558,2.47356 -2.00474,1.36045 -5.2159,2.76826 -7.1359,3.12845 -5.12029,0.96057 -12.97603,-0.23377 -16.70785,-2.54016 l -3.26204,-2.01605 -4.02937,6.32029 c -3.03213,4.75607 -5.13203,6.85408 -8.48474,8.4771 -7.48269,3.62231 -15.57723,2.39477 -20.67393,-3.13521 l -2.35001,-2.54978 -3.04844,3.47198 C 171.47566,135.50016 168.02213,137 161.08446,137 c -5.25517,0 -6.44576,-0.37833 -9.42644,-2.9954 z M 76.843671,114.77514 c 2.939019,-1.09391 7.664019,-3.89013 10.5,-6.21381 5.775781,-4.73244 5.658103,-4.15383 3.673362,-18.06133 -1.25785,-8.814025 -0.890707,-29.017875 0.625455,-34.41867 0.588347,-2.09578 0.423909,-2.31324 -1.231748,-1.628918 -1.050907,0.434364 -4.037061,1.016445 -6.635898,1.293513 -4.373842,0.466305 -4.987229,0.241688 -8.25,-3.021083 C 71.7903,48.9903 71.142699,45.975676 73.13545,41.602065 74.466262,38.681251 77.692335,36.878416 76.469911,39.738659 73.570439,46.522881 76.314608,51 83.372345,51 c 3.420517,0 5.071351,-0.671591 8.112203,-3.3002 3.4085,-2.946415 3.868029,-3.906273 4.28661,-8.953814 C 96.377979,31.428525 95.659473,28.820691 91.837107,24.467257 85.972756,17.788129 77.535077,15.364031 65.896533,17.014674 53.73345,18.73971 44.132751,25.147562 36.819714,36.421589 28.641415,49.029535 25.152136,68.731012 28.393221,84 c 5.710656,26.90331 25.345252,39.37497 48.45045,30.77514 z M 341.7788,112.75276 c 2.10117,-1.03412 2.22858,-1.56531 1.63466,-6.81492 -0.42562,-3.76197 -0.0761,-8.496559 1.03021,-13.956599 0.98571,-4.864689 1.30611,-8.631456 0.77903,-9.158541 -2.17283,-2.172828 -7.7014,-1.99992 -11.16863,0.349303 -8.90429,6.033102 -11.35657,20.434387 -4.71465,27.687357 3.8007,4.15037 6.89622,4.62154 12.43938,1.8934 z M 139.55565,94.634288 c 0.75025,-2.989243 -1.09668,-10.008485 -3.06283,-11.640244 -4.46596,-3.706419 -6.39031,7.19937 -2.03827,11.551411 3.07618,3.076182 4.34578,3.098292 5.1011,0.08883 z m 97.8989,-6.088833 c -3.78532,-3.785319 -3.37061,-8.829395 1.09291,-13.292915 l 3.54746,-3.54746 10.80236,0.656089 c 11.96348,0.726611 16.71368,-0.301585 22.78405,-4.931678 4.19001,-3.195876 4.34976,-1.446906 0.43209,4.730618 -1.96404,3.096968 -4.36754,5.268587 -7.52039,6.794854 -5.0108,2.425689 -8.33089,2.423328 -18.77402,-0.01335 C 242.48195,77.229672 239,78.50592 239,82.907133 c 0,3.804537 2.51195,6.379444 5.35537,5.489583 1.17955,-0.369144 2.81963,-0.872085 3.64463,-1.117647 0.825,-0.245561 0.43765,0.491191 -0.86078,1.637228 -3.13649,2.768361 -6.6812,2.632628 -9.68467,-0.370842 z m -53.24997,-25.66548 c -5.31594,-1.966492 -5.07786,-10.120723 0.33515,-11.479303 5.89923,-1.480612 10.33184,4.094011 7.13491,8.97314 -1.82274,2.781845 -4.39341,3.644291 -7.47006,2.506163 z m 117.36685,-4.451404 c -2.37122,-2.371216 -2.02106,-8.00023 0.6124,-9.84478 4.20116,-2.942604 9.81617,0.176232 9.81617,5.452351 0,5.097161 -6.84203,7.978969 -10.42857,4.392429 z"
       id="path907"
       inkscape:connector-curvature="0" />
    <path
       style="fill:#8c8c8c;fill-opacity:1"
       d="m 151.59585,133.95002 c -1.91056,-1.6775 -4.00644,-4.66409 -4.65752,-6.63688 -1.14637,-3.47354 -0.81295,-14.50771 0.61815,-20.45651 0.6031,-2.50698 0.479,-2.61018 -2.40488,-2 -2.32236,0.49136 -3.98028,2.09913 -7.01723,6.80494 -10.38149,16.08631 -29.67819,16.3543 -40.097676,0.55689 l -3.463306,-5.25087 -3.536694,3.81417 c -5.401822,5.82563 -10.002728,8.91868 -17.418613,11.71002 -17.630715,6.63618 -39.095844,2.73567 -51.974585,-9.44451 C 2.1191214,94.581929 2.263595,54.715122 21.943518,30.257624 27.428234,23.441416 38.757021,15.038994 46.770078,11.844068 51.763101,9.853275 54.300474,9.5556389 66.5,9.5297313 c 13.394572,-0.028446 14.251017,0.093448 19.804548,2.8186957 6.691579,3.283713 13.244983,10.733445 14.275842,16.22839 0.72291,3.853425 0.10305,13.977033 -1.015667,16.587992 -0.617065,1.440162 -0.169971,1.591931 3.313317,1.124723 6.59695,-0.884836 7.20085,-0.274837 5.62857,5.685399 -2.24836,8.523127 -3.78605,26.339909 -3.3012,38.24998 0.36097,8.866968 0.95089,12.402409 2.76209,16.553329 5.11094,11.71331 17.26905,13.60471 25.51641,3.96952 1.93385,-2.25927 3.49876,-4.36426 3.47757,-4.67776 -0.0212,-0.3135 -1.48369,-1.47234 -3.25,-2.57521 -8.5577,-5.343316 -9.10969,-22.150234 -0.78751,-23.97809 C 139.06895,78.167034 143,82.733919 143,91.222506 c 0,6.964047 0.57379,7.126047 9.62392,2.717126 5.09684,-2.483015 6.66815,-2.853687 8.32902,-1.964816 2.79363,1.495106 2.5795,3.976849 -1.05831,12.265254 -4.27282,9.73523 -5.14195,20.97263 -1.93433,25.00993 1.82915,2.30228 2.95254,2.75 6.90005,2.75 3.70511,0 5.43759,-0.60308 8.08738,-2.81523 l 3.37219,-2.81522 0.17616,-13.43478 c 0.0969,-7.38912 0.53241,-15.34727 0.96784,-17.68477 l 0.7917,-4.25 h 6.37219 c 3.5047,0 6.36433,0.3375 6.35473,0.75 -0.01,0.4125 -0.68289,4.8 -1.49619,9.75 -1.75414,10.67616 -1.83841,14.69199 -0.41584,19.81493 3.05066,10.986 13.61244,10.0243 20.98894,-1.91113 1.9163,-3.10063 1.9876,-3.6852 0.6928,-5.68007 -4.25189,-6.55083 -6.02482,-14.127535 -6.51412,-27.838582 l -0.48588,-13.614851 -4.62612,1.478398 c -6.81367,2.177484 -20.48161,2.150622 -26.79665,-0.05266 -6.17763,-2.155342 -12.94362,-7.861257 -17.21525,-14.518013 -4.49679,-7.00764 -3.83363,-8.508228 0.8621,-1.950728 4.37037,6.103156 11.18785,11.162904 17.4645,12.961674 7.01467,2.010272 18.28369,1.43166 25.02477,-1.284906 6.73764,-2.715179 6.12621,-1.477527 9.53001,-19.290678 1.14414,-5.98764 2.51158,-11.692559 3.03876,-12.677598 0.65843,-1.230291 2.69578,-2.008038 6.5078,-2.484318 3.05211,-0.381336 5.76416,-0.478471 6.02677,-0.215854 0.26262,0.262617 -0.95547,5.494523 -2.70687,11.626458 -1.7514,6.131935 -2.97835,11.354986 -2.72655,11.60678 0.25179,0.251794 2.64582,-0.200691 5.32007,-1.005521 9.79724,-2.948536 22.90087,-1.133824 29.04441,4.022341 l 3,2.517847 -5,-2.138762 c -3.15178,-1.34818 -7.95716,-2.30986 -13,-2.601632 -7.57255,-0.438138 -8.34731,-0.282498 -14.5,2.912864 l -6.5,3.375735 -1.28057,5.974139 c -1.49481,6.973565 -1.01392,28.891075 0.76342,34.794917 1.49944,4.98071 7.24027,11.26772 11.60385,12.70783 8.26193,2.72669 15.94854,-1.17355 20.30575,-10.30325 3.03366,-6.35648 5.30036,-8.815284 18.92007,-20.523634 4.90358,-4.215425 6.98127,-6.974529 10.1659,-13.5 4.09219,-8.385091 5.03774,-8.101827 2.66468,0.798277 -2.16004,8.10116 -6.50834,15.925423 -12.77184,22.981455 C 259.59632,105.6769 258,108.70605 258,114.31548 c 0,9.14652 6.72348,12.39724 14.59413,7.05608 4.22752,-2.86887 4.77478,-3.47696 9.80572,-10.89555 3.37861,-4.98209 3.4025,-5.09655 2.8643,-13.723231 -0.58574,-9.388651 0.79804,-16.31403 5.28868,-26.46815 l 2.31352,-5.231287 4.81683,2.090533 c 2.64925,1.149793 5.1716,2.41507 5.60522,2.811725 0.43361,0.396655 -0.78415,4.002543 -2.70615,8.013084 -6.5151,13.594724 -7.09253,24.674886 -1.57352,30.193896 3.20797,3.20797 8.64256,3.78983 12.97894,1.3896 2.3275,-1.28829 2.46806,-1.81719 2.1832,-8.21456 -0.33493,-7.521478 1.13791,-12.253763 5.65828,-18.180266 3.04377,-3.990595 11.1552,-8.133305 15.95297,-8.147585 4.01871,-0.01196 9.91764,2.359545 12.94609,5.204625 1.41284,1.327291 3.56617,2.118939 5.76365,2.118939 1.92948,0 3.50814,0.263932 3.50814,0.586516 0,0.322584 -0.9,3.733652 -2,7.580151 -1.11216,3.889015 -2,9.99151 -2,13.74682 0,8.08236 1.87515,10.75318 7.54966,10.75318 5.05716,0 8.92765,-2.34129 11.97667,-7.24475 2.3103,-3.71546 2.56508,-3.89009 2.00848,-1.37666 -0.85906,3.87927 -4.77921,9.48367 -8.22091,11.75291 -3.0716,2.02523 -10.52718,2.49831 -14.65277,0.92976 -1.35799,-0.51631 -3.40465,-1.94296 -4.54813,-3.17035 -1.93466,-2.0766 -2.20433,-2.11823 -3.88263,-0.59939 -2.91023,2.63372 -8.84163,4.70876 -13.44825,4.70474 -4.92537,-0.004 -9.62222,-2.5084 -12.82156,-6.83574 l -2.18772,-2.95904 -3.21058,1.89429 c -7.01006,4.13603 -16.87498,3.39361 -21.58952,-1.62479 C 289.69599,109.11194 288.33267,108 287.94314,108 c -0.38952,0 -2.63236,2.95329 -4.98409,6.56286 -4.46067,6.84649 -10.55674,12.57329 -15.30624,14.37904 -8.51154,3.23608 -17.86499,-0.15929 -20.54444,-7.4578 -0.80447,-2.19126 -1.55519,-4.11884 -1.66827,-4.28353 -0.11309,-0.16468 -1.86183,0.82451 -3.88609,2.19821 -6.46163,4.38499 -16.35661,4.60859 -23.36117,0.52789 -1.81894,-1.05967 -3.61894,-1.92151 -4,-1.9152 -0.38106,0.006 -1.54172,1.78367 -2.57925,3.94968 -2.39475,4.99949 -7.19206,9.94715 -11.33147,11.68662 -6.50586,2.73391 -14.49818,1.08809 -19.13212,-3.93979 l -2.35001,-2.54978 -3.04844,3.47198 C 171.47566,135.50016 168.02213,137 161.08446,137 c -5.27913,0 -6.43977,-0.37307 -9.48861,-3.04998 z m -82.48234,-16.9553 c 7.138745,-1.3323 16.580772,-6.04554 20.763236,-10.36451 l 3.376745,-3.48696 -1.342112,-6.821625 C 90.430009,88.792187 90.073653,68.732366 91.261308,59.72811 l 0.761309,-5.77189 -2.761309,0.77189 c -1.518719,0.424539 -4.722665,0.758522 -7.119879,0.742184 -3.631788,-0.02475 -4.840712,-0.569314 -7.25,-3.265776 -3.6154,-4.046336 -3.759732,-8.106014 -0.42303,-11.898754 1.357619,-1.54317 2.482619,-2.269822 2.5,-1.614781 C 76.985779,39.346024 76.55,40.160081 76,40.5 c -1.720865,1.063553 -1.09212,6.40788 1,8.5 1.409335,1.409335 3.333333,2 6.514685,2 3.701046,0 5.152337,-0.585717 8.052857,-3.25 C 98.64903,41.245274 98.09728,30.066294 90.339276,22.864162 84.936484,17.848486 81.176508,16.560821 71.974786,16.57494 59.38429,16.594259 52.47776,19.415869 43.717894,28.119076 32.977519,38.789982 27,54.12215 27,71 c 0,22.416159 9.989412,39.4986 26.419212,45.1783 5.937259,2.05249 8.388086,2.17998 15.694298,0.81642 z m 271.49305,-3.4748 3.54233,-1.48008 -0.66778,-5.34475 c -0.43335,-3.46838 -0.0832,-8.464384 0.99732,-14.230859 1.57991,-8.431418 1.5749,-8.952064 -0.0978,-10.175168 -4.71898,-3.450604 -12.5879,0.353939 -16.58539,8.018869 -4.32314,8.289339 -2.04444,20.339608 4.43696,23.463638 3.10508,1.49664 4.27419,1.46151 8.37435,-0.25165 z M 139.35355,91.098231 c -0.10851,-3.953339 -0.69037,-5.879496 -2.24603,-7.435158 -1.97734,-1.977334 -2.19872,-2.000448 -3.80218,-0.396981 -2.45034,2.450341 -2.03391,8.329479 0.80397,11.350259 3.67796,3.915013 5.41626,2.74887 5.24424,-3.51812 z M 240.2588,90.29542 C 237.22708,89.710753 235,86.272842 235,82.177494 c 0,-2.532822 0.88377,-4.261269 3.53385,-6.911345 l 3.53385,-3.533852 11.34346,0.698537 c 12.389,0.762922 15.68476,0.02159 22.28501,-5.012665 C 277.95339,65.696502 279,65.335207 279,66.277664 c 0,2.405482 -5.74514,10.152103 -8.91226,12.017088 -4.44444,2.617151 -11.73711,3.169025 -16.96347,1.283712 -9.67118,-3.488704 -16.6261,-0.658769 -14.1817,5.770492 1.13465,2.984354 4.23216,4.163081 7.01966,2.671259 1.41605,-0.75785 2.03777,-0.767201 2.03777,-0.03065 0,0.85702 -4.64413,3.36843 -5.3151,2.874251 -0.10169,-0.0749 -1.19344,-0.330679 -2.4261,-0.568398 z M 181.45002,60.564058 c -2.13129,-3.252753 -1.2109,-7.260254 2.00383,-8.724983 5.60304,-2.552918 10.90174,2.546437 8.30465,7.992221 -0.98392,2.063164 -2.10831,2.738312 -4.95535,2.975477 -3.02675,0.252136 -3.98017,-0.147299 -5.35313,-2.242715 z M 301.65499,58.171259 C 299.72593,56.039675 299.46694,50.933058 301.2,49.2 c 1.71162,-1.711625 7.37339,-1.483752 9.22857,0.371429 0.86429,0.864285 1.57143,2.863768 1.57143,4.443296 0,5.145317 -6.93023,7.929823 -10.34501,4.156534 z"
       id="path905"
       inkscape:connector-curvature="0" />
    <path
       style="fill:#767676;fill-opacity:1"
       d="m 153.29034,135.03549 c -6.61683,-4.03449 -9.10255,-14.69611 -5.90412,-25.32368 0.76242,-2.53332 1.22617,-4.76609 1.03056,-4.96169 -0.19561,-0.19561 -1.91641,-0.17345 -3.824,0.0493 -2.75181,0.32126 -3.67558,0.99938 -4.47144,3.28241 -0.55171,1.58263 -3.12314,5.14398 -5.71428,7.91413 -10.91822,11.67246 -27.58512,9.76826 -36.626243,-4.18456 l -3.158738,-4.87477 -5.561039,5.43278 C 76.237402,124.89723 57.589394,128.8628 38.881488,123.04025 30.750639,120.50964 24.982587,116.88673 19.66105,110.9679 10.70023,101.00131 6.2183552,86.073695 7.3608284,70 8.8543515,48.98731 17.70767,31.445419 32.447651,20.293179 44.030935,11.52929 54.058103,8.5287272 69.666628,9.1556483 c 8.804515,0.3536361 10.77669,0.7880419 16.605849,3.6577277 6.81846,3.356717 11.242167,7.864688 13.666209,13.926528 1.281644,3.205027 1.043904,13.321575 -0.419976,17.871015 -0.643173,1.998856 -0.409531,2.085005 4.40103,1.622771 5.90502,-0.567398 5.77534,-0.923462 3.60905,9.909346 -3.42208,17.112556 -3.65317,38.794752 -0.51648,48.458674 3.38445,10.42724 12.57884,15.24668 20.88891,10.94937 2.76659,-1.43066 9.11041,-7.94866 9.0864,-9.33588 -0.007,-0.39336 -1.61581,-1.75413 -3.57556,-3.02393 -5.68635,-3.684403 -8.2254,-13.117316 -5.27422,-19.594442 1.52978,-3.357517 6.27285,-4.988588 9.71164,-3.339689 3.53079,1.693015 5.11824,5.245408 5.13578,11.492861 0.0179,6.376437 0.76732,6.548166 9.84176,2.255248 4.924,-2.329434 6.75345,-2.764959 8.25,-1.964027 2.65111,1.418828 2.42294,3.668971 -1.17782,11.615559 -2.34051,5.16531 -3.23012,8.81585 -3.62818,14.88844 -0.487,7.42921 -0.34529,8.25686 1.8508,10.80946 3.471,4.03447 9.67172,3.98193 14.69741,-0.12454 l 3.68077,-3.00754 -0.334,-7.84389 c -0.18371,-4.31413 0.20442,-12.23922 0.86249,-17.6113 L 178.22499,91 h 6.49591 c 6.22997,0 6.47379,0.09212 5.95546,2.25 -1.59763,6.651244 -2.86568,19.62674 -2.37893,24.34285 0.78174,7.57436 3.68336,11.40715 8.63581,11.40715 5.08353,0 10.05813,-3.7539 13.63167,-10.28664 1.43611,-2.62534 1.34961,-3.14628 -1.49432,-9 -3.56856,-7.34524 -5.24698,-16.949979 -5.01449,-28.69537 0.1336,-6.749793 -0.1142,-8.446774 -1.19375,-8.174918 -8.14906,2.052126 -18.02616,3.241966 -22.38813,2.696974 -11.16431,-1.394889 -21.64972,-8.818602 -26.4758,-18.744986 l -2.0882,-4.29506 2.23281,3 c 3.80846,5.117027 10.28838,11.002303 14.1114,12.816447 8.93584,4.240331 19.96128,4.445516 30.33416,0.564522 6.1995,-2.319529 6.917,-3.309958 7.88261,-10.880969 1.02705,-8.052823 4.52028,-21.3767 5.81415,-22.176358 1.38222,-0.854259 10.68628,-2.185349 11.26062,-1.611008 0.22985,0.229857 -0.92396,5.112598 -2.56403,10.850536 C 219.34187,50.801108 218,56.249743 218,57.171248 c 0,1.566851 0.21068,1.566988 3.25,0.0021 C 223.58022,55.973575 227.04708,55.5 233.5,55.5 c 7.73947,0 9.82667,0.387178 14.90228,2.764391 7.1418,3.344936 6.99742,4.455274 -0.22261,1.71188 -8.23559,-3.129277 -17.38113,-2.715382 -25.08714,1.135354 -4.18409,2.090814 -6.57385,3.97718 -7.28444,5.75 -1.99539,4.978179 -2.23663,27.114573 -0.38614,35.432165 1.48461,6.67302 2.18174,8.00795 6.03844,11.56293 9.50786,8.76405 20.57343,6.14428 26.50006,-6.27386 2.63196,-5.51478 4.68113,-7.886582 13.00674,-15.054612 10.96226,-9.438093 12.63477,-11.460528 17.09449,-20.671067 L 281.13981,65.5 280.45047,70 c -1.51742,9.905738 -6.78499,20.135585 -14.83486,28.809922 C 259.84542,105.02774 258,108.89664 258,114.77603 c 0,6.62558 3.0914,9.74331 8.88986,8.96557 5.37042,-0.72033 10.27088,-4.6966 14.98249,-12.15691 l 3.92901,-6.22114 -0.53422,-8.562813 c -0.55703,-8.928541 0.95649,-16.157922 5.69912,-27.22202 l 1.94154,-4.529426 5.10052,2.363105 c 2.80528,1.299707 5.29711,2.559701 5.53739,2.799985 0.24029,0.240284 -1.12184,3.53494 -3.02695,7.321456 -5.56836,11.067461 -6.80258,21.359625 -3.44507,28.728543 2.08012,4.56537 9.29087,6.15182 14.86343,3.27014 2.7732,-1.43408 2.82586,-1.61621 2.31338,-8.00064 -0.4723,-5.883766 -0.21021,-7.17142 2.63668,-12.954276 3.67326,-7.461442 9.54524,-12.070026 16.75682,-13.151468 5.31185,-0.796562 11.88987,1.384342 15.37964,5.09903 C 350.62158,82.226095 352.42206,83 354.7813,83 c 2.86041,0 3.31983,0.291743 2.75578,1.75 -0.37229,0.9625 -1.54255,5.35 -2.60057,9.75 -2.4016,9.98753 -1.79816,16.88932 1.67566,19.16545 5.65271,3.7038 13.53005,0.75635 17.36104,-6.49594 1.06612,-2.01823 1.95829,-3.08908 1.98259,-2.37967 0.0858,2.50266 -3.88129,8.93756 -7.43168,12.05484 -3.05169,2.67941 -4.3803,3.15476 -8.80892,3.15158 -4.94291,-0.004 -6.75016,-0.7287 -12.85884,-5.15963 -1.32271,-0.95943 -1.99835,-0.8375 -3.46034,0.62449 -6.62817,6.62818 -18.91593,5.79348 -24.88761,-1.69059 l -2.74166,-3.43601 -3.57729,1.8238 c -8.16109,4.16076 -15.21279,3.57162 -20.84649,-1.74165 -3.16433,-2.98434 -3.84671,-3.26791 -4.60468,-1.91351 -3.70549,6.62134 -10.12347,14.49601 -14.20241,17.42591 -4.01834,2.88638 -5.93168,3.56276 -10.9524,3.87174 -7.59075,0.46716 -12.22862,-2.19754 -14.47511,-8.31671 -0.80447,-2.19126 -1.58425,-4.1479 -1.73285,-4.3481 -0.14861,-0.20021 -1.47764,0.58577 -2.9534,1.7466 -5.88974,4.63287 -17.28839,5.13056 -24.22928,1.05791 -4.35877,-2.55756 -4.54946,-2.51289 -6.47045,1.51546 -6.30763,13.22722 -20.87385,17.59257 -29.59662,8.8698 l -3.42204,-3.42204 -2.81718,3.41774 c -1.54945,1.87975 -4.3633,4.15141 -6.253,5.04813 -4.74157,2.25003 -12.36051,2.09427 -16.34321,-0.33411 z M 70.200779,116.87464 c 7.425582,-1.57693 13.1432,-4.45589 18.523588,-9.32707 l 4.620825,-4.1835 -1.416078,-7.932035 C 90.358355,86.63357 90.064847,69.906852 91.31014,60.157336 l 0.810141,-6.342665 -3.310141,0.812507 c -9.689321,2.37834 -16.365457,-1.226068 -16.168712,-8.729396 0.07167,-2.733197 0.812745,-4.796399 2.23292,-6.216574 C 76.043457,38.512099 77,38.078998 77,38.718761 c 0,0.639763 -0.45,1.44132 -1,1.781239 -1.488413,0.91989 -1.20896,5.756655 0.471193,8.15541 2.918621,4.166915 11.104009,3.49666 15.902865,-1.302195 3.505804,-3.505804 5.005268,-9.334097 3.825065,-14.867706 C 92.958514,17.291302 71.964616,11.422304 53.37974,20.515036 31.196939,31.36807 20.27948,67.938778 31.292997,94.5 c 4.541283,10.95218 10.381093,16.94195 20.627481,21.15719 6.263025,2.57652 10.539435,2.86133 18.280301,1.21745 z m 270.966251,-3.46102 c 2.96414,-1.53281 3.04549,-1.75394 2.40934,-6.54942 -0.415,-3.12848 -0.0391,-8.332674 1.01689,-14.078869 1.60646,-8.741474 1.6003,-9.170632 -0.15013,-10.450575 C 337.03747,76.91961 325,88.145035 325,100.46625 c 0,4.25684 3.95858,11.7587 7,13.26561 3.34056,1.65512 5.49565,1.58031 9.16703,-0.31824 z M 139.78663,91.440577 c -0.3322,-4.005951 -1.0824,-6.171536 -2.68475,-7.75 L 134.87816,81.5 l -2.02155,2.462634 c -1.46242,1.781502 -1.8562,3.289433 -1.4237,5.451926 0.73915,3.695756 4.25953,7.58544 6.86523,7.58544 1.7542,0 1.90333,-0.556998 1.48849,-5.559423 z M 238.3997,89.260911 C 236.63803,88.042622 235,84.342575 235,81.581518 c 0,-1.409609 1.3099,-4.010435 2.92908,-5.815741 L 240.85817,72.5 l 12.12135,0.274484 c 13.02499,0.294946 18.54253,-1.097942 23.75802,-5.997644 2.77529,-2.607246 2.84944,-1.847747 0.30631,3.137207 -2.49634,4.893234 -7.02964,8.701805 -12.20234,10.251584 -3.40286,1.019522 -5.15395,0.940717 -10.70493,-0.481759 -9.46519,-2.425517 -12.72874,-2.235948 -14.75538,0.857092 -3.0947,4.723108 1.73516,10.072681 6.69673,7.41733 1.72715,-0.924343 2.06569,-0.885818 1.71005,0.1946 -0.48898,1.485499 -7.62464,2.32766 -9.38828,1.108017 z M 181.91334,60.913342 c -1.52817,-1.528177 -1.9119,-2.782955 -1.4337,-4.688234 C 182.40986,48.534497 192,49.840155 192,57.793557 c 0,5.16234 -6.14383,7.062615 -10.08666,3.119785 z M 302.22251,58.443296 C 297.68403,55.264425 300.25356,48 305.91644,48 c 5.4555,0 7.95723,6.126333 4.08356,10 -2.40261,2.402613 -4.78621,2.538472 -7.77749,0.443296 z"
       id="path903"
       inkscape:connector-curvature="0" />
    <path
       style="fill:#606060;fill-opacity:1"
       d="m 153.19186,134.9756 c -6.44839,-3.93148 -8.7052,-13.70565 -5.77385,-25.00633 0.77991,-3.00662 1.31878,-5.56581 1.19749,-5.6871 -0.12129,-0.12129 -1.8393,0.0422 -3.81781,0.36323 -2.98296,0.48407 -3.89815,1.25098 -5.35911,4.4908 -1.9604,4.3474 -9.07242,11.39389 -13.01135,12.89147 -4.38597,1.66754 -14.13519,1.16196 -18.26998,-0.94744 C 103.62982,118.7705 98.459774,113.65999 96.7555,109.80976 96.071452,108.26439 95.265321,107 94.964097,107 c -0.301225,0 -2.553875,2.06092 -5.005889,4.57982 C 79.697881,122.12001 64.892104,126.92927 48.889427,124.91991 22.110082,121.55737 7.5533881,103.78201 7.5992824,74.5 7.6418649,47.330979 20.07982,25.668224 42.045035,14.507027 c 8.57536,-4.357403 16.77177,-5.8937377 28.242382,-5.2937505 14.285848,0.7472422 23.479721,5.6649495 28.163701,15.0644725 2.953112,5.92612 3.395042,13.761337 1.087667,19.283667 l -1.461214,3.497179 4.833079,-0.64113 c 2.80991,-0.372748 5.08646,-0.231152 5.43838,0.338254 0.33291,0.538662 -0.0348,4.324995 -0.8172,8.414074 -4.32233,22.590767 -4.03043,43.128439 0.75084,52.828757 3.91589,7.94462 12.48275,11.2426 19.61855,7.55253 2.90025,-1.49978 9.09878,-7.96285 9.09878,-9.4871 0,-0.47654 -1.59706,-1.80872 -3.54902,-2.9604 -4.57661,-2.70027 -6.81952,-7.916292 -6.1957,-14.408484 0.65001,-6.764795 3.45946,-9.237664 10.00942,-8.81025 2.92438,0.190828 5.72738,5.993442 5.73156,11.865154 0.005,6.399414 0.94163,6.613225 10.06787,2.297192 4.72318,-2.233709 6.69329,-2.712201 8.08979,-1.964816 2.51943,1.348357 2.34492,2.878933 -1.27956,11.222434 -3.94425,9.07963 -5.11656,21.15041 -2.44945,25.22093 3.76161,5.74094 11.88286,5.30457 17.35929,-0.93274 2.8403,-3.23492 2.92608,-3.60286 1.96873,-8.44465 -0.70471,-3.56413 -0.63296,-8.47858 0.24244,-16.60536 L 178.23876,91 h 6.39967 c 6.12111,0 6.37748,0.09794 5.8898,2.25 -1.33558,5.893651 -2.5137,15.83172 -2.51912,21.25 -0.0101,10.06472 4.5772,16.10651 11.24032,14.80437 3.07603,-0.60113 9.49764,-6.43177 11.67694,-10.60233 1.28721,-2.46334 1.22278,-3.09422 -0.66027,-6.46586 -4.12518,-7.38621 -5.68632,-15.017495 -5.72735,-27.996751 C 204.50559,73.746691 204.28372,72.066721 203,72.588216 c -0.825,0.335147 -5.28726,1.276752 -9.91613,2.092455 -6.82206,1.202188 -9.59037,1.261535 -14.61566,0.313331 C 167.53905,72.931818 158.50708,66.058121 153.51028,56 c -1.94283,-3.910752 -1.57407,-3.596138 3.96669,3.384244 5.14249,6.478622 11.14322,10.128942 19.12741,11.635451 7.78652,1.46921 15.13669,0.776645 22.77357,-2.145825 5.89332,-2.255244 6.08592,-2.536561 7.10245,-10.37387 0.35669,-2.75 1.54977,-8.906701 2.65131,-13.681558 l 2.00279,-8.681559 4.98197,-1.068441 c 4.77309,-1.023644 7.91407,-1.350852 7.8565,-0.818442 -0.0149,0.1375 -1.53514,5.425 -3.37837,11.75 -1.84324,6.325 -3.19445,11.77288 -3.0027,12.106399 0.19175,0.33352 2.72451,-0.21429 5.62837,-1.217354 9.25154,-3.195716 21.1232,-1.851036 28.27973,3.203188 1.65,1.165296 2.1,1.785642 1,1.378547 -1.1,-0.407095 -3.8,-1.40675 -6,-2.221456 -2.2,-0.814705 -6.96285,-1.495268 -10.58411,-1.512362 -5.5722,-0.0263 -7.54022,0.478519 -12.8051,3.284671 -3.42154,1.823663 -6.72938,4.252339 -7.35076,5.397059 -0.62138,1.144719 -1.32504,8.386711 -1.5637,16.093316 -0.65439,21.131642 2.21354,30.105632 11.06422,34.620912 8.0627,4.11328 19.33601,0.18122 22.16784,-7.73201 2.00953,-5.61543 5.61179,-10.206846 12.34475,-15.734561 10.17298,-8.351957 13.8317,-12.521013 17.71081,-20.181217 3.44252,-6.798042 3.63558,-6.361499 1.33334,3.014868 -1.4492,5.902179 -6.95133,15.140176 -13.34935,22.413344 C 258.92461,106.3517 258,108.35147 258,115.0651 c 0,13.17453 14.01474,11.76254 23.26939,-2.34441 5.3474,-8.15108 5.5794,-8.76112 4.61322,-12.13001 -1.98032,-6.904984 -0.53714,-16.556027 4.31273,-28.84068 1.24852,-3.1625 2.85826,-5.75 3.57719,-5.75 1.04183,0 8.85506,3.499749 10.00087,4.479652 0.15037,0.128597 -0.86555,2.210783 -2.25759,4.62708 -7.41286,12.867206 -8.53456,29.965018 -2.25444,34.363788 2.63416,1.84503 9.30358,1.97311 12.72045,0.24427 2.32348,-1.17561 2.48473,-1.76481 2.52757,-9.23526 0.0534,-9.305251 2.02954,-14.023379 8.21392,-19.610588 7.72528,-6.979335 17.25972,-7.273726 25.46805,-0.786367 C 350.40401,81.831318 353.0797,83 354.87078,83 h 2.98805 l -2.00901,6.75 c -2.72098,9.142075 -2.98065,20.33859 -0.53445,23.04412 4.30072,4.75666 12.03198,3.38815 17.08555,-3.0243 1.4173,-1.7984 2.58189,-2.90997 2.58799,-2.47016 0.0237,1.70571 -2.94803,6.33121 -5.82362,9.06461 -5.3391,5.0751 -16.01302,4.62007 -21.20249,-0.90386 l -2.33129,-2.48155 -2.56576,2.45134 c -1.41116,1.34824 -4.6082,2.99591 -7.10454,3.66149 -6.80615,1.81467 -11.3677,0.55445 -16.4732,-4.55105 -3.89063,-3.89063 -4.53249,-4.19778 -6.25334,-2.99245 -1.05473,0.73876 -4.04631,1.87919 -6.64795,2.53429 -5.9478,1.49767 -11.05594,0.1499 -15.63154,-4.12435 -1.77632,-1.65933 -3.32325,-2.89123 -3.43762,-2.73755 -0.11436,0.15368 -2.1632,3.19329 -4.55298,6.75468 -8.01925,11.95079 -15.54832,16.78262 -24.56708,15.76608 -5.82201,-0.65623 -9.19602,-3.14688 -11.17263,-8.24751 -0.85124,-2.19661 -1.67416,-4.15542 -1.82871,-4.35292 -0.15456,-0.1975 -1.59022,0.57314 -3.19036,1.71254 -6.34057,4.51489 -17.95148,4.70119 -25.42468,0.40794 -2.34536,-1.34738 -3.1715,-1.46206 -3.51473,-0.48793 -1.16913,3.31815 -7.11595,10.9075 -10.12814,12.92557 -6.92375,4.6387 -15.08942,3.95142 -21.23249,-1.78706 l -3.2791,-3.06314 -3.06333,3.56354 c -5.57179,6.48162 -15.80226,8.56838 -22.37147,4.56323 z M 77.301109,114.99731 c 3.769183,-1.41594 7.701417,-3.98628 11.226452,-7.33828 L 93.952904,102.5 92.470985,97.010997 C 90.72366,90.538933 90.160533,72.92445 91.325309,61.174512 92.13281,53.028657 92.107258,52.87223 90.14105,53.924512 89.035788,54.516031 85.831445,55 83.020287,55 78.926918,55 77.4203,54.51121 75.454545,52.545455 72.28221,49.373119 72.090538,43.265615 75.056463,39.860784 c 1.934554,-2.220836 1.993835,-2.2313 1,-0.176525 -4.121036,8.520326 3.059751,14.569661 12.393656,10.44083 3.796042,-1.679169 5.000966,-2.890604 6.703706,-6.739931 C 99.084347,34.49956 95.475478,24.714974 86.272392,19.305276 81.896777,16.733231 80.6686,16.501103 71.5,16.513268 62.691878,16.524955 60.7932,16.855957 55.569866,19.290413 43.740134,24.803933 35.656186,34.331638 30.307848,49.064115 27.85207,55.828776 27.60468,57.808889 27.567237,71 c -0.03987,14.047559 0.05917,14.749623 3.174296,22.5 4.856849,12.08376 11.587737,19.0063 22.263855,22.89779 5.862676,2.13697 16.513415,1.52303 24.295721,-1.40048 z m 264.960691,-1.9886 c 2.25903,-1.77695 2.43918,-2.39586 1.67371,-5.75 -0.57371,-2.51391 -0.327,-7.18756 0.74493,-14.112192 1.80022,-11.629307 1.61971,-12.103421 -4.61856,-12.131205 -7.29921,-0.03251 -15.08824,9.512741 -15.03992,18.431031 0.0271,4.998006 2.97727,11.739286 6.09233,13.921156 3.16032,2.21357 8.07852,2.05528 11.14751,-0.35879 z M 140,93.149223 c 0,-4.953947 -1.70731,-9.82293 -3.71449,-10.593158 C 134.13278,81.729985 131,84.781605 131,87.704647 c 0,2.885823 2.46653,7.91695 4.22896,8.626059 C 138.85864,97.791098 140,97.030004 140,93.149223 Z m 96.98226,-5.89891 c -2.74882,-3.494558 -2.11502,-8.576923 1.52099,-12.196562 2.48733,-2.47613 2.90621,-2.544785 13.78103,-2.258773 14.22358,0.374086 16.65146,-0.09955 22.19287,-4.3294 C 276.96472,66.566776 279,65.253165 279,65.546443 c 0,1.822742 -4.4024,8.614367 -7.00162,10.801466 -5.20843,4.382602 -9.71636,5.023416 -19.17968,2.726439 -6.72469,-1.632245 -8.6605,-1.774441 -10.6743,-0.784089 -3.945,1.940078 -4.90504,4.271716 -3.07505,7.46837 1.34062,2.341821 2.14224,2.707262 5.5,2.507345 2.84126,-0.169164 3.51492,0.03446 2.43065,0.734688 -3.03794,1.961929 -7.74453,1.139571 -10.01774,-1.750349 z M 182.625,61.516552 C 179.06105,58.817755 181.51975,51 185.93248,51 188.93163,51 192,53.984519 192,56.901716 c 0,5.095099 -5.29728,7.702682 -9.375,4.614836 z M 302.22251,58.443296 C 297.66869,55.253678 300.50477,48 306.30569,48 c 5.73409,0 7.42532,8.434638 2.17123,10.828561 -3.29037,1.499193 -3.59036,1.480714 -6.25441,-0.385265 z"
       id="path901"
       inkscape:connector-curvature="0" />
    <path
       style="fill:#494949;fill-opacity:1"
       d="m 154.40051,135.57241 c -6.87039,-2.99088 -10.04528,-14.40278 -6.9598,-25.01645 0.92271,-3.17401 1.472,-5.97658 1.22066,-6.22793 -0.25135,-0.25135 -2.01268,-0.16515 -3.91406,0.19155 -2.61704,0.49096 -3.83938,1.45027 -5.03046,3.94799 -2.4334,5.10291 -7.78879,10.65972 -12.20827,12.66745 -5.20152,2.363 -13.81931,2.36269 -19.00858,-6.8e-4 -3.63371,-1.65492 -11.478097,-9.07144 -11.515313,-10.88722 -0.0084,-0.41092 -0.430987,-1.40429 -0.939034,-2.20749 -0.741862,-1.17286 -2.07654,-0.36077 -6.77928,4.12488 C 79.696676,121.29246 69.996448,125 55.684246,125 30.037091,125 13.392315,111.2984 8.4143507,86.088488 6.4981806,76.384426 6.9730994,67.335068 10.02474,55.403268 13.175967,43.082088 17.472027,35.515718 26.488706,26.406363 39.458145,13.303619 53.272675,7.991676 70.971495,9.3019073 80.780951,10.028095 86.852499,12.237786 92.360776,17.086365 100.30309,24.07747 103.09065,34.060614 99.5,42.654243 98.675,44.628746 98,46.414292 98,46.622124 98,46.829956 100.52748,47 103.61663,47 c 5.34241,0 5.58624,0.109851 4.9942,2.25 -2.20225,7.960762 -3.86801,23.097165 -3.9343,35.75 -0.0666,12.704068 0.19685,15.18935 2.12664,20.06567 3.0443,7.69254 6.82546,11.09614 12.98448,11.68795 5.6787,0.54565 9.97142,-1.27154 14.36363,-6.08039 3.62461,-3.96844 3.58244,-5.24245 -0.23892,-7.21855 -6.32085,-3.26864 -8.9926,-16.393569 -4.37564,-21.49526 1.90591,-2.106006 6.43947,-2.577713 9.42384,-0.980529 C 141.37767,82.272488 143,87.160378 143,93.149223 143,95.81715 143.30161,98 143.67024,98 c 0.36864,0 3.71859,-1.405071 7.44434,-3.12238 C 157.95435,91.724966 163,91.481449 163,94.303996 c 0,0.696241 -1.6183,5.235264 -3.59621,10.086714 -2.88766,7.08288 -3.60468,10.17193 -3.63915,15.67823 -0.0524,8.3622 1.66564,11.54595 6.74446,12.49874 4.39518,0.82455 8.27802,-0.72109 12.34027,-4.91227 3.09194,-3.19007 3.10507,-3.24912 2.04117,-9.18306 -0.80676,-4.4998 -0.74035,-8.56125 0.26934,-16.47235 L 178.5,91.5 l 4.87294,-0.309812 c 7.46451,-0.474579 7.47327,-0.462944 5.99527,7.962625 -1.99106,11.350407 -1.75514,21.700337 0.58202,25.533367 4.15571,6.81551 9.82327,6.68149 16.70075,-0.39492 5.46698,-5.62511 6.17993,-8.21075 3.47208,-12.59215 -3.61225,-5.84475 -5.4116,-15.18895 -5.39781,-28.031478 0.0124,-11.578909 -0.0327,-11.819499 -2.10627,-11.231547 -7.25738,2.057781 -12.74207,2.721389 -19.94628,2.413357 C 169.7969,74.298909 161.5629,69.234591 154.46452,57.5 c -1.02718,-1.698072 0.44225,-0.531122 3.38597,2.688973 3.18151,3.480217 7.42321,6.780361 10.9251,8.5 5.06183,2.485662 6.824,2.809916 15.22441,2.801429 7.8568,-0.0079 10.52476,-0.440358 15.42456,-2.5 L 205.34911,66.5 207.08327,56.111854 c 2.27119,-13.605106 3.83942,-19.009049 5.80801,-20.013725 0.8848,-0.451559 3.72783,-1.097237 6.31784,-1.43484 3.49028,-0.454949 4.59788,-0.29669 4.2793,0.611444 -1.50689,4.29555 -6.41842,23.128599 -6.11176,23.435262 0.20554,0.205534 2.34237,-0.414743 4.74852,-1.378393 8.28978,-3.320011 26.07888,-1.405426 29.91759,3.219936 0.79669,0.959945 -0.43108,0.712009 -3.67304,-0.741738 -7.37075,-3.305165 -17.19976,-3.129926 -24.46104,0.436109 -8.02776,3.942459 -8.59772,4.871119 -9.83708,16.027988 -1.28037,11.526048 -0.0259,25.780373 2.83879,32.256453 4.53522,10.25261 17.85975,13.74116 26.07653,6.82719 1.67519,-1.40958 3.98058,-4.73581 5.12307,-7.39161 1.98821,-4.62171 3.99127,-6.7796 20.08571,-21.638303 3.64431,-3.364501 6.73435,-7.471416 8.84069,-11.75 C 278.81738,70.959932 280.38995,68 280.53098,68 c 0.46,0 -1.39877,7.395428 -2.9885,11.890267 -2.11837,5.989537 -4.78835,10.111394 -12.19602,18.827931 -8.51343,10.017672 -10.09078,16.329572 -5.75568,23.031802 1.13996,1.76244 2.39295,2.25 5.78223,2.25 5.85942,0 11.35246,-4.10004 17.08313,-12.75096 4.20406,-6.34639 4.41474,-6.98768 3.53118,-10.74904 -0.51678,-2.2 -0.95034,-5.54625 -0.96346,-7.436111 -0.0559,-8.043747 6.73497,-27.771341 9.21955,-26.783133 0.69112,0.274887 3.13202,1.258201 5.42422,2.185142 l 4.16763,1.685347 -4.0055,8.347698 c -5.99291,12.489547 -6.53192,24.889807 -1.30894,30.112787 2.91132,2.91132 10.68607,3.33252 14.33515,0.7766 2.05143,-1.43688 2.22887,-2.13605 1.63602,-6.44658 C 312.61018,89.259395 323.33358,75.65471 336,75.65471 c 4.82297,0 12.69902,3.397381 13.65571,5.89047 C 350.00829,82.463995 351.60966,83 354.00213,83 h 3.78815 l -1.96037,6.25 c -2.42366,7.727048 -3.3792,18.35064 -1.97397,21.94633 0.74438,1.90472 2.22615,3.04759 5.04712,3.89277 5.01669,1.50304 8.82555,0.12296 13.10154,-4.74712 3.8601,-4.39641 3.86956,-2.8488 0.0151,2.47211 -4.01931,5.54848 -8.07871,7.53079 -14.2144,6.94123 -3.44978,-0.33148 -5.95679,-1.34594 -8.62478,-3.49 l -3.76132,-3.02267 -2.71126,2.33213 c -2.73029,2.3485 -8.50308,4.42803 -12.20796,4.39768 -3.74978,-0.0307 -10.52611,-3.85553 -12.27483,-6.92836 -1.96688,-3.45618 -2.44912,-3.59617 -5.51035,-1.59951 -1.21815,0.79453 -4.27599,1.90433 -6.79521,2.46623 -5.91327,1.31892 -10.9209,-0.0323 -14.61172,-3.94274 C 289.76712,108.33564 288.21029,107 287.84827,107 c -0.36202,0 -1.90703,2.13092 -3.43334,4.73537 -3.94979,6.73982 -11.24237,14.24971 -15.91493,16.38918 -8.46827,3.87746 -17.01996,1.56425 -20.4558,-5.53324 -1.12431,-2.32252 -2.0442,-4.77858 -2.0442,-5.45793 0,-0.69596 -1.60302,-0.0125 -3.67211,1.56573 -3.15257,2.40461 -4.77485,2.85102 -11.46626,3.15524 -6.91142,0.31422 -8.32188,0.0594 -12.45384,-2.25 -5.38143,-3.00774 -5.40779,-3.01427 -5.40779,-1.341 0,2.29562 -7.06764,11.80718 -10.17971,13.69974 -6.91318,4.20416 -15.33992,3.33116 -20.69263,-2.14372 l -3.09215,-3.16273 -3.68217,3.7914 c -6.11617,6.29763 -13.89027,8.19892 -20.95283,5.12437 z M 78.155535,114.72982 c 6.112792,-2.86317 10.966131,-6.34348 13.709361,-9.83093 1.770983,-2.25144 1.804013,-2.84156 0.498433,-8.90506 C 90.764,88.566077 90.432593,65.850902 91.819682,58.731376 c 0.980132,-5.030733 0.517786,-6.189605 -1.867428,-4.680706 -0.79874,0.505288 -3.835209,0.925595 -6.747709,0.934017 -4.301139,0.01244 -5.756338,-0.445571 -7.75,-2.439232 -3.172335,-3.172336 -3.364007,-9.27984 -0.398082,-12.684671 1.934554,-2.220836 1.993835,-2.2313 1,-0.176525 -3.259491,6.739065 1.075374,12.955423 8.356962,11.984193 C 94.777254,50.286108 99.929184,39.046986 95.086884,28.383912 91.573819,20.647902 82.954395,16 72.121213,16 51.068531,16 35.512309,29.530175 28.914478,53.579477 26.441059,62.595168 26.006532,76.649469 27.943026,85 c 3.428733,14.785351 12.327915,26.58183 23.35897,30.96393 7.22765,2.8712 19.270418,2.31774 26.853539,-1.23411 z m 263.962835,-1.62459 c 2.11922,-1.71604 2.31655,-2.58856 2.09197,-9.25 C 344.07395,99.809855 344.6091,93.575 345.39955,90 c 1.29702,-5.866094 1.28022,-6.621905 -0.17231,-7.75 -2.4169,-1.877059 -8.30648,-1.499054 -12.03181,0.772226 -6.53794,3.98609 -10.06271,16.572979 -6.81661,24.341994 2.89134,6.91994 10.74567,9.78481 15.73955,5.74101 z M 140,92.391323 c 0,-8.176959 -5.17435,-13.671099 -7.96482,-8.457064 -2.26095,4.224632 -0.31253,10.276572 4.06234,12.617934 C 139.35485,98.295461 140,97.607594 140,92.391323 Z M 237.7329,88.25 c -2.59179,-2.875978 -3.06121,-6.714439 -1.24956,-10.21778 2.51923,-4.871652 6.28673,-5.954165 18.51666,-5.320378 11.17955,0.579353 13.58469,0.02089 20.93502,-4.86106 l 3.43501,-2.281471 -2.43501,4.335565 c -5.63714,10.036972 -13.5254,12.292852 -28.17303,8.056909 -4.40508,-1.273901 -4.9321,-1.225813 -7.5,0.684342 -5.60824,4.171729 -3.03482,11.059936 3.7264,9.974372 2.44212,-0.392102 3.05477,-0.272553 2.01161,0.39253 -2.42912,1.548722 -7.56486,1.125859 -9.2671,-0.763029 z M 182.58003,61.088434 c -2.46636,-2.725303 -1.69643,-7.180962 1.55474,-8.997404 2.35984,-1.318454 2.90765,-1.293254 5.25,0.241511 3.37878,2.213863 3.57985,6.878405 0.39272,9.110755 -2.95407,2.069116 -5.09952,1.963338 -7.19746,-0.354862 z m 118.45515,-4.022693 c -1.54341,-2.883896 -1.25742,-5.554639 0.79356,-7.410753 C 304.28767,47.429687 307.5682,47.5682 310,50 c 2.40692,2.406924 2.50067,3.840182 0.4433,6.777494 -2.04718,2.922753 -7.90217,3.10214 -9.40812,0.288247 z"
       id="path899"
       inkscape:connector-curvature="0" />
    <path
       style="fill:#333333;fill-opacity:1"
       d="m 153.87575,134.85234 c -6.60168,-3.82835 -9.13186,-13.21616 -6.40166,-23.75233 0.9009,-3.47669 1.40876,-6.55049 1.12858,-6.83067 -0.28018,-0.28018 -2.0818,-0.21444 -4.00361,0.1461 -2.89144,0.54244 -3.88992,1.44788 -5.78826,5.24894 -2.66633,5.33881 -8.61503,10.78587 -13.56226,12.41861 -1.90327,0.62813 -6.11513,0.95004 -9.35969,0.71535 -7.37417,-0.5334 -12.93562,-4.13765 -17.834988,-11.55845 l -3.446139,-5.21968 -2.810447,3.40956 C 83.997184,118.89264 70.023304,125 56.172003,125 29.71241,125 12.799806,110.70239 8.3909837,84.606798 6.9483945,76.068186 6.9462043,74.259545 8.3667866,64.625251 13.503018,29.791669 38.893767,7.2013822 70.5,9.3449937 81.534059,10.09335 87.432185,12.445737 93.638804,18.573587 c 4.270509,4.216311 5.35423,6.03621 6.413756,10.770651 1.23326,5.510787 0.75293,10.515775 -1.526471,15.905762 C 97.871094,46.798835 98.442853,47 103.5,47 c 4.85977,0 5.62091,0.242533 5.09142,1.622347 -1.3273,3.458908 -3.58759,20.305492 -4.21582,31.421857 -1.38309,24.473156 4.49833,37.122466 17.26047,37.122466 5.38856,0 11.23363,-3.56491 14.50196,-8.84476 l 1.96731,-3.17809 -3.59672,-1.70675 c -4.52195,-2.14581 -6.85136,-6.502015 -6.93979,-12.978043 C 127.4751,83.594844 129.85193,80 134.4841,80 140.24975,80 143,84.56174 143,94.125 c 0,4.738323 0.64277,4.795609 8.85488,0.78918 C 157.97146,91.930097 163,91.532756 163,94.033524 c 0,0.547481 -1.52917,4.787691 -3.39815,9.422686 -1.86898,4.635 -3.7028,10.64232 -4.07514,13.34961 -0.84161,6.1192 0.80912,12.61557 3.72448,14.65757 4.46173,3.12512 12.56438,0.98249 16.52065,-4.36865 1.79318,-2.42542 1.98621,-3.60647 1.35255,-8.27588 -0.69138,-5.09482 0.12783,-20.558825 1.35301,-25.540255 0.49067,-1.995006 1.10479,-2.198831 6.02601,-2 6.17886,0.249644 6.13344,0.159534 4.45356,8.834905 -1.45058,7.49121 -1.39152,21.206 0.10334,23.99919 4.66403,8.7148 13.4513,7.26846 20.61698,-3.39346 l 3.17728,-4.72753 -2.37647,-4.25197 C 206.57927,104.76398 205,96.706361 205,83.789901 205,77.305456 204.80292,72 204.56205,72 c -0.24087,0 -3.50337,0.718404 -7.25,1.596453 -9.19152,2.154099 -21.19453,1.499062 -27.46214,-1.498684 -5.05186,-2.416259 -11.72507,-8.652733 -15.12864,-14.138517 -1.55353,-2.503944 -0.66306,-1.85384 3.22447,2.354081 2.95389,3.197333 7.66201,7.00996 10.46249,8.472504 4.55564,2.379178 6.19735,2.662067 15.59177,2.686667 9.2982,0.02435 11.14573,-0.275255 16.14174,-2.617615 5.63227,-2.640678 5.64284,-2.654089 6.30276,-8 1.01633,-8.233131 4.60496,-23.767422 5.6381,-24.405938 C 214.03507,35.242258 223,34.303108 223,35.305263 c 0,0.553616 -1.3977,5.913713 -3.106,11.911327 -1.70829,5.997614 -2.85196,11.158781 -2.54148,11.469261 0.31048,0.310479 2.27067,-0.107903 4.35599,-0.929738 8.30681,-3.273759 17.94869,-3.015318 26.8904,0.720769 5.7138,2.387378 3.60332,2.619829 -3.10828,0.34235 -4.32447,-1.467448 -7.53773,-1.895166 -11.5532,-1.537856 -5.77926,0.514259 -14.21421,4.143023 -17.10935,7.360538 -2.34471,2.605798 -4.16152,17.063903 -3.375,26.858086 1.52693,19.01428 7.40125,27.5 19.0371,27.5 7.62868,0 12.02459,-2.96768 15.59759,-10.52993 2.38904,-5.05641 4.73459,-7.95276 10.70793,-13.222377 11.8484,-10.45255 14.988,-13.904083 18.2394,-20.051604 2.71813,-5.139261 2.954,-5.353942 2.4128,-2.196089 -1.13951,6.648913 -7.22429,17.914047 -12.87744,23.840777 -10.46745,10.974023 -12.53101,21.862833 -5.06977,26.751633 5.46819,3.5829 13.98643,-1.56119 21.38207,-12.91246 4.10815,-6.30544 4.1142,-6.32906 3.06944,-11.980686 -0.74762,-4.044289 -0.7255,-7.434772 0.0774,-11.862563 1.11517,-6.149767 5.35863,-18.624941 6.83881,-20.105122 0.42389,-0.423891 3.06129,0.181211 5.86089,1.344671 l 5.09017,2.115382 -1.86071,3.154184 C 300.93538,75.080617 298.91036,79.65 297.45872,83.5 c -2.19918,5.832588 -2.58213,8.275496 -2.29625,14.648091 0.38746,8.636769 1.77649,11.016599 7.54035,12.918849 2.84254,0.93812 4.27257,0.83227 8.00297,-0.59238 l 4.54199,-1.7346 -0.54436,-4.61998 c -0.29939,-2.54099 -0.12556,-6.854769 0.3863,-9.586177 2.799,-14.936147 18.42573,-23.110087 30.57242,-15.991649 2.38582,1.398184 4.33786,2.973184 4.33786,3.5 C 350,82.568969 351.575,83 353.5,83 c 1.925,0 3.5,0.444979 3.5,0.988842 0,0.543864 -0.9485,4.446141 -2.10777,8.671729 -2.41828,8.814699 -2.27194,18.388289 0.32071,20.980939 0.86951,0.86951 3.59356,1.80778 6.05345,2.08505 4.1018,0.46233 4.83051,0.18372 8.79145,-3.36122 4.4022,-3.93985 4.48086,-3.34709 0.30567,2.30346 -4.64291,6.28354 -15.397,6.90475 -21.46143,1.23973 -3.16332,-2.95498 -3.21357,-2.96514 -5.29785,-1.07087 -5.62306,5.11046 -14.7677,6.07853 -21.00505,2.22364 -1.97955,-1.22343 -3.61349,-2.52522 -3.63098,-2.89286 -0.0175,-0.36764 -0.67266,-1.51482 -1.45592,-2.54929 -1.3873,-1.83222 -1.54708,-1.82304 -6.18035,0.35485 -7.04085,3.30959 -15.14179,2.57186 -19.64066,-1.78861 C 289.8837,108.43342 288.14157,107 287.81985,107 c -0.32171,0 -2.41952,2.81584 -4.6618,6.25742 C 275.76176,124.60968 268.46129,130 260.48246,130 253.92914,130 247.86439,125.21203 246.48969,118.95304 245.90147,116.27489 244,114.71515 244,116.91079 c 0,0.50094 -1.94208,1.85094 -4.31572,3 -6.1828,2.99304 -14.86436,2.83897 -21.21575,-0.37651 -2.67873,-1.35615 -4.93606,-2.36865 -5.01628,-2.25 -0.0802,0.11865 -1.44076,2.63233 -3.02343,5.58597 -3.98378,7.4347 -8.16732,10.41088 -15.36625,10.93161 -6.33836,0.45847 -9.94392,-0.87911 -13.96087,-5.17916 l -2.3983,-2.56732 -3.77789,4.29191 c -5.84732,6.6429 -14.25886,8.44313 -21.04976,4.50505 z m -78.594205,-18.9363 c 6.37292,-2.13572 15.882283,-8.48512 17.647308,-11.7831 0.667867,-1.24792 0.61286,-3.11081 -0.169495,-5.740217 -1.32285,-4.44595 -1.67236,-34.581901 -0.478541,-41.261537 0.705727,-3.948672 0.609558,-4.299828 -1,-3.651467 -3.02263,1.217574 -9.03293,1.799313 -11.692739,1.131743 C 74.095819,53.232993 70.955314,45.477883 74.075988,41 74.859486,39.875752 74.968464,40.28013 74.51103,42.614275 73.596395,47.281377 77.834522,52 82.94101,52 91.33277,52 97.365982,44.505099 96.748136,34.847771 96.326981,28.264839 93.31461,23.55877 86.73876,19.210646 82.900027,16.672375 81.933888,16.5 71.545952,16.5 c -10.512061,0 -11.441757,0.171572 -17.741364,3.274113 -11.561681,5.694099 -19.769308,16.641024 -24.93805,33.26113 -3.420552,10.998796 -3.227631,26.484239 0.46386,37.233287 3.238087,9.428805 6.044312,14.03039 11.63828,19.08421 9.561984,8.63868 21.376622,10.89856 34.312867,6.5633 z m 267.309215,-2.80943 c 1.86971,-1.24198 2.04659,-2.1404 1.67299,-8.49771 -0.24996,-4.25343 0.19711,-9.920625 1.11302,-14.1089 1.41974,-6.492202 1.40719,-7.093829 -0.17299,-8.293429 -3.0052,-2.281403 -6.03798,-2.451742 -9.89936,-0.556007 -8.8685,4.353962 -12.94539,17.262473 -8.41059,26.630116 3.47617,7.18082 9.40686,9.00417 15.69693,4.82593 z M 139.98526,92.75 c -0.017,-6.04982 -1.70341,-10.072039 -4.44428,-10.599883 C 133.00679,81.662078 131,84.58674 131,88.768053 c 0,2.408859 0.84342,4.229215 2.92308,6.30887 4.52449,4.524495 6.07974,3.927524 6.06218,-2.326923 z m 98.02552,-4.540184 c -3.41038,-2.761562 -3.03748,-8.644657 0.7906,-12.47273 l 3.00137,-3.001376 12.85537,0.163511 12.85536,0.163511 5.73756,-3.454981 c 5.01706,-3.021113 5.5949,-3.182023 4.60148,-1.281366 -5.55174,10.621866 -13.98728,13.886291 -26.26145,10.162791 C 245.02138,76.496193 242.38774,76.612259 240,79 c -4.07847,4.078471 -1.3482,10.571642 4.10845,9.770776 1.53226,-0.224889 2.55813,-0.04031 2.27972,0.410168 -0.90648,1.46671 -6.112,0.863272 -8.37739,-0.971128 z M 183.22251,61.443296 C 178.99896,58.485006 181.27619,51.75 186.5,51.75 c 5.22381,0 7.50104,6.735006 3.27749,9.693296 C 188.55512,62.299483 187.08024,63 186.5,63 c -0.58024,0 -2.05512,-0.700517 -3.27749,-1.556704 z m 118.40292,-3.960721 c -2.45845,-2.458449 -2.02284,-6.176074 0.95207,-8.12531 5.03728,-3.300556 10.69745,1.436018 8.06399,6.748158 -1.47625,2.977838 -6.62841,3.764801 -9.01606,1.377152 z"
       id="path897"
       inkscape:connector-curvature="0" />
  </g>
</svg>
