<?xml version="1.0" encoding="utf-8"?>
<!-- Generator: Adobe Illustrator 19.2.1, SVG Export Plug-In . SVG Version: 6.00 Build 0)  -->
<svg version="1.1" id="layer" xmlns="http://www.w3.org/2000/svg" xmlns:xlink="http://www.w3.org/1999/xlink" x="0px" y="0px"
	 viewBox="0 0 652 652" style="enable-background:new 0 0 652 652;" xml:space="preserve">
<style type="text/css">
	.st0{fill:#128CED;}
</style>
<g id="_x31_.-HEADER">
	<g id="DESKTOP---970-px" transform="translate(-176.000000, -31.000000)">
		<g id="HEADER" transform="translate(171.000000, 24.000000)">
			<g id="Logo-_x2F_-Search-_x2F_-Links-_x2F_-Cart">
				<g id="Logo" transform="translate(0.000000, 7.000000)">
					<path class="st0" d="M521.8,277.4c-0.8-8.9-8.4-16.3-20.5-15.2c-11.5,1-15.4,6.7-16.6,14.7l-7.7,59.6l-0.4,0l-16.4-50.7
						c-4.9-15.4-8.1-19.3-23.8-18c-15.7,1.4-18.5,5.6-20.3,21.8l-6.2,52.6l-0.4,0l-19-57.2c-2.5-7.6-7.3-12.6-18.8-11.6
						c-7.7,0.7-13,4.3-15.7,9.2c-0.3-2.4-1.3-5-3-7.9c-7.7-13.6-35.3-34.1-75.3-11.6c-14,7.9-24.6,18.6-29.4,31.4
						c-5.4-9.4-15.6-15.9-31.5-17.4c-13.9-1.3-23.9,3.2-32.3,13.3l-0.4,0l3.2-35c1.3-13.9-6.7-21.1-18.6-22.1
						c-11.9-1.1-21.1,4.5-22.3,18.4l-9.9,107.7c-1.3,13.9,6.7,21.1,18.6,22.1c11.9,1.1,21-4.5,22.3-18.4l3.3-36.4
						c1.1-12.3,6.8-19.8,17-18.9c10.1,0.9,14.5,7.5,13.5,18.9l-3.6,39.1c-1.3,13.9,6.7,21.1,18.6,22.1c11.9,1.1,21.1-4.5,22.3-18.4
						l3.1-33.9c0.6,1.3,1.3,2.5,2,3.8c18.7,33,49.4,35.1,77.9,19c20.8-11.7,31.3-22.6,35.3-31.5l15.4,36.2c6.8,16,11.4,18.2,25.5,17
						c15.3-1.3,23.9-3.5,26.5-22.1l5.9-44.6l0.4,0l13.5,42.9c5.8,17.9,14.6,18.6,29.9,17.2c14.1-1.2,18.3-4.2,22.2-21.2l13.1-56.4
						C521.4,287.5,522.2,282.6,521.8,277.4L521.8,277.4z M291.2,283c8.9-5,19.2-4.9,26.3,7.6l-33.5,18.9
						C277.3,296.6,283.2,287.6,291.2,283L291.2,283z M349.1,306.5c-10.9,6.2-12.3,21.6-25.3,29c-11.6,6.6-22.5,2.8-29.8-8.1
						l50.7-28.7c4.3-2.4,7.4-4.9,9.2-7.6c0,0.3,0,0.6,0,0.9c0.4,4.1,1.5,7.9,3.7,13.4C354.8,304.8,351.8,305,349.1,306.5z
						 M609.2,272.5c-10.5-1.4-16.5,4.2-22.7,20.5L568,340.8l-0.4-0.1l-7.1-59.4c-1.2-10.8-6.1-16.3-15.4-17.6
						c-11.5-1.5-21,4.8-22.3,14.7c-0.4,3.2,0.1,9.5,3.2,24l13.4,64.8c0.8,3.3,1.2,6.4,0.9,8.2c-0.4,3-2.8,4.6-11.2,3.5
						c-9.3-1.3-16,0.9-17.3,10.6c-1.4,10.5,5.6,18.1,21.8,20.3c17,2.3,35.6-1.3,48-26l33.1-66.2c6.6-13,10.8-21.9,11.3-25.3
						C627.7,280.8,619.1,273.8,609.2,272.5z M137.3,338.5c-1.3-7.1-8.3-13.9-17.9-12c-11.2,2.1-14.5,17.6-28.1,20.2
						c-14.1,2.7-20.9-9.6-23.5-23c-2.1-11-1-25.4,15.5-28.5c14.3-2.7,21.5,10.7,31.9,8.8c8-1.5,13.4-8.4,11.7-17.7
						c-2.7-14.1-23.9-24.1-52.1-18.8c-32.2,6.1-54.3,27.6-47.3,64.6c7.1,37.3,35.5,49.1,67.7,43
						C131.1,368.3,138.8,346.7,137.3,338.5z"/>
				</g>
			</g>
		</g>
	</g>
</g>
</svg>
