<svg width="202" height="49" viewBox="0 0 202 49" fill="none" xmlns="http://www.w3.org/2000/svg">
<path d="M201.5 22.7007C200.9 21.9007 199.6 22.2007 199.3 23.0007C199.2 23.6007 199 24.5007 198.8 25.2007C198.4 26.3007 198.1 27.1007 197.6 27.9007C195.7 31.2007 192.5 33.3007 188.9 34.8007C187.2 35.6007 182.4 37.3007 181.4 34.7007C180.5 32.6007 183.6 30.2007 184.4 29.2007C185.8 27.7007 187.1 26.4007 188.5 25.0007C191.2 21.7007 193.7 18.7007 196.3 15.3007C197 14.4007 197.8 13.4007 198.4 12.3007C199.1 10.6007 198.7 7.40068 197.5 6.60068C196.6 6.00068 194.8 6.00068 193.8 6.40068C191.3 7.40068 189.3 9.10068 187.6 10.9007C184.3 14.2007 181.1 18.1007 179.1 22.6007C177.6 25.9007 177.2 30.8007 174.6 32.9007C173.1 34.0007 169.9 35.8007 167 35.1007C164.3 34.6007 163.2 32.4007 164.8 30.0007C166.1 28.3007 167.8 27.2007 169.1 25.6007C172.4 21.6007 176 18.0007 178.5 13.3007C179.5 11.4007 182 6.80068 179.4 4.80068C176.2 2.50068 172.1 6.10068 170.5 7.90068C167.4 11.6007 164.4 15.2007 162.6 20.2007C161.1 23.8007 161 29.5007 158.1 31.7007C156 33.3007 153.2 34.7007 150.3 35.3007C148.7 35.7007 146.4 35.8007 145.6 34.7007C142.9 31.4007 149.2 27.7007 151.1 26.5007C152.6 25.7007 155.4 25.0007 153.3 22.9007C152.6 22.0007 146.5 25.8007 145.8 22.3007C145.7 21.5007 146 20.8007 146.3 20.4007C147.3 18.7007 148.6 17.9007 150.6 17.2007C151.9 16.7007 152.9 16.9007 154 16.2007C156.6 14.5007 153.7 13.3007 151.8 12.9007C148.5 12.3007 145.4 15.4007 144.5 17.4007C144 18.5007 143.6 20.5007 142.3 20.8007C141.2 21.1007 139.2 19.5007 138.9 18.9007C138.7 18.5007 138.6 18.0007 138.3 17.7007C137.8 17.4007 136.6 17.4007 136.4 17.8007C136.2 18.1007 136.1 19.1007 135.9 19.9007C135.6 21.0007 135.4 21.8007 135 22.8007C133.8 25.6007 132.3 28.0007 130.5 30.3007C129.9 31.2007 128 33.5007 126.2 32.9007C124.6 32.3007 125.6 29.2007 126 28.1007C127.3 24.6007 129.4 21.7007 130.8 18.5007C131.4 17.2007 131.3 15.8007 129.9 15.5007C128 15.0007 126.5 18.6007 125.9 19.7007C124.8 21.7007 123.7 23.7007 122.6 25.8007C121.5 27.6007 120.7 29.3007 119.3 30.6007C118.4 31.4007 116.5 32.8007 114.9 31.9007C113.4 31.2007 114.6 28.6007 115.1 27.5007C116.8 24.5007 118.4 21.4007 120.2 18.2007C120.8 16.8007 121 15.1007 119.5 14.5007C117.1 13.4007 116 17.9007 115.4 19.4007C114.1 22.4007 112.7 25.5007 111.5 28.7007C111.1 29.8007 111.2 31.3007 110.5 32.2007C109.8 33.1007 106.8 34.6007 105.5 35.1007C104 35.8007 98.5 37.5007 97 35.7007C95.8 34.2007 97.1 32.6007 97.9 31.6007C99.2 30.0007 101.5 28.9007 103.5 27.9007C105 27.2007 106.6 27.2007 107.3 25.8007C107.4 25.6007 107.4 25.3007 107.1 24.9007C106.6 24.2007 103.6 24.6007 102.1 24.0007C99.8 23.1007 102 19.6007 102.9 18.9007C104.6 17.6007 109.8 17.2007 109.7 15.0007C109.7 14.9007 109.6 14.9007 109.6 14.8007C108.3 13.9007 106.5 14.2007 104.9 14.5007C102.2 15.1007 99.8 16.7007 98.8 19.0007C97.5 22.0007 98.7 24.9007 101.4 25.7007C101.5 25.9007 101.5 25.9007 101.6 26.2007C100.3 27.6007 98.4 28.6007 96.9 29.7007C94.8 31.2007 93.2 33.0007 90.6 34.0007C88.9 34.7007 85.9 35.4007 85.3 33.1007C84.7 31.1007 87 27.8007 87.7 26.4007C89.8 22.3007 91.8 18.1007 94 13.9007C94.8 12.4007 95.4 11.0007 96.2 9.60068C96.8 8.60068 100.5 2.50068 97.4 2.20068C96.1 2.10068 94.9 5.10068 93.4 7.50068C91.8 10.5007 90.2 13.6007 88.6 16.6007C87.9 17.8007 87.3 19.5007 86.5 20.1007C86.3 20.2007 85.6 19.8007 85.2 19.6007C84.3 19.2007 83.7 19.1007 83 19.1007C81.5 18.9007 80.1 19.6007 79.2 20.1007C76.3 21.6007 73.8 23.8007 72 26.3007C71.3 27.4007 70.5 28.5007 69.8 29.6007C68.9 30.7007 67.6 31.5007 66.5 32.3007C65.7 32.8007 64.6 33.8007 63.2 33.4007C61.7 33.0007 60.8 31.2007 61.5 29.6007C62 28.5007 63 27.5007 63.7 26.7007C64.9 25.1007 66 23.6007 67.2 22.0007C67.7 21.5007 69.2 19.9007 68.4 18.9007C68.1 18.6007 67.7 18.4007 67.3 18.2007C65 17.1007 64.9 19.1007 63.4 19.7007C63.3 19.8007 63.2 19.8007 63 19.7007C62.5 19.4007 62.1 18.5007 61.3 18.2007C59.1 17.3007 56.2 18.7007 54.8 19.4007C51.1 21.5007 46.1 26.1007 48 32.3007C48.3 33.2007 48.9 34.2007 49.4 34.9007C50.3 36.1007 53.2 37.1007 55.1 36.1007C56 35.6007 57.4 34.1007 58.7 34.7007L60 35.8007C60.9 36.4007 62.5 37.3007 64 37.0007C65.7 36.7007 66.2 35.7007 67.3 34.8007C67.5 34.6007 68.4 34.0007 69 34.3007C69.5 34.6007 69.7 35.6007 70.1 36.0007C70.5 36.6007 71.4 37.2007 72.1 37.5007C74.4 38.3007 76.6 38.0007 78.4 36.9007C79.4 36.2007 80.1 34.9007 81.6 34.7007C82.6 34.6007 83 36.2007 83.5 36.6007C84.3 37.5007 86 37.9007 87.4 38.1007C89.1 38.4007 90.9 37.6007 91.9 37.1007C92.7 36.6007 93.6 35.8007 94.1 35.9007C94.4 36.0007 94.5 37.8007 96.1 38.8007C99.6 41.0007 105.6 39.1007 108.2 37.4007C109.7 36.4007 110.4 35.9007 111.4 35.1007C112.4 34.5007 113.3 35.5007 113.9 35.7007C114.5 35.9007 115.7 35.9007 116.4 35.8007C117.5 35.5007 119 35.1007 120 33.9007C120.5 33.4007 120.9 32.6007 121.4 32.4007C121.6 32.3007 121.9 32.3007 122 32.5007C122.7 33.0007 122.5 34.9007 124 36.0007C126.5 37.7007 128.9 35.9007 130.6 34.7007C133.6 32.5007 135.8 29.6007 137.3 26.1007C138 24.6007 138.8 21.6007 139.4 21.6007C139.7 21.5007 140.9 22.4007 141.6 22.8007C143.2 23.7007 144.7 24.3007 146.5 25.0007C147 25.2007 147.4 25.7007 147.2 26.5007C146.8 27.5007 145.7 28.0007 145 28.5007C143.7 29.4007 142.8 30.8007 142.3 32.5007C141 37.2007 146.6 39.3007 151 38.6007C153.2 38.2007 155.5 37.6007 157.3 36.5007C158 36.0007 159.9 34.3007 160.7 34.6007C161.6 34.9007 161.7 36.1007 162.2 36.7007C162.9 37.8007 163.7 38.6007 164.9 39.0007C168.8 40.6007 172.3 38.9007 174.9 36.9007C175.8 36.2007 176.8 34.8007 177.5 34.8007C178.6 34.7007 179.1 37.5007 179.8 38.5007C181.4 40.5007 183.9 40.5007 185.9 40.4007C187.8 40.3007 189.9 39.4007 191 38.8007C195.3 36.6007 199.2 33.3007 201.7 29.3007C200.9 28.5007 202.4 24.2007 201.5 22.7007ZM183.5 21.2007C185.8 17.3007 188.2 13.1007 191.7 10.3007C192.5 9.70068 193.6 8.80068 194.1 8.80068C196.5 8.70068 195.8 11.8007 195 13.1007C194.1 14.1007 193.4 15.2007 192.6 16.3007C191.1 18.4007 190 20.0007 188.3 22.0007C187.4 22.9007 186.6 23.9007 186 24.7007C185.2 25.7007 183.3 27.8007 181.7 27.8007L181.6 27.7007C180.9 25.3007 182.6 22.9007 183.5 21.2007ZM166.3 20.1007C167.4 18.0007 168 16.5007 169.5 14.2007C170.2 13.3007 170.9 12.1007 171.6 11.3007C172.2 10.6007 172.8 9.70068 173.5 9.10068C174 8.60068 174.4 8.20068 175.2 8.10068C178.5 8.20068 176.5 12.0007 175.7 13.3007C174.2 15.6007 172.8 18.0007 171 20.4007C170.2 21.4007 169.3 22.4007 168.5 23.3007C167.6 24.4007 166.6 25.8007 165.2 26.3007C165 26.4007 164.9 26.3007 164.7 26.2007C163.9 23.9007 165.5 21.5007 166.3 20.1007ZM60.3 26.9007C59.2 29.4007 57.4 31.2007 54.9 32.4007C54 32.8007 52.2 33.3007 51.4 32.5007C50.3 31.6007 51 29.6007 51.5 28.5007C52.6 26.4007 54.5 24.4007 56.7 23.4007C57.4 23.1007 58.1 22.8007 58.8 22.9007C59.5 22.9007 59.7 23.0007 59.9 23.2007C60.9 23.7007 60.7 25.9007 60.3 26.9007ZM83.3 27.4007C82 29.9007 79.3 33.3007 76.8 34.6007C75.3 35.3007 73.4 35.3007 72.2 34.3007C70.7 33.1007 71.9 31.0007 72.7 29.9007C74.3 27.6007 76.1 25.6007 78.7 24.2007C79.6 23.7007 80.4 23.4007 81.4 23.3007C84.1 23.7007 84.5 25.1007 83.3 27.4007Z" fill="black"/>
<path d="M42.5003 40.7005C40.0003 36.4005 42.2003 30.8005 43.4003 27.8005C45.9003 21.4005 49.6003 16.1005 52.1003 10.0005C52.9003 8.10045 54.3003 4.30045 52.5003 2.90045C48.6003 -0.199548 44.1003 3.80045 41.5003 6.10045C40.6003 6.90045 39.4003 8.40045 38.8003 8.40045C37.5003 8.10045 38.1003 6.20045 38.4003 5.20045C38.9003 2.60045 38.5002 0.800452 35.7002 0.900452C35.2002 1.00045 34.7003 1.20045 33.6003 1.80045C31.5003 3.10045 29.9002 5.00045 28.2002 6.70045C27.3002 7.60045 25.8002 9.80045 24.7002 9.40045C22.0002 8.50045 27.4003 2.30045 23.4003 1.40045C21.3003 0.900452 19.1003 3.30045 17.9003 4.00045C13.4003 7.00045 9.00025 10.0005 4.40025 13.0005C3.30025 13.7005 -1.09975 15.6005 0.400252 17.8005C1.50025 19.5005 4.30025 17.5005 5.30025 16.9005C8.30025 15.0005 11.4003 13.1005 14.5003 11.2005C15.4003 10.5005 17.6003 9.00045 18.5003 9.30045C18.6003 9.40045 18.8003 9.40045 18.8003 9.80045C18.7003 11.2005 16.2003 15.1005 15.5003 16.3005C12.6003 21.2005 10.2003 26.6005 7.20025 31.5005C6.30025 33.1005 3.10025 37.8005 6.40025 38.7005C9.50025 39.6005 11.5003 34.6005 12.5003 32.6005C14.7003 28.6005 16.8003 24.6005 18.9003 20.7005C20.9003 17.3005 21.5002 14.7005 24.7002 12.5005C26.5002 11.2005 28.3002 10.1005 30.2002 9.00045C30.9002 8.60045 31.9003 8.50045 32.5003 8.90045C33.4003 10.0005 31.0002 13.7005 30.2002 15.1005C27.5002 19.9005 25.1002 25.2005 22.7002 30.2005C22.0002 31.7005 18.9003 36.6005 21.8003 37.5005C24.3003 38.3005 26.2003 32.7005 27.1003 31.0005C29.3003 27.2005 31.4003 23.3005 33.8003 19.5005C36.0003 16.0005 37.1003 13.8005 40.5003 11.2005C42.2003 9.90045 43.8003 8.60045 45.5003 7.30045C46.0003 7.00045 46.9003 6.40045 47.6003 6.90045C48.2003 7.30045 48.0002 8.50045 47.7002 9.10045C46.4002 11.4005 45.4002 13.2005 44.2002 15.3005C43.1002 17.5005 42.0003 19.6005 40.9003 21.8005C39.6003 24.5005 38.6003 27.1005 37.3003 30.1005C36.5003 32.2005 35.4003 35.3005 36.3003 38.0005C37.1003 40.6005 38.5003 42.5005 39.9003 44.3005C40.6003 45.2005 43.8003 49.0005 45.3003 48.8005C46.6003 48.5005 47.5003 46.9005 46.6003 45.6005C45.6003 44.1005 43.6003 42.5005 42.5003 40.7005Z" fill="black"/>
</svg>
