<svg width="404" height="55" viewBox="0 0 404 55" fill="none" xmlns="http://www.w3.org/2000/svg">
<path d="M353.76 54.7791C349.46 54.0337 345.089 50.5474 343.959 46.9626C343.654 45.9972 343.483 45.1295 343.578 45.0342C343.816 44.797 349.314 43.2885 349.96 43.2836C350.277 43.281 350.551 43.6358 350.663 44.1949C350.909 45.4255 352.216 46.9215 353.632 47.5934C354.977 48.2317 357.976 48.3218 359.637 47.7738C362.026 46.9853 363.68 44.0175 363.68 40.5189V39.3898L362.386 40.4969C359.135 43.2798 352.718 43.1035 348.775 40.123C345.027 37.2904 343.352 33.5203 343.576 28.4162C343.692 25.7588 343.836 25.1702 344.896 23.0258C347.242 18.2789 350.886 15.9875 356.16 15.9436C359.24 15.918 361.376 16.5866 362.956 18.071L363.68 18.7512V17.5754V16.3996H367.36H371.04L371.036 29.9196C371.032 44.2727 370.959 45.0997 369.446 48.0796C367.2 52.5005 363.692 54.5942 357.954 54.9382C356.615 55.0185 354.728 54.9468 353.76 54.7791H353.76ZM359.766 35.4244C362.28 34.3737 363.666 32.1625 363.666 29.1996C363.666 24.5334 359.969 21.603 355.61 22.8137C352.095 23.7899 350.16 28.3323 351.695 32.0055C353.037 35.2169 356.625 36.7367 359.766 35.4244ZM379.04 54.332C379.04 54.1657 384.634 41.6588 385.142 40.6884C385.333 40.3249 383.751 36.7769 379.665 28.4047C376.505 21.9297 373.92 16.5798 373.92 16.5158C373.92 16.4519 375.838 16.3996 378.182 16.3996H382.445L385.918 24.0767C387.829 28.2991 389.438 31.7077 389.495 31.6513C389.551 31.595 391.018 28.1763 392.756 24.0542L395.914 16.5596L399.982 16.4699C403.849 16.3846 404.04 16.41 403.857 16.9864C403.751 17.3199 399.939 25.8563 395.385 35.9562L387.107 54.3196L383.073 54.4092C380.855 54.4584 379.04 54.4237 379.04 54.332V54.332ZM19.1651 48.4331C9.97722 46.1737 2.90614 38.809 0.90671 29.4166C0.230642 26.2408 0.484971 20.5545 1.43883 17.5196C3.99728 9.3795 10.5476 3.05798 18.7197 0.842272C21.6096 0.0587463 28.0382 0.043389 30.8797 0.813212C39.1925 3.06538 45.4176 8.897 48.201 17.0396C49.1673 19.8662 49.2412 20.3828 49.2539 24.3996C49.2697 29.4003 48.8281 31.4418 46.8661 35.4396C43.7132 41.8638 37.7918 46.6258 30.7485 48.4015C27.522 49.2149 22.4011 49.2289 19.1651 48.4331V48.4331ZM28.9969 46.2967C29.3179 46.0982 29.0483 45.542 26.6311 41.4173L24.8833 38.4349L22.8415 42.0573C21.7185 44.0496 20.7997 45.8236 20.7997 45.9996C20.7997 46.1756 21.3757 46.4164 22.0797 46.5347C23.4399 46.7632 28.5252 46.5882 28.9969 46.2967ZM20.7688 40.773L23.5173 36.0264L20.7254 31.173C19.1899 28.5037 17.8585 26.3208 17.7666 26.3221C17.6748 26.3234 15.7775 29.4555 13.5503 33.2822L9.50087 40.2396L10.9305 41.5899C12.1475 42.7393 16.9844 45.5196 17.7671 45.5196C17.9063 45.5196 19.2571 43.3837 20.7688 40.773V40.773ZM35.3597 44.0144C37.9402 42.6236 40.2247 40.7914 40.0964 40.2154C39.9533 39.573 32.3535 26.3451 32.1197 26.3314C31.9395 26.3208 26.3997 35.7065 26.3997 36.0222C26.3997 36.1532 30.5405 43.4115 31.4163 44.8155C31.967 45.6985 32.3969 45.6111 35.3597 44.0144ZM10.0557 34.5216C12.3175 30.5674 12.3197 30.5611 12.3197 28.1216V25.6796H7.57268H2.82564L3.09646 27.6796C3.4175 30.0504 4.11207 32.2885 5.20181 34.4637C5.9765 36.01 7.51171 38.4796 7.69825 38.4796C7.74967 38.4796 8.81053 36.6985 10.0557 34.5216V34.5216ZM45.7631 31.7494C46.2251 30.3622 46.6855 28.4289 46.7862 27.4534L46.9692 25.6796H42.2845H37.5997V28.2509C37.5997 29.8704 37.762 31.0845 38.0383 31.5309C38.2795 31.9207 39.3046 33.6646 40.3162 35.4063L42.1556 38.573L43.5394 36.4224C44.3004 35.2396 45.3011 33.1367 45.7631 31.7494ZM28.0006 28.2552C29.6154 25.4478 31.1329 22.9879 31.3728 22.7888C32.1826 22.1167 32.9213 22.6331 34.1369 24.7208L35.3472 26.7996L35.3535 24.7069C35.3731 18.1441 31.6912 13.6091 25.8474 12.9983C22.3199 12.6296 18.9452 14.1983 16.5717 17.3101C15.1868 19.1259 14.5055 21.5639 14.6245 24.2775L14.7198 26.447L15.8398 24.5433C16.7311 23.0282 17.1223 22.6396 17.7562 22.6396C18.5996 22.6396 18.5048 22.5024 23.0057 30.2396C24.0039 31.9556 24.8756 33.3596 24.9427 33.3596C25.0098 33.3596 26.3859 31.0626 28.0007 28.2552H28.0006ZM12.3197 22.2375C12.3197 21.5764 12.4478 20.5887 12.6044 20.0427L12.8891 19.0499L9.32442 17.0048C7.36383 15.8799 5.59977 14.9169 5.40429 14.8647C4.77811 14.6976 3.04467 20.1081 3.0415 22.2396L3.0397 23.4396H7.6797H12.3197L12.3197 22.2375ZM46.7657 21.7194C46.5289 19.705 45.4821 16.1587 44.882 15.338C44.4921 14.8049 44.2042 14.9129 40.6952 16.9091C37.7823 18.5662 36.973 19.1693 37.1297 19.5662C37.2412 19.8486 37.4127 20.8356 37.5108 21.7596L37.6893 23.4396H42.3285H46.9678L46.7657 21.7194ZM15.3231 14.9528C16.162 13.981 16.8015 13.0798 16.7441 12.9502C16.6867 12.8206 15.7979 11.242 14.7689 9.44228C13.2205 6.73394 12.8069 6.21979 12.3689 6.45857C10.3999 7.532 6.29108 12.099 6.81923 12.6271C7.1282 12.9361 13.3156 16.6299 13.6187 16.6863C13.7171 16.7047 14.4841 15.9245 15.3231 14.9528V14.9528ZM36.7407 16.3541C37.1252 16.153 38.7791 15.2043 40.4161 14.2458L43.3925 12.503L42.5269 11.3313C41.2145 9.55483 39.9192 8.24517 38.3843 7.14292L36.996 6.14589L35.742 8.31276C35.0523 9.50453 34.1567 11.0642 33.7518 11.7788L33.0155 13.0779L34.4276 14.8751C35.2043 15.8635 35.8852 16.6829 35.9408 16.6959C35.9963 16.709 36.3563 16.5551 36.7407 16.3541V16.3541ZM23.1197 10.6501C23.8274 10.6398 23.8397 10.5713 23.8397 6.63962V2.63962H22.9309C21.827 2.63962 17.7246 3.67905 16.096 4.37141L14.9122 4.87465L16.5374 7.67713C19.2681 12.3861 18.7329 11.927 20.6994 11.2478C21.6346 10.9248 22.7237 10.6558 23.1197 10.6501ZM32.815 8.508C34.7104 5.26525 34.7794 5.07466 34.209 4.65756C33.3643 4.03996 29.8424 2.99374 27.7999 2.75369L26.0797 2.55151V6.59557C26.0797 10.5719 26.0918 10.6399 26.7997 10.6536C27.3488 10.6643 30.4755 11.6276 30.7703 11.8768C30.7981 11.9004 31.7182 10.3844 32.815 8.508ZM130.88 44.1087C126.177 42.9434 122.517 39.5274 121.102 34.9831C120.25 32.2451 120.255 27.7532 121.114 24.9734C123.155 18.3662 129.929 14.3953 136.864 15.7414C139.759 16.3034 141.365 17.1016 143.32 18.9506C146.035 21.5178 147.36 25.1039 147.36 29.8833V32.0796H137.594H127.828L128.032 32.9596C128.382 34.4696 129.259 35.7143 130.669 36.7055C132.511 38.0003 135.712 38.2443 137.681 37.24C138.913 36.611 139.983 35.4468 140.403 34.2765C140.572 33.8084 140.92 33.851 143.714 34.6818C145.432 35.1924 146.902 35.6751 146.981 35.7543C147.323 36.0961 145.273 39.5557 143.938 40.8913C140.764 44.0649 135.719 45.3079 130.88 44.1087H130.88ZM139.562 25.6527C139.088 23.2808 136.948 21.8396 133.9 21.8396C131.193 21.8396 128.888 23.4632 128.306 25.7791L128.09 26.6396H133.925H139.76L139.562 25.6527ZM211.073 44.0532C207.117 42.9894 203.797 40.1693 202.013 36.3582C201.174 34.5639 200.995 33.7438 200.868 31.1132C200.776 29.2042 200.873 27.329 201.118 26.2773C202.415 20.7027 207.045 16.4869 212.778 15.6611C219.386 14.709 225.334 17.823 228.088 23.6769C228.99 25.5939 229.12 26.2259 229.227 29.2406C229.366 33.1544 228.854 35.4786 227.321 37.8881C226.133 39.7542 223.696 42.0533 221.975 42.9315C218.858 44.5216 214.487 44.9713 211.073 44.0532V44.0532ZM218.776 36.382C220.775 34.9768 221.706 32.9484 221.706 29.9996C221.706 25.6669 219.459 22.9156 215.649 22.583C214.003 22.4393 213.535 22.5365 212.011 23.3398C210.588 24.0897 210.096 24.5797 209.371 25.9672C207.667 29.228 208.416 34.1786 210.899 36.0725C212.51 37.3014 213.251 37.5218 215.433 37.4216C217.036 37.348 217.691 37.1444 218.776 36.382V36.382ZM276.16 44.1297C270.553 42.6626 266.608 38.216 265.71 32.3523C264.95 27.388 266.453 22.772 269.902 19.4823C272.205 17.2855 274.636 16.108 277.81 15.6506C285.419 14.5545 292.179 19.1496 293.921 26.6016C294.471 28.9518 294.175 33.359 293.318 35.5996C291.974 39.1126 288.776 42.3075 285.28 43.63C283.062 44.4689 278.427 44.7228 276.16 44.1297V44.1297ZM282.562 36.9228C285.147 35.7486 286.556 33.306 286.556 29.9996C286.556 27.6755 286.027 26.12 284.758 24.7157C281.68 21.309 276.346 21.9577 274.085 26.0138C273.009 27.9441 272.957 31.893 273.983 33.8396C275.699 37.0956 279.319 38.3965 282.562 36.9228ZM322.113 44.0532C318.151 42.9876 314.853 40.1825 313.024 36.3224C312.034 34.2328 312 34.0184 312 29.983V25.8064L313.203 23.3725C315.334 19.0594 319.087 16.3427 323.863 15.6546C330.421 14.7099 336.367 17.8336 339.135 23.6769C340.124 25.7651 340.16 25.9829 340.16 29.9996C340.16 34.0163 340.124 34.2341 339.135 36.3224C337.925 38.8764 335.5 41.5602 333.339 42.7364C330.106 44.496 325.687 45.0144 322.113 44.0532V44.0532ZM329.149 36.7751C331.903 35.3216 333.226 32.0578 332.611 28.2396C332.08 24.9393 329.777 22.8216 326.429 22.5533C325.096 22.4464 324.482 22.5898 323.051 23.3422C320.664 24.5971 319.52 26.6982 319.52 29.8284C319.52 32.2724 319.917 33.7129 320.989 35.1589C322.692 37.4557 326.45 38.2 329.149 36.7751ZM160.527 43.9117C158.724 43.5365 156.54 42.2471 155.694 41.0595C154.259 39.0443 154.08 37.8477 154.08 30.2794V23.1196H151.68H149.28V19.8012V16.4829L150.756 16.3164C152.377 16.1337 153.704 15.3182 154.315 14.1288C154.534 13.7035 154.712 12.1744 154.715 10.7088L154.72 8.05797L158.16 8.1488L161.6 8.23963L161.69 12.3196L161.779 16.3996H164.49H167.2V19.7596V23.1196H164.48H161.76V29.5196C161.76 37.2242 161.749 37.1996 165.12 37.1996H167.2V40.2476C167.2 43.1727 167.169 43.3073 166.43 43.5883C165.204 44.0544 162.045 44.2275 160.527 43.9117L160.527 43.9117ZM241.531 43.7754C236.699 42.2651 233.194 37.8058 232.524 32.3155C231.688 25.4679 234.47 19.5807 239.774 16.9694C241.81 15.9672 242.073 15.9196 245.593 15.9196C249.475 15.9196 250.537 16.2158 252.24 17.7728L252.96 18.4312V11.0154V3.59962H256.8H260.64V23.5996V43.5996H256.96H253.28V42.2569V40.9141L252.24 41.9187C250.49 43.6086 248.698 44.2276 245.6 44.2112C244.104 44.2033 242.273 44.0072 241.531 43.7754V43.7754ZM250.083 36.4355C250.872 35.9134 251.6 35.0129 252.162 33.8628C252.925 32.3044 253.014 31.7967 252.911 29.6065C252.769 26.5659 252.013 24.9481 250.104 23.5996C248.914 22.7594 248.472 22.6396 246.56 22.6396C244.648 22.6396 244.204 22.7598 243.012 23.5996C241.028 24.9972 240.159 26.8404 240.162 29.65C240.162 30.8983 240.316 32.469 240.502 33.1404C240.914 34.6221 242.949 36.7368 244.387 37.177C246.069 37.6918 248.702 37.349 250.083 36.4355V36.4355ZM71.1997 23.9117V4.22377L76.3462 4.3117L81.4927 4.39963L87.1942 18.101C90.33 25.6367 92.9546 31.8612 93.0266 31.9332C93.0986 32.0053 95.6853 25.8397 98.7748 18.2319L104.392 4.39963L109.716 4.31188L115.04 4.22415V23.9119V43.5996H111.2H107.36L107.349 30.2396L107.338 16.8796L101.843 30.2396L96.3488 43.5996L92.9743 43.5936L89.5997 43.5876L84.3197 30.7437L79.0397 17.8999L78.9561 30.7498L78.8725 43.5996H75.0361H71.1997V23.9117ZM171.04 23.5996V3.59962H174.88H178.72V10.9881V18.3765L179.742 17.5166C181.022 16.4392 181.913 16.0911 184.261 15.7514C189.485 14.9958 193.616 17.2481 195.427 21.8396C196.075 23.4828 196.13 24.2637 196.251 33.5996L196.381 43.5996H192.533H188.685L188.582 34.7196C188.494 27.0962 188.403 25.6992 187.936 24.8471C187.099 23.3182 185.871 22.67 183.784 22.6537C181.579 22.6366 180.486 23.3194 179.44 25.3662C178.747 26.7218 178.72 27.0945 178.72 35.1874V43.5996H174.88H171.04V23.5996ZM299.04 23.5996V3.59962H302.88H306.72V23.5996V43.5996H302.88H299.04V23.5996Z" fill="#D0D0D0"/>
<path d="M353.76 54.7791C349.46 54.0337 345.089 50.5474 343.959 46.9626C343.654 45.9972 343.483 45.1295 343.578 45.0342C343.816 44.797 349.314 43.2885 349.96 43.2836C350.277 43.281 350.551 43.6358 350.663 44.1949C350.909 45.4255 352.216 46.9215 353.632 47.5934C354.977 48.2317 357.976 48.3218 359.637 47.7738C362.026 46.9853 363.68 44.0175 363.68 40.5189V39.3898L362.386 40.4969C359.135 43.2798 352.718 43.1035 348.775 40.123C345.027 37.2904 343.352 33.5203 343.576 28.4162C343.692 25.7588 343.836 25.1702 344.896 23.0258C347.242 18.2789 350.886 15.9875 356.16 15.9436C359.24 15.918 361.376 16.5866 362.956 18.071L363.68 18.7512V17.5754V16.3996H367.36H371.04L371.036 29.9196C371.032 44.2727 370.959 45.0997 369.446 48.0796C367.2 52.5005 363.692 54.5942 357.954 54.9382C356.615 55.0185 354.728 54.9468 353.76 54.7791H353.76ZM359.766 35.4244C362.28 34.3737 363.666 32.1625 363.666 29.1996C363.666 24.5334 359.969 21.603 355.61 22.8137C352.095 23.7899 350.16 28.3323 351.695 32.0055C353.037 35.2169 356.625 36.7367 359.766 35.4244ZM379.04 54.332C379.04 54.1657 384.634 41.6588 385.142 40.6884C385.333 40.3249 383.751 36.7769 379.665 28.4047C376.505 21.9297 373.92 16.5798 373.92 16.5158C373.92 16.4519 375.838 16.3996 378.182 16.3996H382.445L385.918 24.0767C387.829 28.2991 389.438 31.7077 389.495 31.6513C389.551 31.595 391.018 28.1763 392.756 24.0542L395.914 16.5596L399.982 16.4699C403.849 16.3846 404.04 16.41 403.857 16.9864C403.751 17.3199 399.939 25.8563 395.385 35.9562L387.107 54.3196L383.073 54.4092C380.855 54.4584 379.04 54.4237 379.04 54.332V54.332ZM19.1651 48.4331C9.97722 46.1737 2.90614 38.809 0.90671 29.4166C0.230642 26.2408 0.484971 20.5545 1.43883 17.5196C3.99728 9.3795 10.5476 3.05798 18.7197 0.842272C21.6096 0.0587463 28.0382 0.043389 30.8797 0.813212C39.1925 3.06538 45.4176 8.897 48.201 17.0396C49.1673 19.8662 49.2412 20.3828 49.2539 24.3996C49.2697 29.4003 48.8281 31.4418 46.8661 35.4396C43.7132 41.8638 37.7918 46.6258 30.7485 48.4015C27.522 49.2149 22.4011 49.2289 19.1651 48.4331V48.4331ZM28.9969 46.2967C29.3179 46.0982 29.0483 45.542 26.6311 41.4173L24.8833 38.4349L22.8415 42.0573C21.7185 44.0496 20.7997 45.8236 20.7997 45.9996C20.7997 46.1756 21.3757 46.4164 22.0797 46.5347C23.4399 46.7632 28.5252 46.5882 28.9969 46.2967ZM20.7688 40.773L23.5173 36.0264L20.7254 31.173C19.1899 28.5037 17.8585 26.3208 17.7666 26.3221C17.6748 26.3234 15.7775 29.4555 13.5503 33.2822L9.50087 40.2396L10.9305 41.5899C12.1475 42.7393 16.9844 45.5196 17.7671 45.5196C17.9063 45.5196 19.2571 43.3837 20.7688 40.773V40.773ZM35.3597 44.0144C37.9402 42.6236 40.2247 40.7914 40.0964 40.2154C39.9533 39.573 32.3535 26.3451 32.1197 26.3314C31.9395 26.3208 26.3997 35.7065 26.3997 36.0222C26.3997 36.1532 30.5405 43.4115 31.4163 44.8155C31.967 45.6985 32.3969 45.6111 35.3597 44.0144ZM10.0557 34.5216C12.3175 30.5674 12.3197 30.5611 12.3197 28.1216V25.6796H7.57268H2.82564L3.09646 27.6796C3.4175 30.0504 4.11207 32.2885 5.20181 34.4637C5.9765 36.01 7.51171 38.4796 7.69825 38.4796C7.74967 38.4796 8.81053 36.6985 10.0557 34.5216V34.5216ZM45.7631 31.7494C46.2251 30.3622 46.6855 28.4289 46.7862 27.4534L46.9692 25.6796H42.2845H37.5997V28.2509C37.5997 29.8704 37.762 31.0845 38.0383 31.5309C38.2795 31.9207 39.3046 33.6646 40.3162 35.4063L42.1556 38.573L43.5394 36.4224C44.3004 35.2396 45.3011 33.1367 45.7631 31.7494ZM28.0006 28.2552C29.6154 25.4478 31.1329 22.9879 31.3728 22.7888C32.1826 22.1167 32.9213 22.6331 34.1369 24.7208L35.3472 26.7996L35.3535 24.7069C35.3731 18.1441 31.6912 13.6091 25.8474 12.9983C22.3199 12.6296 18.9452 14.1983 16.5717 17.3101C15.1868 19.1259 14.5055 21.5639 14.6245 24.2775L14.7198 26.447L15.8398 24.5433C16.7311 23.0282 17.1223 22.6396 17.7562 22.6396C18.5996 22.6396 18.5048 22.5024 23.0057 30.2396C24.0039 31.9556 24.8756 33.3596 24.9427 33.3596C25.0098 33.3596 26.3859 31.0626 28.0007 28.2552H28.0006ZM12.3197 22.2375C12.3197 21.5764 12.4478 20.5887 12.6044 20.0427L12.8891 19.0499L9.32442 17.0048C7.36383 15.8799 5.59977 14.9169 5.40429 14.8647C4.77811 14.6976 3.04467 20.1081 3.0415 22.2396L3.0397 23.4396H7.6797H12.3197L12.3197 22.2375ZM46.7657 21.7194C46.5289 19.705 45.4821 16.1587 44.882 15.338C44.4921 14.8049 44.2042 14.9129 40.6952 16.9091C37.7823 18.5662 36.973 19.1693 37.1297 19.5662C37.2412 19.8486 37.4127 20.8356 37.5108 21.7596L37.6893 23.4396H42.3285H46.9678L46.7657 21.7194ZM15.3231 14.9528C16.162 13.981 16.8015 13.0798 16.7441 12.9502C16.6867 12.8206 15.7979 11.242 14.7689 9.44228C13.2205 6.73394 12.8069 6.21979 12.3689 6.45857C10.3999 7.532 6.29108 12.099 6.81923 12.6271C7.1282 12.9361 13.3156 16.6299 13.6187 16.6863C13.7171 16.7047 14.4841 15.9245 15.3231 14.9528V14.9528ZM36.7407 16.3541C37.1252 16.153 38.7791 15.2043 40.4161 14.2458L43.3925 12.503L42.5269 11.3313C41.2145 9.55483 39.9192 8.24517 38.3843 7.14292L36.996 6.14589L35.742 8.31276C35.0523 9.50453 34.1567 11.0642 33.7518 11.7788L33.0155 13.0779L34.4276 14.8751C35.2043 15.8635 35.8852 16.6829 35.9408 16.6959C35.9963 16.709 36.3563 16.5551 36.7407 16.3541V16.3541ZM23.1197 10.6501C23.8274 10.6398 23.8397 10.5713 23.8397 6.63962V2.63962H22.9309C21.827 2.63962 17.7246 3.67905 16.096 4.37141L14.9122 4.87465L16.5374 7.67713C19.2681 12.3861 18.7329 11.927 20.6994 11.2478C21.6346 10.9248 22.7237 10.6558 23.1197 10.6501ZM32.815 8.508C34.7104 5.26525 34.7794 5.07466 34.209 4.65756C33.3643 4.03996 29.8424 2.99374 27.7999 2.75369L26.0797 2.55151V6.59557C26.0797 10.5719 26.0918 10.6399 26.7997 10.6536C27.3488 10.6643 30.4755 11.6276 30.7703 11.8768C30.7981 11.9004 31.7182 10.3844 32.815 8.508ZM130.88 44.1087C126.177 42.9434 122.517 39.5274 121.102 34.9831C120.25 32.2451 120.255 27.7532 121.114 24.9734C123.155 18.3662 129.929 14.3953 136.864 15.7414C139.759 16.3034 141.365 17.1016 143.32 18.9506C146.035 21.5178 147.36 25.1039 147.36 29.8833V32.0796H137.594H127.828L128.032 32.9596C128.382 34.4696 129.259 35.7143 130.669 36.7055C132.511 38.0003 135.712 38.2443 137.681 37.24C138.913 36.611 139.983 35.4468 140.403 34.2765C140.572 33.8084 140.92 33.851 143.714 34.6818C145.432 35.1924 146.902 35.6751 146.981 35.7543C147.323 36.0961 145.273 39.5557 143.938 40.8913C140.764 44.0649 135.719 45.3079 130.88 44.1087H130.88ZM139.562 25.6527C139.088 23.2808 136.948 21.8396 133.9 21.8396C131.193 21.8396 128.888 23.4632 128.306 25.7791L128.09 26.6396H133.925H139.76L139.562 25.6527ZM211.073 44.0532C207.117 42.9894 203.797 40.1693 202.013 36.3582C201.174 34.5639 200.995 33.7438 200.868 31.1132C200.776 29.2042 200.873 27.329 201.118 26.2773C202.415 20.7027 207.045 16.4869 212.778 15.6611C219.386 14.709 225.334 17.823 228.088 23.6769C228.99 25.5939 229.12 26.2259 229.227 29.2406C229.366 33.1544 228.854 35.4786 227.321 37.8881C226.133 39.7542 223.696 42.0533 221.975 42.9315C218.858 44.5216 214.487 44.9713 211.073 44.0532V44.0532ZM218.776 36.382C220.775 34.9768 221.706 32.9484 221.706 29.9996C221.706 25.6669 219.459 22.9156 215.649 22.583C214.003 22.4393 213.535 22.5365 212.011 23.3398C210.588 24.0897 210.096 24.5797 209.371 25.9672C207.667 29.228 208.416 34.1786 210.899 36.0725C212.51 37.3014 213.251 37.5218 215.433 37.4216C217.036 37.348 217.691 37.1444 218.776 36.382V36.382ZM276.16 44.1297C270.553 42.6626 266.608 38.216 265.71 32.3523C264.95 27.388 266.453 22.772 269.902 19.4823C272.205 17.2855 274.636 16.108 277.81 15.6506C285.419 14.5545 292.179 19.1496 293.921 26.6016C294.471 28.9518 294.175 33.359 293.318 35.5996C291.974 39.1126 288.776 42.3075 285.28 43.63C283.062 44.4689 278.427 44.7228 276.16 44.1297V44.1297ZM282.562 36.9228C285.147 35.7486 286.556 33.306 286.556 29.9996C286.556 27.6755 286.027 26.12 284.758 24.7157C281.68 21.309 276.346 21.9577 274.085 26.0138C273.009 27.9441 272.957 31.893 273.983 33.8396C275.699 37.0956 279.319 38.3965 282.562 36.9228ZM322.113 44.0532C318.151 42.9876 314.853 40.1825 313.024 36.3224C312.034 34.2328 312 34.0184 312 29.983V25.8064L313.203 23.3725C315.334 19.0594 319.087 16.3427 323.863 15.6546C330.421 14.7099 336.367 17.8336 339.135 23.6769C340.124 25.7651 340.16 25.9829 340.16 29.9996C340.16 34.0163 340.124 34.2341 339.135 36.3224C337.925 38.8764 335.5 41.5602 333.339 42.7364C330.106 44.496 325.687 45.0144 322.113 44.0532V44.0532ZM329.149 36.7751C331.903 35.3216 333.226 32.0578 332.611 28.2396C332.08 24.9393 329.777 22.8216 326.429 22.5533C325.096 22.4464 324.482 22.5898 323.051 23.3422C320.664 24.5971 319.52 26.6982 319.52 29.8284C319.52 32.2724 319.917 33.7129 320.989 35.1589C322.692 37.4557 326.45 38.2 329.149 36.7751ZM160.527 43.9117C158.724 43.5365 156.54 42.2471 155.694 41.0595C154.259 39.0443 154.08 37.8477 154.08 30.2794V23.1196H151.68H149.28V19.8012V16.4829L150.756 16.3164C152.377 16.1337 153.704 15.3182 154.315 14.1288C154.534 13.7035 154.712 12.1744 154.715 10.7088L154.72 8.05797L158.16 8.1488L161.6 8.23963L161.69 12.3196L161.779 16.3996H164.49H167.2V19.7596V23.1196H164.48H161.76V29.5196C161.76 37.2242 161.749 37.1996 165.12 37.1996H167.2V40.2476C167.2 43.1727 167.169 43.3073 166.43 43.5883C165.204 44.0544 162.045 44.2275 160.527 43.9117L160.527 43.9117ZM241.531 43.7754C236.699 42.2651 233.194 37.8058 232.524 32.3155C231.688 25.4679 234.47 19.5807 239.774 16.9694C241.81 15.9672 242.073 15.9196 245.593 15.9196C249.475 15.9196 250.537 16.2158 252.24 17.7728L252.96 18.4312V11.0154V3.59962H256.8H260.64V23.5996V43.5996H256.96H253.28V42.2569V40.9141L252.24 41.9187C250.49 43.6086 248.698 44.2276 245.6 44.2112C244.104 44.2033 242.273 44.0072 241.531 43.7754V43.7754ZM250.083 36.4355C250.872 35.9134 251.6 35.0129 252.162 33.8628C252.925 32.3044 253.014 31.7967 252.911 29.6065C252.769 26.5659 252.013 24.9481 250.104 23.5996C248.914 22.7594 248.472 22.6396 246.56 22.6396C244.648 22.6396 244.204 22.7598 243.012 23.5996C241.028 24.9972 240.159 26.8404 240.162 29.65C240.162 30.8983 240.316 32.469 240.502 33.1404C240.914 34.6221 242.949 36.7368 244.387 37.177C246.069 37.6918 248.702 37.349 250.083 36.4355V36.4355ZM71.1997 23.9117V4.22377L76.3462 4.3117L81.4927 4.39963L87.1942 18.101C90.33 25.6367 92.9546 31.8612 93.0266 31.9332C93.0986 32.0053 95.6853 25.8397 98.7748 18.2319L104.392 4.39963L109.716 4.31188L115.04 4.22415V23.9119V43.5996H111.2H107.36L107.349 30.2396L107.338 16.8796L101.843 30.2396L96.3488 43.5996L92.9743 43.5936L89.5997 43.5876L84.3197 30.7437L79.0397 17.8999L78.9561 30.7498L78.8725 43.5996H75.0361H71.1997V23.9117ZM171.04 23.5996V3.59962H174.88H178.72V10.9881V18.3765L179.742 17.5166C181.022 16.4392 181.913 16.0911 184.261 15.7514C189.485 14.9958 193.616 17.2481 195.427 21.8396C196.075 23.4828 196.13 24.2637 196.251 33.5996L196.381 43.5996H192.533H188.685L188.582 34.7196C188.494 27.0962 188.403 25.6992 187.936 24.8471C187.099 23.3182 185.871 22.67 183.784 22.6537C181.579 22.6366 180.486 23.3194 179.44 25.3662C178.747 26.7218 178.72 27.0945 178.72 35.1874V43.5996H174.88H171.04V23.5996ZM299.04 23.5996V3.59962H302.88H306.72V23.5996V43.5996H302.88H299.04V23.5996Z" fill="#B9B9B9"/>
<path d="M353.76 54.7791C349.46 54.0337 345.089 50.5474 343.959 46.9626C343.654 45.9972 343.483 45.1295 343.578 45.0342C343.816 44.797 349.314 43.2885 349.96 43.2836C350.277 43.281 350.551 43.6358 350.663 44.1949C350.909 45.4255 352.216 46.9215 353.632 47.5934C354.977 48.2317 357.976 48.3218 359.637 47.7738C362.026 46.9853 363.68 44.0175 363.68 40.5189V39.3898L362.386 40.4969C359.135 43.2798 352.718 43.1035 348.775 40.123C345.027 37.2904 343.352 33.5203 343.576 28.4162C343.692 25.7588 343.836 25.1702 344.896 23.0258C347.242 18.2789 350.886 15.9875 356.16 15.9436C359.24 15.918 361.376 16.5866 362.956 18.071L363.68 18.7512V17.5754V16.3996H367.36H371.04L371.036 29.9196C371.032 44.2727 370.959 45.0997 369.446 48.0796C367.2 52.5005 363.692 54.5942 357.954 54.9382C356.615 55.0185 354.728 54.9468 353.76 54.7791H353.76ZM359.766 35.4244C362.28 34.3737 363.666 32.1625 363.666 29.1996C363.666 24.5334 359.969 21.603 355.61 22.8137C352.095 23.7899 350.16 28.3323 351.695 32.0055C353.037 35.2169 356.625 36.7367 359.766 35.4244ZM379.04 54.332C379.04 54.1657 384.634 41.6588 385.142 40.6884C385.333 40.3249 383.751 36.7769 379.665 28.4047C376.505 21.9297 373.92 16.5798 373.92 16.5158C373.92 16.4519 375.838 16.3996 378.182 16.3996H382.445L385.918 24.0767C387.829 28.2991 389.438 31.7077 389.495 31.6513C389.551 31.595 391.018 28.1763 392.756 24.0542L395.914 16.5596L399.982 16.4699C403.849 16.3846 404.04 16.41 403.857 16.9864C403.751 17.3199 399.939 25.8563 395.385 35.9562L387.107 54.3196L383.073 54.4092C380.855 54.4584 379.04 54.4237 379.04 54.332V54.332ZM19.1651 48.4331C9.97722 46.1737 2.90614 38.809 0.90671 29.4166C0.230642 26.2408 0.484971 20.5545 1.43883 17.5196C3.99728 9.3795 10.5476 3.05798 18.7197 0.842272C21.6096 0.0587463 28.0382 0.043389 30.8797 0.813212C39.1925 3.06538 45.4176 8.897 48.201 17.0396C49.1673 19.8662 49.2412 20.3828 49.2539 24.3996C49.2697 29.4003 48.8281 31.4418 46.8661 35.4396C43.7132 41.8638 37.7918 46.6258 30.7485 48.4015C27.522 49.2149 22.4011 49.2289 19.1651 48.4331V48.4331ZM28.9969 46.2967C29.3179 46.0982 29.0483 45.542 26.6311 41.4173L24.8833 38.4349L22.8415 42.0573C21.7185 44.0496 20.7997 45.8236 20.7997 45.9996C20.7997 46.1756 21.3757 46.4164 22.0797 46.5347C23.4399 46.7632 28.5252 46.5882 28.9969 46.2967ZM20.7688 40.773L23.5173 36.0264L20.7254 31.173C19.1899 28.5037 17.8585 26.3208 17.7666 26.3221C17.6748 26.3234 15.7775 29.4555 13.5503 33.2822L9.50087 40.2396L10.9305 41.5899C12.1475 42.7393 16.9844 45.5196 17.7671 45.5196C17.9063 45.5196 19.2571 43.3837 20.7688 40.773V40.773ZM35.3597 44.0144C37.9402 42.6236 40.2247 40.7914 40.0964 40.2154C39.9533 39.573 32.3535 26.3451 32.1197 26.3314C31.9395 26.3208 26.3997 35.7065 26.3997 36.0222C26.3997 36.1532 30.5405 43.4115 31.4163 44.8155C31.967 45.6985 32.3969 45.6111 35.3597 44.0144ZM10.0557 34.5216C12.3175 30.5674 12.3197 30.5611 12.3197 28.1216V25.6796H7.57268H2.82564L3.09646 27.6796C3.4175 30.0504 4.11207 32.2885 5.20181 34.4637C5.9765 36.01 7.51171 38.4796 7.69825 38.4796C7.74967 38.4796 8.81053 36.6985 10.0557 34.5216V34.5216ZM45.7631 31.7494C46.2251 30.3622 46.6855 28.4289 46.7862 27.4534L46.9692 25.6796H42.2845H37.5997V28.2509C37.5997 29.8704 37.762 31.0845 38.0383 31.5309C38.2795 31.9207 39.3046 33.6646 40.3162 35.4063L42.1556 38.573L43.5394 36.4224C44.3004 35.2396 45.3011 33.1367 45.7631 31.7494ZM28.0006 28.2552C29.6154 25.4478 31.1329 22.9879 31.3728 22.7888C32.1826 22.1167 32.9213 22.6331 34.1369 24.7208L35.3472 26.7996L35.3535 24.7069C35.3731 18.1441 31.6912 13.6091 25.8474 12.9983C22.3199 12.6296 18.9452 14.1983 16.5717 17.3101C15.1868 19.1259 14.5055 21.5639 14.6245 24.2775L14.7198 26.447L15.8398 24.5433C16.7311 23.0282 17.1223 22.6396 17.7562 22.6396C18.5996 22.6396 18.5048 22.5024 23.0057 30.2396C24.0039 31.9556 24.8756 33.3596 24.9427 33.3596C25.0098 33.3596 26.3859 31.0626 28.0007 28.2552H28.0006ZM12.3197 22.2375C12.3197 21.5764 12.4478 20.5887 12.6044 20.0427L12.8891 19.0499L9.32442 17.0048C7.36383 15.8799 5.59977 14.9169 5.40429 14.8647C4.77811 14.6976 3.04467 20.1081 3.0415 22.2396L3.0397 23.4396H7.6797H12.3197L12.3197 22.2375ZM46.7657 21.7194C46.5289 19.705 45.4821 16.1587 44.882 15.338C44.4921 14.8049 44.2042 14.9129 40.6952 16.9091C37.7823 18.5662 36.973 19.1693 37.1297 19.5662C37.2412 19.8486 37.4127 20.8356 37.5108 21.7596L37.6893 23.4396H42.3285H46.9678L46.7657 21.7194ZM15.3231 14.9528C16.162 13.981 16.8015 13.0798 16.7441 12.9502C16.6867 12.8206 15.7979 11.242 14.7689 9.44228C13.2205 6.73394 12.8069 6.21979 12.3689 6.45857C10.3999 7.532 6.29108 12.099 6.81923 12.6271C7.1282 12.9361 13.3156 16.6299 13.6187 16.6863C13.7171 16.7047 14.4841 15.9245 15.3231 14.9528V14.9528ZM36.7407 16.3541C37.1252 16.153 38.7791 15.2043 40.4161 14.2458L43.3925 12.503L42.5269 11.3313C41.2145 9.55483 39.9192 8.24517 38.3843 7.14292L36.996 6.14589L35.742 8.31276C35.0523 9.50453 34.1567 11.0642 33.7518 11.7788L33.0155 13.0779L34.4276 14.8751C35.2043 15.8635 35.8852 16.6829 35.9408 16.6959C35.9963 16.709 36.3563 16.5551 36.7407 16.3541V16.3541ZM23.1197 10.6501C23.8274 10.6398 23.8397 10.5713 23.8397 6.63962V2.63962H22.9309C21.827 2.63962 17.7246 3.67905 16.096 4.37141L14.9122 4.87465L16.5374 7.67713C19.2681 12.3861 18.7329 11.927 20.6994 11.2478C21.6346 10.9248 22.7237 10.6558 23.1197 10.6501ZM32.815 8.508C34.7104 5.26525 34.7794 5.07466 34.209 4.65756C33.3643 4.03996 29.8424 2.99374 27.7999 2.75369L26.0797 2.55151V6.59557C26.0797 10.5719 26.0918 10.6399 26.7997 10.6536C27.3488 10.6643 30.4755 11.6276 30.7703 11.8768C30.7981 11.9004 31.7182 10.3844 32.815 8.508ZM130.88 44.1087C126.177 42.9434 122.517 39.5274 121.102 34.9831C120.25 32.2451 120.255 27.7532 121.114 24.9734C123.155 18.3662 129.929 14.3953 136.864 15.7414C139.759 16.3034 141.365 17.1016 143.32 18.9506C146.035 21.5178 147.36 25.1039 147.36 29.8833V32.0796H137.594H127.828L128.032 32.9596C128.382 34.4696 129.259 35.7143 130.669 36.7055C132.511 38.0003 135.712 38.2443 137.681 37.24C138.913 36.611 139.983 35.4468 140.403 34.2765C140.572 33.8084 140.92 33.851 143.714 34.6818C145.432 35.1924 146.902 35.6751 146.981 35.7543C147.323 36.0961 145.273 39.5557 143.938 40.8913C140.764 44.0649 135.719 45.3079 130.88 44.1087H130.88ZM139.562 25.6527C139.088 23.2808 136.948 21.8396 133.9 21.8396C131.193 21.8396 128.888 23.4632 128.306 25.7791L128.09 26.6396H133.925H139.76L139.562 25.6527ZM211.073 44.0532C207.117 42.9894 203.797 40.1693 202.013 36.3582C201.174 34.5639 200.995 33.7438 200.868 31.1132C200.776 29.2042 200.873 27.329 201.118 26.2773C202.415 20.7027 207.045 16.4869 212.778 15.6611C219.386 14.709 225.334 17.823 228.088 23.6769C228.99 25.5939 229.12 26.2259 229.227 29.2406C229.366 33.1544 228.854 35.4786 227.321 37.8881C226.133 39.7542 223.696 42.0533 221.975 42.9315C218.858 44.5216 214.487 44.9713 211.073 44.0532V44.0532ZM218.776 36.382C220.775 34.9768 221.706 32.9484 221.706 29.9996C221.706 25.6669 219.459 22.9156 215.649 22.583C214.003 22.4393 213.535 22.5365 212.011 23.3398C210.588 24.0897 210.096 24.5797 209.371 25.9672C207.667 29.228 208.416 34.1786 210.899 36.0725C212.51 37.3014 213.251 37.5218 215.433 37.4216C217.036 37.348 217.691 37.1444 218.776 36.382V36.382ZM276.16 44.1297C270.553 42.6626 266.608 38.216 265.71 32.3523C264.95 27.388 266.453 22.772 269.902 19.4823C272.205 17.2855 274.636 16.108 277.81 15.6506C285.419 14.5545 292.179 19.1496 293.921 26.6016C294.471 28.9518 294.175 33.359 293.318 35.5996C291.974 39.1126 288.776 42.3075 285.28 43.63C283.062 44.4689 278.427 44.7228 276.16 44.1297V44.1297ZM282.562 36.9228C285.147 35.7486 286.556 33.306 286.556 29.9996C286.556 27.6755 286.027 26.12 284.758 24.7157C281.68 21.309 276.346 21.9577 274.085 26.0138C273.009 27.9441 272.957 31.893 273.983 33.8396C275.699 37.0956 279.319 38.3965 282.562 36.9228ZM322.113 44.0532C318.151 42.9876 314.853 40.1825 313.024 36.3224C312.034 34.2328 312 34.0184 312 29.983V25.8064L313.203 23.3725C315.334 19.0594 319.087 16.3427 323.863 15.6546C330.421 14.7099 336.367 17.8336 339.135 23.6769C340.124 25.7651 340.16 25.9829 340.16 29.9996C340.16 34.0163 340.124 34.2341 339.135 36.3224C337.925 38.8764 335.5 41.5602 333.339 42.7364C330.106 44.496 325.687 45.0144 322.113 44.0532V44.0532ZM329.149 36.7751C331.903 35.3216 333.226 32.0578 332.611 28.2396C332.08 24.9393 329.777 22.8216 326.429 22.5533C325.096 22.4464 324.482 22.5898 323.051 23.3422C320.664 24.5971 319.52 26.6982 319.52 29.8284C319.52 32.2724 319.917 33.7129 320.989 35.1589C322.692 37.4557 326.45 38.2 329.149 36.7751ZM160.527 43.9117C158.724 43.5365 156.54 42.2471 155.694 41.0595C154.259 39.0443 154.08 37.8477 154.08 30.2794V23.1196H151.68H149.28V19.8012V16.4829L150.756 16.3164C152.377 16.1337 153.704 15.3182 154.315 14.1288C154.534 13.7035 154.712 12.1744 154.715 10.7088L154.72 8.05797L158.16 8.1488L161.6 8.23963L161.69 12.3196L161.779 16.3996H164.49H167.2V19.7596V23.1196H164.48H161.76V29.5196C161.76 37.2242 161.749 37.1996 165.12 37.1996H167.2V40.2476C167.2 43.1727 167.169 43.3073 166.43 43.5883C165.204 44.0544 162.045 44.2275 160.527 43.9117L160.527 43.9117ZM241.531 43.7754C236.699 42.2651 233.194 37.8058 232.524 32.3155C231.688 25.4679 234.47 19.5807 239.774 16.9694C241.81 15.9672 242.073 15.9196 245.593 15.9196C249.475 15.9196 250.537 16.2158 252.24 17.7728L252.96 18.4312V11.0154V3.59962H256.8H260.64V23.5996V43.5996H256.96H253.28V42.2569V40.9141L252.24 41.9187C250.49 43.6086 248.698 44.2276 245.6 44.2112C244.104 44.2033 242.273 44.0072 241.531 43.7754V43.7754ZM250.083 36.4355C250.872 35.9134 251.6 35.0129 252.162 33.8628C252.925 32.3044 253.014 31.7967 252.911 29.6065C252.769 26.5659 252.013 24.9481 250.104 23.5996C248.914 22.7594 248.472 22.6396 246.56 22.6396C244.648 22.6396 244.204 22.7598 243.012 23.5996C241.028 24.9972 240.159 26.8404 240.162 29.65C240.162 30.8983 240.316 32.469 240.502 33.1404C240.914 34.6221 242.949 36.7368 244.387 37.177C246.069 37.6918 248.702 37.349 250.083 36.4355V36.4355ZM71.1997 23.9117V4.22377L76.3462 4.3117L81.4927 4.39963L87.1942 18.101C90.33 25.6367 92.9546 31.8612 93.0266 31.9332C93.0986 32.0053 95.6853 25.8397 98.7748 18.2319L104.392 4.39963L109.716 4.31188L115.04 4.22415V23.9119V43.5996H111.2H107.36L107.349 30.2396L107.338 16.8796L101.843 30.2396L96.3488 43.5996L92.9743 43.5936L89.5997 43.5876L84.3197 30.7437L79.0397 17.8999L78.9561 30.7498L78.8725 43.5996H75.0361H71.1997V23.9117ZM171.04 23.5996V3.59962H174.88H178.72V10.9881V18.3765L179.742 17.5166C181.022 16.4392 181.913 16.0911 184.261 15.7514C189.485 14.9958 193.616 17.2481 195.427 21.8396C196.075 23.4828 196.13 24.2637 196.251 33.5996L196.381 43.5996H192.533H188.685L188.582 34.7196C188.494 27.0962 188.403 25.6992 187.936 24.8471C187.099 23.3182 185.871 22.67 183.784 22.6537C181.579 22.6366 180.486 23.3194 179.44 25.3662C178.747 26.7218 178.72 27.0945 178.72 35.1874V43.5996H174.88H171.04V23.5996ZM299.04 23.5996V3.59962H302.88H306.72V23.5996V43.5996H302.88H299.04V23.5996Z" fill="#A3A3A3"/>
<path d="M353.76 54.7791C349.46 54.0337 345.089 50.5474 343.959 46.9626C343.654 45.9972 343.483 45.1295 343.578 45.0342C343.816 44.797 349.314 43.2885 349.96 43.2836C350.277 43.281 350.551 43.6358 350.663 44.1949C350.909 45.4255 352.216 46.9215 353.632 47.5934C354.977 48.2317 357.976 48.3218 359.637 47.7738C362.026 46.9853 363.68 44.0175 363.68 40.5189V39.3898L362.386 40.4969C359.135 43.2798 352.718 43.1035 348.775 40.123C345.027 37.2904 343.352 33.5203 343.576 28.4162C343.692 25.7588 343.836 25.1702 344.896 23.0258C347.242 18.2789 350.886 15.9875 356.16 15.9436C359.24 15.918 361.376 16.5866 362.956 18.071L363.68 18.7512V17.5754V16.3996H367.36H371.04L371.036 29.9196C371.032 44.2727 370.959 45.0997 369.446 48.0796C367.2 52.5005 363.692 54.5942 357.954 54.9382C356.615 55.0185 354.728 54.9468 353.76 54.7791H353.76ZM359.766 35.4244C362.28 34.3737 363.666 32.1625 363.666 29.1996C363.666 24.5334 359.969 21.603 355.61 22.8137C352.095 23.7899 350.16 28.3323 351.695 32.0055C353.037 35.2169 356.625 36.7367 359.766 35.4244ZM379.04 54.332C379.04 54.1657 384.634 41.6588 385.142 40.6884C385.333 40.3249 383.751 36.7769 379.665 28.4047C376.505 21.9297 373.92 16.5798 373.92 16.5158C373.92 16.4519 375.838 16.3996 378.182 16.3996H382.445L385.918 24.0767C387.829 28.2991 389.438 31.7077 389.495 31.6513C389.551 31.595 391.018 28.1763 392.756 24.0542L395.914 16.5596L399.982 16.4699C403.849 16.3846 404.04 16.41 403.857 16.9864C403.751 17.3199 399.939 25.8563 395.385 35.9562L387.107 54.3196L383.073 54.4092C380.855 54.4584 379.04 54.4237 379.04 54.332V54.332ZM19.1651 48.4331C9.97722 46.1737 2.90614 38.809 0.90671 29.4166C0.230642 26.2408 0.484971 20.5545 1.43883 17.5196C3.99728 9.3795 10.5476 3.05798 18.7197 0.842272C21.6096 0.0587463 28.0382 0.043389 30.8797 0.813212C39.1925 3.06538 45.4176 8.897 48.201 17.0396C49.1673 19.8662 49.2412 20.3828 49.2539 24.3996C49.2697 29.4003 48.8281 31.4418 46.8661 35.4396C43.7132 41.8638 37.7918 46.6258 30.7485 48.4015C27.522 49.2149 22.4011 49.2289 19.1651 48.4331V48.4331ZM28.9969 46.2967C29.3179 46.0982 29.0483 45.542 26.6311 41.4173L24.8833 38.4349L22.8415 42.0573C21.7185 44.0496 20.7997 45.8236 20.7997 45.9996C20.7997 46.1756 21.3757 46.4164 22.0797 46.5347C23.4399 46.7632 28.5252 46.5882 28.9969 46.2967ZM20.7688 40.773L23.5173 36.0264L20.7254 31.173C19.1899 28.5037 17.8585 26.3208 17.7666 26.3221C17.6748 26.3234 15.7775 29.4555 13.5503 33.2822L9.50087 40.2396L10.9305 41.5899C12.1475 42.7393 16.9844 45.5196 17.7671 45.5196C17.9063 45.5196 19.2571 43.3837 20.7688 40.773V40.773ZM35.3597 44.0144C37.9402 42.6236 40.2247 40.7914 40.0964 40.2154C39.9533 39.573 32.3535 26.3451 32.1197 26.3314C31.9395 26.3208 26.3997 35.7065 26.3997 36.0222C26.3997 36.1532 30.5405 43.4115 31.4163 44.8155C31.967 45.6985 32.3969 45.6111 35.3597 44.0144ZM10.0557 34.5216C12.3175 30.5674 12.3197 30.5611 12.3197 28.1216V25.6796H7.57268H2.82564L3.09646 27.6796C3.4175 30.0504 4.11207 32.2885 5.20181 34.4637C5.9765 36.01 7.51171 38.4796 7.69825 38.4796C7.74967 38.4796 8.81053 36.6985 10.0557 34.5216V34.5216ZM45.7631 31.7494C46.2251 30.3622 46.6855 28.4289 46.7862 27.4534L46.9692 25.6796H42.2845H37.5997V28.2509C37.5997 29.8704 37.762 31.0845 38.0383 31.5309C38.2795 31.9207 39.3046 33.6646 40.3162 35.4063L42.1556 38.573L43.5394 36.4224C44.3004 35.2396 45.3011 33.1367 45.7631 31.7494ZM28.0006 28.2552C29.6154 25.4478 31.1329 22.9879 31.3728 22.7888C32.1826 22.1167 32.9213 22.6331 34.1369 24.7208L35.3472 26.7996L35.3535 24.7069C35.3731 18.1441 31.6912 13.6091 25.8474 12.9983C22.3199 12.6296 18.9452 14.1983 16.5717 17.3101C15.1868 19.1259 14.5055 21.5639 14.6245 24.2775L14.7198 26.447L15.8398 24.5433C16.7311 23.0282 17.1223 22.6396 17.7562 22.6396C18.5996 22.6396 18.5048 22.5024 23.0057 30.2396C24.0039 31.9556 24.8756 33.3596 24.9427 33.3596C25.0098 33.3596 26.3859 31.0626 28.0007 28.2552H28.0006ZM12.3197 22.2375C12.3197 21.5764 12.4478 20.5887 12.6044 20.0427L12.8891 19.0499L9.32442 17.0048C7.36383 15.8799 5.59977 14.9169 5.40429 14.8647C4.77811 14.6976 3.04467 20.1081 3.0415 22.2396L3.0397 23.4396H7.6797H12.3197L12.3197 22.2375ZM46.7657 21.7194C46.5289 19.705 45.4821 16.1587 44.882 15.338C44.4921 14.8049 44.2042 14.9129 40.6952 16.9091C37.7823 18.5662 36.973 19.1693 37.1297 19.5662C37.2412 19.8486 37.4127 20.8356 37.5108 21.7596L37.6893 23.4396H42.3285H46.9678L46.7657 21.7194ZM15.3231 14.9528C16.162 13.981 16.8015 13.0798 16.7441 12.9502C16.6867 12.8206 15.7979 11.242 14.7689 9.44228C13.2205 6.73394 12.8069 6.21979 12.3689 6.45857C10.3999 7.532 6.29108 12.099 6.81923 12.6271C7.1282 12.9361 13.3156 16.6299 13.6187 16.6863C13.7171 16.7047 14.4841 15.9245 15.3231 14.9528V14.9528ZM36.7407 16.3541C37.1252 16.153 38.7791 15.2043 40.4161 14.2458L43.3925 12.503L42.5269 11.3313C41.2145 9.55483 39.9192 8.24517 38.3843 7.14292L36.996 6.14589L35.742 8.31276C35.0523 9.50453 34.1567 11.0642 33.7518 11.7788L33.0155 13.0779L34.4276 14.8751C35.2043 15.8635 35.8852 16.6829 35.9408 16.6959C35.9963 16.709 36.3563 16.5551 36.7407 16.3541V16.3541ZM23.1197 10.6501C23.8274 10.6398 23.8397 10.5713 23.8397 6.63962V2.63962H22.9309C21.827 2.63962 17.7246 3.67905 16.096 4.37141L14.9122 4.87465L16.5374 7.67713C19.2681 12.3861 18.7329 11.927 20.6994 11.2478C21.6346 10.9248 22.7237 10.6558 23.1197 10.6501ZM32.815 8.508C34.7104 5.26525 34.7794 5.07466 34.209 4.65756C33.3643 4.03996 29.8424 2.99374 27.7999 2.75369L26.0797 2.55151V6.59557C26.0797 10.5719 26.0918 10.6399 26.7997 10.6536C27.3488 10.6643 30.4755 11.6276 30.7703 11.8768C30.7981 11.9004 31.7182 10.3844 32.815 8.508ZM130.88 44.1087C126.177 42.9434 122.517 39.5274 121.102 34.9831C120.25 32.2451 120.255 27.7532 121.114 24.9734C123.155 18.3662 129.929 14.3953 136.864 15.7414C139.759 16.3034 141.365 17.1016 143.32 18.9506C146.035 21.5178 147.36 25.1039 147.36 29.8833V32.0796H137.594H127.828L128.032 32.9596C128.382 34.4696 129.259 35.7143 130.669 36.7055C132.511 38.0003 135.712 38.2443 137.681 37.24C138.913 36.611 139.983 35.4468 140.403 34.2765C140.572 33.8084 140.92 33.851 143.714 34.6818C145.432 35.1924 146.902 35.6751 146.981 35.7543C147.323 36.0961 145.273 39.5557 143.938 40.8913C140.764 44.0649 135.719 45.3079 130.88 44.1087H130.88ZM139.562 25.6527C139.088 23.2808 136.948 21.8396 133.9 21.8396C131.193 21.8396 128.888 23.4632 128.306 25.7791L128.09 26.6396H133.925H139.76L139.562 25.6527ZM211.073 44.0532C207.117 42.9894 203.797 40.1693 202.013 36.3582C201.174 34.5639 200.995 33.7438 200.868 31.1132C200.776 29.2042 200.873 27.329 201.118 26.2773C202.415 20.7027 207.045 16.4869 212.778 15.6611C219.386 14.709 225.334 17.823 228.088 23.6769C228.99 25.5939 229.12 26.2259 229.227 29.2406C229.366 33.1544 228.854 35.4786 227.321 37.8881C226.133 39.7542 223.696 42.0533 221.975 42.9315C218.858 44.5216 214.487 44.9713 211.073 44.0532V44.0532ZM218.776 36.382C220.775 34.9768 221.706 32.9484 221.706 29.9996C221.706 25.6669 219.459 22.9156 215.649 22.583C214.003 22.4393 213.535 22.5365 212.011 23.3398C210.588 24.0897 210.096 24.5797 209.371 25.9672C207.667 29.228 208.416 34.1786 210.899 36.0725C212.51 37.3014 213.251 37.5218 215.433 37.4216C217.036 37.348 217.691 37.1444 218.776 36.382V36.382ZM276.16 44.1297C270.553 42.6626 266.608 38.216 265.71 32.3523C264.95 27.388 266.453 22.772 269.902 19.4823C272.205 17.2855 274.636 16.108 277.81 15.6506C285.419 14.5545 292.179 19.1496 293.921 26.6016C294.471 28.9518 294.175 33.359 293.318 35.5996C291.974 39.1126 288.776 42.3075 285.28 43.63C283.062 44.4689 278.427 44.7228 276.16 44.1297V44.1297ZM282.562 36.9228C285.147 35.7486 286.556 33.306 286.556 29.9996C286.556 27.6755 286.027 26.12 284.758 24.7157C281.68 21.309 276.346 21.9577 274.085 26.0138C273.009 27.9441 272.957 31.893 273.983 33.8396C275.699 37.0956 279.319 38.3965 282.562 36.9228ZM322.113 44.0532C318.151 42.9876 314.853 40.1825 313.024 36.3224C312.034 34.2328 312 34.0184 312 29.983V25.8064L313.203 23.3725C315.334 19.0594 319.087 16.3427 323.863 15.6546C330.421 14.7099 336.367 17.8336 339.135 23.6769C340.124 25.7651 340.16 25.9829 340.16 29.9996C340.16 34.0163 340.124 34.2341 339.135 36.3224C337.925 38.8764 335.5 41.5602 333.339 42.7364C330.106 44.496 325.687 45.0144 322.113 44.0532V44.0532ZM329.149 36.7751C331.903 35.3216 333.226 32.0578 332.611 28.2396C332.08 24.9393 329.777 22.8216 326.429 22.5533C325.096 22.4464 324.482 22.5898 323.051 23.3422C320.664 24.5971 319.52 26.6982 319.52 29.8284C319.52 32.2724 319.917 33.7129 320.989 35.1589C322.692 37.4557 326.45 38.2 329.149 36.7751ZM160.527 43.9117C158.724 43.5365 156.54 42.2471 155.694 41.0595C154.259 39.0443 154.08 37.8477 154.08 30.2794V23.1196H151.68H149.28V19.8012V16.4829L150.756 16.3164C152.377 16.1337 153.704 15.3182 154.315 14.1288C154.534 13.7035 154.712 12.1744 154.715 10.7088L154.72 8.05797L158.16 8.1488L161.6 8.23963L161.69 12.3196L161.779 16.3996H164.49H167.2V19.7596V23.1196H164.48H161.76V29.5196C161.76 37.2242 161.749 37.1996 165.12 37.1996H167.2V40.2476C167.2 43.1727 167.169 43.3073 166.43 43.5883C165.204 44.0544 162.045 44.2275 160.527 43.9117L160.527 43.9117ZM241.531 43.7754C236.699 42.2651 233.194 37.8058 232.524 32.3155C231.688 25.4679 234.47 19.5807 239.774 16.9694C241.81 15.9672 242.073 15.9196 245.593 15.9196C249.475 15.9196 250.537 16.2158 252.24 17.7728L252.96 18.4312V11.0154V3.59962H256.8H260.64V23.5996V43.5996H256.96H253.28V42.2569V40.9141L252.24 41.9187C250.49 43.6086 248.698 44.2276 245.6 44.2112C244.104 44.2033 242.273 44.0072 241.531 43.7754V43.7754ZM250.083 36.4355C250.872 35.9134 251.6 35.0129 252.162 33.8628C252.925 32.3044 253.014 31.7967 252.911 29.6065C252.769 26.5659 252.013 24.9481 250.104 23.5996C248.914 22.7594 248.472 22.6396 246.56 22.6396C244.648 22.6396 244.204 22.7598 243.012 23.5996C241.028 24.9972 240.159 26.8404 240.162 29.65C240.162 30.8983 240.316 32.469 240.502 33.1404C240.914 34.6221 242.949 36.7368 244.387 37.177C246.069 37.6918 248.702 37.349 250.083 36.4355V36.4355ZM71.1997 23.9117V4.22377L76.3462 4.3117L81.4927 4.39963L87.1942 18.101C90.33 25.6367 92.9546 31.8612 93.0266 31.9332C93.0986 32.0053 95.6853 25.8397 98.7748 18.2319L104.392 4.39963L109.716 4.31188L115.04 4.22415V23.9119V43.5996H111.2H107.36L107.349 30.2396L107.338 16.8796L101.843 30.2396L96.3488 43.5996L92.9743 43.5936L89.5997 43.5876L84.3197 30.7437L79.0397 17.8999L78.9561 30.7498L78.8725 43.5996H75.0361H71.1997V23.9117ZM171.04 23.5996V3.59962H174.88H178.72V10.9881V18.3765L179.742 17.5166C181.022 16.4392 181.913 16.0911 184.261 15.7514C189.485 14.9958 193.616 17.2481 195.427 21.8396C196.075 23.4828 196.13 24.2637 196.251 33.5996L196.381 43.5996H192.533H188.685L188.582 34.7196C188.494 27.0962 188.403 25.6992 187.936 24.8471C187.099 23.3182 185.871 22.67 183.784 22.6537C181.579 22.6366 180.486 23.3194 179.44 25.3662C178.747 26.7218 178.72 27.0945 178.72 35.1874V43.5996H174.88H171.04V23.5996ZM299.04 23.5996V3.59962H302.88H306.72V23.5996V43.5996H302.88H299.04V23.5996Z" fill="#8C8C8C"/>
<path d="M353.76 54.7791C349.46 54.0337 345.089 50.5474 343.959 46.9626C343.654 45.9972 343.483 45.1295 343.578 45.0342C343.816 44.797 349.314 43.2885 349.96 43.2836C350.277 43.281 350.551 43.6358 350.663 44.1949C350.909 45.4255 352.216 46.9215 353.632 47.5934C354.977 48.2317 357.976 48.3218 359.637 47.7738C362.026 46.9853 363.68 44.0175 363.68 40.5189V39.3898L362.386 40.4969C359.135 43.2798 352.718 43.1035 348.775 40.123C345.027 37.2904 343.352 33.5203 343.576 28.4162C343.692 25.7588 343.836 25.1702 344.896 23.0258C347.242 18.2789 350.886 15.9875 356.16 15.9436C359.24 15.918 361.376 16.5866 362.956 18.071L363.68 18.7512V17.5754V16.3996H367.36H371.04L371.036 29.9196C371.032 44.2727 370.959 45.0997 369.446 48.0796C367.2 52.5005 363.692 54.5942 357.954 54.9382C356.615 55.0185 354.728 54.9468 353.76 54.7791H353.76ZM359.766 35.4244C362.28 34.3737 363.666 32.1625 363.666 29.1996C363.666 24.5334 359.969 21.603 355.61 22.8137C352.095 23.7899 350.16 28.3323 351.695 32.0055C353.037 35.2169 356.625 36.7367 359.766 35.4244ZM379.04 54.332C379.04 54.1657 384.634 41.6588 385.142 40.6884C385.333 40.3249 383.751 36.7769 379.665 28.4047C376.505 21.9297 373.92 16.5798 373.92 16.5158C373.92 16.4519 375.838 16.3996 378.182 16.3996H382.445L385.918 24.0767C387.829 28.2991 389.438 31.7077 389.495 31.6513C389.551 31.595 391.018 28.1763 392.756 24.0542L395.914 16.5596L399.982 16.4699C403.849 16.3846 404.04 16.41 403.857 16.9864C403.751 17.3199 399.939 25.8563 395.385 35.9562L387.107 54.3196L383.073 54.4092C380.855 54.4584 379.04 54.4237 379.04 54.332V54.332ZM19.1651 48.4331C9.97722 46.1737 2.90614 38.809 0.90671 29.4166C0.230642 26.2408 0.484971 20.5545 1.43883 17.5196C3.99728 9.3795 10.5476 3.05798 18.7197 0.842272C21.6096 0.0587463 28.0382 0.043389 30.8797 0.813212C39.1925 3.06538 45.4176 8.897 48.201 17.0396C49.1673 19.8662 49.2412 20.3828 49.2539 24.3996C49.2697 29.4003 48.8281 31.4418 46.8661 35.4396C43.7132 41.8638 37.7918 46.6258 30.7485 48.4015C27.522 49.2149 22.4011 49.2289 19.1651 48.4331V48.4331ZM28.9969 46.2967C29.3179 46.0982 29.0483 45.542 26.6311 41.4173L24.8833 38.4349L22.8415 42.0573C21.7185 44.0496 20.7997 45.8236 20.7997 45.9996C20.7997 46.1756 21.3757 46.4164 22.0797 46.5347C23.4399 46.7632 28.5252 46.5882 28.9969 46.2967ZM20.7688 40.773L23.5173 36.0264L20.7254 31.173C19.1899 28.5037 17.8585 26.3208 17.7666 26.3221C17.6748 26.3234 15.7775 29.4555 13.5503 33.2822L9.50087 40.2396L10.9305 41.5899C12.1475 42.7393 16.9844 45.5196 17.7671 45.5196C17.9063 45.5196 19.2571 43.3837 20.7688 40.773V40.773ZM35.3597 44.0144C37.9402 42.6236 40.2247 40.7914 40.0964 40.2154C39.9533 39.573 32.3535 26.3451 32.1197 26.3314C31.9395 26.3208 26.3997 35.7065 26.3997 36.0222C26.3997 36.1532 30.5405 43.4115 31.4163 44.8155C31.967 45.6985 32.3969 45.6111 35.3597 44.0144ZM10.0557 34.5216C12.3175 30.5674 12.3197 30.5611 12.3197 28.1216V25.6796H7.57268H2.82564L3.09646 27.6796C3.4175 30.0504 4.11207 32.2885 5.20181 34.4637C5.9765 36.01 7.51171 38.4796 7.69825 38.4796C7.74967 38.4796 8.81053 36.6985 10.0557 34.5216V34.5216ZM45.7631 31.7494C46.2251 30.3622 46.6855 28.4289 46.7862 27.4534L46.9692 25.6796H42.2845H37.5997V28.2509C37.5997 29.8704 37.762 31.0845 38.0383 31.5309C38.2795 31.9207 39.3046 33.6646 40.3162 35.4063L42.1556 38.573L43.5394 36.4224C44.3004 35.2396 45.3011 33.1367 45.7631 31.7494ZM28.0006 28.2552C29.6154 25.4478 31.1329 22.9879 31.3728 22.7888C32.1826 22.1167 32.9213 22.6331 34.1369 24.7208L35.3472 26.7996L35.3535 24.7069C35.3731 18.1441 31.6912 13.6091 25.8474 12.9983C22.3199 12.6296 18.9452 14.1983 16.5717 17.3101C15.1868 19.1259 14.5055 21.5639 14.6245 24.2775L14.7198 26.447L15.8398 24.5433C16.7311 23.0282 17.1223 22.6396 17.7562 22.6396C18.5996 22.6396 18.5048 22.5024 23.0057 30.2396C24.0039 31.9556 24.8756 33.3596 24.9427 33.3596C25.0098 33.3596 26.3859 31.0626 28.0007 28.2552H28.0006ZM12.3197 22.2375C12.3197 21.5764 12.4478 20.5887 12.6044 20.0427L12.8891 19.0499L9.32442 17.0048C7.36383 15.8799 5.59977 14.9169 5.40429 14.8647C4.77811 14.6976 3.04467 20.1081 3.0415 22.2396L3.0397 23.4396H7.6797H12.3197L12.3197 22.2375ZM46.7657 21.7194C46.5289 19.705 45.4821 16.1587 44.882 15.338C44.4921 14.8049 44.2042 14.9129 40.6952 16.9091C37.7823 18.5662 36.973 19.1693 37.1297 19.5662C37.2412 19.8486 37.4127 20.8356 37.5108 21.7596L37.6893 23.4396H42.3285H46.9678L46.7657 21.7194ZM15.3231 14.9528C16.162 13.981 16.8015 13.0798 16.7441 12.9502C16.6867 12.8206 15.7979 11.242 14.7689 9.44228C13.2205 6.73394 12.8069 6.21979 12.3689 6.45857C10.3999 7.532 6.29108 12.099 6.81923 12.6271C7.1282 12.9361 13.3156 16.6299 13.6187 16.6863C13.7171 16.7047 14.4841 15.9245 15.3231 14.9528V14.9528ZM36.7407 16.3541C37.1252 16.153 38.7791 15.2043 40.4161 14.2458L43.3925 12.503L42.5269 11.3313C41.2145 9.55483 39.9192 8.24517 38.3843 7.14292L36.996 6.14589L35.742 8.31276C35.0523 9.50453 34.1567 11.0642 33.7518 11.7788L33.0155 13.0779L34.4276 14.8751C35.2043 15.8635 35.8852 16.6829 35.9408 16.6959C35.9963 16.709 36.3563 16.5551 36.7407 16.3541V16.3541ZM23.1197 10.6501C23.8274 10.6398 23.8397 10.5713 23.8397 6.63962V2.63962H22.9309C21.827 2.63962 17.7246 3.67905 16.096 4.37141L14.9122 4.87465L16.5374 7.67713C19.2681 12.3861 18.7329 11.927 20.6994 11.2478C21.6346 10.9248 22.7237 10.6558 23.1197 10.6501ZM32.815 8.508C34.7104 5.26525 34.7794 5.07466 34.209 4.65756C33.3643 4.03996 29.8424 2.99374 27.7999 2.75369L26.0797 2.55151V6.59557C26.0797 10.5719 26.0918 10.6399 26.7997 10.6536C27.3488 10.6643 30.4755 11.6276 30.7703 11.8768C30.7981 11.9004 31.7182 10.3844 32.815 8.508ZM130.88 44.1087C126.177 42.9434 122.517 39.5274 121.102 34.9831C120.25 32.2451 120.255 27.7532 121.114 24.9734C123.155 18.3662 129.929 14.3953 136.864 15.7414C139.759 16.3034 141.365 17.1016 143.32 18.9506C146.035 21.5178 147.36 25.1039 147.36 29.8833V32.0796H137.594H127.828L128.032 32.9596C128.382 34.4696 129.259 35.7143 130.669 36.7055C132.511 38.0003 135.712 38.2443 137.681 37.24C138.913 36.611 139.983 35.4468 140.403 34.2765C140.572 33.8084 140.92 33.851 143.714 34.6818C145.432 35.1924 146.902 35.6751 146.981 35.7543C147.323 36.0961 145.273 39.5557 143.938 40.8913C140.764 44.0649 135.719 45.3079 130.88 44.1087H130.88ZM139.562 25.6527C139.088 23.2808 136.948 21.8396 133.9 21.8396C131.193 21.8396 128.888 23.4632 128.306 25.7791L128.09 26.6396H133.925H139.76L139.562 25.6527ZM211.073 44.0532C207.117 42.9894 203.797 40.1693 202.013 36.3582C201.174 34.5639 200.995 33.7438 200.868 31.1132C200.776 29.2042 200.873 27.329 201.118 26.2773C202.415 20.7027 207.045 16.4869 212.778 15.6611C219.386 14.709 225.334 17.823 228.088 23.6769C228.99 25.5939 229.12 26.2259 229.227 29.2406C229.366 33.1544 228.854 35.4786 227.321 37.8881C226.133 39.7542 223.696 42.0533 221.975 42.9315C218.858 44.5216 214.487 44.9713 211.073 44.0532V44.0532ZM218.776 36.382C220.775 34.9768 221.706 32.9484 221.706 29.9996C221.706 25.6669 219.459 22.9156 215.649 22.583C214.003 22.4393 213.535 22.5365 212.011 23.3398C210.588 24.0897 210.096 24.5797 209.371 25.9672C207.667 29.228 208.416 34.1786 210.899 36.0725C212.51 37.3014 213.251 37.5218 215.433 37.4216C217.036 37.348 217.691 37.1444 218.776 36.382V36.382ZM276.16 44.1297C270.553 42.6626 266.608 38.216 265.71 32.3523C264.95 27.388 266.453 22.772 269.902 19.4823C272.205 17.2855 274.636 16.108 277.81 15.6506C285.419 14.5545 292.179 19.1496 293.921 26.6016C294.471 28.9518 294.175 33.359 293.318 35.5996C291.974 39.1126 288.776 42.3075 285.28 43.63C283.062 44.4689 278.427 44.7228 276.16 44.1297V44.1297ZM282.562 36.9228C285.147 35.7486 286.556 33.306 286.556 29.9996C286.556 27.6755 286.027 26.12 284.758 24.7157C281.68 21.309 276.346 21.9577 274.085 26.0138C273.009 27.9441 272.957 31.893 273.983 33.8396C275.699 37.0956 279.319 38.3965 282.562 36.9228ZM322.113 44.0532C318.151 42.9876 314.853 40.1825 313.024 36.3224C312.034 34.2328 312 34.0184 312 29.983V25.8064L313.203 23.3725C315.334 19.0594 319.087 16.3427 323.863 15.6546C330.421 14.7099 336.367 17.8336 339.135 23.6769C340.124 25.7651 340.16 25.9829 340.16 29.9996C340.16 34.0163 340.124 34.2341 339.135 36.3224C337.925 38.8764 335.5 41.5602 333.339 42.7364C330.106 44.496 325.687 45.0144 322.113 44.0532V44.0532ZM329.149 36.7751C331.903 35.3216 333.226 32.0578 332.611 28.2396C332.08 24.9393 329.777 22.8216 326.429 22.5533C325.096 22.4464 324.482 22.5898 323.051 23.3422C320.664 24.5971 319.52 26.6982 319.52 29.8284C319.52 32.2724 319.917 33.7129 320.989 35.1589C322.692 37.4557 326.45 38.2 329.149 36.7751ZM160.527 43.9117C158.724 43.5365 156.54 42.2471 155.694 41.0595C154.259 39.0443 154.08 37.8477 154.08 30.2794V23.1196H151.68H149.28V19.8012V16.4829L150.756 16.3164C152.377 16.1337 153.704 15.3182 154.315 14.1288C154.534 13.7035 154.712 12.1744 154.715 10.7088L154.72 8.05797L158.16 8.1488L161.6 8.23963L161.69 12.3196L161.779 16.3996H164.49H167.2V19.7596V23.1196H164.48H161.76V29.5196C161.76 37.2242 161.749 37.1996 165.12 37.1996H167.2V40.2476C167.2 43.1727 167.169 43.3073 166.43 43.5883C165.204 44.0544 162.045 44.2275 160.527 43.9117L160.527 43.9117ZM241.531 43.7754C236.699 42.2651 233.194 37.8058 232.524 32.3155C231.688 25.4679 234.47 19.5807 239.774 16.9694C241.81 15.9672 242.073 15.9196 245.593 15.9196C249.475 15.9196 250.537 16.2158 252.24 17.7728L252.96 18.4312V11.0154V3.59962H256.8H260.64V23.5996V43.5996H256.96H253.28V42.2569V40.9141L252.24 41.9187C250.49 43.6086 248.698 44.2276 245.6 44.2112C244.104 44.2033 242.273 44.0072 241.531 43.7754V43.7754ZM250.083 36.4355C250.872 35.9134 251.6 35.0129 252.162 33.8628C252.925 32.3044 253.014 31.7967 252.911 29.6065C252.769 26.5659 252.013 24.9481 250.104 23.5996C248.914 22.7594 248.472 22.6396 246.56 22.6396C244.648 22.6396 244.204 22.7598 243.012 23.5996C241.028 24.9972 240.159 26.8404 240.162 29.65C240.162 30.8983 240.316 32.469 240.502 33.1404C240.914 34.6221 242.949 36.7368 244.387 37.177C246.069 37.6918 248.702 37.349 250.083 36.4355V36.4355ZM71.1997 23.9117V4.22377L76.3462 4.3117L81.4927 4.39963L87.1942 18.101C90.33 25.6367 92.9546 31.8612 93.0266 31.9332C93.0986 32.0053 95.6853 25.8397 98.7748 18.2319L104.392 4.39963L109.716 4.31188L115.04 4.22415V23.9119V43.5996H111.2H107.36L107.349 30.2396L107.338 16.8796L101.843 30.2396L96.3488 43.5996L92.9743 43.5936L89.5997 43.5876L84.3197 30.7437L79.0397 17.8999L78.9561 30.7498L78.8725 43.5996H75.0361H71.1997V23.9117ZM171.04 23.5996V3.59962H174.88H178.72V10.9881V18.3765L179.742 17.5166C181.022 16.4392 181.913 16.0911 184.261 15.7514C189.485 14.9958 193.616 17.2481 195.427 21.8396C196.075 23.4828 196.13 24.2637 196.251 33.5996L196.381 43.5996H192.533H188.685L188.582 34.7196C188.494 27.0962 188.403 25.6992 187.936 24.8471C187.099 23.3182 185.871 22.67 183.784 22.6537C181.579 22.6366 180.486 23.3194 179.44 25.3662C178.747 26.7218 178.72 27.0945 178.72 35.1874V43.5996H174.88H171.04V23.5996ZM299.04 23.5996V3.59962H302.88H306.72V23.5996V43.5996H302.88H299.04V23.5996Z" fill="#767676"/>
<path d="M353.76 54.7791C349.46 54.0337 345.089 50.5474 343.959 46.9626C343.654 45.9972 343.483 45.1295 343.578 45.0342C343.816 44.797 349.314 43.2885 349.96 43.2836C350.277 43.281 350.551 43.6358 350.663 44.1949C350.909 45.4255 352.216 46.9215 353.632 47.5934C354.977 48.2317 357.976 48.3218 359.637 47.7738C362.026 46.9853 363.68 44.0175 363.68 40.5189V39.3898L362.386 40.4969C359.135 43.2798 352.718 43.1035 348.775 40.123C345.027 37.2904 343.352 33.5203 343.576 28.4162C343.692 25.7588 343.836 25.1702 344.896 23.0258C347.242 18.2789 350.886 15.9875 356.16 15.9436C359.24 15.918 361.376 16.5866 362.956 18.071L363.68 18.7512V17.5754V16.3996H367.36H371.04L371.036 29.9196C371.032 44.2727 370.959 45.0997 369.446 48.0796C367.2 52.5005 363.692 54.5942 357.954 54.9382C356.615 55.0185 354.728 54.9468 353.76 54.7791H353.76ZM359.766 35.4244C362.28 34.3737 363.666 32.1625 363.666 29.1996C363.666 24.5334 359.969 21.603 355.61 22.8137C352.095 23.7899 350.16 28.3323 351.695 32.0055C353.037 35.2169 356.625 36.7367 359.766 35.4244ZM379.04 54.332C379.04 54.1657 384.634 41.6588 385.142 40.6884C385.333 40.3249 383.751 36.7769 379.665 28.4047C376.505 21.9297 373.92 16.5798 373.92 16.5158C373.92 16.4519 375.838 16.3996 378.182 16.3996H382.445L385.918 24.0767C387.829 28.2991 389.438 31.7077 389.495 31.6513C389.551 31.595 391.018 28.1763 392.756 24.0542L395.914 16.5596L399.982 16.4699C403.849 16.3846 404.04 16.41 403.857 16.9864C403.751 17.3199 399.939 25.8563 395.385 35.9562L387.107 54.3196L383.073 54.4092C380.855 54.4584 379.04 54.4237 379.04 54.332V54.332ZM19.1651 48.4331C9.97722 46.1737 2.90614 38.809 0.90671 29.4166C0.230642 26.2408 0.484971 20.5545 1.43883 17.5196C3.99728 9.3795 10.5476 3.05798 18.7197 0.842272C21.6096 0.0587463 28.0382 0.043389 30.8797 0.813212C39.1925 3.06538 45.4176 8.897 48.201 17.0396C49.1673 19.8662 49.2412 20.3828 49.2539 24.3996C49.2697 29.4003 48.8281 31.4418 46.8661 35.4396C43.7132 41.8638 37.7918 46.6258 30.7485 48.4015C27.522 49.2149 22.4011 49.2289 19.1651 48.4331V48.4331ZM28.9969 46.2967C29.3179 46.0982 29.0483 45.542 26.6311 41.4173L24.8833 38.4349L22.8415 42.0573C21.7185 44.0496 20.7997 45.8236 20.7997 45.9996C20.7997 46.1756 21.3757 46.4164 22.0797 46.5347C23.4399 46.7632 28.5252 46.5882 28.9969 46.2967ZM20.7688 40.773L23.5173 36.0264L20.7254 31.173C19.1899 28.5037 17.8585 26.3208 17.7666 26.3221C17.6748 26.3234 15.7775 29.4555 13.5503 33.2822L9.50087 40.2396L10.9305 41.5899C12.1475 42.7393 16.9844 45.5196 17.7671 45.5196C17.9063 45.5196 19.2571 43.3837 20.7688 40.773V40.773ZM35.3597 44.0144C37.9402 42.6236 40.2247 40.7914 40.0964 40.2154C39.9533 39.573 32.3535 26.3451 32.1197 26.3314C31.9395 26.3208 26.3997 35.7065 26.3997 36.0222C26.3997 36.1532 30.5405 43.4115 31.4163 44.8155C31.967 45.6985 32.3969 45.6111 35.3597 44.0144ZM10.0557 34.5216C12.3175 30.5674 12.3197 30.5611 12.3197 28.1216V25.6796H7.57268H2.82564L3.09646 27.6796C3.4175 30.0504 4.11207 32.2885 5.20181 34.4637C5.9765 36.01 7.51171 38.4796 7.69825 38.4796C7.74967 38.4796 8.81053 36.6985 10.0557 34.5216V34.5216ZM45.7631 31.7494C46.2251 30.3622 46.6855 28.4289 46.7862 27.4534L46.9692 25.6796H42.2845H37.5997V28.2509C37.5997 29.8704 37.762 31.0845 38.0383 31.5309C38.2795 31.9207 39.3046 33.6646 40.3162 35.4063L42.1556 38.573L43.5394 36.4224C44.3004 35.2396 45.3011 33.1367 45.7631 31.7494ZM28.0006 28.2552C29.6154 25.4478 31.1329 22.9879 31.3728 22.7888C32.1826 22.1167 32.9213 22.6331 34.1369 24.7208L35.3472 26.7996L35.3535 24.7069C35.3731 18.1441 31.6912 13.6091 25.8474 12.9983C22.3199 12.6296 18.9452 14.1983 16.5717 17.3101C15.1868 19.1259 14.5055 21.5639 14.6245 24.2775L14.7198 26.447L15.8398 24.5433C16.7311 23.0282 17.1223 22.6396 17.7562 22.6396C18.5996 22.6396 18.5048 22.5024 23.0057 30.2396C24.0039 31.9556 24.8756 33.3596 24.9427 33.3596C25.0098 33.3596 26.3859 31.0626 28.0007 28.2552H28.0006ZM12.3197 22.2375C12.3197 21.5764 12.4478 20.5887 12.6044 20.0427L12.8891 19.0499L9.32442 17.0048C7.36383 15.8799 5.59977 14.9169 5.40429 14.8647C4.77811 14.6976 3.04467 20.1081 3.0415 22.2396L3.0397 23.4396H7.6797H12.3197L12.3197 22.2375ZM46.7657 21.7194C46.5289 19.705 45.4821 16.1587 44.882 15.338C44.4921 14.8049 44.2042 14.9129 40.6952 16.9091C37.7823 18.5662 36.973 19.1693 37.1297 19.5662C37.2412 19.8486 37.4127 20.8356 37.5108 21.7596L37.6893 23.4396H42.3285H46.9678L46.7657 21.7194ZM15.3231 14.9528C16.162 13.981 16.8015 13.0798 16.7441 12.9502C16.6867 12.8206 15.7979 11.242 14.7689 9.44228C13.2205 6.73394 12.8069 6.21979 12.3689 6.45857C10.3999 7.532 6.29108 12.099 6.81923 12.6271C7.1282 12.9361 13.3156 16.6299 13.6187 16.6863C13.7171 16.7047 14.4841 15.9245 15.3231 14.9528V14.9528ZM36.7407 16.3541C37.1252 16.153 38.7791 15.2043 40.4161 14.2458L43.3925 12.503L42.5269 11.3313C41.2145 9.55483 39.9192 8.24517 38.3843 7.14292L36.996 6.14589L35.742 8.31276C35.0523 9.50453 34.1567 11.0642 33.7518 11.7788L33.0155 13.0779L34.4276 14.8751C35.2043 15.8635 35.8852 16.6829 35.9408 16.6959C35.9963 16.709 36.3563 16.5551 36.7407 16.3541V16.3541ZM23.1197 10.6501C23.8274 10.6398 23.8397 10.5713 23.8397 6.63962V2.63962H22.9309C21.827 2.63962 17.7246 3.67905 16.096 4.37141L14.9122 4.87465L16.5374 7.67713C19.2681 12.3861 18.7329 11.927 20.6994 11.2478C21.6346 10.9248 22.7237 10.6558 23.1197 10.6501ZM32.815 8.508C34.7104 5.26525 34.7794 5.07466 34.209 4.65756C33.3643 4.03996 29.8424 2.99374 27.7999 2.75369L26.0797 2.55151V6.59557C26.0797 10.5719 26.0918 10.6399 26.7997 10.6536C27.3488 10.6643 30.4755 11.6276 30.7703 11.8768C30.7981 11.9004 31.7182 10.3844 32.815 8.508ZM130.88 44.1087C126.177 42.9434 122.517 39.5274 121.102 34.9831C120.25 32.2451 120.255 27.7532 121.114 24.9734C123.155 18.3662 129.929 14.3953 136.864 15.7414C139.759 16.3034 141.365 17.1016 143.32 18.9506C146.035 21.5178 147.36 25.1039 147.36 29.8833V32.0796H137.594H127.828L128.032 32.9596C128.382 34.4696 129.259 35.7143 130.669 36.7055C132.511 38.0003 135.712 38.2443 137.681 37.24C138.913 36.611 139.983 35.4468 140.403 34.2765C140.572 33.8084 140.92 33.851 143.714 34.6818C145.432 35.1924 146.902 35.6751 146.981 35.7543C147.323 36.0961 145.273 39.5557 143.938 40.8913C140.764 44.0649 135.719 45.3079 130.88 44.1087H130.88ZM139.562 25.6527C139.088 23.2808 136.948 21.8396 133.9 21.8396C131.193 21.8396 128.888 23.4632 128.306 25.7791L128.09 26.6396H133.925H139.76L139.562 25.6527ZM211.073 44.0532C207.117 42.9894 203.797 40.1693 202.013 36.3582C201.174 34.5639 200.995 33.7438 200.868 31.1132C200.776 29.2042 200.873 27.329 201.118 26.2773C202.415 20.7027 207.045 16.4869 212.778 15.6611C219.386 14.709 225.334 17.823 228.088 23.6769C228.99 25.5939 229.12 26.2259 229.227 29.2406C229.366 33.1544 228.854 35.4786 227.321 37.8881C226.133 39.7542 223.696 42.0533 221.975 42.9315C218.858 44.5216 214.487 44.9713 211.073 44.0532V44.0532ZM218.776 36.382C220.775 34.9768 221.706 32.9484 221.706 29.9996C221.706 25.6669 219.459 22.9156 215.649 22.583C214.003 22.4393 213.535 22.5365 212.011 23.3398C210.588 24.0897 210.096 24.5797 209.371 25.9672C207.667 29.228 208.416 34.1786 210.899 36.0725C212.51 37.3014 213.251 37.5218 215.433 37.4216C217.036 37.348 217.691 37.1444 218.776 36.382V36.382ZM276.16 44.1297C270.553 42.6626 266.608 38.216 265.71 32.3523C264.95 27.388 266.453 22.772 269.902 19.4823C272.205 17.2855 274.636 16.108 277.81 15.6506C285.419 14.5545 292.179 19.1496 293.921 26.6016C294.471 28.9518 294.175 33.359 293.318 35.5996C291.974 39.1126 288.776 42.3075 285.28 43.63C283.062 44.4689 278.427 44.7228 276.16 44.1297V44.1297ZM282.562 36.9228C285.147 35.7486 286.556 33.306 286.556 29.9996C286.556 27.6755 286.027 26.12 284.758 24.7157C281.68 21.309 276.346 21.9577 274.085 26.0138C273.009 27.9441 272.957 31.893 273.983 33.8396C275.699 37.0956 279.319 38.3965 282.562 36.9228ZM322.113 44.0532C318.151 42.9876 314.853 40.1825 313.024 36.3224C312.034 34.2328 312 34.0184 312 29.983V25.8064L313.203 23.3725C315.334 19.0594 319.087 16.3427 323.863 15.6546C330.421 14.7099 336.367 17.8336 339.135 23.6769C340.124 25.7651 340.16 25.9829 340.16 29.9996C340.16 34.0163 340.124 34.2341 339.135 36.3224C337.925 38.8764 335.5 41.5602 333.339 42.7364C330.106 44.496 325.687 45.0144 322.113 44.0532V44.0532ZM329.149 36.7751C331.903 35.3216 333.226 32.0578 332.611 28.2396C332.08 24.9393 329.777 22.8216 326.429 22.5533C325.096 22.4464 324.482 22.5898 323.051 23.3422C320.664 24.5971 319.52 26.6982 319.52 29.8284C319.52 32.2724 319.917 33.7129 320.989 35.1589C322.692 37.4557 326.45 38.2 329.149 36.7751ZM160.527 43.9117C158.724 43.5365 156.54 42.2471 155.694 41.0595C154.259 39.0443 154.08 37.8477 154.08 30.2794V23.1196H151.68H149.28V19.8012V16.4829L150.756 16.3164C152.377 16.1337 153.704 15.3182 154.315 14.1288C154.534 13.7035 154.712 12.1744 154.715 10.7088L154.72 8.05797L158.16 8.1488L161.6 8.23963L161.69 12.3196L161.779 16.3996H164.49H167.2V19.7596V23.1196H164.48H161.76V29.5196C161.76 37.2242 161.749 37.1996 165.12 37.1996H167.2V40.2476C167.2 43.1727 167.169 43.3073 166.43 43.5883C165.204 44.0544 162.045 44.2275 160.527 43.9117L160.527 43.9117ZM241.531 43.7754C236.699 42.2651 233.194 37.8058 232.524 32.3155C231.688 25.4679 234.47 19.5807 239.774 16.9694C241.81 15.9672 242.073 15.9196 245.593 15.9196C249.475 15.9196 250.537 16.2158 252.24 17.7728L252.96 18.4312V11.0154V3.59962H256.8H260.64V23.5996V43.5996H256.96H253.28V42.2569V40.9141L252.24 41.9187C250.49 43.6086 248.698 44.2276 245.6 44.2112C244.104 44.2033 242.273 44.0072 241.531 43.7754V43.7754ZM250.083 36.4355C250.872 35.9134 251.6 35.0129 252.162 33.8628C252.925 32.3044 253.014 31.7967 252.911 29.6065C252.769 26.5659 252.013 24.9481 250.104 23.5996C248.914 22.7594 248.472 22.6396 246.56 22.6396C244.648 22.6396 244.204 22.7598 243.012 23.5996C241.028 24.9972 240.159 26.8404 240.162 29.65C240.162 30.8983 240.316 32.469 240.502 33.1404C240.914 34.6221 242.949 36.7368 244.387 37.177C246.069 37.6918 248.702 37.349 250.083 36.4355V36.4355ZM71.1997 23.9117V4.22377L76.3462 4.3117L81.4927 4.39963L87.1942 18.101C90.33 25.6367 92.9546 31.8612 93.0266 31.9332C93.0986 32.0053 95.6853 25.8397 98.7748 18.2319L104.392 4.39963L109.716 4.31188L115.04 4.22415V23.9119V43.5996H111.2H107.36L107.349 30.2396L107.338 16.8796L101.843 30.2396L96.3488 43.5996L92.9743 43.5936L89.5997 43.5876L84.3197 30.7437L79.0397 17.8999L78.9561 30.7498L78.8725 43.5996H75.0361H71.1997V23.9117ZM171.04 23.5996V3.59962H174.88H178.72V10.9881V18.3765L179.742 17.5166C181.022 16.4392 181.913 16.0911 184.261 15.7514C189.485 14.9958 193.616 17.2481 195.427 21.8396C196.075 23.4828 196.13 24.2637 196.251 33.5996L196.381 43.5996H192.533H188.685L188.582 34.7196C188.494 27.0962 188.403 25.6992 187.936 24.8471C187.099 23.3182 185.871 22.67 183.784 22.6537C181.579 22.6366 180.486 23.3194 179.44 25.3662C178.747 26.7218 178.72 27.0945 178.72 35.1874V43.5996H174.88H171.04V23.5996ZM299.04 23.5996V3.59962H302.88H306.72V23.5996V43.5996H302.88H299.04V23.5996Z" fill="#606060"/>
<path d="M353.76 54.7791C349.46 54.0337 345.089 50.5474 343.959 46.9626C343.654 45.9972 343.483 45.1295 343.578 45.0342C343.816 44.797 349.314 43.2885 349.96 43.2836C350.277 43.281 350.551 43.6358 350.663 44.1949C350.909 45.4255 352.216 46.9215 353.632 47.5934C354.977 48.2317 357.976 48.3218 359.637 47.7738C362.026 46.9853 363.68 44.0175 363.68 40.5189V39.3898L362.386 40.4969C359.135 43.2798 352.718 43.1035 348.775 40.123C345.027 37.2904 343.352 33.5203 343.576 28.4162C343.692 25.7588 343.836 25.1702 344.896 23.0258C347.242 18.2789 350.886 15.9875 356.16 15.9436C359.24 15.918 361.376 16.5866 362.956 18.071L363.68 18.7512V17.5754V16.3996H367.36H371.04L371.036 29.9196C371.032 44.2727 370.959 45.0997 369.446 48.0796C367.2 52.5005 363.692 54.5942 357.954 54.9382C356.615 55.0185 354.728 54.9468 353.76 54.7791H353.76ZM359.766 35.4244C362.28 34.3737 363.666 32.1625 363.666 29.1996C363.666 24.5334 359.969 21.603 355.61 22.8137C352.095 23.7899 350.16 28.3323 351.695 32.0055C353.037 35.2169 356.625 36.7367 359.766 35.4244ZM379.04 54.332C379.04 54.1657 384.634 41.6588 385.142 40.6884C385.333 40.3249 383.751 36.7769 379.665 28.4047C376.505 21.9297 373.92 16.5798 373.92 16.5158C373.92 16.4519 375.838 16.3996 378.182 16.3996H382.445L385.918 24.0767C387.829 28.2991 389.438 31.7077 389.495 31.6513C389.551 31.595 391.018 28.1763 392.756 24.0542L395.914 16.5596L399.982 16.4699C403.849 16.3846 404.04 16.41 403.857 16.9864C403.751 17.3199 399.939 25.8563 395.385 35.9562L387.107 54.3196L383.073 54.4092C380.855 54.4584 379.04 54.4237 379.04 54.332V54.332ZM19.1651 48.4331C9.97722 46.1737 2.90614 38.809 0.90671 29.4166C0.230642 26.2408 0.484971 20.5545 1.43883 17.5196C3.99728 9.3795 10.5476 3.05798 18.7197 0.842272C21.6096 0.0587463 28.0382 0.043389 30.8797 0.813212C39.1925 3.06538 45.4176 8.897 48.201 17.0396C49.1673 19.8662 49.2412 20.3828 49.2539 24.3996C49.2697 29.4003 48.8281 31.4418 46.8661 35.4396C43.7132 41.8638 37.7918 46.6258 30.7485 48.4015C27.522 49.2149 22.4011 49.2289 19.1651 48.4331V48.4331ZM28.9969 46.2967C29.3179 46.0982 29.0483 45.542 26.6311 41.4173L24.8833 38.4349L22.8415 42.0573C21.7185 44.0496 20.7997 45.8236 20.7997 45.9996C20.7997 46.1756 21.3757 46.4164 22.0797 46.5347C23.4399 46.7632 28.5252 46.5882 28.9969 46.2967ZM20.7688 40.773L23.5173 36.0264L20.7254 31.173C19.1899 28.5037 17.8585 26.3208 17.7666 26.3221C17.6748 26.3234 15.7775 29.4555 13.5503 33.2822L9.50087 40.2396L10.9305 41.5899C12.1475 42.7393 16.9844 45.5196 17.7671 45.5196C17.9063 45.5196 19.2571 43.3837 20.7688 40.773V40.773ZM35.3597 44.0144C37.9402 42.6236 40.2247 40.7914 40.0964 40.2154C39.9533 39.573 32.3535 26.3451 32.1197 26.3314C31.9395 26.3208 26.3997 35.7065 26.3997 36.0222C26.3997 36.1532 30.5405 43.4115 31.4163 44.8155C31.967 45.6985 32.3969 45.6111 35.3597 44.0144ZM10.0557 34.5216C12.3175 30.5674 12.3197 30.5611 12.3197 28.1216V25.6796H7.57268H2.82564L3.09646 27.6796C3.4175 30.0504 4.11207 32.2885 5.20181 34.4637C5.9765 36.01 7.51171 38.4796 7.69825 38.4796C7.74967 38.4796 8.81053 36.6985 10.0557 34.5216V34.5216ZM45.7631 31.7494C46.2251 30.3622 46.6855 28.4289 46.7862 27.4534L46.9692 25.6796H42.2845H37.5997V28.2509C37.5997 29.8704 37.762 31.0845 38.0383 31.5309C38.2795 31.9207 39.3046 33.6646 40.3162 35.4063L42.1556 38.573L43.5394 36.4224C44.3004 35.2396 45.3011 33.1367 45.7631 31.7494ZM28.0006 28.2552C29.6154 25.4478 31.1329 22.9879 31.3728 22.7888C32.1826 22.1167 32.9213 22.6331 34.1369 24.7208L35.3472 26.7996L35.3535 24.7069C35.3731 18.1441 31.6912 13.6091 25.8474 12.9983C22.3199 12.6296 18.9452 14.1983 16.5717 17.3101C15.1868 19.1259 14.5055 21.5639 14.6245 24.2775L14.7198 26.447L15.8398 24.5433C16.7311 23.0282 17.1223 22.6396 17.7562 22.6396C18.5996 22.6396 18.5048 22.5024 23.0057 30.2396C24.0039 31.9556 24.8756 33.3596 24.9427 33.3596C25.0098 33.3596 26.3859 31.0626 28.0007 28.2552H28.0006ZM12.3197 22.2375C12.3197 21.5764 12.4478 20.5887 12.6044 20.0427L12.8891 19.0499L9.32442 17.0048C7.36383 15.8799 5.59977 14.9169 5.40429 14.8647C4.77811 14.6976 3.04467 20.1081 3.0415 22.2396L3.0397 23.4396H7.6797H12.3197L12.3197 22.2375ZM46.7657 21.7194C46.5289 19.705 45.4821 16.1587 44.882 15.338C44.4921 14.8049 44.2042 14.9129 40.6952 16.9091C37.7823 18.5662 36.973 19.1693 37.1297 19.5662C37.2412 19.8486 37.4127 20.8356 37.5108 21.7596L37.6893 23.4396H42.3285H46.9678L46.7657 21.7194ZM15.3231 14.9528C16.162 13.981 16.8015 13.0798 16.7441 12.9502C16.6867 12.8206 15.7979 11.242 14.7689 9.44228C13.2205 6.73394 12.8069 6.21979 12.3689 6.45857C10.3999 7.532 6.29108 12.099 6.81923 12.6271C7.1282 12.9361 13.3156 16.6299 13.6187 16.6863C13.7171 16.7047 14.4841 15.9245 15.3231 14.9528V14.9528ZM36.7407 16.3541C37.1252 16.153 38.7791 15.2043 40.4161 14.2458L43.3925 12.503L42.5269 11.3313C41.2145 9.55483 39.9192 8.24517 38.3843 7.14292L36.996 6.14589L35.742 8.31276C35.0523 9.50453 34.1567 11.0642 33.7518 11.7788L33.0155 13.0779L34.4276 14.8751C35.2043 15.8635 35.8852 16.6829 35.9408 16.6959C35.9963 16.709 36.3563 16.5551 36.7407 16.3541V16.3541ZM23.1197 10.6501C23.8274 10.6398 23.8397 10.5713 23.8397 6.63962V2.63962H22.9309C21.827 2.63962 17.7246 3.67905 16.096 4.37141L14.9122 4.87465L16.5374 7.67713C19.2681 12.3861 18.7329 11.927 20.6994 11.2478C21.6346 10.9248 22.7237 10.6558 23.1197 10.6501ZM32.815 8.508C34.7104 5.26525 34.7794 5.07466 34.209 4.65756C33.3643 4.03996 29.8424 2.99374 27.7999 2.75369L26.0797 2.55151V6.59557C26.0797 10.5719 26.0918 10.6399 26.7997 10.6536C27.3488 10.6643 30.4755 11.6276 30.7703 11.8768C30.7981 11.9004 31.7182 10.3844 32.815 8.508ZM130.88 44.1087C126.177 42.9434 122.517 39.5274 121.102 34.9831C120.25 32.2451 120.255 27.7532 121.114 24.9734C123.155 18.3662 129.929 14.3953 136.864 15.7414C139.759 16.3034 141.365 17.1016 143.32 18.9506C146.035 21.5178 147.36 25.1039 147.36 29.8833V32.0796H137.594H127.828L128.032 32.9596C128.382 34.4696 129.259 35.7143 130.669 36.7055C132.511 38.0003 135.712 38.2443 137.681 37.24C138.913 36.611 139.983 35.4468 140.403 34.2765C140.572 33.8084 140.92 33.851 143.714 34.6818C145.432 35.1924 146.902 35.6751 146.981 35.7543C147.323 36.0961 145.273 39.5557 143.938 40.8913C140.764 44.0649 135.719 45.3079 130.88 44.1087H130.88ZM139.562 25.6527C139.088 23.2808 136.948 21.8396 133.9 21.8396C131.193 21.8396 128.888 23.4632 128.306 25.7791L128.09 26.6396H133.925H139.76L139.562 25.6527ZM211.073 44.0532C207.117 42.9894 203.797 40.1693 202.013 36.3582C201.174 34.5639 200.995 33.7438 200.868 31.1132C200.776 29.2042 200.873 27.329 201.118 26.2773C202.415 20.7027 207.045 16.4869 212.778 15.6611C219.386 14.709 225.334 17.823 228.088 23.6769C228.99 25.5939 229.12 26.2259 229.227 29.2406C229.366 33.1544 228.854 35.4786 227.321 37.8881C226.133 39.7542 223.696 42.0533 221.975 42.9315C218.858 44.5216 214.487 44.9713 211.073 44.0532V44.0532ZM218.776 36.382C220.775 34.9768 221.706 32.9484 221.706 29.9996C221.706 25.6669 219.459 22.9156 215.649 22.583C214.003 22.4393 213.535 22.5365 212.011 23.3398C210.588 24.0897 210.096 24.5797 209.371 25.9672C207.667 29.228 208.416 34.1786 210.899 36.0725C212.51 37.3014 213.251 37.5218 215.433 37.4216C217.036 37.348 217.691 37.1444 218.776 36.382V36.382ZM276.16 44.1297C270.553 42.6626 266.608 38.216 265.71 32.3523C264.95 27.388 266.453 22.772 269.902 19.4823C272.205 17.2855 274.636 16.108 277.81 15.6506C285.419 14.5545 292.179 19.1496 293.921 26.6016C294.471 28.9518 294.175 33.359 293.318 35.5996C291.974 39.1126 288.776 42.3075 285.28 43.63C283.062 44.4689 278.427 44.7228 276.16 44.1297V44.1297ZM282.562 36.9228C285.147 35.7486 286.556 33.306 286.556 29.9996C286.556 27.6755 286.027 26.12 284.758 24.7157C281.68 21.309 276.346 21.9577 274.085 26.0138C273.009 27.9441 272.957 31.893 273.983 33.8396C275.699 37.0956 279.319 38.3965 282.562 36.9228ZM322.113 44.0532C318.151 42.9876 314.853 40.1825 313.024 36.3224C312.034 34.2328 312 34.0184 312 29.983V25.8064L313.203 23.3725C315.334 19.0594 319.087 16.3427 323.863 15.6546C330.421 14.7099 336.367 17.8336 339.135 23.6769C340.124 25.7651 340.16 25.9829 340.16 29.9996C340.16 34.0163 340.124 34.2341 339.135 36.3224C337.925 38.8764 335.5 41.5602 333.339 42.7364C330.106 44.496 325.687 45.0144 322.113 44.0532V44.0532ZM329.149 36.7751C331.903 35.3216 333.226 32.0578 332.611 28.2396C332.08 24.9393 329.777 22.8216 326.429 22.5533C325.096 22.4464 324.482 22.5898 323.051 23.3422C320.664 24.5971 319.52 26.6982 319.52 29.8284C319.52 32.2724 319.917 33.7129 320.989 35.1589C322.692 37.4557 326.45 38.2 329.149 36.7751ZM160.527 43.9117C158.724 43.5365 156.54 42.2471 155.694 41.0595C154.259 39.0443 154.08 37.8477 154.08 30.2794V23.1196H151.68H149.28V19.8012V16.4829L150.756 16.3164C152.377 16.1337 153.704 15.3182 154.315 14.1288C154.534 13.7035 154.712 12.1744 154.715 10.7088L154.72 8.05797L158.16 8.1488L161.6 8.23963L161.69 12.3196L161.779 16.3996H164.49H167.2V19.7596V23.1196H164.48H161.76V29.5196C161.76 37.2242 161.749 37.1996 165.12 37.1996H167.2V40.2476C167.2 43.1727 167.169 43.3073 166.43 43.5883C165.204 44.0544 162.045 44.2275 160.527 43.9117L160.527 43.9117ZM241.531 43.7754C236.699 42.2651 233.194 37.8058 232.524 32.3155C231.688 25.4679 234.47 19.5807 239.774 16.9694C241.81 15.9672 242.073 15.9196 245.593 15.9196C249.475 15.9196 250.537 16.2158 252.24 17.7728L252.96 18.4312V11.0154V3.59962H256.8H260.64V23.5996V43.5996H256.96H253.28V42.2569V40.9141L252.24 41.9187C250.49 43.6086 248.698 44.2276 245.6 44.2112C244.104 44.2033 242.273 44.0072 241.531 43.7754V43.7754ZM250.083 36.4355C250.872 35.9134 251.6 35.0129 252.162 33.8628C252.925 32.3044 253.014 31.7967 252.911 29.6065C252.769 26.5659 252.013 24.9481 250.104 23.5996C248.914 22.7594 248.472 22.6396 246.56 22.6396C244.648 22.6396 244.204 22.7598 243.012 23.5996C241.028 24.9972 240.159 26.8404 240.162 29.65C240.162 30.8983 240.316 32.469 240.502 33.1404C240.914 34.6221 242.949 36.7368 244.387 37.177C246.069 37.6918 248.702 37.349 250.083 36.4355V36.4355ZM71.1997 23.9117V4.22377L76.3462 4.3117L81.4927 4.39963L87.1942 18.101C90.33 25.6367 92.9546 31.8612 93.0266 31.9332C93.0986 32.0053 95.6853 25.8397 98.7748 18.2319L104.392 4.39963L109.716 4.31188L115.04 4.22415V23.9119V43.5996H111.2H107.36L107.349 30.2396L107.338 16.8796L101.843 30.2396L96.3488 43.5996L92.9743 43.5936L89.5997 43.5876L84.3197 30.7437L79.0397 17.8999L78.9561 30.7498L78.8725 43.5996H75.0361H71.1997V23.9117ZM171.04 23.5996V3.59962H174.88H178.72V10.9881V18.3765L179.742 17.5166C181.022 16.4392 181.913 16.0911 184.261 15.7514C189.485 14.9958 193.616 17.2481 195.427 21.8396C196.075 23.4828 196.13 24.2637 196.251 33.5996L196.381 43.5996H192.533H188.685L188.582 34.7196C188.494 27.0962 188.403 25.6992 187.936 24.8471C187.099 23.3182 185.871 22.67 183.784 22.6537C181.579 22.6366 180.486 23.3194 179.44 25.3662C178.747 26.7218 178.72 27.0945 178.72 35.1874V43.5996H174.88H171.04V23.5996ZM299.04 23.5996V3.59962H302.88H306.72V23.5996V43.5996H302.88H299.04V23.5996Z" fill="#494949"/>
<path d="M353.76 54.7791C349.46 54.0337 345.089 50.5474 343.959 46.9626C343.654 45.9972 343.483 45.1295 343.578 45.0342C343.816 44.797 349.314 43.2885 349.96 43.2836C350.277 43.281 350.551 43.6358 350.663 44.1949C350.909 45.4255 352.216 46.9215 353.632 47.5934C354.977 48.2317 357.976 48.3218 359.637 47.7738C362.026 46.9853 363.68 44.0175 363.68 40.5189V39.3898L362.386 40.4969C359.135 43.2798 352.718 43.1035 348.775 40.123C345.027 37.2904 343.352 33.5203 343.576 28.4162C343.692 25.7588 343.836 25.1702 344.896 23.0258C347.242 18.2789 350.886 15.9875 356.16 15.9436C359.24 15.918 361.376 16.5866 362.956 18.071L363.68 18.7512V17.5754V16.3996H367.36H371.04L371.036 29.9196C371.032 44.2727 370.959 45.0997 369.446 48.0796C367.2 52.5005 363.692 54.5942 357.954 54.9382C356.615 55.0185 354.728 54.9468 353.76 54.7791H353.76ZM359.766 35.4244C362.28 34.3737 363.666 32.1625 363.666 29.1996C363.666 24.5334 359.969 21.603 355.61 22.8137C352.095 23.7899 350.16 28.3323 351.695 32.0055C353.037 35.2169 356.625 36.7367 359.766 35.4244ZM379.04 54.332C379.04 54.1657 384.634 41.6588 385.142 40.6884C385.333 40.3249 383.751 36.7769 379.665 28.4047C376.505 21.9297 373.92 16.5798 373.92 16.5158C373.92 16.4519 375.838 16.3996 378.182 16.3996H382.445L385.918 24.0767C387.829 28.2991 389.438 31.7077 389.495 31.6513C389.551 31.595 391.018 28.1763 392.756 24.0542L395.914 16.5596L399.982 16.4699C403.849 16.3846 404.04 16.41 403.857 16.9864C403.751 17.3199 399.939 25.8563 395.385 35.9562L387.107 54.3196L383.073 54.4092C380.855 54.4584 379.04 54.4237 379.04 54.332V54.332ZM19.1651 48.4331C9.97722 46.1737 2.90614 38.809 0.90671 29.4166C0.230642 26.2408 0.484971 20.5545 1.43883 17.5196C3.99728 9.3795 10.5476 3.05798 18.7197 0.842272C21.6096 0.0587463 28.0382 0.043389 30.8797 0.813212C39.1925 3.06538 45.4176 8.897 48.201 17.0396C49.1673 19.8662 49.2412 20.3828 49.2539 24.3996C49.2697 29.4003 48.8281 31.4418 46.8661 35.4396C43.7132 41.8638 37.7918 46.6258 30.7485 48.4015C27.522 49.2149 22.4011 49.2289 19.1651 48.4331V48.4331ZM28.9969 46.2967C29.3179 46.0982 29.0483 45.542 26.6311 41.4173L24.8833 38.4349L22.8415 42.0573C21.7185 44.0496 20.7997 45.8236 20.7997 45.9996C20.7997 46.1756 21.3757 46.4164 22.0797 46.5347C23.4399 46.7632 28.5252 46.5882 28.9969 46.2967ZM20.7688 40.773L23.5173 36.0264L20.7254 31.173C19.1899 28.5037 17.8585 26.3208 17.7666 26.3221C17.6748 26.3234 15.7775 29.4555 13.5503 33.2822L9.50087 40.2396L10.9305 41.5899C12.1475 42.7393 16.9844 45.5196 17.7671 45.5196C17.9063 45.5196 19.2571 43.3837 20.7688 40.773V40.773ZM35.3597 44.0144C37.9402 42.6236 40.2247 40.7914 40.0964 40.2154C39.9533 39.573 32.3535 26.3451 32.1197 26.3314C31.9395 26.3208 26.3997 35.7065 26.3997 36.0222C26.3997 36.1532 30.5405 43.4115 31.4163 44.8155C31.967 45.6985 32.3969 45.6111 35.3597 44.0144ZM10.0557 34.5216C12.3175 30.5674 12.3197 30.5611 12.3197 28.1216V25.6796H7.57268H2.82564L3.09646 27.6796C3.4175 30.0504 4.11207 32.2885 5.20181 34.4637C5.9765 36.01 7.51171 38.4796 7.69825 38.4796C7.74967 38.4796 8.81053 36.6985 10.0557 34.5216V34.5216ZM45.7631 31.7494C46.2251 30.3622 46.6855 28.4289 46.7862 27.4534L46.9692 25.6796H42.2845H37.5997V28.2509C37.5997 29.8704 37.762 31.0845 38.0383 31.5309C38.2795 31.9207 39.3046 33.6646 40.3162 35.4063L42.1556 38.573L43.5394 36.4224C44.3004 35.2396 45.3011 33.1367 45.7631 31.7494ZM28.0006 28.2552C29.6154 25.4478 31.1329 22.9879 31.3728 22.7888C32.1826 22.1167 32.9213 22.6331 34.1369 24.7208L35.3472 26.7996L35.3535 24.7069C35.3731 18.1441 31.6912 13.6091 25.8474 12.9983C22.3199 12.6296 18.9452 14.1983 16.5717 17.3101C15.1868 19.1259 14.5055 21.5639 14.6245 24.2775L14.7198 26.447L15.8398 24.5433C16.7311 23.0282 17.1223 22.6396 17.7562 22.6396C18.5996 22.6396 18.5048 22.5024 23.0057 30.2396C24.0039 31.9556 24.8756 33.3596 24.9427 33.3596C25.0098 33.3596 26.3859 31.0626 28.0007 28.2552H28.0006ZM12.3197 22.2375C12.3197 21.5764 12.4478 20.5887 12.6044 20.0427L12.8891 19.0499L9.32442 17.0048C7.36383 15.8799 5.59977 14.9169 5.40429 14.8647C4.77811 14.6976 3.04467 20.1081 3.0415 22.2396L3.0397 23.4396H7.6797H12.3197L12.3197 22.2375ZM46.7657 21.7194C46.5289 19.705 45.4821 16.1587 44.882 15.338C44.4921 14.8049 44.2042 14.9129 40.6952 16.9091C37.7823 18.5662 36.973 19.1693 37.1297 19.5662C37.2412 19.8486 37.4127 20.8356 37.5108 21.7596L37.6893 23.4396H42.3285H46.9678L46.7657 21.7194ZM15.3231 14.9528C16.162 13.981 16.8015 13.0798 16.7441 12.9502C16.6867 12.8206 15.7979 11.242 14.7689 9.44228C13.2205 6.73394 12.8069 6.21979 12.3689 6.45857C10.3999 7.532 6.29108 12.099 6.81923 12.6271C7.1282 12.9361 13.3156 16.6299 13.6187 16.6863C13.7171 16.7047 14.4841 15.9245 15.3231 14.9528V14.9528ZM36.7407 16.3541C37.1252 16.153 38.7791 15.2043 40.4161 14.2458L43.3925 12.503L42.5269 11.3313C41.2145 9.55483 39.9192 8.24517 38.3843 7.14292L36.996 6.14589L35.742 8.31276C35.0523 9.50453 34.1567 11.0642 33.7518 11.7788L33.0155 13.0779L34.4276 14.8751C35.2043 15.8635 35.8852 16.6829 35.9408 16.6959C35.9963 16.709 36.3563 16.5551 36.7407 16.3541V16.3541ZM23.1197 10.6501C23.8274 10.6398 23.8397 10.5713 23.8397 6.63962V2.63962H22.9309C21.827 2.63962 17.7246 3.67905 16.096 4.37141L14.9122 4.87465L16.5374 7.67713C19.2681 12.3861 18.7329 11.927 20.6994 11.2478C21.6346 10.9248 22.7237 10.6558 23.1197 10.6501ZM32.815 8.508C34.7104 5.26525 34.7794 5.07466 34.209 4.65756C33.3643 4.03996 29.8424 2.99374 27.7999 2.75369L26.0797 2.55151V6.59557C26.0797 10.5719 26.0918 10.6399 26.7997 10.6536C27.3488 10.6643 30.4755 11.6276 30.7703 11.8768C30.7981 11.9004 31.7182 10.3844 32.815 8.508ZM130.88 44.1087C126.177 42.9434 122.517 39.5274 121.102 34.9831C120.25 32.2451 120.255 27.7532 121.114 24.9734C123.155 18.3662 129.929 14.3953 136.864 15.7414C139.759 16.3034 141.365 17.1016 143.32 18.9506C146.035 21.5178 147.36 25.1039 147.36 29.8833V32.0796H137.594H127.828L128.032 32.9596C128.382 34.4696 129.259 35.7143 130.669 36.7055C132.511 38.0003 135.712 38.2443 137.681 37.24C138.913 36.611 139.983 35.4468 140.403 34.2765C140.572 33.8084 140.92 33.851 143.714 34.6818C145.432 35.1924 146.902 35.6751 146.981 35.7543C147.323 36.0961 145.273 39.5557 143.938 40.8913C140.764 44.0649 135.719 45.3079 130.88 44.1087H130.88ZM139.562 25.6527C139.088 23.2808 136.948 21.8396 133.9 21.8396C131.193 21.8396 128.888 23.4632 128.306 25.7791L128.09 26.6396H133.925H139.76L139.562 25.6527ZM211.073 44.0532C207.117 42.9894 203.797 40.1693 202.013 36.3582C201.174 34.5639 200.995 33.7438 200.868 31.1132C200.776 29.2042 200.873 27.329 201.118 26.2773C202.415 20.7027 207.045 16.4869 212.778 15.6611C219.386 14.709 225.334 17.823 228.088 23.6769C228.99 25.5939 229.12 26.2259 229.227 29.2406C229.366 33.1544 228.854 35.4786 227.321 37.8881C226.133 39.7542 223.696 42.0533 221.975 42.9315C218.858 44.5216 214.487 44.9713 211.073 44.0532V44.0532ZM218.776 36.382C220.775 34.9768 221.706 32.9484 221.706 29.9996C221.706 25.6669 219.459 22.9156 215.649 22.583C214.003 22.4393 213.535 22.5365 212.011 23.3398C210.588 24.0897 210.096 24.5797 209.371 25.9672C207.667 29.228 208.416 34.1786 210.899 36.0725C212.51 37.3014 213.251 37.5218 215.433 37.4216C217.036 37.348 217.691 37.1444 218.776 36.382V36.382ZM276.16 44.1297C270.553 42.6626 266.608 38.216 265.71 32.3523C264.95 27.388 266.453 22.772 269.902 19.4823C272.205 17.2855 274.636 16.108 277.81 15.6506C285.419 14.5545 292.179 19.1496 293.921 26.6016C294.471 28.9518 294.175 33.359 293.318 35.5996C291.974 39.1126 288.776 42.3075 285.28 43.63C283.062 44.4689 278.427 44.7228 276.16 44.1297V44.1297ZM282.562 36.9228C285.147 35.7486 286.556 33.306 286.556 29.9996C286.556 27.6755 286.027 26.12 284.758 24.7157C281.68 21.309 276.346 21.9577 274.085 26.0138C273.009 27.9441 272.957 31.893 273.983 33.8396C275.699 37.0956 279.319 38.3965 282.562 36.9228ZM322.113 44.0532C318.151 42.9876 314.853 40.1825 313.024 36.3224C312.034 34.2328 312 34.0184 312 29.983V25.8064L313.203 23.3725C315.334 19.0594 319.087 16.3427 323.863 15.6546C330.421 14.7099 336.367 17.8336 339.135 23.6769C340.124 25.7651 340.16 25.9829 340.16 29.9996C340.16 34.0163 340.124 34.2341 339.135 36.3224C337.925 38.8764 335.5 41.5602 333.339 42.7364C330.106 44.496 325.687 45.0144 322.113 44.0532V44.0532ZM329.149 36.7751C331.903 35.3216 333.226 32.0578 332.611 28.2396C332.08 24.9393 329.777 22.8216 326.429 22.5533C325.096 22.4464 324.482 22.5898 323.051 23.3422C320.664 24.5971 319.52 26.6982 319.52 29.8284C319.52 32.2724 319.917 33.7129 320.989 35.1589C322.692 37.4557 326.45 38.2 329.149 36.7751ZM160.527 43.9117C158.724 43.5365 156.54 42.2471 155.694 41.0595C154.259 39.0443 154.08 37.8477 154.08 30.2794V23.1196H151.68H149.28V19.8012V16.4829L150.756 16.3164C152.377 16.1337 153.704 15.3182 154.315 14.1288C154.534 13.7035 154.712 12.1744 154.715 10.7088L154.72 8.05797L158.16 8.1488L161.6 8.23963L161.69 12.3196L161.779 16.3996H164.49H167.2V19.7596V23.1196H164.48H161.76V29.5196C161.76 37.2242 161.749 37.1996 165.12 37.1996H167.2V40.2476C167.2 43.1727 167.169 43.3073 166.43 43.5883C165.204 44.0544 162.045 44.2275 160.527 43.9117L160.527 43.9117ZM241.531 43.7754C236.699 42.2651 233.194 37.8058 232.524 32.3155C231.688 25.4679 234.47 19.5807 239.774 16.9694C241.81 15.9672 242.073 15.9196 245.593 15.9196C249.475 15.9196 250.537 16.2158 252.24 17.7728L252.96 18.4312V11.0154V3.59962H256.8H260.64V23.5996V43.5996H256.96H253.28V42.2569V40.9141L252.24 41.9187C250.49 43.6086 248.698 44.2276 245.6 44.2112C244.104 44.2033 242.273 44.0072 241.531 43.7754V43.7754ZM250.083 36.4355C250.872 35.9134 251.6 35.0129 252.162 33.8628C252.925 32.3044 253.014 31.7967 252.911 29.6065C252.769 26.5659 252.013 24.9481 250.104 23.5996C248.914 22.7594 248.472 22.6396 246.56 22.6396C244.648 22.6396 244.204 22.7598 243.012 23.5996C241.028 24.9972 240.159 26.8404 240.162 29.65C240.162 30.8983 240.316 32.469 240.502 33.1404C240.914 34.6221 242.949 36.7368 244.387 37.177C246.069 37.6918 248.702 37.349 250.083 36.4355V36.4355ZM71.1997 23.9117V4.22377L76.3462 4.3117L81.4927 4.39963L87.1942 18.101C90.33 25.6367 92.9546 31.8612 93.0266 31.9332C93.0986 32.0053 95.6853 25.8397 98.7748 18.2319L104.392 4.39963L109.716 4.31188L115.04 4.22415V23.9119V43.5996H111.2H107.36L107.349 30.2396L107.338 16.8796L101.843 30.2396L96.3488 43.5996L92.9743 43.5936L89.5997 43.5876L84.3197 30.7437L79.0397 17.8999L78.9561 30.7498L78.8725 43.5996H75.0361H71.1997V23.9117ZM171.04 23.5996V3.59962H174.88H178.72V10.9881V18.3765L179.742 17.5166C181.022 16.4392 181.913 16.0911 184.261 15.7514C189.485 14.9958 193.616 17.2481 195.427 21.8396C196.075 23.4828 196.13 24.2637 196.251 33.5996L196.381 43.5996H192.533H188.685L188.582 34.7196C188.494 27.0962 188.403 25.6992 187.936 24.8471C187.099 23.3182 185.871 22.67 183.784 22.6537C181.579 22.6366 180.486 23.3194 179.44 25.3662C178.747 26.7218 178.72 27.0945 178.72 35.1874V43.5996H174.88H171.04V23.5996ZM299.04 23.5996V3.59962H302.88H306.72V23.5996V43.5996H302.88H299.04V23.5996Z" fill="#333333"/>
</svg>
