<svg width="364" height="501" viewBox="0 0 364 501" fill="none" xmlns="http://www.w3.org/2000/svg">
<path d="M0.0996094 500.1H363.1V0.0996094H0.0996094V500.1V500.1ZM9.6996 9.79961H347.2L238.9 122.4H9.6996V9.79961ZM353.5 17.0996V367.5H16.4996L353.5 17.0996ZM9.6996 132H229.7L9.6996 360.8V132ZM186.4 377.2H353.5V490.6H186.4V377.2ZM9.6996 377.2H176.8V490.6H9.6996V377.2Z" fill="#333333"/>
<path d="M110.2 65.1994V46.8994H126.5C132.1 46.8994 135.2 51.3994 135.2 56.3994C135.2 61.3994 132.2 65.1994 126.2 65.1994H110.2ZM144.5 56.1994C144.5 46.1994 137.8 38.3994 126.6 38.3994H101.2V93.9994H110.2V73.7994H122.7L136 93.9994H146L132.4 73.2994C139.7 71.3994 144.5 63.8994 144.5 56.1994ZM79.7998 414.199H96.0998C101.7 414.199 104.8 418.699 104.8 423.699C104.8 428.699 101.8 432.499 95.7998 432.499H79.7998V414.199ZM79.7998 441.099H92.2998L105.6 461.299H115.6L102.1 440.599C109.4 438.599 114.1 431.099 114.1 423.499C114.1 413.499 107.4 405.699 96.1998 405.699H70.7998V461.299H79.7998V441.099ZM265.5 229.999V277.099H274.5V229.999H293.9V221.499H246.2V229.999H265.5Z" fill="#333333"/>
</svg>
