<?xml version="1.0" encoding="UTF-8" standalone="no"?>
<!-- Created with Inkscape (http://www.inkscape.org/) -->

<svg
   xmlns:dc="http://purl.org/dc/elements/1.1/"
   xmlns:cc="http://creativecommons.org/ns#"
   xmlns:rdf="http://www.w3.org/1999/02/22-rdf-syntax-ns#"
   xmlns:svg="http://www.w3.org/2000/svg"
   xmlns="http://www.w3.org/2000/svg"
   xmlns:sodipodi="http://sodipodi.sourceforge.net/DTD/sodipodi-0.dtd"
   xmlns:inkscape="http://www.inkscape.org/namespaces/inkscape"
   width="203.68735"
   height="82.949532"
   viewBox="0 0 53.892276 21.947063"
   version="1.1"
   id="svg13938"
   inkscape:version="0.92.0 r15299"
   sodipodi:docname="ulta.svg">
  <defs
     id="defs13932" />
  <sodipodi:namedview
     id="base"
     pagecolor="#ffffff"
     bordercolor="#666666"
     borderopacity="1.0"
     inkscape:pageopacity="0.0"
     inkscape:pageshadow="2"
     inkscape:zoom="3.9568332"
     inkscape:cx="101.34367"
     inkscape:cy="40.974757"
     inkscape:document-units="mm"
     inkscape:current-layer="layer1"
     showgrid="false"
     fit-margin-top="0"
     fit-margin-left="0"
     fit-margin-right="0"
     fit-margin-bottom="0"
     units="px"
     inkscape:window-width="1280"
     inkscape:window-height="744"
     inkscape:window-x="-4"
     inkscape:window-y="-4"
     inkscape:window-maximized="1" />
  <metadata
     id="metadata13935">
    <rdf:RDF>
      <cc:Work
         rdf:about="">
        <dc:format>image/svg+xml</dc:format>
        <dc:type
           rdf:resource="http://purl.org/dc/dcmitype/StillImage" />
        <dc:title></dc:title>
      </cc:Work>
    </rdf:RDF>
  </metadata>
  <g
     inkscape:label="Layer 1"
     inkscape:groupmode="layer"
     id="layer1"
     transform="translate(-66.168297,-192.15608)">
    <g
       id="g14016"
       transform="translate(0.13229217,-0.1322874)">
      <path
         d="m 87.453956,208.12794 c 0,-0.44379 -0.0099,-0.74895 -0.03528,-1.09608 0.09313,0.008 0.872772,0 1.114425,0 0.511528,0 0.860072,0.18239 0.860072,0.61313 0,0.4325 -0.430388,0.61489 -0.693208,0.65405 v 0.007 c 0.258939,0.0134 0.76447,0.18768 0.76447,0.66569 0,0.56586 -0.484717,0.79234 -0.9906,0.79234 -0.225073,0 -0.962025,-0.008 -1.055159,0 0.0254,-0.34889 0.03528,-0.65405 0.03528,-1.09608 z m 0.853722,-0.87101 c -0.123119,0 -0.152753,0.004 -0.208491,0.012 -0.0078,0.19544 -0.01693,0.41522 -0.01693,0.55068 0,0.14288 0.0053,0.26882 0.0053,0.40393 h 0.1905 c 0.242358,0 0.484717,-0.16651 0.484717,-0.50235 0,-0.25471 -0.118887,-0.46426 -0.455084,-0.46426 m -0.03845,1.19274 c -0.0762,0 -0.131586,0.003 -0.18168,0.003 0,0.11077 -0.0053,0.22225 -0.0053,0.38453 0,0.2487 0.0092,0.55492 0.0092,0.69462 0.07691,0.002 0.140759,0.006 0.233892,0.006 0.250825,0 0.467431,-0.19191 0.467431,-0.53763 0,-0.36795 -0.183092,-0.55034 -0.523523,-0.55034"
         style="fill:#5a5758;fill-opacity:1;fill-rule:nonzero;stroke:none;stroke-width:0.35277778"
         id="path12966"
         inkscape:connector-curvature="0" />
      <path
         d="m 93.678238,208.12794 c 0,-0.44379 -0.0085,-0.74895 -0.03316,-1.09608 0.249414,0.004 1.531408,0.0102 1.645355,0 -0.0095,0.0462 -0.0095,0.28399 0,0.34466 -0.32385,-0.0208 -0.860425,-0.0197 -0.986719,-0.0197 -0.02117,0.28928 0.0035,0.54645 0.0035,0.83467 0.370416,-0.008 0.642761,-0.0148 0.965905,-0.0314 -0.01623,0.0907 -0.0127,0.25824 0,0.34043 -0.323144,-0.0236 -0.641702,-0.0353 -0.965905,-0.0353 0,0.16686 -0.0035,0.33725 -0.0035,0.50658 0,0.16793 0.0011,0.30551 0.01023,0.46285 0.318911,0 0.649111,0.0166 0.976488,-0.0194 -0.0095,0.0557 -0.0095,0.30268 0,0.34889 -0.153458,-0.003 -1.552222,-0.008 -1.645355,0 0.02469,-0.34889 0.03316,-0.65405 0.03316,-1.09608 z"
         style="fill:#5a5758;fill-opacity:1;fill-rule:nonzero;stroke:none;stroke-width:0.35277778"
         id="path12970"
         inkscape:connector-curvature="0" />
      <path
         d="m 101.85312,209.76426 c -0.13652,-0.008 -0.61736,-0.008 -0.73625,0 -0.0885,-0.26846 -0.18697,-0.54328 -0.29351,-0.81139 -0.18309,-0.004 -0.837493,-0.004 -0.987423,0 -0.115006,0.26811 -0.209198,0.53834 -0.288925,0.81139 -0.06809,-0.008 -0.331964,-0.008 -0.411339,0 0.20708,-0.43921 0.845255,-1.84961 1.211087,-2.75237 0.0547,0.007 0.26811,0.007 0.3235,0 0.36089,0.90276 0.86007,2.10749 1.18286,2.75237 m -1.12783,-1.04563 c -0.12312,-0.32138 -0.24306,-0.6343 -0.37853,-0.94227 -0.14429,0.30797 -0.27623,0.62089 -0.399346,0.94227 z"
         style="fill:#5a5758;fill-opacity:1;fill-rule:nonzero;stroke:none;stroke-width:0.35277778"
         id="path12974"
         inkscape:connector-curvature="0" />
      <path
         d="m 105.22313,208.77432 c 0,-0.42827 0.009,-0.64135 0.009,-0.92781 0,-0.4191 -0.009,-0.68403 -0.0169,-0.81491 0.11465,0.0106 0.23389,0.0198 0.34783,0.0198 0.11501,0 0.2346,-0.009 0.3482,-0.0198 -0.0533,0.51435 -0.0586,0.92639 -0.0586,1.38677 0,0.96555 0.29739,1.1243 0.8509,1.1243 0.6805,0 0.72707,-0.68509 0.72707,-1.42134 0,-0.36442 -0.0123,-0.72496 -0.0332,-1.08973 0.0716,0.0106 0.14358,0.0198 0.21625,0.0198 0.0727,0 0.14005,-0.009 0.21308,-0.0198 -0.0254,0.23389 -0.0557,0.79975 -0.0557,1.48519 0,0.91899 -0.43039,1.29964 -1.25377,1.29964 -0.72849,0 -1.29399,-0.2981 -1.29399,-1.04211"
         style="fill:#5a5758;fill-opacity:1;fill-rule:nonzero;stroke:none;stroke-width:0.35277778"
         id="path12978"
         inkscape:connector-curvature="0" />
      <path
         d="m 112.24493,207.67704 c 0,-0.14993 0.005,-0.27693 -0.008,-0.33055 -0.16581,0 -0.52776,0.006 -0.78317,0.0328 0.0127,-0.0596 0.0127,-0.28893 0,-0.34749 0.38665,0.0106 1.82527,0.0106 2.18617,0 -0.0131,0.0586 -0.0131,0.28787 0,0.34749 -0.23002,-0.0268 -0.59267,-0.0289 -0.76412,-0.0289 -0.007,0.0568 -0.001,0.17674 -0.001,0.32667 v 0.99095 c 0,0.44239 0.009,0.74719 0.0335,1.09608 -0.0942,-0.008 -0.6043,-0.008 -0.69744,0 0.0261,-0.34889 0.0339,-0.65369 0.0339,-1.09608 z"
         style="fill:#5a5758;fill-opacity:1;fill-rule:nonzero;stroke:none;stroke-width:0.35277778"
         id="path12982"
         inkscape:connector-curvature="0" />
      <path
         d="m 118.75459,208.21954 c 0.23001,-0.30092 0.45508,-0.80081 0.64206,-1.1878 0.0646,0.008 0.32667,0.008 0.39934,0 -0.18521,0.29633 -0.62018,1.05233 -0.89218,1.55187 0,0.127 -0.005,0.2233 -0.005,0.35277 0,0.26106 0.004,0.53164 0.0434,0.82797 -0.11923,-0.008 -0.60466,-0.008 -0.72354,0 0.0131,-0.25329 0.0515,-0.51964 0.0515,-0.76447 0,-0.12276 -0.005,-0.24518 -0.009,-0.36794 -0.29315,-0.52776 -0.77893,-1.37513 -0.90981,-1.6002 0.127,0.008 0.63288,0.008 0.76129,0 0.19474,0.39052 0.51435,1.00647 0.63359,1.1878 z"
         style="fill:#5a5758;fill-opacity:1;fill-rule:nonzero;stroke:none;stroke-width:0.35277778"
         id="path12986"
         inkscape:connector-curvature="0" />
      <path
         d="m 76.700835,193.99856 c -0.06032,1.48449 -0.06032,3.36162 -0.06032,5.0419 0,3.10938 0.03951,3.81353 0.624417,4.57623 0.584905,0.7613 1.672872,1.19028 3.083277,1.19028 1.632656,0 2.921706,-0.81951 3.364442,-2.01225 0.161925,-0.43004 0.261761,-1.03611 0.261761,-2.63842 0,-2.54247 -0.01905,-5.10329 -0.180269,-7.64364 0.281869,0.0377 1.550811,0.0377 1.853494,0 l -0.06103,0.93698 c -0.100188,1.68239 -0.161219,5.70865 -0.201436,7.6835 -0.04022,2.30575 -0.724605,3.36303 -2.054577,4.18394 -0.947209,0.58738 -2.297995,0.84067 -3.385256,0.84067 -2.418291,0 -5.320594,-0.74295 -5.762625,-3.77402 -0.04057,-0.27375 -0.04057,-0.86007 -0.04057,-1.0361 v -5.31707 c 0,-0.99589 -0.04057,-2.5213 -0.1016,-3.5179 0.463903,0.0575 2.31775,0.0575 2.72168,0 z"
         style="fill:#5a5758;fill-opacity:1;fill-rule:nonzero;stroke:none;stroke-width:0.35277778"
         id="path12990"
         inkscape:connector-curvature="0" />
      <path
         d="m 88.670476,197.88219 c 0,-0.85478 0,-1.05057 -0.05962,-2.78201 -0.02117,-0.40957 -0.06032,-2.16111 -0.08043,-2.53047 0.503061,0.0963 2.296584,0.0769 2.799997,0 -0.1397,2.93793 -0.201083,5.39115 -0.201083,8.38941 0,1.36243 0.03951,2.6289 0.06138,3.69923 h 0.362656 c 0.583494,0 3.484739,0 4.672542,-0.17569 -0.05786,0.21414 -0.07902,1.18604 0,1.4418 -1.026937,-0.0402 -2.758723,-0.11818 -3.847395,-0.11818 -1.28905,0 -2.377722,0.0385 -3.8481,0.11818 0,-0.31185 0.140053,-4.82846 0.140053,-5.3153 z"
         style="fill:#5a5758;fill-opacity:1;fill-rule:nonzero;stroke:none;stroke-width:0.35277778"
         id="path12994"
         inkscape:connector-curvature="0" />
      <path
         d="m 101.85048,203.25588 c 0,1.48096 0.0811,2.12231 0.14182,2.66876 -0.58491,-0.0589 -2.115964,-0.0801 -2.841275,0 0.08079,-1.47955 0.201436,-2.98026 0.201436,-4.45911 l -0.02011,-5.43136 c 0,-0.72038 -0.0194,-1.40265 -0.04022,-2.16218 H 98.28495 c -0.18168,0 -2.11455,0.0409 -3.14325,0.13688 0.06103,-0.23248 0.103011,-1.32221 0.04198,-1.5561 1.591027,0.0984 3.783541,0.0963 5.33611,0.0963 1.67182,0 3.4671,-0.0307 5.40209,-0.12841 -0.0614,0.33161 -0.0815,1.27494 -0.0205,1.58821 -1.18816,-0.11606 -2.61973,-0.13688 -4.00932,-0.13688 -0.0201,0.70132 -0.0416,1.4418 -0.0416,2.18087 z"
         style="fill:#5a5758;fill-opacity:1;fill-rule:nonzero;stroke:none;stroke-width:0.35277778"
         id="path12998"
         inkscape:connector-curvature="0" />
      <path
         d="m 113.74237,203.78399 -0.84243,-2.05634 c -0.8636,-0.0381 -4.17619,-0.0381 -4.97911,0 -0.64241,1.49331 -1.28623,3.10268 -1.60725,4.21005 -0.26141,-0.0399 -1.58362,-0.0399 -1.86796,0 l 2.33045,-5.00627 c 2.02741,-4.38256 3.18946,-6.90386 3.6703,-8.41728 h 1.31021 c 0.96626,2.57951 2.16712,5.2952 2.89031,6.92538 0.76235,1.68804 2.08704,4.61539 2.99191,6.49817 -0.30162,-0.0194 -2.69169,-0.0194 -3.05117,0 z m -3.31294,-8.0324 -2.04787,4.77414 c 0.70344,0.0194 1.38783,0.0543 2.09021,0.0543 0.39511,0 0.99448,-0.002 1.84608,-0.0543 z"
         style="fill:#5a5758;fill-opacity:1;fill-rule:nonzero;stroke:none;stroke-width:0.35277778"
         id="path13002"
         inkscape:connector-curvature="0" />
      <path
         d="m 71.151636,193.11498 c -3.139369,2.12901 -4.983339,4.80589 -4.983339,8.07649 0,7.42421 8.964789,12.91167 21.747339,12.91167 5.729463,0 10.514541,-1.48131 14.060664,-3.308 l -0.22084,0.003 c -4.279194,1.28799 -8.607072,1.81751 -13.055599,1.81751 -12.848167,0 -21.695128,-6.03003 -21.707475,-11.60357 -0.0067,-3.09139 1.432631,-5.7598 4.159956,-7.71031 z"
         style="fill:#5a5758;fill-opacity:1;fill-rule:nonzero;stroke:none;stroke-width:0.35277778"
         id="path13006"
         inkscape:connector-curvature="0" />
      <path
         d="m 116.06234,192.50009 c 0.43709,0 0.80398,0.34502 0.80398,0.79763 0,0.46108 -0.36689,0.8061 -0.80398,0.8061 -0.43956,0 -0.80821,-0.34502 -0.80821,-0.8061 0,-0.45261 0.36865,-0.79763 0.80821,-0.79763 m 0,1.4859 c 0.37077,0 0.65828,-0.29598 0.65828,-0.68827 0,-0.38382 -0.28751,-0.6798 -0.65828,-0.6798 -0.37536,0 -0.66252,0.29598 -0.66252,0.6798 0,0.39229 0.28716,0.68827 0.66252,0.68827 m -0.31291,-1.15358 h 0.36195 c 0.2233,0 0.32808,0.0878 0.32808,0.26811 0,0.16933 -0.10725,0.23989 -0.24624,0.25506 l 0.26776,0.4138 h -0.15628 l -0.25541,-0.40322 h -0.15417 v 0.40322 h -0.14569 z m 0.14569,0.41592 h 0.15205 c 0.12876,0 0.24659,-0.006 0.24659,-0.15416 0,-0.12453 -0.10724,-0.14394 -0.20567,-0.14394 h -0.19297 z"
         style="fill:#5a5758;fill-opacity:1;fill-rule:nonzero;stroke:none;stroke-width:0.35277778"
         id="path13010"
         inkscape:connector-curvature="0" />
    </g>
  </g>
</svg>
