<svg width="193" height="193" viewBox="0 0 193 193" fill="none" xmlns="http://www.w3.org/2000/svg">
<path fill-rule="evenodd" clip-rule="evenodd" d="M0 0H192.756V192.756H0V0Z" fill="white"/>
<path d="M75.2729 79.1576C74.3169 79.1996 73.4969 79.8236 73.5429 80.8616C73.5899 81.8986 74.4619 82.4447 75.4179 82.4017C76.3739 82.3587 77.1939 81.7356 77.1479 80.6976C77.1019 79.6606 76.2289 79.1146 75.2729 79.1576Z" fill="#A72C32"/>
<path d="M104.174 82.3455L102.518 82.1035L102.337 83.3615L103.991 83.6015C104.58 83.6875 104.901 83.5345 104.969 83.0745C105.03 82.6485 104.762 82.4305 104.174 82.3455Z" fill="#A72C32"/>
<path d="M61.6127 90.1466C60.7657 90.3626 59.9097 90.5906 59.0347 90.8356C58.6317 90.9486 58.2077 90.8466 57.9037 90.5646C57.6497 90.3336 57.5107 90.0126 57.5107 89.6776C57.5107 89.6036 57.5178 89.5276 57.5318 89.4526C57.6828 88.6396 58.0347 86.4856 58.0347 84.0256C58.0347 84.0256 58.0237 83.2516 58.0237 83.2446C57.9817 81.9296 57.8407 80.8546 57.6777 80.0156C53.6527 81.1596 50.2687 81.9316 46.6307 81.3256C46.5197 81.3066 46.4077 81.3566 46.3467 81.4516C46.3167 81.4986 46.3027 81.5516 46.3027 81.6046C46.3027 81.6606 46.3187 81.7156 46.3507 81.7646C47.7247 83.8006 50.0227 85.5776 52.8257 86.7706C51.7637 88.2206 49.4267 89.8216 46.8707 90.8506C46.7627 90.8936 46.6937 90.9976 46.6937 91.1146C46.6937 91.1146 46.6937 91.1146 46.6937 91.1156C46.6947 91.2326 46.7667 91.3366 46.8747 91.3786C51.7197 93.2576 56.9357 93.3256 61.5607 91.5716C62.0917 91.3696 62.4018 91.1116 62.3678 90.6086C62.3378 90.1946 62.0467 90.0426 61.6127 90.1466Z" fill="#B5292F"/>
<path d="M148.275 85.1828C148.236 85.0818 148.143 85.0128 148.034 85.0038C145.697 84.8178 142.637 84.1408 141.57 83.2498C142.915 81.8278 144.721 79.1918 145.384 76.4428C145.39 76.4208 145.393 76.3978 145.393 76.3758C145.393 76.2868 145.35 76.1998 145.274 76.1458C145.181 76.0788 145.056 76.0748 144.959 76.1368C142.324 77.8108 139.748 78.0538 137.256 78.2868C136.96 78.3158 136.645 78.3478 136.326 78.3808C136.21 79.3658 136.107 80.5898 136.107 81.9108C136.107 81.9108 136.119 82.7128 136.117 82.6988C136.205 85.4598 136.735 87.1938 136.96 87.8108C137.075 88.1288 137.053 88.4838 136.893 88.7908C136.767 89.0298 136.563 89.2138 136.321 89.3238C136.258 89.3538 136.195 89.3778 136.127 89.3958C134.9 89.7058 133.701 89.9818 132.514 90.2408C131.971 90.3748 131.913 90.8368 131.992 91.0888C132.11 91.4608 132.458 91.6278 133.15 91.5478C139.921 90.7618 145.416 88.5508 148.221 85.4808C148.27 85.4278 148.297 85.3588 148.297 85.2888C148.296 85.2518 148.288 85.2168 148.275 85.1828Z" fill="#B5292F"/>
<path d="M136.097 88.1266C135.858 87.4656 135.291 85.6186 135.201 82.7236L135.189 81.9226C135.189 79.3736 135.552 77.1526 135.708 76.3166C135.727 76.2196 135.692 76.1216 135.621 76.0556C135.549 75.9886 135.447 75.9656 135.354 75.9916C127.5 78.2056 120.723 79.2236 115.213 79.0176C108.469 78.7646 101.721 77.6406 98.2976 76.9926C94.5156 76.2766 87.0356 75.0336 79.4236 74.7476C73.3166 74.5186 66.1886 75.4246 58.2396 77.4426C58.1626 77.4626 58.0966 77.5136 58.0596 77.5856C58.0216 77.6566 58.0166 77.7406 58.0426 77.8156C58.2836 78.4746 58.8516 80.3226 58.9396 83.2166L58.9516 84.0126C58.9516 86.5616 58.5896 88.7846 58.4316 89.6226C58.4146 89.7196 58.4486 89.8176 58.5196 89.8846C58.5916 89.9506 58.6926 89.9746 58.7866 89.9486C66.6396 87.7346 73.4156 86.7166 78.9266 86.9236C85.6716 87.1766 92.4176 88.3006 95.8396 88.9476C99.6226 89.6646 107.11 90.9096 114.716 91.1946C120.821 91.4236 127.948 90.5156 135.9 88.4986C135.979 88.4786 136.044 88.4266 136.082 88.3556C136.119 88.2846 136.125 88.2016 136.097 88.1266ZM70.1646 83.6476C70.1176 83.5786 70.0726 83.5746 69.9976 83.5876C69.7806 83.6276 68.8786 84.3966 67.2656 84.6886C65.5336 85.0016 63.5166 84.3556 63.1676 82.4096C62.8186 80.4646 64.4836 79.1526 66.2166 78.8396C67.0826 78.6826 67.7196 78.6796 68.1746 78.7206C68.6176 78.7646 68.8496 78.8116 68.9586 78.7926C69.0246 78.7796 69.0716 78.7376 69.1056 78.6756L69.2306 78.6866L68.5786 80.6566L68.4556 80.6016C68.4586 80.5556 68.4616 80.5096 68.4476 80.4336C68.4086 80.2166 67.5256 80.0846 66.6046 80.2506C65.7276 80.4096 64.6586 80.9956 64.8576 82.1046C65.0566 83.2136 66.2616 83.3876 67.1386 83.2296C67.5176 83.1606 68.9056 82.6066 68.8486 82.2916C68.8366 82.2266 68.7866 82.1906 68.7546 82.1396L68.8596 82.0426L70.2816 83.5476L70.1646 83.6476ZM75.4676 83.7436C73.5996 83.8276 71.9926 82.8606 71.9056 80.9306C71.8196 78.9986 73.3346 77.8916 75.2026 77.8076C77.0706 77.7236 78.6776 78.6906 78.7636 80.6216C78.8506 82.5526 77.3356 83.6586 75.4676 83.7436ZM84.1426 79.1886C83.1896 79.1056 82.8366 79.3396 82.8166 79.5926C82.7316 80.5726 87.3726 79.7686 87.1536 82.3006C87.0706 83.2466 86.2686 84.2306 83.8906 84.0226C82.0596 83.8626 81.2916 83.2856 81.0396 83.2636C80.9516 83.2566 80.8796 83.3276 80.8086 83.3876L80.6806 83.3436L81.6606 81.4556L81.7656 81.5206C81.7386 81.5746 81.7326 81.6506 81.7236 81.7496C81.6976 82.0466 82.8276 82.6446 83.9676 82.7436C85.0636 82.8396 85.5806 82.6186 85.6216 82.1346C85.6926 81.3206 81.0986 81.8276 81.2816 79.7046C81.3776 78.6036 82.4946 77.9356 84.1066 78.0776C85.6086 78.2086 86.6536 78.7656 86.9496 78.7916C87.0916 78.8046 87.1756 78.7326 87.2596 78.6526L87.3766 78.7066L86.4876 80.1706L86.3616 80.0936L86.3726 79.9716C86.3956 79.6956 85.1726 79.2796 84.1426 79.1886ZM95.4546 81.2686L95.3246 81.2476C95.3296 80.9916 95.2946 80.9306 95.1746 80.9116L93.3036 80.6276L92.6876 84.7126C92.6726 84.8116 92.6936 84.8926 92.9626 84.9556L92.9426 85.0856L90.7016 84.7466L90.7216 84.6146C90.9966 84.6346 91.0406 84.5636 91.0566 84.4636L91.6726 80.3796L89.8016 80.0946C89.6806 80.0766 89.6296 80.1246 89.5596 80.3716L89.4286 80.3506L89.7216 78.4066L89.8516 78.4266C89.8456 78.6826 89.8816 78.7446 90.0016 78.7626L95.3746 79.5796C95.4956 79.5976 95.5476 79.5496 95.6186 79.3036L95.7476 79.3236L95.4546 81.2686ZM106.461 83.2896C106.32 84.2626 105.49 85.0006 104.118 84.8016L102.158 84.5156L101.9 86.2976C101.886 86.3966 101.908 86.4776 102.177 86.5396L102.157 86.6696L99.9116 86.3426L99.9306 86.2126C100.206 86.2306 100.25 86.1576 100.264 86.0606L101 80.9656C101.015 80.8676 100.993 80.7856 100.724 80.7246L100.745 80.5936L104.644 81.1616C106.018 81.3606 106.602 82.3156 106.461 83.2896ZM114.033 88.1786L113.902 88.1696C113.884 87.9366 113.843 87.8776 113.724 87.8686L108.278 87.4906L108.287 87.3586C108.562 87.3576 108.601 87.2816 108.609 87.1826L108.988 82.0496C108.996 81.9486 108.968 81.8706 108.695 81.8276L108.706 81.6966L110.967 81.8636L110.956 81.9956C110.68 81.9966 110.641 82.0726 110.634 82.1706L110.33 86.2916L113.816 86.5246C113.938 86.5316 113.986 86.4806 114.037 86.2296L114.168 86.2396L114.033 88.1786ZM122.226 85.2516C122.313 87.1946 120.99 87.8956 119.307 87.9716C117.626 88.0476 116.245 87.4686 116.159 85.5276L116.025 82.5696C116.02 82.4696 115.984 82.3946 115.709 82.3846L115.704 82.2536L117.967 82.1496L117.972 82.2816C117.7 82.3166 117.67 82.3946 117.674 82.4936L117.806 85.4516C117.846 86.3016 118.367 86.6206 119.246 86.5806C120.125 86.5406 120.615 86.1756 120.577 85.3266L120.443 82.3686C120.439 82.2686 120.403 82.1936 120.127 82.1836L120.121 82.0526L122.386 81.9486L122.392 82.0826C122.118 82.1166 122.088 82.1956 122.092 82.2946L122.226 85.2516ZM128.128 86.9386C126.318 87.2596 125.428 86.9016 125.179 86.9456C125.091 86.9616 125.04 87.0486 124.988 87.1256L124.852 87.1146L125.312 85.0376L125.43 85.0716C125.418 85.1306 125.431 85.2066 125.449 85.3046C125.501 85.5976 126.746 85.8816 127.874 85.6816C128.958 85.4896 129.398 85.1416 129.313 84.6636C129.173 83.8586 124.865 85.5426 124.495 83.4436C124.304 82.3556 125.212 81.4206 126.805 81.1376C128.289 80.8736 129.443 81.1396 129.736 81.0886C129.875 81.0636 129.939 80.9726 129.999 80.8736L130.128 80.8956L129.645 82.5396L129.5 82.4996L129.479 82.3796C129.433 82.1076 128.143 82.0216 127.125 82.2026C126.182 82.3696 125.903 82.6876 125.947 82.9386C126.117 83.9066 130.394 81.9246 130.835 84.4266C131 85.3626 130.479 86.5206 128.128 86.9386Z" fill="#B5292F"/>
<path d="M103.717 94.6926L108.633 94.6946L108.631 96.8596L107.558 96.8586L109.026 115.479H109.914L109.912 117.646L103.455 117.641L103.457 115.476H104.547L103.736 104.369L103.665 104.368L100.515 117.638H98.6873L95.3333 104.297L95.2633 104.296L94.4033 115.47H95.4113V117.637L91.2793 117.633L91.2803 115.468H92.3893L93.8473 96.8506H92.8093L92.8113 94.6846L97.4013 94.6876L100.669 108.061H100.741L103.717 94.6926Z" fill="#B5292F"/>
<path d="M37.3239 100.531C40.0689 100.947 39.8269 109.842 39.4829 112.119C39.0129 115.236 38.1209 116.098 37.0699 115.939C34.3249 115.521 34.5659 106.628 34.9099 104.349C35.3809 101.232 36.2709 100.37 37.3239 100.531ZM36.8659 118.039C40.9659 118.04 44.1339 114.258 44.1369 107.925C44.1409 102.112 41.1589 98.4336 37.5269 98.4326C33.4269 98.4296 30.2589 102.212 30.2559 108.545C30.2519 114.359 33.2339 118.036 36.8659 118.039Z" fill="#B5292F"/>
<path d="M50.7244 101.046C53.1104 101.103 53.9405 102.336 53.9375 104.641C53.9375 106.998 53.2355 109.109 50.7175 109.163L50.7244 101.046ZM51.5434 117.608L51.5455 115.443L50.7144 115.441L50.7164 111.329C51.0534 111.302 51.4174 111.274 51.7284 111.137C52.4534 113.276 53.4115 115.361 53.8775 117.61L58.5474 117.614L58.5484 115.448L57.6154 115.447L55.4904 110.208C57.3594 109.36 58.1914 107.167 58.1934 105.438C58.1944 100.942 56.0934 98.8839 50.8274 98.8799L45.5354 98.877L45.5334 101.043L46.4684 101.045L46.4584 115.441L45.5254 115.439L45.5234 117.604L51.5434 117.608Z" fill="#B5292F"/>
<path d="M77.8425 101.063C81.3185 101.367 81.7575 105.589 81.7545 108.221C81.7545 111.265 81.5175 115.46 77.8326 115.458L77.8425 101.063ZM72.6436 117.62L78.1685 117.626C83.0745 117.627 86.0075 113.324 86.0115 108.308C86.0155 101.563 82.0215 98.8985 77.4565 98.8965L72.6555 98.8936L72.6545 101.06L73.5885 101.061L73.5795 115.457L72.6445 115.455V117.62H72.6436Z" fill="#B5292F"/>
<path d="M118.605 110.74L115.31 110.737L116.897 104.131H116.948L118.605 110.74ZM115.125 117.647V115.482L114.296 115.481L114.764 113.151L119.305 113.153L119.874 115.486L118.732 115.485L118.73 117.65L124.853 117.654L124.855 115.488H124.076L119.755 98.9229L116.305 98.9209L112.117 115.481H111.304L111.302 117.646L115.125 117.647Z" fill="#B5292F"/>
<path d="M131.765 101.098C134.152 101.154 134.982 102.387 134.982 104.692C134.979 107.048 134.277 109.161 131.76 109.214L131.765 101.098ZM132.587 117.658L132.588 115.493H131.756L131.759 111.379C132.097 111.354 132.461 111.325 132.772 111.187C133.497 113.328 134.456 115.413 134.922 117.662L139.591 117.665L139.593 115.498H138.657L136.534 110.259C138.403 109.41 139.235 107.218 139.235 105.489C139.238 100.992 137.137 98.9328 131.87 98.9308L126.577 98.9258L126.575 101.093L127.51 101.095L127.5 115.49H126.567L126.566 117.656L132.587 117.658Z" fill="#B5292F"/>
<path d="M142.029 117.664L142.032 115.499H142.966L142.975 101.103L142.041 101.102L142.042 98.9346L148.163 98.9386V101.107L147.23 101.106L147.226 106.727H147.277L151.041 101.108L149.978 101.109L149.98 98.9406L154.495 98.9436L154.494 101.112L153.558 101.111L150.834 105.111L154.588 115.507L155.626 115.508L155.624 117.674L150.876 117.669C150.126 114.68 148.884 111.829 147.95 108.922H147.896L147.222 110.017L147.22 115.502L148.152 115.503V117.668L142.029 117.664Z" fill="#B5292F"/>
<path d="M166.141 105.303L167.775 105.304L167.772 110.129H166.138L166.14 108.813L162.635 108.811L162.632 115.513H163.981C165.876 115.514 166.109 115.241 166.136 112.718H167.771L167.768 117.681L157.44 117.674L157.442 115.508L158.377 115.51L158.387 101.114L157.453 101.113V98.9463L167.78 98.9523L167.776 102.71L166.143 102.708C166.144 101.886 165.781 101.118 164.949 101.118L162.641 101.116L162.638 106.643L166.14 106.647L166.141 105.303Z" fill="#B5292F"/>
<path d="M170.17 98.9541L169.799 104.082H171.512C171.616 102.631 172.293 101.231 173.745 101.123L173.736 115.519L172.801 115.517L172.8 117.683L178.923 117.687L178.925 115.521L177.992 115.52L178 101.124C179.451 101.235 180.125 102.634 180.229 104.087H181.941L181.576 98.9611L170.17 98.9541Z" fill="#B5292F"/>
<path d="M70.8582 117.619L70.9982 112.547L69.4402 112.546C69.4392 114.604 68.7122 115.452 67.0002 115.452H66.0142L66.0232 101.056H66.9572L66.9602 98.8907L60.8362 98.8857L60.8342 101.053H61.7692L61.7612 115.449H60.8262L60.8252 117.615L70.8582 117.619Z" fill="#B5292F"/>
<path d="M22.1509 96.8056H23.1779L23.1799 94.6406L16.3689 94.6376L16.3659 96.8046H17.6369L19.1319 103.779L17.3819 110.431H17.3229L14.1419 96.8006L15.4639 96.8026L15.4659 94.6366L8.50491 94.6326L8.50391 96.7976L9.56091 96.7986L13.4299 113.452C13.7309 114.796 14.0949 116.219 14.2099 117.585L17.8899 117.587C17.9809 116.58 18.2219 115.57 18.4929 114.597L20.0939 108.651H20.1539L21.4759 114.431C21.7169 115.473 21.9449 116.535 21.9849 117.59L25.6959 117.593C25.7279 116.686 26.0289 115.407 26.3299 114.098L30.1049 98.4096C30.3469 97.4336 30.5579 96.4606 30.9809 95.5536L30.3469 94.7126C29.9569 94.7806 29.5639 94.8136 29.1719 94.8126C27.9079 94.8126 27.9079 94.4756 27.0939 94.4756C24.9309 94.4746 23.9509 97.0976 23.3029 99.0686L23.7309 99.3546C23.8949 99.0346 24.1529 98.7766 24.5579 98.7336C25.4179 98.6396 25.8299 99.1916 26.7349 99.3736C27.0729 99.4406 27.4749 99.3446 27.6259 99.3106L25.0969 110.636H25.0369L22.1509 96.8056Z" fill="#B5292F"/>
<path d="M183.963 116.25C183.963 117.104 183.317 117.755 182.466 117.755C181.615 117.755 180.967 117.104 180.967 116.25C180.967 115.396 181.615 114.746 182.466 114.746C183.317 114.746 183.963 115.396 183.963 116.25ZM184.252 116.25C184.252 115.232 183.48 114.458 182.466 114.458C181.453 114.458 180.682 115.232 180.682 116.25C180.682 117.269 181.453 118.043 182.466 118.043C183.479 118.043 184.252 117.269 184.252 116.25ZM183.281 115.829C183.281 115.421 182.99 115.237 182.644 115.237H181.788V117.193H182.12V116.439H182.496L182.876 117.193H183.268L182.867 116.404C183.119 116.329 183.281 116.137 183.281 115.829ZM182.945 115.839C182.945 116.032 182.811 116.116 182.633 116.116H182.119V115.559H182.633C182.812 115.56 182.945 115.655 182.945 115.839Z" fill="#B5292F"/>
</svg>
